<?xml version="1.0" encoding="iso-8859-1"?>
<!-- Generator: Adobe Illustrator 15.1.0, SVG Export Plug-In . SVG Version: 6.00 Build 0)  -->
<!DOCTYPE svg PUBLIC "-//W3C//DTD SVG 1.1//EN" "http://www.w3.org/Graphics/SVG/1.1/DTD/svg11.dtd">
<svg version="1.1" id="Layer_1" xmlns="http://www.w3.org/2000/svg" xmlns:xlink="http://www.w3.org/1999/xlink" x="0px" y="0px"
	 width="16px" height="16px" viewBox="0 0 16 16" style="enable-background:new 0 0 16 16;" xml:space="preserve">
<g>
	<path style="fill:#FFFFFF;" d="M1.919,3.241h12.162c0.276,0,0.5-0.224,0.5-0.5s-0.224-0.5-0.5-0.5H1.919
		c-0.276,0-0.5,0.224-0.5,0.5S1.643,3.241,1.919,3.241z"/>
	<path style="fill:#FFFFFF;" d="M1.985,4.871c-0.276,0-0.5,0.224-0.5,0.5s0.224,0.5,0.5,0.5H10.4c0.276,0,0.5-0.224,0.5-0.5
		s-0.224-0.5-0.5-0.5H1.985z"/>
	<path style="fill:#FFFFFF;" d="M13.949,7.5H1.919c-0.276,0-0.5,0.224-0.5,0.5s0.224,0.5,0.5,0.5h12.03c0.276,0,0.5-0.224,0.5-0.5
		S14.226,7.5,13.949,7.5z"/>
	<path style="fill:#FFFFFF;" d="M13.949,12.76H1.919c-0.276,0-0.5,0.223-0.5,0.5c0,0.275,0.224,0.5,0.5,0.5h12.03
		c0.276,0,0.5-0.225,0.5-0.5C14.449,12.982,14.226,12.76,13.949,12.76z"/>
	<path style="fill:#FFFFFF;" d="M10.269,11.129c0.276,0,0.5-0.223,0.5-0.5c0-0.275-0.224-0.5-0.5-0.5H2.116
		c-0.276,0-0.5,0.225-0.5,0.5c0,0.277,0.224,0.5,0.5,0.5H10.269z"/>
</g>
</svg>
