<?xml version="1.0" encoding="iso-8859-1"?>
<!-- Generator: Adobe Illustrator 15.1.0, SVG Export Plug-In . SVG Version: 6.00 Build 0)  -->
<!DOCTYPE svg PUBLIC "-//W3C//DTD SVG 1.1//EN" "http://www.w3.org/Graphics/SVG/1.1/DTD/svg11.dtd">
<svg version="1.1" id="Layer_1" xmlns="http://www.w3.org/2000/svg" xmlns:xlink="http://www.w3.org/1999/xlink" x="0px" y="0px"
	 width="16px" height="16px" viewBox="0 0 16 16" style="enable-background:new 0 0 16 16;" xml:space="preserve">
<g>
	<path style="fill:#FFFFFF;" d="M1.919,3.339h12.162c0.276,0,0.5-0.224,0.5-0.5s-0.224-0.5-0.5-0.5H1.919
		c-0.276,0-0.5,0.224-0.5,0.5S1.643,3.339,1.919,3.339z"/>
	<path style="fill:#FFFFFF;" d="M14.081,7.402H1.919c-0.276,0-0.5,0.224-0.5,0.5s0.224,0.5,0.5,0.5h12.162
		c0.276,0,0.5-0.224,0.5-0.5S14.357,7.402,14.081,7.402z"/>
	<path style="fill:#FFFFFF;" d="M14.081,4.969h-6.64c-0.276,0-0.5,0.224-0.5,0.5s0.224,0.5,0.5,0.5h6.64c0.276,0,0.5-0.224,0.5-0.5
		S14.357,4.969,14.081,4.969z"/>
	<path style="fill:#FFFFFF;" d="M14.081,12.66H1.919c-0.276,0-0.5,0.225-0.5,0.5c0,0.277,0.224,0.5,0.5,0.5h12.162
		c0.276,0,0.5-0.223,0.5-0.5C14.581,12.885,14.357,12.66,14.081,12.66z"/>
	<path style="fill:#FFFFFF;" d="M14.081,10.229h-6.64c-0.276,0-0.5,0.223-0.5,0.5c0,0.275,0.224,0.5,0.5,0.5h6.64
		c0.276,0,0.5-0.225,0.5-0.5C14.581,10.451,14.357,10.229,14.081,10.229z"/>
</g>
</svg>
