<?xml version="1.0" encoding="utf-8"?>
<!-- Generator: Adobe Illustrator 19.1.1, SVG Export Plug-In . SVG Version: 6.00 Build 0)  -->
<svg version="1.1" id="Layer_1" xmlns="http://www.w3.org/2000/svg" xmlns:xlink="http://www.w3.org/1999/xlink" x="0px" y="0px"
	 viewBox="0 0 16 16" style="enable-background:new 0 0 16 16;" xml:space="preserve">
<style type="text/css">
	.st0{fill:#030202;}
</style>
<path class="st0" d="M14.7,0H1.3C0.6,0,0,0.6,0,1.3v13.4C0,15.4,0.6,16,1.3,16h13.4c0.7,0,1.3-0.6,1.3-1.3V1.3C16,0.6,15.4,0,14.7,0
	z M15.5,14.7c0,0.4-0.3,0.8-0.8,0.8H1.3c-0.4,0-0.8-0.3-0.8-0.8v-4l4.9-4.9L8,8.4l4.9-4.9V8h0.5V2.6H8v0.5h4.5L8,7.6L5.4,5.1L0.5,10
	V1.3c0-0.4,0.3-0.8,0.8-0.8h13.4c0.4,0,0.8,0.3,0.8,0.8V14.7z"/>
</svg>
