<?xml version="1.0" encoding="utf-8"?>
<!-- Generator: Adobe Illustrator 19.1.1, SVG Export Plug-In . SVG Version: 6.00 Build 0)  -->
<svg version="1.1" id="Layer_1" xmlns="http://www.w3.org/2000/svg" xmlns:xlink="http://www.w3.org/1999/xlink" x="0px" y="0px"
	 viewBox="0 0 16 16" style="enable-background:new 0 0 16 16;" xml:space="preserve">
<style type="text/css">
	.st0{fill:#030202;}
</style>
<path class="st0" d="M8,0C3.6,0,0,3.6,0,8c0,4.4,3.6,8,8,8c4.4,0,8-3.6,8-8C16,3.6,12.4,0,8,0z M8,0.5c4,0,7.3,3.2,7.5,7.2h-2.4
	l-2.5,2.5L5.4,5.1L2.7,7.7H0.5C0.7,3.7,4,0.5,8,0.5z M8,15.5c-4,0-7.3-3.2-7.5-7.2h2.4l2.5-2.5l5.2,5.2l2.7-2.7h2.2
	C15.3,12.3,12,15.5,8,15.5z"/>
</svg>
