<?xml version="1.0" encoding="iso-8859-1"?>
<!-- Generator: Adobe Illustrator 15.1.0, SVG Export Plug-In . SVG Version: 6.00 Build 0)  -->
<!DOCTYPE svg PUBLIC "-//W3C//DTD SVG 1.1//EN" "http://www.w3.org/Graphics/SVG/1.1/DTD/svg11.dtd">
<svg version="1.1" id="Layer_1" xmlns="http://www.w3.org/2000/svg" xmlns:xlink="http://www.w3.org/1999/xlink" x="0px" y="0px"
	 width="16px" height="16px" viewBox="0 0 16 16" style="enable-background:new 0 0 16 16;" xml:space="preserve">
<g>
	<path style="fill:#FFFFFF;" d="M13.54,6.958l-5.519,5.561L2.459,6.957c-0.195-0.195-0.512-0.195-0.707,0s-0.195,0.512,0,0.707
		l5.917,5.917c0.094,0.094,0.221,0.146,0.354,0.146h0.001c0.133,0,0.261-0.054,0.354-0.147l5.872-5.917
		c0.195-0.196,0.193-0.513-0.002-0.707C14.05,6.758,13.733,6.762,13.54,6.958z"/>
	<path style="fill:#FFFFFF;" d="M7.669,9.044C7.763,9.138,7.89,9.19,8.022,9.19h0.001c0.133,0,0.261-0.054,0.354-0.147l5.872-5.917
		c0.195-0.196,0.193-0.513-0.002-0.707c-0.197-0.196-0.514-0.194-0.707,0.002L8.021,7.983L2.459,2.42
		c-0.195-0.195-0.512-0.195-0.707,0s-0.195,0.512,0,0.707L7.669,9.044z"/>
</g>
</svg>
