<?xml version="1.0" encoding="iso-8859-1"?>
<!-- Generator: Adobe Illustrator 15.1.0, SVG Export Plug-In . SVG Version: 6.00 Build 0)  -->
<!DOCTYPE svg PUBLIC "-//W3C//DTD SVG 1.1//EN" "http://www.w3.org/Graphics/SVG/1.1/DTD/svg11.dtd">
<svg version="1.1" id="Layer_1" xmlns="http://www.w3.org/2000/svg" xmlns:xlink="http://www.w3.org/1999/xlink" x="0px" y="0px"
	 width="16px" height="16px" viewBox="0 0 16 16" style="enable-background:new 0 0 16 16;" xml:space="preserve">
<g>
	<path style="fill:#FFFFFF;" d="M13.579,7.624L7.662,1.751C7.465,1.554,7.148,1.558,6.955,1.753C6.76,1.95,6.762,2.266,6.957,2.46
		l5.562,5.519l-5.563,5.562c-0.195,0.195-0.195,0.512,0,0.707c0.098,0.098,0.226,0.146,0.354,0.146s0.256-0.049,0.354-0.146
		l5.917-5.917c0.094-0.094,0.146-0.222,0.146-0.354S13.673,7.716,13.579,7.624z"/>
	<path style="fill:#FFFFFF;" d="M9.19,7.977c0-0.133-0.054-0.261-0.147-0.354L3.126,1.751C2.93,1.554,2.613,1.558,2.419,1.753
		C2.224,1.95,2.226,2.266,2.421,2.46l5.562,5.519L2.42,13.541c-0.195,0.195-0.195,0.512,0,0.707
		c0.098,0.098,0.226,0.146,0.354,0.146s0.256-0.049,0.354-0.146l5.917-5.917C9.138,8.238,9.19,8.11,9.19,7.977z"/>
</g>
</svg>
