<?xml version="1.0" encoding="iso-8859-1"?>
<!-- Generator: Adobe Illustrator 15.1.0, SVG Export Plug-In . SVG Version: 6.00 Build 0)  -->
<!DOCTYPE svg PUBLIC "-//W3C//DTD SVG 1.1//EN" "http://www.w3.org/Graphics/SVG/1.1/DTD/svg11.dtd">
<svg version="1.1" id="Layer_1" xmlns="http://www.w3.org/2000/svg" xmlns:xlink="http://www.w3.org/1999/xlink" x="0px" y="0px"
	 width="16px" height="16px" viewBox="0 0 16 16" style="enable-background:new 0 0 16 16;" xml:space="preserve">
<g>
	<path style="fill:#FFFFFF;" d="M11.33,7.5H5.89l2.646-2.646c0.195-0.195,0.195-0.512,0-0.707s-0.512-0.195-0.707,0L4.315,7.66
		C4.222,7.753,4.169,7.881,4.169,8.014c0.001,0.133,0.054,0.26,0.148,0.354l3.513,3.488C7.928,11.953,8.055,12,8.183,12
		s0.257-0.049,0.354-0.146c0.194-0.197,0.193-0.514-0.003-0.707L5.869,8.5h5.461c0.276,0,0.5-0.224,0.5-0.5S11.606,7.5,11.33,7.5z"
		/>
	<path style="fill:#FFFFFF;" d="M8,1.802c-3.417,0-6.197,2.78-6.197,6.197c0,3.418,2.78,6.198,6.197,6.198S14.197,11.418,14.197,8
		C14.197,4.583,11.417,1.802,8,1.802z M8,13.197c-2.865,0-5.197-2.332-5.197-5.198c0-2.866,2.332-5.197,5.197-5.197
		S13.197,5.133,13.197,8C13.197,10.865,10.865,13.197,8,13.197z"/>
</g>
</svg>
