<?xml version="1.0" encoding="iso-8859-1"?>
<!-- Generator: Adobe Illustrator 15.1.0, SVG Export Plug-In . SVG Version: 6.00 Build 0)  -->
<!DOCTYPE svg PUBLIC "-//W3C//DTD SVG 1.1//EN" "http://www.w3.org/Graphics/SVG/1.1/DTD/svg11.dtd">
<svg version="1.1" id="Layer_1" xmlns="http://www.w3.org/2000/svg" xmlns:xlink="http://www.w3.org/1999/xlink" x="0px" y="0px"
	 width="16px" height="16px" viewBox="0 0 16 16" style="enable-background:new 0 0 16 16;" xml:space="preserve">
<g>
	<path style="fill:#FFFFFF;" d="M11.853,7.463c-0.197-0.197-0.514-0.193-0.707,0.002L8.5,10.131V4.669c0-0.276-0.224-0.5-0.5-0.5
		s-0.5,0.224-0.5,0.5v5.442L4.854,7.464c-0.195-0.195-0.512-0.195-0.707,0s-0.195,0.512,0,0.707l3.513,3.514
		c0.094,0.094,0.221,0.146,0.354,0.146h0.001c0.133,0,0.261-0.054,0.354-0.147l3.487-3.514C12.05,7.974,12.048,7.657,11.853,7.463z"
		/>
	<path style="fill:#FFFFFF;" d="M8,1.803c-3.417,0-6.197,2.78-6.197,6.197S4.583,14.197,8,14.197s6.197-2.78,6.197-6.197
		S11.417,1.803,8,1.803z M8,13.197c-2.866,0-5.197-2.331-5.197-5.197S5.134,2.803,8,2.803S13.197,5.134,13.197,8
		S10.866,13.197,8,13.197z"/>
</g>
</svg>
