<?xml version="1.0" encoding="iso-8859-1"?>
<!-- Generator: Adobe Illustrator 15.1.0, SVG Export Plug-In . SVG Version: 6.00 Build 0)  -->
<!DOCTYPE svg PUBLIC "-//W3C//DTD SVG 1.1//EN" "http://www.w3.org/Graphics/SVG/1.1/DTD/svg11.dtd">
<svg version="1.1" id="Layer_1" xmlns="http://www.w3.org/2000/svg" xmlns:xlink="http://www.w3.org/1999/xlink" x="0px" y="0px"
	 width="16px" height="16px" viewBox="0 0 16 16" style="enable-background:new 0 0 16 16;" xml:space="preserve">
<path style="fill:#FFFFFF;" d="M13.61,7.5H3.62l5.041-5.041c0.195-0.195,0.195-0.512,0-0.707s-0.512-0.195-0.707,0L2.036,7.669
	C1.942,7.763,1.89,7.891,1.89,8.023s0.054,0.261,0.147,0.354l5.918,5.872c0.098,0.098,0.226,0.146,0.353,0.146
	c0.129,0,0.257-0.05,0.354-0.147c0.195-0.196,0.193-0.513-0.002-0.707L3.581,8.5H13.61c0.276,0,0.5-0.224,0.5-0.5
	S13.887,7.5,13.61,7.5z"/>
</svg>
