<?xml version="1.0" encoding="iso-8859-1"?>
<!-- Generator: Adobe Illustrator 15.1.0, SVG Export Plug-In . SVG Version: 6.00 Build 0)  -->
<!DOCTYPE svg PUBLIC "-//W3C//DTD SVG 1.1//EN" "http://www.w3.org/Graphics/SVG/1.1/DTD/svg11.dtd">
<svg version="1.1" id="Layer_1" xmlns="http://www.w3.org/2000/svg" xmlns:xlink="http://www.w3.org/1999/xlink" x="0px" y="0px"
	 width="16px" height="16px" viewBox="0 0 16 16" style="enable-background:new 0 0 16 16;" xml:space="preserve">
<path style="fill:#FFFFFF;" d="M13.963,7.624L8.046,1.751C7.849,1.554,7.533,1.558,7.339,1.753C7.144,1.95,7.146,2.266,7.341,2.46
	L12.42,7.5H2.39c-0.276,0-0.5,0.224-0.5,0.5s0.224,0.5,0.5,0.5h9.991L7.34,13.541c-0.195,0.195-0.195,0.512,0,0.707
	c0.098,0.098,0.226,0.146,0.354,0.146s0.256-0.049,0.354-0.146l5.917-5.917c0.094-0.094,0.146-0.222,0.146-0.354
	S14.057,7.716,13.963,7.624z"/>
</svg>
