<?xml version="1.0" encoding="iso-8859-1"?>
<!-- Generator: Adobe Illustrator 15.1.0, SVG Export Plug-In . SVG Version: 6.00 Build 0)  -->
<!DOCTYPE svg PUBLIC "-//W3C//DTD SVG 1.1//EN" "http://www.w3.org/Graphics/SVG/1.1/DTD/svg11.dtd">
<svg version="1.1" id="Layer_1" xmlns="http://www.w3.org/2000/svg" xmlns:xlink="http://www.w3.org/1999/xlink" x="0px" y="0px"
	 width="16px" height="16px" viewBox="0 0 16 16" style="enable-background:new 0 0 16 16;" xml:space="preserve">
<g>
	<path style="fill:#FFFFFF;" d="M11.685,7.66L8.172,4.147c-0.195-0.195-0.512-0.195-0.707,0s-0.195,0.512,0,0.707L10.111,7.5H4.67
		c-0.276,0-0.5,0.224-0.5,0.5s0.224,0.5,0.5,0.5h5.461l-2.665,2.646c-0.196,0.193-0.197,0.51-0.003,0.707
		C7.561,11.951,7.689,12,7.818,12c0.127,0,0.255-0.049,0.352-0.145l3.514-3.488c0.094-0.094,0.146-0.221,0.147-0.354
		C11.831,7.881,11.779,7.753,11.685,7.66z"/>
	<path style="fill:#FFFFFF;" d="M8,1.802c-3.417,0-6.197,2.78-6.197,6.197c0,3.418,2.78,6.198,6.197,6.198S14.197,11.418,14.197,8
		C14.197,4.583,11.417,1.802,8,1.802z M8,13.197c-2.865,0-5.197-2.332-5.197-5.198c0-2.866,2.332-5.197,5.197-5.197
		S13.197,5.133,13.197,8C13.197,10.865,10.865,13.197,8,13.197z"/>
</g>
</svg>
