<?xml version="1.0" encoding="iso-8859-1"?>
<!-- Generator: Adobe Illustrator 15.1.0, SVG Export Plug-In . SVG Version: 6.00 Build 0)  -->
<!DOCTYPE svg PUBLIC "-//W3C//DTD SVG 1.1//EN" "http://www.w3.org/Graphics/SVG/1.1/DTD/svg11.dtd">
<svg version="1.1" id="Layer_1" xmlns="http://www.w3.org/2000/svg" xmlns:xlink="http://www.w3.org/1999/xlink" x="0px" y="0px"
	 width="16px" height="16px" viewBox="0 0 16 16" style="enable-background:new 0 0 16 16;" xml:space="preserve">
<path style="fill:#FFFFFF;" d="M9.537,5.764v0.353C9.106,5.765,8.564,5.565,8,5.565C6.658,5.565,5.566,6.657,5.566,8
	c0,1.342,1.092,2.434,2.434,2.434c0.795,0,1.534-0.393,1.986-1.029c0.45,0.637,1.188,1.029,1.984,1.029
	c1.343,0,2.436-1.092,2.436-2.434c0-3.532-2.874-6.405-6.406-6.405S1.594,4.468,1.594,8S4.468,14.405,8,14.405
	c1.694,0,3.294-0.656,4.503-1.849l0.178-0.176l-0.632-0.639l-0.178,0.176c-1.037,1.025-2.412,1.59-3.871,1.59
	c-3.037,0-5.509-2.471-5.509-5.508S4.963,2.492,8,2.492S13.508,4.963,13.508,8c0,0.848-0.689,1.537-1.537,1.537
	S10.434,8.848,10.434,8V5.764H9.537z M8,9.537C7.152,9.537,6.463,8.848,6.463,8S7.152,6.463,8,6.463S9.537,7.152,9.537,8
	S8.848,9.537,8,9.537z"/>
</svg>
