<?xml version="1.0" encoding="utf-8"?>
<!-- Generator: Adobe Illustrator 15.1.0, SVG Export Plug-In . SVG Version: 6.00 Build 0)  -->
<!DOCTYPE svg PUBLIC "-//W3C//DTD SVG 1.1//EN" "http://www.w3.org/Graphics/SVG/1.1/DTD/svg11.dtd">
<svg version="1.1" id="Layer_1" xmlns="http://www.w3.org/2000/svg" xmlns:xlink="http://www.w3.org/1999/xlink" x="0px" y="0px"
	 width="16px" height="16px" viewBox="0 0 16 16" enable-background="new 0 0 16 16" xml:space="preserve">
<path fill="#FFFFFF" d="M1.997,7.72c0.019,0.07,0.051,0.135,0.101,0.193c0.006,0.006,0.006,0.014,0.012,0.02l0.012,0.013
	C2.122,7.947,2.123,7.949,2.124,7.95s0.002,0.001,0.003,0.001L7.275,13.4c0.188,0.201,0.505,0.209,0.707,0.021
	s0.209-0.506,0.02-0.707L3.593,8.047C4.5,8.034,6.133,8.045,9.001,8.133c1.406,0.043,2.457,0.489,3.123,1.325
	c1.297,1.629,0.799,4.252,0.794,4.276c-0.053,0.272,0.122,0.535,0.394,0.588c0.034,0.007,0.066,0.011,0.099,0.011
	c0.233,0,0.441-0.164,0.489-0.401c0.025-0.125,0.597-3.096-0.988-5.092c-0.857-1.079-2.163-1.653-3.878-1.706
	C6.291,7.05,4.654,7.039,3.693,7.049l4.392-4.535C8.277,2.316,8.271,2,8.073,1.807C7.876,1.615,7.56,1.62,7.366,1.819L2.113,7.244
	C2.063,7.296,2.027,7.357,2.004,7.421c0,0.001-0.002,0.002-0.002,0.003C2,7.429,2.003,7.435,2.001,7.439
	C1.977,7.513,1.975,7.588,1.986,7.664C1.988,7.684,1.993,7.702,1.997,7.72z"/>
</svg>
