<?xml version="1.0" encoding="utf-8"?>
<!-- Generator: Adobe Illustrator 19.1.1, SVG Export Plug-In . SVG Version: 6.00 Build 0)  -->
<svg version="1.1" id="Layer_1" xmlns="http://www.w3.org/2000/svg" xmlns:xlink="http://www.w3.org/1999/xlink" x="0px" y="0px"
	 viewBox="0 0 16 16" style="enable-background:new 0 0 16 16;" xml:space="preserve">
<g>
	<path d="M14.7,0H1.3C0.6,0,0,0.6,0,1.3v13.4C0,15.4,0.6,16,1.3,16h13.4c0.7,0,1.3-0.6,1.3-1.3V1.3C16,0.6,15.4,0,14.7,0z
		 M15.5,14.7c0,0.4-0.3,0.8-0.8,0.8H1.3c-0.4,0-0.8-0.3-0.8-0.8V1.3c0-0.4,0.3-0.8,0.8-0.8h13.4c0.4,0,0.8,0.3,0.8,0.8V14.7z"/>
	<rect x="12.9" y="2.8" width="0.5" height="10.3"/>
	<rect x="10.3" y="5.4" width="0.5" height="7.7"/>
	<rect x="7.7" y="8" width="0.5" height="5.2"/>
	<rect x="5.2" y="8" width="0.5" height="5.2"/>
	<rect x="2.6" y="10.6" width="0.5" height="2.6"/>
</g>
</svg>
