<?xml version="1.0" encoding="iso-8859-1"?>
<!-- Generator: Adobe Illustrator 15.1.0, SVG Export Plug-In . SVG Version: 6.00 Build 0)  -->
<!DOCTYPE svg PUBLIC "-//W3C//DTD SVG 1.1//EN" "http://www.w3.org/Graphics/SVG/1.1/DTD/svg11.dtd">
<svg version="1.1" id="Layer_1" xmlns="http://www.w3.org/2000/svg" xmlns:xlink="http://www.w3.org/1999/xlink" x="0px" y="0px"
	 width="16px" height="16px" viewBox="0 0 16 16" style="enable-background:new 0 0 16 16;" xml:space="preserve">
<g>
	<path style="fill:#FFFFFF;" d="M3.443,9.751c0.276,0,0.5-0.224,0.5-0.5V6.749c0-0.276-0.224-0.5-0.5-0.5s-0.5,0.224-0.5,0.5v2.502
		C2.943,9.527,3.167,9.751,3.443,9.751z"/>
	<path style="fill:#FFFFFF;" d="M5.118,9.751c0.276,0,0.5-0.224,0.5-0.5V6.749c0-0.276-0.224-0.5-0.5-0.5s-0.5,0.224-0.5,0.5v2.502
		C4.618,9.527,4.842,9.751,5.118,9.751z"/>
	<path style="fill:#FFFFFF;" d="M6.794,9.751c0.276,0,0.5-0.224,0.5-0.5V6.749c0-0.276-0.224-0.5-0.5-0.5s-0.5,0.224-0.5,0.5v2.502
		C6.294,9.527,6.518,9.751,6.794,9.751z"/>
	<path style="fill:#FFFFFF;" d="M8.469,9.751c0.276,0,0.5-0.224,0.5-0.5V6.749c0-0.276-0.224-0.5-0.5-0.5s-0.5,0.224-0.5,0.5v2.502
		C7.969,9.527,8.192,9.751,8.469,9.751z"/>
	<path style="fill:#FFFFFF;" d="M10.156,9.751c0.276,0,0.5-0.224,0.5-0.5V6.749c0-0.276-0.224-0.5-0.5-0.5s-0.5,0.224-0.5,0.5v2.502
		C9.656,9.527,9.88,9.751,10.156,9.751z"/>
	<path style="fill:#FFFFFF;" d="M11.844,9.751c0.276,0,0.5-0.224,0.5-0.5V6.749c0-0.276-0.224-0.5-0.5-0.5s-0.5,0.224-0.5,0.5v2.502
		C11.344,9.527,11.567,9.751,11.844,9.751z"/>
	<path style="fill:#FFFFFF;" d="M14.262,6.44h-0.223V5.495c0-0.276-0.224-0.5-0.5-0.5H1.738c-0.276,0-0.5,0.224-0.5,0.5v5.01
		c0,0.276,0.224,0.5,0.5,0.5h11.801c0.276,0,0.5-0.224,0.5-0.5V9.681h0.223c0.276,0,0.5-0.224,0.5-0.5V6.94
		C14.762,6.664,14.538,6.44,14.262,6.44z M13.039,10.005H2.238v-4.01h10.801V10.005z"/>
</g>
</svg>
