<?xml version="1.0" encoding="iso-8859-1"?>
<!-- Generator: Adobe Illustrator 15.1.0, SVG Export Plug-In . SVG Version: 6.00 Build 0)  -->
<!DOCTYPE svg PUBLIC "-//W3C//DTD SVG 1.1//EN" "http://www.w3.org/Graphics/SVG/1.1/DTD/svg11.dtd">
<svg version="1.1" id="Layer_1" xmlns="http://www.w3.org/2000/svg" xmlns:xlink="http://www.w3.org/1999/xlink" x="0px" y="0px"
	 width="16px" height="16px" viewBox="0 0 16 16" style="enable-background:new 0 0 16 16;" xml:space="preserve">
<g>
	<path style="fill:#FFFFFF;" d="M3.444,9.752c0.276,0,0.5-0.224,0.5-0.5V6.749c0-0.276-0.224-0.5-0.5-0.5s-0.5,0.224-0.5,0.5v2.503
		C2.944,9.528,3.167,9.752,3.444,9.752z"/>
	<path style="fill:#FFFFFF;" d="M5.119,9.752c0.276,0,0.5-0.224,0.5-0.5V6.749c0-0.276-0.224-0.5-0.5-0.5s-0.5,0.224-0.5,0.5v2.503
		C4.619,9.528,4.842,9.752,5.119,9.752z"/>
	<path style="fill:#FFFFFF;" d="M6.793,9.752c0.276,0,0.5-0.224,0.5-0.5V6.749c0-0.276-0.224-0.5-0.5-0.5s-0.5,0.224-0.5,0.5v2.503
		C6.293,9.528,6.517,9.752,6.793,9.752z"/>
	<path style="fill:#FFFFFF;" d="M8.469,9.752c0.276,0,0.5-0.224,0.5-0.5V6.749c0-0.276-0.224-0.5-0.5-0.5s-0.5,0.224-0.5,0.5v2.503
		C7.969,9.528,8.193,9.752,8.469,9.752z"/>
	<path style="fill:#FFFFFF;" d="M14.262,6.441h-0.223V5.495c0-0.276-0.225-0.5-0.5-0.5H1.738c-0.276,0-0.5,0.224-0.5,0.5v5.01
		c0,0.276,0.224,0.5,0.5,0.5h11.801c0.275,0,0.5-0.224,0.5-0.5V9.682h0.223c0.277,0,0.5-0.224,0.5-0.5v-2.24
		C14.762,6.665,14.539,6.441,14.262,6.441z M13.039,10.005H2.238v-4.01h10.801V10.005z"/>
</g>
</svg>
