<?xml version="1.0" encoding="iso-8859-1"?>
<!-- Generator: Adobe Illustrator 15.1.0, SVG Export Plug-In . SVG Version: 6.00 Build 0)  -->
<!DOCTYPE svg PUBLIC "-//W3C//DTD SVG 1.1//EN" "http://www.w3.org/Graphics/SVG/1.1/DTD/svg11.dtd">
<svg version="1.1" id="Layer_1" xmlns="http://www.w3.org/2000/svg" xmlns:xlink="http://www.w3.org/1999/xlink" x="0px" y="0px"
	 width="16px" height="16px" viewBox="0 0 16 16" style="enable-background:new 0 0 16 16;" xml:space="preserve">
<path style="fill:#FFFFFF;" d="M10.482,8.021c1.133-0.613,1.939-1.749,1.939-3.001c0-2.051-2.018-3.48-3.831-3.48
	c-0.004,0-0.007,0.002-0.011,0.002c-0.005,0-0.008-0.002-0.012-0.002h-4.47c-0.214,0-0.393,0.135-0.464,0.322
	C3.601,1.929,3.578,2.002,3.578,2.083V8c0,0.008,0.004,0.015,0.005,0.022C3.582,8.029,3.578,8.036,3.578,8.044v5.917
	c0,0.276,0.224,0.5,0.5,0.5c0.013,0,0.022-0.006,0.035-0.007c0.011,0,0.02,0.006,0.03,0.006h4.558c0.008,0,0.014-0.004,0.021-0.004
	c1.975-0.023,3.7-1.636,3.7-3.477C12.422,9.69,11.57,8.62,10.482,8.021z M11.422,5.02c0,1.298-1.307,2.479-2.743,2.479
	C8.677,7.499,8.676,7.5,8.674,7.5H8.569H4.578V2.539h3.991c0.004,0,0.007-0.002,0.012-0.002c0.004,0,0.007,0.002,0.011,0.002
	C9.9,2.539,11.422,3.623,11.422,5.02z M8.679,13.46H4.578V8.5h3.991h0.022c1.309,0,2.831,1.083,2.831,2.479
	C11.422,12.277,10.115,13.46,8.679,13.46z"/>
</svg>
