<?xml version="1.0" encoding="iso-8859-1"?>
<!-- Generator: Adobe Illustrator 15.1.0, SVG Export Plug-In . SVG Version: 6.00 Build 0)  -->
<!DOCTYPE svg PUBLIC "-//W3C//DTD SVG 1.1//EN" "http://www.w3.org/Graphics/SVG/1.1/DTD/svg11.dtd">
<svg version="1.1" id="Layer_1" xmlns="http://www.w3.org/2000/svg" xmlns:xlink="http://www.w3.org/1999/xlink" x="0px" y="0px"
	 width="16px" height="16px" viewBox="0 0 16 16" style="enable-background:new 0 0 16 16;" xml:space="preserve">
<g>
	<path style="fill:#FFFFFF;" d="M14.666,0.979H3c-0.276,0-0.5,0.224-0.5,0.5v2.042H0.833v1H2.5v2H0.833v1H2.5v2H0.833v1H2.5v2H0.833
		v1H2.5v1c0,0.275,0.224,0.5,0.5,0.5h11.667c0.277,0,0.5-0.225,0.5-0.5V1.479C15.166,1.203,14.943,0.979,14.666,0.979z
		 M14.166,14.021H3.5V1.979h10.667V14.021z"/>
	<path style="fill:#FFFFFF;" d="M5.25,6.854h7.167c0.277,0,0.5-0.224,0.5-0.5V3.785c0-0.276-0.223-0.5-0.5-0.5H5.25
		c-0.276,0-0.5,0.224-0.5,0.5v2.569C4.75,6.63,4.973,6.854,5.25,6.854z M5.75,4.285h6.167v1.569H5.75V4.285z"/>
</g>
</svg>
