<?xml version="1.0" encoding="iso-8859-1"?>
<!-- Generator: Adobe Illustrator 15.1.0, SVG Export Plug-In . SVG Version: 6.00 Build 0)  -->
<!DOCTYPE svg PUBLIC "-//W3C//DTD SVG 1.1//EN" "http://www.w3.org/Graphics/SVG/1.1/DTD/svg11.dtd">
<svg version="1.1" id="Layer_1" xmlns="http://www.w3.org/2000/svg" xmlns:xlink="http://www.w3.org/1999/xlink" x="0px" y="0px"
	 width="16px" height="16px" viewBox="0 0 16 16" style="enable-background:new 0 0 16 16;" xml:space="preserve">
<path style="fill:#FFFFFF;" d="M14.835,1.797H9.613c-0.647,0-1.235,0.294-1.614,0.788C7.62,2.096,7.023,1.797,6.386,1.797h-5.22
	L1.095,1.8C0.894,1.833,0.742,2.014,0.742,2.222v10.214c0,0.23,0.193,0.424,0.424,0.424h5.22c0.592,0,1.097,0.438,1.172,0.982
	c0,0.209,0.187,0.361,0.443,0.361c0.252,0,0.435-0.152,0.433-0.328c0.078-0.578,0.586-1.016,1.18-1.016h5.222
	c0.229,0,0.423-0.193,0.423-0.424V2.222C15.258,1.995,15.061,1.797,14.835,1.797z M9.613,2.646h4.791v9.366H9.613
	c-0.436,0-0.847,0.141-1.189,0.4V3.814C8.424,3.17,8.958,2.646,9.613,2.646z M1.59,2.646h4.796c0.656,0,1.19,0.524,1.19,1.169v8.602
	c-0.346-0.262-0.758-0.404-1.19-0.404H1.59V2.646z"/>
</svg>
