<?xml version="1.0" encoding="iso-8859-1"?>
<!-- Generator: Adobe Illustrator 15.1.0, SVG Export Plug-In . SVG Version: 6.00 Build 0)  -->
<!DOCTYPE svg PUBLIC "-//W3C//DTD SVG 1.1//EN" "http://www.w3.org/Graphics/SVG/1.1/DTD/svg11.dtd">
<svg version="1.1" id="Layer_1" xmlns="http://www.w3.org/2000/svg" xmlns:xlink="http://www.w3.org/1999/xlink" x="0px" y="0px"
	 width="16px" height="16px" viewBox="0 0 16 16" style="enable-background:new 0 0 16 16;" xml:space="preserve">
<path style="fill:#FFFFFF;" d="M11.251,3.459L10.024,2.67C9.825,2.543,9.563,2.571,9.397,2.74L4.663,7.562
	C4.475,7.754,4.472,8.061,4.656,8.256l4.734,4.997c0.098,0.103,0.229,0.156,0.363,0.156c0.081,0,0.162-0.02,0.237-0.06l1.139-0.614
	c0.16-0.087,0.261-0.253,0.263-0.436l0.088-8.415C11.482,3.713,11.396,3.553,11.251,3.459z M10.396,11.995l-0.542,0.292l-4.14-4.369
	l4.111-4.187l0.652,0.42L10.396,11.995z"/>
</svg>
