<?xml version="1.0" encoding="iso-8859-1"?>
<!-- Generator: Adobe Illustrator 15.1.0, SVG Export Plug-In . SVG Version: 6.00 Build 0)  -->
<!DOCTYPE svg PUBLIC "-//W3C//DTD SVG 1.1//EN" "http://www.w3.org/Graphics/SVG/1.1/DTD/svg11.dtd">
<svg version="1.1" id="Layer_1" xmlns="http://www.w3.org/2000/svg" xmlns:xlink="http://www.w3.org/1999/xlink" x="0px" y="0px"
	 width="16px" height="16px" viewBox="0 0 16 16" style="enable-background:new 0 0 16 16;" xml:space="preserve">
<path style="fill:#FFFFFF;" d="M13.35,6.009L12.735,4.87c-0.087-0.16-0.253-0.261-0.436-0.263L3.885,4.52c-0.001,0-0.003,0-0.005,0
	c-0.17,0-0.328,0.086-0.421,0.229L2.67,5.976C2.542,6.175,2.571,6.437,2.74,6.603l4.821,4.734c0.098,0.096,0.224,0.144,0.351,0.144
	c0.124,0,0.247-0.046,0.344-0.137l4.997-4.734C13.417,6.454,13.456,6.208,13.35,6.009z M7.918,10.286L3.731,6.175l0.42-0.652
	l7.844,0.082l0.292,0.542L7.918,10.286z"/>
</svg>
