<?xml version="1.0" encoding="iso-8859-1"?>
<!-- Generator: Adobe Illustrator 15.1.0, SVG Export Plug-In . SVG Version: 6.00 Build 0)  -->
<!DOCTYPE svg PUBLIC "-//W3C//DTD SVG 1.1//EN" "http://www.w3.org/Graphics/SVG/1.1/DTD/svg11.dtd">
<svg version="1.1" id="Layer_1" xmlns="http://www.w3.org/2000/svg" xmlns:xlink="http://www.w3.org/1999/xlink" x="0px" y="0px"
	 width="16px" height="16px" viewBox="0 0 16 16" style="enable-background:new 0 0 16 16;" xml:space="preserve">
<g>
	<path style="fill:#FFFFFF;" d="M6.646,11.104C6.744,11.201,6.872,11.25,7,11.25s0.256-0.049,0.354-0.146l5.5-5.5
		c0.195-0.195,0.195-0.512,0-0.707s-0.512-0.195-0.707,0L7,10.043L4.604,7.646c-0.195-0.195-0.512-0.195-0.707,0
		s-0.195,0.512,0,0.707L6.646,11.104z"/>
	<path style="fill:#FFFFFF;" d="M15,0.5H1C0.724,0.5,0.5,0.724,0.5,1v14c0,0.276,0.224,0.5,0.5,0.5h14c0.276,0,0.5-0.224,0.5-0.5V1
		C15.5,0.724,15.276,0.5,15,0.5z M14.5,14.5h-13v-13h13V14.5z"/>
</g>
</svg>
