<?xml version="1.0" encoding="utf-8"?>
<!-- Generator: Adobe Illustrator 19.0.0, SVG Export Plug-In . SVG Version: 6.00 Build 0)  -->
<svg version="1.1" id="Layer_1" xmlns="http://www.w3.org/2000/svg" xmlns:xlink="http://www.w3.org/1999/xlink" x="0px" y="0px"
	 viewBox="0 0 16 16" style="enable-background:new 0 0 16 16;" xml:space="preserve">
<g>
	<path d="M10.6,16H4.1c-1.6,0-2.8-1.3-2.8-2.8V9.3c0-0.9,0.7-1.5,1.5-1.5c0.4,0,0.8,0.1,1,0.4V1.5C3.9,0.7,4.6,0,5.4,0S7,0.7,7,1.5
		v4c0.3-0.2,0.6-0.4,1-0.4c0.5,0,1,0.3,1.3,0.7c0.3-0.4,0.8-0.7,1.3-0.7c0.7,0,1.3,0.5,1.5,1.1c0.3-0.3,0.7-0.5,1.1-0.5
		c0.9,0,1.5,0.7,1.5,1.5v4.5C14.7,14.1,12.9,16,10.6,16z M2.8,8.3c-0.6,0-1,0.5-1,1v3.9c0,1.3,1,2.3,2.3,2.3h6.5
		c2,0,3.6-1.6,3.6-3.6V7.4c0-0.6-0.5-1-1-1c-0.6,0-1,0.5-1,1h-0.5V6.7c0-0.6-0.5-1-1-1c-0.6,0-1,0.5-1,1H9c0-0.6-0.5-1-1-1
		c-0.6,0-1,0.5-1,1H6.5V1.5c0-0.6-0.5-1-1-1s-1,0.5-1,1v7.7H3.9C3.9,8.7,3.4,8.3,2.8,8.3z"/>
</g>
</svg>
