<?xml version="1.0" encoding="iso-8859-1"?>
<!-- Generator: Adobe Illustrator 15.1.0, SVG Export Plug-In . SVG Version: 6.00 Build 0)  -->
<!DOCTYPE svg PUBLIC "-//W3C//DTD SVG 1.1//EN" "http://www.w3.org/Graphics/SVG/1.1/DTD/svg11.dtd">
<svg version="1.1" id="Layer_1" xmlns="http://www.w3.org/2000/svg" xmlns:xlink="http://www.w3.org/1999/xlink" x="0px" y="0px"
	 width="16px" height="16px" viewBox="0 0 16 16" style="enable-background:new 0 0 16 16;" xml:space="preserve">
<g>
	<path style="fill:#FFFFFF;" d="M8,1.238C4.271,1.238,1.237,4.271,1.237,8S4.271,14.762,8,14.762S14.763,11.729,14.763,8
		S11.729,1.238,8,1.238z M8,13.762c-3.178,0-5.763-2.584-5.763-5.762c0-3.177,2.585-5.762,5.763-5.762S13.763,4.823,13.763,8
		C13.763,11.178,11.178,13.762,8,13.762z"/>
	<path style="fill:#FFFFFF;" d="M8.5,7.793V3.32c0-0.276-0.224-0.5-0.5-0.5s-0.5,0.224-0.5,0.5V8c0,0.133,0.053,0.26,0.146,0.354
		l2.573,2.574c0.098,0.098,0.226,0.146,0.354,0.146s0.256-0.049,0.354-0.146c0.195-0.195,0.195-0.512,0-0.707L8.5,7.793z"/>
</g>
</svg>
