<?xml version="1.0" encoding="utf-8"?>
<!-- Generator: Adobe Illustrator 19.0.0, SVG Export Plug-In . SVG Version: 6.00 Build 0)  -->
<svg version="1.1" id="Layer_1" xmlns="http://www.w3.org/2000/svg" xmlns:xlink="http://www.w3.org/1999/xlink" x="0px" y="0px"
	 viewBox="0 0 16 16" style="enable-background:new 0 0 16 16;" xml:space="preserve">
<g>
	<path d="M8,0C3.6,0,0,3.6,0,8c0,4.4,3.6,8,8,8c4.4,0,8-3.6,8-8C16,3.6,12.4,0,8,0z M8,15.5c-4.1,0-7.5-3.4-7.5-7.5
		c0-4.1,3.4-7.5,7.5-7.5c4.1,0,7.5,3.4,7.5,7.5C15.5,12.1,12.1,15.5,8,15.5z"/>
	<rect id="XMLID_5_" x="7.5" y="13.4" width="1" height="1"/>
	<rect id="XMLID_4_" x="7.5" y="1.6" width="1" height="1"/>
	<rect id="XMLID_3_" x="13.4" y="7.5" width="1" height="1"/>
	<rect id="XMLID_2_" x="1.6" y="7.5" width="1" height="1"/>
	<polygon id="XMLID_1_" points="12.8,4.3 8.3,7.5 7.7,7.5 4.3,5 4,5.4 7.5,7.9 7.5,8.5 8.5,8.5 8.5,8 13.1,4.7 	"/>
</g>
</svg>
