<?xml version="1.0" encoding="iso-8859-1"?>
<!-- Generator: Adobe Illustrator 15.1.0, SVG Export Plug-In . SVG Version: 6.00 Build 0)  -->
<!DOCTYPE svg PUBLIC "-//W3C//DTD SVG 1.1//EN" "http://www.w3.org/Graphics/SVG/1.1/DTD/svg11.dtd">
<svg version="1.1" id="Layer_1" xmlns="http://www.w3.org/2000/svg" xmlns:xlink="http://www.w3.org/1999/xlink" x="0px" y="0px"
	 width="16px" height="16px" viewBox="0 0 16 16" style="enable-background:new 0 0 16 16;" xml:space="preserve">
<path style="fill:#FFFFFF;" d="M13.077,7.916c0-0.019,0-0.039,0-0.059c0-2.65-2.156-4.806-4.839-4.806
	c-2.21,0-4.095,1.465-4.646,3.585C2.064,6.844,0.892,8.169,0.892,9.73v0.096c0,1.723,1.401,3.123,3.124,3.123h3.905
	c0.044,0,0.087-0.003,0.143-0.005c0.042,0.003,0.084,0.005,0.127,0.005h4.445c1.363,0,2.473-1.109,2.473-2.473V10.35
	C15.108,9.153,14.233,8.127,13.077,7.916z M4.016,11.941c-1.167,0-2.116-0.949-2.116-2.115V9.73c0-1.161,0.945-2.11,2.107-2.116
	L4.43,7.613l0.071-0.415C4.82,5.379,6.392,4.059,8.27,4.059c2.096,0,3.8,1.704,3.8,3.83c0,0.135-0.011,0.279-0.027,0.434
	l-0.066,0.562h0.66c0.808,0,1.465,0.657,1.465,1.465v0.127c0,0.808-0.657,1.465-1.465,1.465H8.19l-0.118-0.007L4.016,11.941z"/>
</svg>
