<?xml version="1.0" encoding="iso-8859-1"?>
<!-- Generator: Adobe Illustrator 15.1.0, SVG Export Plug-In . SVG Version: 6.00 Build 0)  -->
<!DOCTYPE svg PUBLIC "-//W3C//DTD SVG 1.1//EN" "http://www.w3.org/Graphics/SVG/1.1/DTD/svg11.dtd">
<svg version="1.1" id="Layer_1" xmlns="http://www.w3.org/2000/svg" xmlns:xlink="http://www.w3.org/1999/xlink" x="0px" y="0px"
	 width="16px" height="16px" viewBox="0 0 16 16" style="enable-background:new 0 0 16 16;" xml:space="preserve">
<g>
	<path style="fill:#FFFFFF;" d="M15.145,8.064l-3.25-3.25c-0.195-0.195-0.512-0.195-0.707,0s-0.195,0.512,0,0.707l2.896,2.896
		l-2.896,2.897c-0.195,0.195-0.195,0.512,0,0.707c0.098,0.098,0.227,0.146,0.354,0.146c0.129,0,0.256-0.049,0.354-0.146l3.25-3.25
		C15.34,8.576,15.34,8.259,15.145,8.064z"/>
	<path style="fill:#FFFFFF;" d="M4.812,4.814c-0.195-0.195-0.512-0.195-0.707,0l-3.25,3.25c-0.195,0.195-0.195,0.512,0,0.707
		l3.25,3.25c0.098,0.098,0.226,0.146,0.354,0.146s0.256-0.049,0.354-0.146c0.195-0.195,0.195-0.512,0-0.707L1.916,8.417l2.896-2.896
		C5.007,5.326,5.007,5.009,4.812,4.814z"/>
	<path style="fill:#FFFFFF;" d="M10.459,2.071c-0.26-0.094-0.545,0.042-0.639,0.302L5.899,13.291
		c-0.093,0.26,0.042,0.546,0.302,0.639c0.056,0.021,0.113,0.029,0.169,0.029c0.205,0,0.397-0.127,0.471-0.33L10.762,2.71
		C10.854,2.451,10.719,2.164,10.459,2.071z"/>
</g>
</svg>
