<?xml version="1.0" encoding="iso-8859-1"?>
<!-- Generator: Adobe Illustrator 15.1.0, SVG Export Plug-In . SVG Version: 6.00 Build 0)  -->
<!DOCTYPE svg PUBLIC "-//W3C//DTD SVG 1.1//EN" "http://www.w3.org/Graphics/SVG/1.1/DTD/svg11.dtd">
<svg version="1.1" id="Layer_1" xmlns="http://www.w3.org/2000/svg" xmlns:xlink="http://www.w3.org/1999/xlink" x="0px" y="0px"
	 width="16px" height="16px" viewBox="0 0 16 16" style="enable-background:new 0 0 16 16;" xml:space="preserve">
<path style="fill:#FFFFFF;" d="M15.118,4.494c0-0.988-0.805-1.793-1.793-1.793s-1.793,0.805-1.793,1.793
	c0,0.748,0.462,1.39,1.114,1.657l-1.952,2.806L8.892,6.099C9.487,5.807,9.902,5.2,9.902,4.494c0-0.988-0.805-1.793-1.793-1.793
	S6.316,3.505,6.316,4.494c0,0.716,0.425,1.33,1.033,1.618L5.366,9.135L3.364,6.148c0.647-0.271,1.104-0.91,1.104-1.654
	c0-0.988-0.805-1.793-1.793-1.793S0.882,3.505,0.882,4.494c0,0.79,0.517,1.454,1.228,1.692v6.613c0,0.277,0.224,0.5,0.5,0.5h10.869
	c0.276,0,0.5-0.223,0.5-0.5v-6.64C14.644,5.897,15.118,5.25,15.118,4.494z M8.109,3.701c0.438,0,0.793,0.355,0.793,0.793
	S8.547,5.287,8.109,5.287S7.316,4.931,7.316,4.494S7.672,3.701,8.109,3.701z M2.675,3.701c0.438,0,0.793,0.355,0.793,0.793
	S3.112,5.287,2.675,5.287S1.882,4.931,1.882,4.494S2.237,3.701,2.675,3.701z M12.979,12.299H3.109V7.563l1.846,2.753
	c0.093,0.139,0.248,0.223,0.415,0.223c0.001,0,0.002,0,0.002,0c0.168-0.002,0.324-0.086,0.416-0.227l2.335-3.558l2.128,3.375
	c0.089,0.141,0.244,0.229,0.411,0.232c0.151-0.006,0.326-0.076,0.422-0.215l1.895-2.722V12.299z M13.325,5.287
	c-0.438,0-0.793-0.355-0.793-0.793s0.355-0.793,0.793-0.793s0.793,0.355,0.793,0.793S13.763,5.287,13.325,5.287z"/>
</svg>
