<?xml version="1.0" encoding="utf-8"?>
<!-- Generator: Adobe Illustrator 19.0.0, SVG Export Plug-In . SVG Version: 6.00 Build 0)  -->
<svg version="1.1" id="Layer_1" xmlns="http://www.w3.org/2000/svg" xmlns:xlink="http://www.w3.org/1999/xlink" x="0px" y="0px"
	 viewBox="0 0 16 16" style="enable-background:new 0 0 16 16;" xml:space="preserve">
<path id="XMLID_2_" d="M12.2,10.2c-1,0-1.8,0.5-2.3,1.2V8L15,2.8l-0.4-0.4L9.9,7.2V0H9.4v7.7l-2.8,2.8c0-0.2,0-0.3,0-0.5
	c0-0.8-0.3-1.5-0.8-2c-0.5-0.5-1.3-0.8-2-0.8C3,7.2,2.3,7.5,1.7,8c-0.5,0.5-0.8,1.3-0.8,2c0,0.8,0.3,1.5,0.8,2
	c0.5,0.5,1.3,0.8,2,0.8h0c0.8,0,1.5-0.3,2-0.8l3.6-3.6v4.6c0,1.6,1.3,2.9,2.9,2.9c1.6,0,2.9-1.3,2.9-2.9
	C15.1,11.5,13.8,10.2,12.2,10.2z M3.8,12.4L3.8,12.4c-0.6,0-1.2-0.2-1.7-0.7c-0.4-0.4-0.7-1-0.7-1.7c0-0.6,0.2-1.2,0.7-1.7
	c0.4-0.4,1-0.7,1.7-0.7c0.6,0,1.2,0.2,1.7,0.7c0.4,0.4,0.7,1,0.7,1.7c0,0.6-0.2,1.2-0.7,1.7C5,12.1,4.4,12.4,3.8,12.4z M12.2,15.4
	c-1.3,0-2.3-1.1-2.3-2.3c0-1.3,1.1-2.3,2.3-2.3c1.3,0,2.3,1.1,2.3,2.3C14.6,14.4,13.5,15.4,12.2,15.4z"/>
</svg>
