<?xml version="1.0" encoding="iso-8859-1"?>
<!-- Generator: Adobe Illustrator 15.1.0, SVG Export Plug-In . SVG Version: 6.00 Build 0)  -->
<!DOCTYPE svg PUBLIC "-//W3C//DTD SVG 1.1//EN" "http://www.w3.org/Graphics/SVG/1.1/DTD/svg11.dtd">
<svg version="1.1" id="Layer_1" xmlns="http://www.w3.org/2000/svg" xmlns:xlink="http://www.w3.org/1999/xlink" x="0px" y="0px"
	 width="16px" height="16px" viewBox="0 0 16 16" style="enable-background:new 0 0 16 16;" xml:space="preserve">
<path style="fill:#FFFFFF;" d="M8,0.646c-2.815,0-6.104,0.682-6.104,2.602v9.506c0,1.92,3.288,2.602,6.104,2.602
	s6.104-0.682,6.104-2.602V3.247C14.104,1.327,10.815,0.646,8,0.646z M2.896,6.354c0.289,0.19,0.651,0.371,1.127,0.529
	C5.081,7.236,6.493,7.431,8,7.431c1.864,0,3.932-0.304,5.104-1.071v2.48c-0.03,0.064-0.05,0.135-0.05,0.211
	c0,0.873-2.267,1.582-5.054,1.582S2.946,9.924,2.946,9.051c0-0.076-0.02-0.146-0.05-0.211V6.354z M8,1.646
	c2.814,0,5.104,0.719,5.104,1.602v1.391c-0.03,0.064-0.05,0.135-0.05,0.21c0,0.873-2.267,1.583-5.054,1.583s-5.054-0.71-5.054-1.583
	c0-0.075-0.02-0.146-0.05-0.21V3.247C2.896,2.364,5.186,1.646,8,1.646z M8,14.354c-2.814,0-5.104-0.719-5.104-1.602v-2.195
	c0.289,0.19,0.651,0.371,1.127,0.529c1.058,0.353,2.47,0.546,3.977,0.546c1.864,0,3.932-0.303,5.104-1.07v2.19
	C13.104,13.636,10.814,14.354,8,14.354z"/>
</svg>
