<?xml version="1.0" encoding="iso-8859-1"?>
<!-- Generator: Adobe Illustrator 15.1.0, SVG Export Plug-In . SVG Version: 6.00 Build 0)  -->
<!DOCTYPE svg PUBLIC "-//W3C//DTD SVG 1.1//EN" "http://www.w3.org/Graphics/SVG/1.1/DTD/svg11.dtd">
<svg version="1.1" id="Layer_1" xmlns="http://www.w3.org/2000/svg" xmlns:xlink="http://www.w3.org/1999/xlink" x="0px" y="0px"
	 width="16px" height="16px" viewBox="0 0 16 16" style="enable-background:new 0 0 16 16;" xml:space="preserve">
<g>
	<path style="fill:#FFFFFF;" d="M14.745,2.575H1.255c-0.276,0-0.5,0.224-0.5,0.5v8.064c0,0.275,0.224,0.5,0.5,0.5H7.5v0.787H4.701
		c-0.276,0-0.5,0.223-0.5,0.5c0,0.275,0.224,0.5,0.5,0.5h6.598c0.276,0,0.5-0.225,0.5-0.5c0-0.277-0.224-0.5-0.5-0.5H8.5v-0.787
		h6.245c0.276,0,0.5-0.225,0.5-0.5V3.075C15.245,2.798,15.021,2.575,14.745,2.575z M14.245,3.575v4.638H1.755V3.575H14.245z
		 M1.755,10.639V9.213h12.49v1.426H1.755z"/>
	<circle style="fill:#FFFFFF;" cx="8" cy="10" r="0.307"/>
</g>
</svg>
