<?xml version="1.0" encoding="iso-8859-1"?>
<!-- Generator: Adobe Illustrator 15.1.0, SVG Export Plug-In . SVG Version: 6.00 Build 0)  -->
<!DOCTYPE svg PUBLIC "-//W3C//DTD SVG 1.1//EN" "http://www.w3.org/Graphics/SVG/1.1/DTD/svg11.dtd">
<svg version="1.1" id="Layer_1" xmlns="http://www.w3.org/2000/svg" xmlns:xlink="http://www.w3.org/1999/xlink" x="0px" y="0px"
	 width="16px" height="16px" viewBox="0 0 16 16" style="enable-background:new 0 0 16 16;" xml:space="preserve">
<g>
	<path style="fill:#FFFFFF;" d="M13.334,1.785H2.667c-0.276,0-0.5,0.224-0.5,0.5v2.337c0,0.276,0.224,0.5,0.5,0.5s0.5-0.224,0.5-0.5
		V2.785h9.667v1.837c0,0.276,0.223,0.5,0.5,0.5c0.275,0,0.5-0.224,0.5-0.5V2.285C13.834,2.009,13.609,1.785,13.334,1.785z"/>
	<path style="fill:#FFFFFF;" d="M10.697,10.396l-2.214,2.14V4.622c0-0.276-0.224-0.5-0.5-0.5s-0.5,0.224-0.5,0.5v7.914l-2.214-2.14
		c-0.2-0.191-0.517-0.186-0.707,0.012c-0.192,0.199-0.187,0.516,0.012,0.707l3.056,2.953l0,0l0.006,0.006
		c0.019,0.018,0.041,0.025,0.062,0.039c0.031,0.023,0.061,0.048,0.097,0.063c0.061,0.025,0.125,0.039,0.189,0.039
		s0.129-0.014,0.189-0.039c0.036-0.015,0.065-0.039,0.097-0.063c0.021-0.014,0.043-0.021,0.062-0.039l0.006-0.006l0,0l3.056-2.953
		c0.197-0.191,0.203-0.508,0.012-0.707C11.213,10.211,10.896,10.205,10.697,10.396z"/>
</g>
</svg>
