<?xml version="1.0" encoding="iso-8859-1"?>
<!-- Generator: Adobe Illustrator 15.1.0, SVG Export Plug-In . SVG Version: 6.00 Build 0)  -->
<!DOCTYPE svg PUBLIC "-//W3C//DTD SVG 1.1//EN" "http://www.w3.org/Graphics/SVG/1.1/DTD/svg11.dtd">
<svg version="1.1" id="Layer_1" xmlns="http://www.w3.org/2000/svg" xmlns:xlink="http://www.w3.org/1999/xlink" x="0px" y="0px"
	 width="16px" height="16px" viewBox="0 0 16 16" style="enable-background:new 0 0 16 16;" xml:space="preserve">
<g>
	<path style="fill:#FFFFFF;" d="M12.396,8.077c-0.276,0-0.5,0.224-0.5,0.5v4.981H2.186V2.441h7.686c0.276,0,0.5-0.224,0.5-0.5
		s-0.224-0.5-0.5-0.5H1.686c-0.276,0-0.5,0.224-0.5,0.5v12.117c0,0.277,0.224,0.5,0.5,0.5h10.709c0.276,0,0.5-0.223,0.5-0.5V8.577
		C12.896,8.301,12.672,8.077,12.396,8.077z"/>
	<path style="fill:#FFFFFF;" d="M14.676,4.648l-2.679-2.68c-0.184-0.183-0.484-0.183-0.668,0.001L5.118,8.182
		C5.046,8.25,4.998,8.344,4.98,8.448L4.5,11.608c-0.021,0.143,0.022,0.285,0.12,0.391v-0.001c0.09,0.098,0.215,0.151,0.346,0.151
		c0.024,0,0.049-0.002,0.072-0.006l3.157-0.479c0.099-0.015,0.189-0.06,0.265-0.133l6.215-6.215
		C14.86,5.132,14.86,4.832,14.676,4.648z M5.531,11.114l0.263-1.724l1.461,1.461L5.531,11.114z M13.673,4.982l-0.906,0.907
		L10.758,3.88l0.906-0.907L13.673,4.982z M12.099,6.558l-3.901,3.9l-2.01-2.009l3.901-3.9L12.099,6.558z"/>
</g>
</svg>
