<?xml version="1.0" encoding="utf-8"?>
<!-- Generator: Adobe Illustrator 19.1.1, SVG Export Plug-In . SVG Version: 6.00 Build 0)  -->
<svg version="1.1" id="Layer_1" xmlns="http://www.w3.org/2000/svg" xmlns:xlink="http://www.w3.org/1999/xlink" x="0px" y="0px"
	 viewBox="0 0 16 16" style="enable-background:new 0 0 16 16;" xml:space="preserve">
<g>
	<path d="M8.3,5.4H7.7c0,1.3-1,2.3-2.3,2.3c-1.3,0-2.3-1-2.3-2.3H2.6c0,1.6,1.3,2.8,2.8,2.8S8.3,7,8.3,5.4z"/>
	<rect x="2.4" y="2.4" width="1" height="1"/>
	<rect x="7.5" y="2.4" width="1" height="1"/>
	<path d="M10.8,5.2V0.1H0.1v5.4c0,2.9,2.3,5.2,5.1,5.4c0.1,2.9,2.5,5.1,5.4,5.1c3,0,5.4-2.4,5.4-5.4V5.2H10.8z M0.6,5.4V0.6h9.7v4.9
		c0,2.7-2.2,4.9-4.9,4.9C2.8,10.3,0.6,8.1,0.6,5.4z M15.4,10.6c0,2.7-2.2,4.9-4.9,4.9c-2.6,0-4.7-2.1-4.9-4.6c2.8-0.1,5-2.4,5.1-5.1
		h4.6V10.6z"/>
	<path d="M10.6,10.3c-1.6,0-2.8,1.3-2.8,2.8h0.5c0-1.3,1-2.3,2.3-2.3s2.3,1,2.3,2.3h0.5C13.4,11.6,12.1,10.3,10.6,10.3z"/>
	<rect x="12.6" y="7.5" width="1" height="1"/>
</g>
</svg>
