<?xml version="1.0" encoding="iso-8859-1"?>
<!-- Generator: Adobe Illustrator 15.1.0, SVG Export Plug-In . SVG Version: 6.00 Build 0)  -->
<!DOCTYPE svg PUBLIC "-//W3C//DTD SVG 1.1//EN" "http://www.w3.org/Graphics/SVG/1.1/DTD/svg11.dtd">
<svg version="1.1" id="Layer_1" xmlns="http://www.w3.org/2000/svg" xmlns:xlink="http://www.w3.org/1999/xlink" x="0px" y="0px"
	 width="16px" height="16px" viewBox="0 0 16 16" style="enable-background:new 0 0 16 16;" xml:space="preserve">
<g>
	<path style="fill:#FFFFFF;" d="M8,1.25C4.278,1.25,1.25,4.278,1.25,8c0,3.723,3.028,6.75,6.75,6.75s6.75-3.027,6.75-6.75
		C14.75,4.278,11.722,1.25,8,1.25z M8,13.75c-3.171,0-5.75-2.58-5.75-5.75c0-3.17,2.579-5.75,5.75-5.75S13.75,4.83,13.75,8
		C13.75,11.17,11.171,13.75,8,13.75z"/>
	<path style="fill:#FFFFFF;" d="M8.205,9.166c0.276,0,0.5-0.223,0.5-0.5v-4c0-0.276-0.224-0.5-0.5-0.5s-0.5,0.224-0.5,0.5v4
		C7.705,8.943,7.929,9.166,8.205,9.166z"/>
	<path style="fill:#FFFFFF;" d="M8.193,9.908c-0.372,0-0.636,0.287-0.636,0.647c0,0.372,0.276,0.659,0.66,0.659
		c0.396,0,0.647-0.287,0.647-0.659C8.877,10.195,8.613,9.908,8.193,9.908z"/>
</g>
</svg>
