<?xml version="1.0" encoding="iso-8859-1"?>
<!-- Generator: Adobe Illustrator 15.1.0, SVG Export Plug-In . SVG Version: 6.00 Build 0)  -->
<!DOCTYPE svg PUBLIC "-//W3C//DTD SVG 1.1//EN" "http://www.w3.org/Graphics/SVG/1.1/DTD/svg11.dtd">
<svg version="1.1" id="Layer_1" xmlns="http://www.w3.org/2000/svg" xmlns:xlink="http://www.w3.org/1999/xlink" x="0px" y="0px"
	 width="16px" height="16px" viewBox="0 0 16 16" style="enable-background:new 0 0 16 16;" xml:space="preserve">
<g>
	<path style="fill:#FFFFFF;" d="M14.462,1.809c-0.051-0.123-0.148-0.22-0.271-0.271C14.13,1.513,14.065,1.5,14,1.5H9.537
		c-0.276,0-0.5,0.224-0.5,0.5s0.224,0.5,0.5,0.5h3.256L6.905,8.388c-0.195,0.195-0.195,0.512,0,0.707
		c0.098,0.098,0.226,0.146,0.354,0.146s0.256-0.049,0.354-0.146L13.5,3.207v3.256c0,0.276,0.224,0.5,0.5,0.5s0.5-0.224,0.5-0.5V2
		C14.5,1.935,14.486,1.87,14.462,1.809z"/>
	<path style="fill:#FFFFFF;" d="M14,8.836c-0.276,0-0.5,0.224-0.5,0.5V13.5h-11v-11h4.173c0.276,0,0.5-0.224,0.5-0.5
		s-0.224-0.5-0.5-0.5H2C1.724,1.5,1.5,1.724,1.5,2v12c0,0.276,0.224,0.5,0.5,0.5h12c0.276,0,0.5-0.224,0.5-0.5V9.336
		C14.5,9.06,14.276,8.836,14,8.836z"/>
</g>
</svg>
