<?xml version="1.0" encoding="utf-8"?>
<!-- Generator: Adobe Illustrator 15.1.0, SVG Export Plug-In . SVG Version: 6.00 Build 0)  -->
<!DOCTYPE svg PUBLIC "-//W3C//DTD SVG 1.1//EN" "http://www.w3.org/Graphics/SVG/1.1/DTD/svg11.dtd">
<svg version="1.1" id="Layer_1" xmlns="http://www.w3.org/2000/svg" xmlns:xlink="http://www.w3.org/1999/xlink" x="0px" y="0px"
	 width="16px" height="16px" viewBox="0 0 16 16" enable-background="new 0 0 16 16" xml:space="preserve">
<g>
	<path fill="#FFFFFF" d="M1.105,13.975c0.047,0.236,0.256,0.401,0.488,0.401c0.033,0,0.066-0.004,0.1-0.01
		c0.271-0.056,0.447-0.317,0.393-0.589c-0.005-0.027-0.507-2.67,0.801-4.311c0.67-0.842,1.729-1.292,3.146-1.335
		c2.403-0.074,3.782-0.09,4.549-0.09l-4.45,4.71c-0.188,0.2-0.18,0.518,0.021,0.706c0.201,0.188,0.517,0.181,0.707-0.021
		l5.203-5.505c0.009-0.009,0.009-0.022,0.017-0.032c0.043-0.052,0.074-0.11,0.092-0.173c0.008-0.022,0.012-0.042,0.016-0.065
		c0.009-0.067,0.006-0.134-0.012-0.201c-0.002-0.009,0.003-0.019-0.001-0.028c-0.003-0.007-0.005-0.014-0.007-0.021
		c-0.001-0.002-0.002-0.004-0.003-0.006c-0.03-0.093-0.063-0.167-0.162-0.224L6.77,1.778c-0.193-0.2-0.508-0.204-0.707-0.012
		S5.857,2.275,6.05,2.473l4.414,4.559c-0.896-0.003-2.28,0.033-4.461,0.1C4.277,7.185,2.965,7.763,2.102,8.85
		C0.506,10.855,1.081,13.846,1.105,13.975z"/>
	<path fill="#FFFFFF" d="M8.95,12.751c-0.188,0.2-0.18,0.517,0.021,0.706c0.097,0.091,0.221,0.137,0.344,0.137
		c0.133,0,0.264-0.053,0.363-0.156l5.188-5.491l0,0l0,0l0.015-0.015c0.018-0.018,0.024-0.042,0.039-0.062
		c0.022-0.033,0.048-0.063,0.062-0.099c0.009-0.022,0.009-0.046,0.015-0.069c0.01-0.04,0.021-0.079,0.021-0.12
		c0-0.021-0.009-0.041-0.012-0.062c-0.006-0.042-0.011-0.084-0.026-0.124c-0.011-0.022-0.027-0.04-0.039-0.06
		c-0.02-0.032-0.034-0.067-0.062-0.095l-5.29-5.463c-0.191-0.2-0.509-0.204-0.707-0.012C8.683,1.958,8.676,2.275,8.868,2.473
		l4.957,5.119L8.95,12.751z"/>
</g>
</svg>
