<?xml version="1.0" encoding="iso-8859-1"?>
<!-- Generator: Adobe Illustrator 15.1.0, SVG Export Plug-In . SVG Version: 6.00 Build 0)  -->
<!DOCTYPE svg PUBLIC "-//W3C//DTD SVG 1.1//EN" "http://www.w3.org/Graphics/SVG/1.1/DTD/svg11.dtd">
<svg version="1.1" id="Layer_1" xmlns="http://www.w3.org/2000/svg" xmlns:xlink="http://www.w3.org/1999/xlink" x="0px" y="0px"
	 width="16px" height="16px" viewBox="0 0 16 16" style="enable-background:new 0 0 16 16;" xml:space="preserve">
<g>
	<path style="fill:#FFFFFF;" d="M13.898,8.849c-0.863-1.086-2.176-1.664-3.901-1.717c-2.181-0.067-3.565-0.103-4.461-0.1L9.95,2.473
		c0.192-0.198,0.187-0.515-0.012-0.707S9.424,1.578,9.231,1.778L3.998,7.182C3.899,7.239,3.866,7.313,3.836,7.406
		C3.835,7.408,3.834,7.41,3.833,7.412C3.831,7.419,3.829,7.426,3.826,7.433C3.823,7.442,3.827,7.452,3.825,7.461
		C3.808,7.528,3.805,7.595,3.814,7.662c0.004,0.023,0.008,0.043,0.015,0.065C3.847,7.79,3.878,7.848,3.921,7.9
		c0.008,0.01,0.008,0.023,0.017,0.032l5.203,5.505c0.19,0.201,0.506,0.21,0.707,0.021c0.2-0.189,0.209-0.506,0.02-0.706l-4.45-4.71
		c0.767,0,2.146,0.016,4.549,0.09c1.417,0.043,2.476,0.493,3.146,1.335c1.308,1.641,0.806,4.283,0.801,4.311
		c-0.054,0.271,0.122,0.533,0.393,0.588c0.033,0.006,0.066,0.01,0.099,0.01c0.233,0,0.441-0.165,0.489-0.402
		C14.919,13.846,15.494,10.856,13.898,8.849z"/>
	<path style="fill:#FFFFFF;" d="M2.175,7.592l4.957-5.119C7.324,2.275,7.318,1.958,7.12,1.766S6.605,1.578,6.413,1.778l-5.29,5.463
		C1.096,7.269,1.081,7.304,1.062,7.336C1.05,7.356,1.033,7.374,1.023,7.396C1.007,7.436,1.002,7.478,0.996,7.52
		C0.993,7.541,0.985,7.561,0.985,7.582c-0.001,0.041,0.01,0.08,0.02,0.12C1.011,7.725,1.011,7.749,1.02,7.771
		C1.033,7.807,1.059,7.837,1.081,7.87C1.096,7.89,1.103,7.914,1.12,7.932l0.015,0.015v0l0,0l5.188,5.49
		c0.099,0.104,0.23,0.157,0.363,0.157c0.123,0,0.247-0.046,0.344-0.137c0.2-0.189,0.209-0.506,0.02-0.706L2.175,7.592z"/>
</g>
</svg>
