<?xml version="1.0" encoding="utf-8"?>
<!-- Generator: Adobe Illustrator 19.1.1, SVG Export Plug-In . SVG Version: 6.00 Build 0)  -->
<svg version="1.1" id="Layer_1" xmlns="http://www.w3.org/2000/svg" xmlns:xlink="http://www.w3.org/1999/xlink" x="0px" y="0px"
	 viewBox="0 0 16 16" style="enable-background:new 0 0 16 16;" xml:space="preserve">
<style type="text/css">
	.st0{fill:#030202;}
</style>
<path class="st0" d="M15.8,7.9L8.2,3.3c-0.1,0-0.2,0-0.3,0c-0.1,0-0.1,0.1-0.1,0.2v4.1L0.4,3.2c-0.1,0-0.2,0-0.3,0
	C0.1,3.2,0,3.3,0,3.4v9.1c0,0.1,0,0.2,0.1,0.2c0,0,0.1,0,0.1,0c0,0,0.1,0,0.1,0l7.4-4.5v4.4c0,0.1,0,0.2,0.1,0.2c0,0,0.1,0,0.1,0
	c0,0,0.1,0,0.1,0l7.6-4.5c0.1,0,0.1-0.1,0.1-0.2S15.9,7.9,15.8,7.9z M0.5,12.1V3.8l6.9,4.1L0.5,12.1z M8.3,12.2V3.9l6.9,4.2
	L8.3,12.2z"/>
</svg>
