<?xml version="1.0" encoding="utf-8"?>
<!-- Generator: Adobe Illustrator 15.1.0, SVG Export Plug-In . SVG Version: 6.00 Build 0)  -->
<!DOCTYPE svg PUBLIC "-//W3C//DTD SVG 1.1//EN" "http://www.w3.org/Graphics/SVG/1.1/DTD/svg11.dtd">
<svg version="1.1" id="Layer_1" xmlns="http://www.w3.org/2000/svg" xmlns:xlink="http://www.w3.org/1999/xlink" x="0px" y="0px"
	 width="72px" height="72px" viewBox="0 0 72 72" enable-background="new 0 0 72 72" xml:space="preserve">
<path fill="#030202" d="M0.575,36.45c0,0.45,0,0.899,0.45,0.899l34.2,20.25h0.45h0.45c0.451,0,0.451-0.449,0.451-0.899V36.9
	l33.3,20.25h0.45h0.449c0.45,0,0.45-0.45,0.45-0.9V15.3c0-0.45-0.45-0.9-0.45-0.9c-0.449,0-0.899,0-1.35,0l-33.3,19.8V15.75
	c0-0.45,0-0.9-0.45-0.9c-0.45,0-0.9,0-1.351,0L0.126,35.55C-0.324,35.55,0.575,36,0.575,36.45z M37.926,35.55l31.05-18.45v37.35
	L37.926,35.55z M2.825,36.45l31.051-18.9V54.9L2.825,36.45z"/>
</svg>
