<?xml version="1.0" encoding="utf-8"?>
<!-- Generator: Adobe Illustrator 15.1.0, SVG Export Plug-In . SVG Version: 6.00 Build 0)  -->
<!DOCTYPE svg PUBLIC "-//W3C//DTD SVG 1.1//EN" "http://www.w3.org/Graphics/SVG/1.1/DTD/svg11.dtd">
<svg version="1.1" id="Layer_1" xmlns="http://www.w3.org/2000/svg" xmlns:xlink="http://www.w3.org/1999/xlink" x="0px" y="0px"
	 width="72px" height="72px" viewBox="0 0 72 72" enable-background="new 0 0 72 72" xml:space="preserve">
<path fill="#030202" d="M71.1,35.55L36.9,14.85c-0.45,0-0.9,0-1.351,0c-0.45,0-0.45,0.45-0.45,0.9V34.2L1.8,14.4
	c-0.45,0-0.9,0-1.35,0c0,0-0.45,0.45-0.45,0.9v40.95c0,0.45,0,0.9,0.45,0.9H0.9h0.45l33.3-20.25v19.8c0,0.45,0,0.899,0.45,0.899
	h0.45H36l34.2-20.25c0.45,0,0.45-0.449,0.45-0.899S71.55,35.55,71.1,35.55z M2.25,54.45V17.1L33.3,35.55L2.25,54.45z M37.35,54.9
	V17.55L68.4,36.45L37.35,54.9z"/>
</svg>
