<?xml version="1.0" encoding="iso-8859-1"?>
<!-- Generator: Adobe Illustrator 15.1.0, SVG Export Plug-In . SVG Version: 6.00 Build 0)  -->
<!DOCTYPE svg PUBLIC "-//W3C//DTD SVG 1.1//EN" "http://www.w3.org/Graphics/SVG/1.1/DTD/svg11.dtd">
<svg version="1.1" id="Layer_1" xmlns="http://www.w3.org/2000/svg" xmlns:xlink="http://www.w3.org/1999/xlink" x="0px" y="0px"
	 width="16px" height="16px" viewBox="0 0 16 16" style="enable-background:new 0 0 16 16;" xml:space="preserve">
<path style="fill:#FFFFFF;" d="M14.383,11.95c-0.066-0.116-0.178-0.201-0.309-0.235l-4.063-1.053v-0.019
	c0.93-0.001,2.762-0.145,3.604-1.188c0.109-0.135,0.139-0.317,0.08-0.482c-0.059-0.164-0.199-0.286-0.369-0.322
	c-0.174-0.036-1.033-0.264-0.889-1.173c0.191-1.202,0.041-2.938-0.959-4.21C10.75,2.342,9.672,1.8,8.297,1.618
	C8.228,1.59,8.154,1.573,8.075,1.578c-0.005,0-0.008,0.002-0.013,0.002C8.02,1.576,7.984,1.563,7.941,1.56
	C7.827,1.552,7.72,1.589,7.63,1.649C6.288,1.843,5.229,2.381,4.513,3.292C3.524,4.55,3.373,6.263,3.561,7.447
	c0.146,0.908-0.714,1.136-0.884,1.172C2.505,8.652,2.363,8.773,2.303,8.938c-0.06,0.165-0.029,0.349,0.08,0.485
	c0.842,1.044,2.675,1.187,3.604,1.188l-4.063,1.071c-0.13,0.034-0.241,0.119-0.308,0.235c-0.067,0.117-0.084,0.256-0.048,0.385
	l0.493,1.742c0.062,0.216,0.258,0.364,0.481,0.364h5.357c0.007,0,0.012-0.004,0.019-0.004c0.056,0.021,0.115,0.036,0.179,0.036
	h5.359c0.223,0,0.42-0.148,0.48-0.364l0.494-1.742C14.467,12.206,14.451,12.067,14.383,11.95z M13.078,13.441h-4.98
	c-0.007,0-0.012,0.004-0.019,0.004c-0.056-0.021-0.115-0.036-0.179-0.036H2.921L2.67,12.522L6.614,11.5
	c0.22-0.058,0.374-0.257,0.374-0.484v-0.92c0-0.139-0.058-0.271-0.159-0.365C6.727,9.636,6.59,9.587,6.453,9.597
	C5.91,9.635,4.604,9.613,3.75,9.222C4.266,8.865,4.702,8.25,4.549,7.289c-0.148-0.93-0.041-2.372,0.75-3.378
	c0.602-0.764,1.534-1.205,2.764-1.322c1.16,0.134,2.052,0.563,2.63,1.299c0.801,1.019,0.908,2.486,0.756,3.435
	c-0.152,0.96,0.285,1.575,0.799,1.933c-0.854,0.391-2.156,0.412-2.701,0.375C9.408,9.615,9.271,9.669,9.17,9.764
	C9.068,9.857,9.012,9.99,9.012,10.129v0.92c0,0.228,0.154,0.427,0.375,0.484l3.943,1.021L13.078,13.441z"/>
</svg>
