<?xml version="1.0" encoding="iso-8859-1"?>
<!-- Generator: Adobe Illustrator 15.1.0, SVG Export Plug-In . SVG Version: 6.00 Build 0)  -->
<!DOCTYPE svg PUBLIC "-//W3C//DTD SVG 1.1//EN" "http://www.w3.org/Graphics/SVG/1.1/DTD/svg11.dtd">
<svg version="1.1" id="Layer_1" xmlns="http://www.w3.org/2000/svg" xmlns:xlink="http://www.w3.org/1999/xlink" x="0px" y="0px"
	 width="16px" height="16px" viewBox="0 0 16 16" style="enable-background:new 0 0 16 16;" xml:space="preserve">
<path style="fill:#FFFFFF;" d="M13.078,3.926c-0.002-0.022-0.006-0.042-0.012-0.064c-0.023-0.085-0.063-0.164-0.123-0.225V3.636
	l-2.291-2.249c-0.063-0.063-0.145-0.102-0.234-0.125c-0.02-0.005-0.037-0.009-0.059-0.012s-0.041-0.013-0.063-0.013H3.408
	c-0.276,0-0.5,0.224-0.5,0.5v12.525c0,0.276,0.224,0.5,0.5,0.5h9.184c0.277,0,0.5-0.224,0.5-0.5V3.992
	C13.092,3.969,13.082,3.948,13.078,3.926z M10.797,2.93l0.572,0.563h-0.572V2.93z M3.908,13.763V2.237h5.889v1.755
	c0,0.276,0.223,0.5,0.5,0.5h1.795v9.271H3.908z"/>
</svg>
