<?xml version="1.0" encoding="iso-8859-1"?>
<!-- Generator: Adobe Illustrator 15.1.0, SVG Export Plug-In . SVG Version: 6.00 Build 0)  -->
<!DOCTYPE svg PUBLIC "-//W3C//DTD SVG 1.1//EN" "http://www.w3.org/Graphics/SVG/1.1/DTD/svg11.dtd">
<svg version="1.1" id="Layer_1" xmlns="http://www.w3.org/2000/svg" xmlns:xlink="http://www.w3.org/1999/xlink" x="0px" y="0px"
	 width="16px" height="16px" viewBox="0 0 16 16" style="enable-background:new 0 0 16 16;" xml:space="preserve">
<path style="fill:#FFFFFF;" d="M15.209,1.702H0.792c-0.138,0-0.25,0.112-0.25,0.25v12.097c0,0.139,0.112,0.25,0.25,0.25h14.417
	c0.137,0,0.25-0.111,0.25-0.25V1.952C15.459,1.813,15.346,1.702,15.209,1.702z M1.619,12.303h1.92v1.012h-1.92V12.303z M3.539,7.555
	v1.39h-1.92v-1.39H3.539z M3.539,6.571h-1.92v-1.39h1.92V6.571z M1.619,9.928h1.92v1.391h-1.92V9.928z M3.539,4.197h-1.92V2.686
	h1.92V4.197z M4.523,2.686h7.254v10.629H4.523V2.686z M14.381,4.197H12.76V2.686h1.621V4.197z M12.76,7.555h1.621v1.39H12.76V7.555z
	 M14.381,6.571H12.76v-1.39h1.621V6.571z M12.76,9.928h1.621v1.391H12.76V9.928z M12.76,12.303h1.621v1.012H12.76V12.303z"/>
</svg>
