<?xml version="1.0" encoding="iso-8859-1"?>
<!-- Generator: Adobe Illustrator 15.1.0, SVG Export Plug-In . SVG Version: 6.00 Build 0)  -->
<!DOCTYPE svg PUBLIC "-//W3C//DTD SVG 1.1//EN" "http://www.w3.org/Graphics/SVG/1.1/DTD/svg11.dtd">
<svg version="1.1" id="Layer_1" xmlns="http://www.w3.org/2000/svg" xmlns:xlink="http://www.w3.org/1999/xlink" x="0px" y="0px"
	 width="16px" height="16px" viewBox="0 0 16 16" style="enable-background:new 0 0 16 16;" xml:space="preserve">
<path style="fill:#FFFFFF;" d="M11.945,2.034c-1.202-0.488-2.694-0.302-4.046-0.026C6.63,2.267,5.412,2.434,4.432,2.035
	c-0.005-0.002-0.011,0-0.016-0.002c-0.055-0.02-0.111-0.035-0.173-0.035c-0.01,0-0.018,0.005-0.027,0.005
	c-0.026,0.001-0.05,0.01-0.076,0.016C4.09,2.029,4.043,2.044,4,2.069C3.989,2.076,3.975,2.075,3.964,2.083S3.948,2.103,3.938,2.111
	C3.896,2.145,3.862,2.184,3.832,2.229C3.82,2.247,3.807,2.261,3.797,2.281C3.765,2.347,3.743,2.419,3.743,2.498v5.094v6.177
	c0,0.276,0.224,0.5,0.5,0.5s0.5-0.224,0.5-0.5V8.257c0.345,0.078,0.702,0.129,1.088,0.129c0.772,0,1.533-0.154,2.268-0.304
	c1.27-0.259,2.488-0.426,3.47-0.027c0.153,0.062,0.329,0.044,0.468-0.048c0.138-0.093,0.221-0.249,0.221-0.415V2.498
	C12.257,2.294,12.134,2.111,11.945,2.034z M11.257,6.913C10.22,6.678,8.999,6.877,7.899,7.102C6.763,7.333,5.658,7.509,4.743,7.238
	V3.176C5.778,3.41,6.999,3.212,8.1,2.988c1.136-0.231,2.243-0.406,3.157-0.136V6.913z"/>
</svg>
