<?xml version="1.0" encoding="iso-8859-1"?>
<!-- Generator: Adobe Illustrator 15.1.0, SVG Export Plug-In . SVG Version: 6.00 Build 0)  -->
<!DOCTYPE svg PUBLIC "-//W3C//DTD SVG 1.1//EN" "http://www.w3.org/Graphics/SVG/1.1/DTD/svg11.dtd">
<svg version="1.1" id="Layer_1" xmlns="http://www.w3.org/2000/svg" xmlns:xlink="http://www.w3.org/1999/xlink" x="0px" y="0px"
	 width="16px" height="16px" viewBox="0 0 16 16" style="enable-background:new 0 0 16 16;" xml:space="preserve">
<path style="fill:#FFFFFF;" d="M14.467,12.064l-4.299-6.912V1.959c0-0.276-0.224-0.5-0.5-0.5H6.422
	c-0.135,0-0.265,0.055-0.358,0.151C5.969,1.707,5.918,1.838,5.922,1.973l0.086,3.006L1.533,12.2
	c-0.115,0.185-0.097,0.423,0.045,0.589l1.353,1.578c0.096,0.11,0.234,0.174,0.38,0.174h9.874c0.189,0,0.362-0.106,0.447-0.275
	l0.857-1.714C14.567,12.396,14.559,12.212,14.467,12.064z M12.876,13.541H3.541l-0.965-1.125l4.36-7.038
	c0.052-0.083,0.078-0.18,0.075-0.277L6.937,2.459h2.231v2.836c0,0.093,0.026,0.185,0.075,0.264l4.227,6.796L12.876,13.541z"/>
</svg>
