<?xml version="1.0" encoding="iso-8859-1"?>
<!-- Generator: Adobe Illustrator 15.1.0, SVG Export Plug-In . SVG Version: 6.00 Build 0)  -->
<!DOCTYPE svg PUBLIC "-//W3C//DTD SVG 1.1//EN" "http://www.w3.org/Graphics/SVG/1.1/DTD/svg11.dtd">
<svg version="1.1" id="Layer_1" xmlns="http://www.w3.org/2000/svg" xmlns:xlink="http://www.w3.org/1999/xlink" x="0px" y="0px"
	 width="16px" height="16px" viewBox="0 0 16 16" style="enable-background:new 0 0 16 16;" xml:space="preserve">
<g>
	<path style="fill:#FFFFFF;" d="M3.583,11.872c0.067,0.031,0.139,0.046,0.209,0.046c0.189,0,0.37-0.107,0.454-0.291l1.176-2.558
		h5.257l1.16,2.515c0.117,0.25,0.412,0.358,0.664,0.244c0.25-0.116,0.359-0.413,0.244-0.664l-4.25-9.203
		c-0.082-0.177-0.259-0.29-0.454-0.29S7.67,1.785,7.589,1.962l-4.251,9.247C3.223,11.46,3.333,11.757,3.583,11.872z M8.044,3.365
		l2.172,4.704H5.882L8.044,3.365z"/>
	<path style="fill:#FFFFFF;" d="M14.004,13.329H1.996c-0.276,0-0.5,0.224-0.5,0.5s0.224,0.5,0.5,0.5h12.008
		c0.277,0,0.5-0.224,0.5-0.5S14.281,13.329,14.004,13.329z"/>
</g>
</svg>
