<?xml version="1.0" encoding="iso-8859-1"?>
<!-- Generator: Adobe Illustrator 15.1.0, SVG Export Plug-In . SVG Version: 6.00 Build 0)  -->
<!DOCTYPE svg PUBLIC "-//W3C//DTD SVG 1.1//EN" "http://www.w3.org/Graphics/SVG/1.1/DTD/svg11.dtd">
<svg version="1.1" id="Layer_1" xmlns="http://www.w3.org/2000/svg" xmlns:xlink="http://www.w3.org/1999/xlink" x="0px" y="0px"
	 width="16px" height="16px" viewBox="0 0 16 16" style="enable-background:new 0 0 16 16;" xml:space="preserve">
<g>
	<path style="fill:#FFFFFF;" d="M6.565,6.678H1.24c-0.276,0-0.5,0.224-0.5,0.5s0.224,0.5,0.5,0.5h2.162v5.352
		c0,0.276,0.224,0.5,0.5,0.5s0.5-0.224,0.5-0.5V7.678h2.163c0.276,0,0.5-0.224,0.5-0.5S6.841,6.678,6.565,6.678z"/>
	<path style="fill:#FFFFFF;" d="M14.76,2.471H6.28c-0.276,0-0.5,0.224-0.5,0.5s0.224,0.5,0.5,0.5h3.74v9.558
		c0,0.276,0.225,0.5,0.5,0.5c0.277,0,0.5-0.224,0.5-0.5V3.471h3.74c0.277,0,0.5-0.224,0.5-0.5S15.037,2.471,14.76,2.471z"/>
</g>
</svg>
