<?xml version="1.0" encoding="iso-8859-1"?>
<!-- Generator: Adobe Illustrator 15.1.0, SVG Export Plug-In . SVG Version: 6.00 Build 0)  -->
<!DOCTYPE svg PUBLIC "-//W3C//DTD SVG 1.1//EN" "http://www.w3.org/Graphics/SVG/1.1/DTD/svg11.dtd">
<svg version="1.1" id="Layer_1" xmlns="http://www.w3.org/2000/svg" xmlns:xlink="http://www.w3.org/1999/xlink" x="0px" y="0px"
	 width="16px" height="16px" viewBox="0 0 16 16" style="enable-background:new 0 0 16 16;" xml:space="preserve">
<path style="fill:#FFFFFF;" d="M14.014,7.664c0.012-0.076,0.009-0.151-0.015-0.225C13.997,7.435,14,7.429,13.998,7.424
	c0-0.001-0.002-0.002-0.002-0.003c-0.023-0.064-0.059-0.125-0.109-0.177L8.634,1.819C8.44,1.62,8.124,1.615,7.927,1.807
	C7.729,2,7.723,2.316,7.915,2.514l4.391,4.535c-0.961-0.01-2.597,0.001-5.339,0.085C5.252,7.187,3.947,7.761,3.089,8.84
	c-1.585,1.996-1.014,4.966-0.988,5.091c0.048,0.238,0.256,0.402,0.489,0.402c0.032,0,0.065-0.004,0.099-0.01
	c0.271-0.054,0.446-0.316,0.393-0.588c-0.005-0.025-0.503-2.648,0.794-4.277c0.666-0.836,1.717-1.282,3.123-1.325
	c2.868-0.088,4.501-0.099,5.408-0.086l-4.409,4.667c-0.189,0.201-0.181,0.518,0.02,0.707c0.201,0.189,0.518,0.18,0.707-0.02
	l5.148-5.45c0.001,0,0.002,0,0.003-0.001s0.002-0.003,0.003-0.004l0.012-0.013c0.006-0.006,0.006-0.014,0.011-0.02
	c0.05-0.058,0.082-0.123,0.101-0.193C14.007,7.702,14.011,7.684,14.014,7.664z"/>
</svg>
