<?xml version="1.0" encoding="iso-8859-1"?>
<!-- Generator: Adobe Illustrator 15.1.0, SVG Export Plug-In . SVG Version: 6.00 Build 0)  -->
<!DOCTYPE svg PUBLIC "-//W3C//DTD SVG 1.1//EN" "http://www.w3.org/Graphics/SVG/1.1/DTD/svg11.dtd">
<svg version="1.1" id="Layer_1" xmlns="http://www.w3.org/2000/svg" xmlns:xlink="http://www.w3.org/1999/xlink" x="0px" y="0px"
	 width="16px" height="16px" viewBox="0 0 16 16" style="enable-background:new 0 0 16 16;" xml:space="preserve">
<g>
	<path style="fill:#FFFFFF;" d="M14.889,6.654l-1.01-0.11c-0.146-0.592-0.381-1.152-0.699-1.672l0.637-0.79
		c0.16-0.199,0.145-0.487-0.035-0.668l-1.205-1.2c-0.182-0.181-0.469-0.195-0.666-0.037l-0.805,0.645
		c-0.52-0.309-1.076-0.535-1.664-0.675L9.326,1.111C9.297,0.857,9.084,0.666,8.829,0.666H7.126c-0.255,0-0.469,0.192-0.497,0.445
		L6.512,2.169c-0.56,0.144-1.091,0.365-1.587,0.662L4.107,2.177C3.909,2.019,3.622,2.033,3.441,2.214l-1.204,1.2
		C2.056,3.595,2.041,3.883,2.201,4.082l0.652,0.811C2.542,5.404,2.314,5.955,2.169,6.538L1.112,6.654
		C0.858,6.683,0.667,6.896,0.667,7.151v1.697c0,0.255,0.191,0.47,0.445,0.497l1.061,0.117c0.145,0.576,0.371,1.121,0.679,1.629
		l-0.646,0.805c-0.16,0.199-0.145,0.487,0.037,0.668l1.204,1.199c0.18,0.18,0.466,0.193,0.664,0.037l0.811-0.646
		c0.497,0.298,1.03,0.52,1.592,0.664l0.117,1.07c0.028,0.253,0.242,0.445,0.497,0.445h1.702c0.255,0,0.468-0.192,0.498-0.445
		l0.115-1.047c0.584-0.141,1.139-0.364,1.656-0.67l0.813,0.65c0.197,0.158,0.484,0.144,0.666-0.037l1.203-1.199
		c0.182-0.18,0.197-0.469,0.037-0.668l-0.641-0.795c0.318-0.519,0.553-1.076,0.701-1.666l1.012-0.111
		c0.252-0.027,0.445-0.242,0.445-0.497V7.151C15.334,6.896,15.141,6.683,14.889,6.654z M14.334,8.4L13.41,8.501
		c-0.219,0.024-0.396,0.189-0.438,0.406c-0.131,0.709-0.408,1.368-0.822,1.958c-0.129,0.183-0.121,0.428,0.02,0.602l0.586,0.729
		l-0.568,0.566l-0.744-0.594c-0.172-0.137-0.412-0.146-0.592-0.023c-0.592,0.4-1.25,0.666-1.954,0.789
		c-0.219,0.038-0.387,0.217-0.411,0.438L8.38,14.334H7.575l-0.107-0.98c-0.024-0.217-0.188-0.395-0.403-0.436
		c-0.682-0.131-1.318-0.396-1.892-0.791c-0.182-0.123-0.423-0.115-0.595,0.021L3.835,12.74l-0.57-0.567l0.592-0.736
		c0.139-0.173,0.147-0.416,0.021-0.599c-0.403-0.58-0.674-1.229-0.803-1.925c-0.04-0.217-0.217-0.381-0.437-0.405L1.667,8.4V7.6
		l0.971-0.107c0.22-0.024,0.397-0.189,0.438-0.407C3.203,6.383,3.473,5.73,3.879,5.147c0.127-0.183,0.118-0.426-0.021-0.6
		L3.261,3.805l0.57-0.567l0.749,0.599c0.174,0.138,0.415,0.146,0.595,0.022C5.749,3.466,6.383,3.2,7.065,3.069
		C7.28,3.028,7.443,2.852,7.467,2.634l0.106-0.968h0.808l0.105,0.951c0.024,0.222,0.192,0.399,0.411,0.438
		c0.708,0.123,1.366,0.39,1.959,0.793c0.182,0.123,0.424,0.114,0.594-0.022l0.734-0.588l0.57,0.567l-0.582,0.724
		c-0.141,0.173-0.148,0.418-0.02,0.601c0.414,0.591,0.689,1.252,0.82,1.963c0.039,0.217,0.217,0.383,0.438,0.407L14.334,7.6V8.4z"/>
	<path style="fill:#FFFFFF;" d="M8,6.137C6.971,6.137,6.133,6.973,6.133,8S6.971,9.863,8,9.863c1.029,0,1.867-0.836,1.867-1.863
		S9.029,6.137,8,6.137z M8,8.862C7.522,8.862,7.133,8.476,7.133,8S7.522,7.137,8,7.137c0.478,0,0.866,0.388,0.866,0.863
		S8.478,8.862,8,8.862z"/>
</g>
</svg>
