<?xml version="1.0" encoding="iso-8859-1"?>
<!-- Generator: Adobe Illustrator 15.1.0, SVG Export Plug-In . SVG Version: 6.00 Build 0)  -->
<!DOCTYPE svg PUBLIC "-//W3C//DTD SVG 1.1//EN" "http://www.w3.org/Graphics/SVG/1.1/DTD/svg11.dtd">
<svg version="1.1" id="Layer_1" xmlns="http://www.w3.org/2000/svg" xmlns:xlink="http://www.w3.org/1999/xlink" x="0px" y="0px"
	 width="16px" height="16px" viewBox="0 0 16 16" style="enable-background:new 0 0 16 16;" xml:space="preserve">
<path style="fill:#FFFFFF;" d="M11.356,1.237c-1.263,0-2.31,0.929-2.525,2.146H2.573c-0.201,0-0.383,0.121-0.461,0.307
	s-0.037,0.4,0.104,0.544L6.676,8.77v4.993H5.718c-0.276,0-0.5,0.224-0.5,0.5s0.224,0.5,0.5,0.5h2.915c0.276,0,0.5-0.224,0.5-0.5
	s-0.224-0.5-0.5-0.5H7.676V8.77l2.545-2.588c0.351,0.176,0.735,0.27,1.136,0.27c1.417,0,2.57-1.169,2.57-2.606
	S12.773,1.237,11.356,1.237z M10.586,4.384l-3.41,3.469l-3.41-3.469H10.586z M11.356,5.451c-0.124,0-0.243-0.029-0.361-0.058
	l1.14-1.159c0.142-0.144,0.183-0.358,0.104-0.544s-0.26-0.307-0.461-0.307h-1.92c0.195-0.661,0.789-1.146,1.498-1.146
	c0.866,0,1.57,0.721,1.57,1.607C12.927,4.73,12.223,5.451,11.356,5.451z"/>
</svg>
