<?xml version="1.0" encoding="utf-8"?>
<!-- Generator: Adobe Illustrator 19.1.1, SVG Export Plug-In . SVG Version: 6.00 Build 0)  -->
<svg version="1.1" id="Layer_1" xmlns="http://www.w3.org/2000/svg" xmlns:xlink="http://www.w3.org/1999/xlink" x="0px" y="0px"
	 viewBox="0 0 16 16" style="enable-background:new 0 0 16 16;" xml:space="preserve">
<g>
	<path d="M16,6.8L8,1.4L0,6.8l2.7,1.8v2c0,2.2,2.4,4,5.3,4c2.9,0,5.3-1.8,5.3-4v-2L16,6.8z M8,2l7.1,4.7L8,11.5L0.9,6.8L8,2z
		 M12.8,10.5c0,1.9-2.1,3.5-4.8,3.5c-2.6,0-4.8-1.6-4.8-3.5V8.9L8,12.1l4.8-3.2V10.5z"/>
	<rect x="15.3" y="9.3" width="0.5" height="2.5"/>
</g>
</svg>
