<?xml version="1.0" encoding="iso-8859-1"?>
<!-- Generator: Adobe Illustrator 15.1.0, SVG Export Plug-In . SVG Version: 6.00 Build 0)  -->
<!DOCTYPE svg PUBLIC "-//W3C//DTD SVG 1.1//EN" "http://www.w3.org/Graphics/SVG/1.1/DTD/svg11.dtd">
<svg version="1.1" id="Layer_1" xmlns="http://www.w3.org/2000/svg" xmlns:xlink="http://www.w3.org/1999/xlink" x="0px" y="0px"
	 width="16px" height="16px" viewBox="0 0 16 16" style="enable-background:new 0 0 16 16;" xml:space="preserve">
<g>
	<path style="fill:#FFFFFF;" d="M6.74,11.967c0.459,0.46,1.069,0.713,1.72,0.713s1.261-0.253,1.72-0.713
		c0.459-0.459,0.711-1.069,0.711-1.72s-0.252-1.261-0.711-1.72L9.093,7.441l5.23-5.23l-0.634-0.634L8.46,6.808L7.374,5.721
		c-0.922-0.918-2.521-0.918-3.44,0c-0.947,0.949-0.947,2.493,0,3.441L6.74,11.967z M5.653,5.906c0.251,0,0.495,0.063,0.717,0.184
		L4.305,8.156C3.992,7.57,4.086,6.837,4.567,6.355C4.857,6.065,5.243,5.906,5.653,5.906z M7.057,11.017L4.884,8.845l2.173-2.172
		l2.172,2.172L7.057,11.017z M7.742,11.598l2.066-2.066c0.313,0.587,0.219,1.32-0.264,1.802C9.077,11.802,8.325,11.918,7.742,11.598
		z"/>
	<rect x="1.677" y="13.525" style="fill:#FFFFFF;" width="12.403" height="0.897"/>
</g>
</svg>
