<?xml version="1.0" encoding="utf-8"?>
<!-- Generator: Adobe Illustrator 19.1.1, SVG Export Plug-In . SVG Version: 6.00 Build 0)  -->
<svg version="1.1" id="Layer_1" xmlns="http://www.w3.org/2000/svg" xmlns:xlink="http://www.w3.org/1999/xlink" x="0px" y="0px"
	 viewBox="0 0 16 16" style="enable-background:new 0 0 16 16;" xml:space="preserve">
<g>
	<g id="XMLID_6_">
		<path d="M12.9,16H6.7c-0.3,0-0.5-0.1-0.7-0.3l-2.7-3c-0.4-0.4-0.4-1.1,0-1.5L3.4,11c0.4-0.4,1.2-0.4,1.6,0l1,1V5.1
			C6,4.5,6.5,4,7.1,4h0.1c0.7,0,1.1,0.4,1.1,1.1v2.8c0.1-0.1,0.3-0.2,0.5-0.2c0,0,0.1,0,0.1,0H9c0,0,0,0,0.1,0c0.6,0.1,1,0.5,1,1
			v0.1c0.2-0.1,0.4-0.2,0.7-0.2h0.1c0.7,0,1.2,0.4,1.2,1v0.1c0.2-0.1,0.4-0.2,0.6-0.2h0.1c0.7,0,1.1,0.4,1.1,1V15
			C13.8,15.5,13.4,16,12.9,16z M4.2,11.2c-0.2,0-0.3,0.1-0.4,0.2l-0.1,0.1c-0.2,0.2-0.2,0.6,0,0.8l2.7,3c0,0,0.2,0.1,0.3,0.1h6.2
			c0.3,0,0.4-0.2,0.4-0.5v-4.5c0-0.4-0.3-0.5-0.6-0.5h-0.1c-0.3,0-0.6,0.2-0.7,0.5c0,0.1-0.1,0.2-0.3,0.2c-0.1,0-0.2-0.1-0.2-0.2
			V9.6c0-0.4-0.4-0.5-0.7-0.5h-0.1c-0.3,0-0.6,0.2-0.7,0.5c0,0.1-0.1,0.2-0.3,0.2c-0.1,0-0.2-0.1-0.2-0.2V8.7c0-0.4-0.3-0.5-0.6-0.5
			c-0.3,0-0.5,0.2-0.6,0.5c0,0.1-0.2,0.2-0.3,0.2c-0.1,0-0.2-0.1-0.2-0.2V5.1c0-0.4-0.3-0.6-0.6-0.6H7.1c-0.4,0-0.6,0.3-0.6,0.6v7.5
			c0,0.1-0.1,0.2-0.2,0.2c-0.1,0-0.2,0-0.3-0.1l-1.4-1.4C4.5,11.3,4.4,11.2,4.2,11.2z"/>
	</g>
	<g id="XMLID_5_">
		<path d="M4.1,4.8H2.4c-0.1,0-0.3-0.1-0.3-0.3s0.1-0.3,0.3-0.3h1.7c0.1,0,0.3,0.1,0.3,0.3S4.2,4.8,4.1,4.8z"/>
	</g>
	<g id="XMLID_4_">
		<path d="M7.2,2.3C7.1,2.3,7,2.1,7,2V0.3C7,0.2,7.1,0,7.2,0s0.3,0.1,0.3,0.3V2C7.5,2.1,7.3,2.3,7.2,2.3z"/>
	</g>
	<g id="XMLID_3_">
		<path d="M5.3,3.1c-0.1,0-0.1,0-0.2-0.1L3.9,1.9c0,0-0.1-0.1-0.1-0.2s0-0.1,0.1-0.2c0.1-0.1,0.3-0.1,0.4,0l1.2,1.2
			c0,0,0.1,0.1,0.1,0.2s0,0.1-0.1,0.2S5.4,3.1,5.3,3.1z"/>
	</g>
	<g id="XMLID_2_">
		<path d="M12,4.8h-1.7c-0.1,0-0.3-0.1-0.3-0.3s0.1-0.3,0.3-0.3H12c0.1,0,0.3,0.1,0.3,0.3S12.1,4.8,12,4.8z"/>
	</g>
	<g id="XMLID_1_">
		<path d="M9.1,3.1C9,3.1,9,3.1,8.9,3.1C8.8,3,8.8,2.8,8.9,2.7l1.2-1.2c0.1-0.1,0.3-0.1,0.4,0c0.1,0.1,0.1,0.3,0,0.4L9.3,3.1
			C9.2,3.1,9.2,3.1,9.1,3.1z"/>
	</g>
</g>
</svg>
