<?xml version="1.0" encoding="utf-8"?>
<!-- Generator: Adobe Illustrator 19.1.1, SVG Export Plug-In . SVG Version: 6.00 Build 0)  -->
<svg version="1.1" id="Layer_1" xmlns="http://www.w3.org/2000/svg" xmlns:xlink="http://www.w3.org/1999/xlink" x="0px" y="0px"
	 viewBox="0 0 16 16" style="enable-background:new 0 0 16 16;" xml:space="preserve">
<style type="text/css">
	.st0{fill:#030202;}
</style>
<path class="st0" d="M15.9,5.2L8.1,0C8.1,0,7.9,0,7.9,0L0.1,5.2C0,5.3,0,5.4,0,5.5c0,0.1,0.1,0.2,0.2,0.2h2.3v10.1
	c0,0.1,0.1,0.3,0.3,0.3h2.6h5.2h2.6c0.1,0,0.3-0.1,0.3-0.3V5.7h2.3c0.1,0,0.2-0.1,0.2-0.2C16,5.4,16,5.3,15.9,5.2z M5.7,15.5V8.3
	h4.6v7.2H5.7z M13.2,5.2c-0.1,0-0.3,0.1-0.3,0.3v10.1h-2.1V8c0-0.1-0.1-0.3-0.3-0.3H5.4C5.3,7.7,5.2,7.9,5.2,8v7.5H3.1V5.4
	c0-0.1-0.1-0.3-0.3-0.3H1.1L8,0.6l6.9,4.6H13.2z"/>
</svg>
