<?xml version="1.0" encoding="iso-8859-1"?>
<!-- Generator: Adobe Illustrator 15.1.0, SVG Export Plug-In . SVG Version: 6.00 Build 0)  -->
<!DOCTYPE svg PUBLIC "-//W3C//DTD SVG 1.1//EN" "http://www.w3.org/Graphics/SVG/1.1/DTD/svg11.dtd">
<svg version="1.1" id="Layer_1" xmlns="http://www.w3.org/2000/svg" xmlns:xlink="http://www.w3.org/1999/xlink" x="0px" y="0px"
	 width="16px" height="16px" viewBox="0 0 16 16" style="enable-background:new 0 0 16 16;" xml:space="preserve">
<path style="fill:#FFFFFF;" d="M15.53,8.128c-0.006-0.016-0.003-0.031-0.01-0.046l-2.728-5.593
	c-0.084-0.172-0.258-0.281-0.449-0.281H3.748c-0.19,0-0.364,0.108-0.448,0.278L0.527,8.079C0.525,8.084,0.525,8.09,0.523,8.095
	c-0.086,0.09-0.141,0.21-0.141,0.345v4.853c0,0.276,0.224,0.5,0.5,0.5h14.234c0.276,0,0.5-0.224,0.5-0.5V8.394
	C15.617,8.293,15.58,8.206,15.53,8.128z M4.058,3.208h7.973l2.24,4.593h-3.036c-0.133,0-0.26,0.053-0.354,0.146L9.758,9.071H6.443
	L5.247,7.938C5.152,7.847,5.012,7.812,4.892,7.801c-0.002,0-2.006,0.035-3.131,0.041L4.058,3.208z M1.383,12.792V8.838
	c0.159,0.003,0.341,0.004,0.57,0.004c0.929,0,2.251-0.026,2.756-0.037L5.9,9.935c0.093,0.088,0.216,0.137,0.344,0.137h3.721
	c0.132,0,0.259-0.053,0.353-0.146l1.125-1.124h3.175v3.991H1.383z"/>
</svg>
