<?xml version="1.0" encoding="iso-8859-1"?>
<!-- Generator: Adobe Illustrator 15.1.0, SVG Export Plug-In . SVG Version: 6.00 Build 0)  -->
<!DOCTYPE svg PUBLIC "-//W3C//DTD SVG 1.1//EN" "http://www.w3.org/Graphics/SVG/1.1/DTD/svg11.dtd">
<svg version="1.1" id="Layer_1" xmlns="http://www.w3.org/2000/svg" xmlns:xlink="http://www.w3.org/1999/xlink" x="0px" y="0px"
	 width="16px" height="16px" viewBox="0 0 16 16" style="enable-background:new 0 0 16 16;" xml:space="preserve">
<path style="fill:#FFFFFF;" d="M14.166,5.287c-0.154-0.088-0.346-0.089-0.5,0.001l-3.632,2.106V5.808
	c0-0.179-0.096-0.345-0.251-0.434c-0.155-0.088-0.346-0.089-0.5,0.002L5.52,7.567v-5.44c0-0.276-0.224-0.5-0.5-0.5H2.083
	c-0.276,0-0.5,0.224-0.5,0.5v11.746c0,0.276,0.224,0.5,0.5,0.5h11.833c0.277,0,0.5-0.224,0.5-0.5V5.721
	C14.416,5.542,14.32,5.377,14.166,5.287z M13.416,13.373H2.583V2.627H4.52v5.811c0,0.179,0.096,0.345,0.251,0.434
	s0.347,0.09,0.5-0.002l3.763-2.191v1.585c0,0.179,0.096,0.344,0.251,0.434c0.154,0.088,0.346,0.089,0.5-0.001l3.631-2.106V13.373z"
	/>
</svg>
