<?xml version="1.0" encoding="iso-8859-1"?>
<!-- Generator: Adobe Illustrator 15.1.0, SVG Export Plug-In . SVG Version: 6.00 Build 0)  -->
<!DOCTYPE svg PUBLIC "-//W3C//DTD SVG 1.1//EN" "http://www.w3.org/Graphics/SVG/1.1/DTD/svg11.dtd">
<svg version="1.1" id="Layer_1" xmlns="http://www.w3.org/2000/svg" xmlns:xlink="http://www.w3.org/1999/xlink" x="0px" y="0px"
	 width="16px" height="16px" viewBox="0 0 16 16" style="enable-background:new 0 0 16 16;" xml:space="preserve">
<g>
	<path style="fill:#FFFFFF;" d="M8,1.25C4.278,1.25,1.25,4.278,1.25,8c0,3.723,3.028,6.75,6.75,6.75s6.75-3.027,6.75-6.75
		C14.75,4.278,11.722,1.25,8,1.25z M8,13.75c-3.171,0-5.75-2.579-5.75-5.75c0-3.17,2.579-5.75,5.75-5.75S13.75,4.83,13.75,8
		C13.75,11.171,11.171,13.75,8,13.75z"/>
	<path style="fill:#FFFFFF;" d="M8.205,6.834c-0.276,0-0.5,0.224-0.5,0.5v4c0,0.275,0.224,0.5,0.5,0.5c0.275,0,0.5-0.225,0.5-0.5v-4
		C8.705,7.058,8.48,6.834,8.205,6.834z"/>
	<path style="fill:#FFFFFF;" d="M8.218,4.784c-0.384,0-0.661,0.288-0.661,0.66c0,0.36,0.266,0.648,0.637,0.648
		c0.42,0,0.684-0.288,0.672-0.648C8.865,5.072,8.613,4.784,8.218,4.784z"/>
</g>
</svg>
