<?xml version="1.0" encoding="iso-8859-1"?>
<!-- Generator: Adobe Illustrator 15.1.0, SVG Export Plug-In . SVG Version: 6.00 Build 0)  -->
<!DOCTYPE svg PUBLIC "-//W3C//DTD SVG 1.1//EN" "http://www.w3.org/Graphics/SVG/1.1/DTD/svg11.dtd">
<svg version="1.1" id="Layer_1" xmlns="http://www.w3.org/2000/svg" xmlns:xlink="http://www.w3.org/1999/xlink" x="0px" y="0px"
	 width="16px" height="16px" viewBox="0 0 16 16" style="enable-background:new 0 0 16 16;" xml:space="preserve">
<path style="fill:#FFFFFF;" d="M11.988,1.627H8.307c-0.276,0-0.5,0.224-0.5,0.5s0.224,0.5,0.5,0.5h1.13L5.472,13.373h-1.46
	c-0.276,0-0.5,0.223-0.5,0.5c0,0.275,0.224,0.5,0.5,0.5h3.682c0.276,0,0.5-0.225,0.5-0.5c0-0.277-0.224-0.5-0.5-0.5H6.537
	l3.964-10.746h1.487c0.276,0,0.5-0.224,0.5-0.5S12.265,1.627,11.988,1.627z"/>
</svg>
