<?xml version="1.0" encoding="iso-8859-1"?>
<!-- Generator: Adobe Illustrator 15.1.0, SVG Export Plug-In . SVG Version: 6.00 Build 0)  -->
<!DOCTYPE svg PUBLIC "-//W3C//DTD SVG 1.1//EN" "http://www.w3.org/Graphics/SVG/1.1/DTD/svg11.dtd">
<svg version="1.1" id="Layer_1" xmlns="http://www.w3.org/2000/svg" xmlns:xlink="http://www.w3.org/1999/xlink" x="0px" y="0px"
	 width="16px" height="16px" viewBox="0 0 16 16" style="enable-background:new 0 0 16 16;" xml:space="preserve">
<path style="fill:#FFFFFF;" d="M13.142,11.646L7.088,5.594c0.273-0.396,0.427-0.859,0.44-1.341c0.017-0.648-0.221-1.252-0.67-1.701
	C5.968,1.661,4.382,1.695,3.454,2.624C2.993,3.085,2.73,3.69,2.712,4.329c-0.017,0.648,0.221,1.252,0.67,1.701
	c0.432,0.432,1.013,0.67,1.636,0.67c0.485,0,0.951-0.145,1.354-0.408l4.248,4.249l-0.763,0.763c-0.195,0.195-0.195,0.512,0,0.707
	c0.098,0.098,0.226,0.146,0.354,0.146s0.256-0.049,0.354-0.146l0.763-0.763L12.081,12l-1.241,1.241
	c-0.195,0.195-0.195,0.512,0,0.707c0.098,0.098,0.226,0.146,0.354,0.146s0.256-0.049,0.354-0.146l1.595-1.595
	c0.094-0.094,0.146-0.221,0.146-0.354S13.235,11.74,13.142,11.646z M4.089,5.322C3.836,5.069,3.703,4.726,3.712,4.355
	c0.01-0.381,0.169-0.745,0.448-1.023c0.29-0.29,0.667-0.449,1.063-0.449c0.355,0,0.686,0.134,0.929,0.377
	c0.253,0.253,0.387,0.596,0.377,0.967C6.519,4.607,6.36,4.971,6.081,5.25C5.53,5.799,4.603,5.835,4.089,5.322z"/>
</svg>
