<?xml version="1.0" encoding="iso-8859-1"?>
<!-- Generator: Adobe Illustrator 15.1.0, SVG Export Plug-In . SVG Version: 6.00 Build 0)  -->
<!DOCTYPE svg PUBLIC "-//W3C//DTD SVG 1.1//EN" "http://www.w3.org/Graphics/SVG/1.1/DTD/svg11.dtd">
<svg version="1.1" id="Layer_1" xmlns="http://www.w3.org/2000/svg" xmlns:xlink="http://www.w3.org/1999/xlink" x="0px" y="0px"
	 width="16px" height="16px" viewBox="0 0 16 16" style="enable-background:new 0 0 16 16;" xml:space="preserve">
<g>
	<path style="fill:#FFFFFF;" d="M3.024,11.853h9.949c0.276,0,0.5-0.224,0.5-0.5V2.894c0-0.276-0.224-0.5-0.5-0.5H3.024
		c-0.276,0-0.5,0.224-0.5,0.5v8.459C2.524,11.629,2.748,11.853,3.024,11.853z M3.524,3.394h8.949v7.459H3.524V3.394z"/>
	<path style="fill:#FFFFFF;" d="M15.013,12.606H0.987c-0.276,0-0.5,0.224-0.5,0.5s0.224,0.5,0.5,0.5h14.025
		c0.276,0,0.5-0.224,0.5-0.5S15.289,12.606,15.013,12.606z"/>
</g>
</svg>
