<?xml version="1.0" encoding="iso-8859-1"?>
<!-- Generator: Adobe Illustrator 15.1.0, SVG Export Plug-In . SVG Version: 6.00 Build 0)  -->
<!DOCTYPE svg PUBLIC "-//W3C//DTD SVG 1.1//EN" "http://www.w3.org/Graphics/SVG/1.1/DTD/svg11.dtd">
<svg version="1.1" id="Layer_1" xmlns="http://www.w3.org/2000/svg" xmlns:xlink="http://www.w3.org/1999/xlink" x="0px" y="0px"
	 width="16px" height="16px" viewBox="0 0 16 16" style="enable-background:new 0 0 16 16;" xml:space="preserve">
<g>
	<path style="fill:#FFFFFF;" d="M12.079,7.901c0.043-0.053,0.074-0.111,0.092-0.174c0.007-0.022,0.011-0.042,0.015-0.064
		c0.01-0.068,0.007-0.135-0.011-0.202c-0.002-0.009,0.002-0.019-0.001-0.028c-0.003-0.007-0.005-0.014-0.007-0.021
		c-0.001-0.002-0.002-0.005-0.003-0.007c-0.03-0.091-0.063-0.165-0.161-0.221L6.768,1.778c-0.193-0.2-0.51-0.204-0.707-0.012
		C5.863,1.958,5.857,2.275,6.049,2.473l4.416,4.559c-0.896-0.003-2.281,0.032-4.461,0.1C4.277,7.185,2.964,7.763,2.101,8.849
		c-1.596,2.008-1.021,4.997-0.995,5.124c0.048,0.237,0.256,0.402,0.489,0.402c0.032,0,0.065-0.004,0.099-0.01
		c0.271-0.055,0.446-0.317,0.393-0.588C2.082,13.75,1.58,11.108,2.887,9.467c0.671-0.842,1.73-1.292,3.147-1.335
		c2.403-0.074,3.792-0.089,4.548-0.09l-4.451,4.71c-0.189,0.2-0.181,0.517,0.02,0.706c0.201,0.189,0.517,0.181,0.707-0.021
		l5.204-5.505C12.071,7.923,12.071,7.91,12.079,7.901z"/>
	<path style="fill:#FFFFFF;" d="M14.98,7.773c0.012-0.029,0.013-0.061,0.019-0.091c0.007-0.032,0.017-0.064,0.017-0.097
		c0-0.029-0.01-0.057-0.016-0.085c-0.006-0.035-0.009-0.069-0.022-0.102c-0.012-0.028-0.032-0.051-0.049-0.077
		c-0.018-0.027-0.029-0.056-0.052-0.08l-5.29-5.463c-0.193-0.2-0.509-0.204-0.708-0.012C8.681,1.958,8.675,2.275,8.868,2.473
		l4.958,5.12l-4.875,5.159c-0.189,0.2-0.181,0.517,0.02,0.706c0.097,0.091,0.221,0.137,0.344,0.137c0.133,0,0.265-0.053,0.363-0.157
		l5.203-5.505c0.021-0.023,0.031-0.051,0.048-0.077C14.946,7.828,14.968,7.803,14.98,7.773z"/>
</g>
</svg>
