<?xml version="1.0" encoding="iso-8859-1"?>
<!-- Generator: Adobe Illustrator 15.1.0, SVG Export Plug-In . SVG Version: 6.00 Build 0)  -->
<!DOCTYPE svg PUBLIC "-//W3C//DTD SVG 1.1//EN" "http://www.w3.org/Graphics/SVG/1.1/DTD/svg11.dtd">
<svg version="1.1" id="Layer_1" xmlns="http://www.w3.org/2000/svg" xmlns:xlink="http://www.w3.org/1999/xlink" x="0px" y="0px"
	 width="16px" height="16px" viewBox="0 0 16 16" style="enable-background:new 0 0 16 16;" xml:space="preserve">
<g>
	<path style="fill:#FFFFFF;" d="M4.349,4.152h10.124c0.276,0,0.5-0.224,0.5-0.5s-0.224-0.5-0.5-0.5H4.349
		c-0.276,0-0.5,0.224-0.5,0.5S4.072,4.152,4.349,4.152z"/>
	<path style="fill:#FFFFFF;" d="M2.078,5.249h0.515V2.055H2.145L2.129,2.162C2.067,2.584,1.91,2.609,1.421,2.623L1.3,2.625v0.438
		h0.778V5.249z"/>
	<path style="fill:#FFFFFF;" d="M14.473,7.478H4.349c-0.276,0-0.5,0.224-0.5,0.5s0.224,0.5,0.5,0.5h10.124
		c0.276,0,0.5-0.224,0.5-0.5S14.749,7.478,14.473,7.478z"/>
	<path style="fill:#FFFFFF;" d="M3.232,9.094H1.65c0.122-0.212,0.407-0.39,0.627-0.528C2.33,8.534,2.379,8.502,2.421,8.475
		c0.395-0.254,0.798-0.589,0.798-1.152c0-0.579-0.407-0.954-1.037-0.954c-0.315,0-0.58,0.101-0.766,0.29
		C1.212,6.866,1.108,7.17,1.115,7.539l0.002,0.123h0.517L1.63,7.533C1.623,7.296,1.683,7.1,1.799,6.981
		c0.09-0.093,0.215-0.14,0.37-0.14c0.267,0,0.536,0.147,0.536,0.477c0,0.189-0.057,0.315-0.208,0.467
		C2.354,7.927,2.174,8.047,1.983,8.173c-0.435,0.288-0.928,0.614-0.94,1.288L1.041,9.588h2.191V9.094z"/>
	<path style="fill:#FFFFFF;" d="M14.473,11.805H4.349c-0.276,0-0.5,0.223-0.5,0.5c0,0.275,0.224,0.5,0.5,0.5h10.124
		c0.276,0,0.5-0.225,0.5-0.5C14.973,12.027,14.749,11.805,14.473,11.805z"/>
	<path style="fill:#FFFFFF;" d="M2.888,12.174c0.191-0.143,0.302-0.367,0.302-0.637c0-0.604-0.521-0.875-1.036-0.875
		c-0.621,0-1.056,0.449-1.056,1.094v0.125h0.52l-0.004-0.129c-0.006-0.199,0.047-0.361,0.152-0.469
		c0.094-0.098,0.226-0.146,0.392-0.146c0.193,0,0.518,0.055,0.518,0.43c0,0.322-0.309,0.408-0.472,0.408H1.854v0.473h0.349
		c0.137,0,0.582,0.037,0.582,0.498c0,0.361-0.325,0.527-0.628,0.527c-0.192,0-0.351-0.061-0.458-0.172
		c-0.109-0.113-0.162-0.279-0.153-0.477l0.006-0.131H1.04l-0.009,0.117c-0.022,0.314,0.065,0.59,0.255,0.793
		c0.204,0.221,0.515,0.342,0.875,0.342c0.67,0,1.138-0.42,1.138-1.021C3.299,12.586,3.147,12.318,2.888,12.174z"/>
</g>
</svg>
