<?xml version="1.0" encoding="iso-8859-1"?>
<!-- Generator: Adobe Illustrator 15.1.0, SVG Export Plug-In . SVG Version: 6.00 Build 0)  -->
<!DOCTYPE svg PUBLIC "-//W3C//DTD SVG 1.1//EN" "http://www.w3.org/Graphics/SVG/1.1/DTD/svg11.dtd">
<svg version="1.1" id="Layer_1" xmlns="http://www.w3.org/2000/svg" xmlns:xlink="http://www.w3.org/1999/xlink" x="0px" y="0px"
	 width="16px" height="16px" viewBox="0 0 16 16" style="enable-background:new 0 0 16 16;" xml:space="preserve">
<g>
	<path style="fill:#FFFFFF;" d="M2.325,2.109c-0.844,0-1.53,0.687-1.53,1.529c0,0.844,0.687,1.53,1.53,1.53s1.53-0.687,1.53-1.53
		C3.855,2.796,3.168,2.109,2.325,2.109z M2.325,4.169c-0.292,0-0.53-0.238-0.53-0.53s0.238-0.529,0.53-0.529s0.53,0.237,0.53,0.529
		S2.617,4.169,2.325,4.169z"/>
	<path style="fill:#FFFFFF;" d="M4.582,4.139h10.124c0.277,0,0.5-0.224,0.5-0.5s-0.223-0.5-0.5-0.5H4.582
		c-0.276,0-0.5,0.224-0.5,0.5S4.305,4.139,4.582,4.139z"/>
	<path style="fill:#FFFFFF;" d="M2.325,6.47c-0.844,0-1.53,0.687-1.53,1.53c0,0.843,0.687,1.529,1.53,1.529S3.855,8.843,3.855,8
		C3.855,7.156,3.168,6.47,2.325,6.47z M2.325,8.529c-0.292,0-0.53-0.237-0.53-0.529s0.238-0.53,0.53-0.53S2.855,7.708,2.855,8
		S2.617,8.529,2.325,8.529z"/>
	<path style="fill:#FFFFFF;" d="M14.705,7.5H4.582c-0.276,0-0.5,0.224-0.5,0.5s0.224,0.5,0.5,0.5h10.124c0.277,0,0.5-0.224,0.5-0.5
		S14.982,7.5,14.705,7.5z"/>
	<path style="fill:#FFFFFF;" d="M2.325,10.83c-0.844,0-1.53,0.687-1.53,1.53s0.687,1.53,1.53,1.53s1.53-0.687,1.53-1.53
		S3.168,10.83,2.325,10.83z M2.325,12.891c-0.292,0-0.53-0.238-0.53-0.53s0.238-0.53,0.53-0.53s0.53,0.238,0.53,0.53
		S2.617,12.891,2.325,12.891z"/>
	<path style="fill:#FFFFFF;" d="M14.705,11.86H4.582c-0.276,0-0.5,0.224-0.5,0.5s0.224,0.5,0.5,0.5h10.124
		c0.277,0,0.5-0.224,0.5-0.5S14.982,11.86,14.705,11.86z"/>
</g>
</svg>
