<?xml version="1.0" encoding="iso-8859-1"?>
<!-- Generator: Adobe Illustrator 15.1.0, SVG Export Plug-In . SVG Version: 6.00 Build 0)  -->
<!DOCTYPE svg PUBLIC "-//W3C//DTD SVG 1.1//EN" "http://www.w3.org/Graphics/SVG/1.1/DTD/svg11.dtd">
<svg version="1.1" id="Layer_1" xmlns="http://www.w3.org/2000/svg" xmlns:xlink="http://www.w3.org/1999/xlink" x="0px" y="0px"
	 width="16px" height="16px" viewBox="0 0 16 16" style="enable-background:new 0 0 16 16;" xml:space="preserve">
<path style="fill:#FFFFFF;" d="M12.723,6.594H12.59V5.587C12.563,3.091,10.504,1.061,8,1.061c-2.512,0-4.57,2.036-4.587,4.5
	C3.412,5.568,3.411,6.149,3.411,6.594H3.278c-0.276,0-0.5,0.224-0.5,0.5v7.346c0,0.277,0.224,0.5,0.5,0.5h9.445
	c0.275,0,0.5-0.223,0.5-0.5V7.094C13.223,6.817,12.998,6.594,12.723,6.594z M4.411,5.608C4.425,3.651,6.035,2.061,8,2.061
	c1.959,0,3.569,1.587,3.59,3.532v1.001H4.41C4.41,6.181,4.41,5.656,4.411,5.608z M12.223,13.939H3.778V7.594h0.129
	c0.001,0,0.002,0.001,0.003,0.001s0.002-0.001,0.003-0.001h8.173c0.002,0,0.002,0.001,0.004,0.001l0.002-0.001h0.131V13.939z"/>
</svg>
