<?xml version="1.0" encoding="iso-8859-1"?>
<!-- Generator: Adobe Illustrator 15.1.0, SVG Export Plug-In . SVG Version: 6.00 Build 0)  -->
<!DOCTYPE svg PUBLIC "-//W3C//DTD SVG 1.1//EN" "http://www.w3.org/Graphics/SVG/1.1/DTD/svg11.dtd">
<svg version="1.1" id="Layer_1" xmlns="http://www.w3.org/2000/svg" xmlns:xlink="http://www.w3.org/1999/xlink" x="0px" y="0px"
	 width="16px" height="16px" viewBox="0 0 16 16" style="enable-background:new 0 0 16 16;" xml:space="preserve">
<path style="fill:#FFFFFF;" d="M13.939,7.493l-2.738-2.41C10.994,4.9,10.679,4.92,10.496,5.128
	c-0.183,0.207-0.163,0.523,0.045,0.705L12.31,7.39H2.391c-0.276,0-0.5,0.224-0.5,0.5s0.224,0.5,0.5,0.5h10.055l-1.679,1.813
	c-0.188,0.203-0.175,0.52,0.027,0.707c0.097,0.089,0.218,0.133,0.34,0.133c0.135,0,0.269-0.054,0.367-0.16l2.476-2.674
	c0.091-0.099,0.139-0.23,0.132-0.365S14.041,7.582,13.939,7.493z"/>
</svg>
