<?xml version="1.0" encoding="iso-8859-1"?>
<!-- Generator: Adobe Illustrator 15.1.0, SVG Export Plug-In . SVG Version: 6.00 Build 0)  -->
<!DOCTYPE svg PUBLIC "-//W3C//DTD SVG 1.1//EN" "http://www.w3.org/Graphics/SVG/1.1/DTD/svg11.dtd">
<svg version="1.1" id="Layer_1" xmlns="http://www.w3.org/2000/svg" xmlns:xlink="http://www.w3.org/1999/xlink" x="0px" y="0px"
	 width="16px" height="16px" viewBox="0 0 16 16" style="enable-background:new 0 0 16 16;" xml:space="preserve">
<path style="fill:#FFFFFF;" d="M13.609,7.609H3.554l1.679-1.812C5.42,5.595,5.408,5.279,5.206,5.091
	c-0.203-0.187-0.52-0.176-0.707,0.027L2.023,7.791C1.932,7.89,1.884,8.021,1.891,8.156s0.067,0.261,0.169,0.35l2.739,2.411
	c0.095,0.084,0.213,0.125,0.33,0.125c0.139,0,0.276-0.058,0.375-0.17c0.183-0.207,0.163-0.522-0.045-0.705L3.69,8.609h9.919
	c0.276,0,0.5-0.224,0.5-0.5S13.886,7.609,13.609,7.609z"/>
</svg>
