<?xml version="1.0" encoding="iso-8859-1"?>
<!-- Generator: Adobe Illustrator 15.1.0, SVG Export Plug-In . SVG Version: 6.00 Build 0)  -->
<!DOCTYPE svg PUBLIC "-//W3C//DTD SVG 1.1//EN" "http://www.w3.org/Graphics/SVG/1.1/DTD/svg11.dtd">
<svg version="1.1" id="Layer_1" xmlns="http://www.w3.org/2000/svg" xmlns:xlink="http://www.w3.org/1999/xlink" x="0px" y="0px"
	 width="16px" height="16px" viewBox="0 0 16 16" style="enable-background:new 0 0 16 16;" xml:space="preserve">
<path style="fill:#FFFFFF;" d="M10.882,4.5L8.209,2.024c-0.1-0.091-0.234-0.149-0.365-0.132c-0.135,0.007-0.261,0.067-0.35,0.169
	L5.083,4.8C4.9,5.007,4.92,5.323,5.128,5.505C5.223,5.589,5.341,5.63,5.458,5.63c0.139,0,0.276-0.058,0.375-0.17l1.558-1.769v9.919
	c0,0.276,0.224,0.5,0.5,0.5s0.5-0.224,0.5-0.5V3.556l1.812,1.679c0.203,0.186,0.519,0.177,0.707-0.027
	C11.097,5.005,11.084,4.689,10.882,4.5z"/>
</svg>
