<?xml version="1.0" encoding="iso-8859-1"?>
<!-- Generator: Adobe Illustrator 15.1.0, SVG Export Plug-In . SVG Version: 6.00 Build 0)  -->
<!DOCTYPE svg PUBLIC "-//W3C//DTD SVG 1.1//EN" "http://www.w3.org/Graphics/SVG/1.1/DTD/svg11.dtd">
<svg version="1.1" id="Layer_1" xmlns="http://www.w3.org/2000/svg" xmlns:xlink="http://www.w3.org/1999/xlink" x="0px" y="0px"
	 width="16px" height="16px" viewBox="0 0 16 16" style="enable-background:new 0 0 16 16;" xml:space="preserve">
<path style="fill:#FFFFFF;" d="M14.612,8.004l-1.956-1.956c-0.188-0.188-0.52-0.188-0.707,0c-0.017,0.017-4.091,4.09-4.165,4.164
	c-0.595,0.576-1.577,0.621-2.104,0.095C5.134,9.76,5.178,8.814,5.779,8.2C5.854,8.125,9.648,4.331,9.94,4.039
	c0.195-0.195,0.195-0.512,0-0.707L7.984,1.376C7.79,1.182,7.436,1.218,7.239,1.414c-0.591,0.59-1.094,1.094-1.534,1.534
	c-0.001,0-0.001,0-0.002,0.001S5.702,2.95,5.702,2.951C2.92,5.732,2.905,5.747,2.904,5.749c-2.125,2.172-2.227,5.564-0.228,7.563
	c0.93,0.93,2.191,1.441,3.552,1.441c1.476,0,2.894-0.587,3.99-1.649c0.006-0.006,0.025-0.024,4.394-4.393
	C14.808,8.516,14.808,8.199,14.612,8.004z M7.631,2.437L8.88,3.686c-0.317,0.317-0.6,0.6-0.867,0.866L6.765,3.304
	C7.103,2.965,7.407,2.66,7.631,2.437z M9.526,12.382c-0.912,0.885-2.084,1.371-3.298,1.371c-1.094,0-2.104-0.407-2.845-1.148
	C1.771,10.992,1.876,8.23,3.618,6.449C3.66,6.407,4.901,5.166,6.058,4.011l1.248,1.248C5.146,7.419,5.064,7.5,5.065,7.5
	c-0.983,1.004-1.025,2.58-0.092,3.514c0.903,0.904,2.542,0.852,3.49-0.068c0.016-0.015,1.169-1.167,2.262-2.26l1.249,1.249
	C10.819,11.089,9.567,12.341,9.526,12.382z M12.682,9.228l-1.249-1.249c0.343-0.343,0.65-0.65,0.87-0.87l1.249,1.249
	C13.333,8.576,13.026,8.883,12.682,9.228z"/>
</svg>
