<?xml version="1.0" encoding="iso-8859-1"?>
<!-- Generator: Adobe Illustrator 15.1.0, SVG Export Plug-In . SVG Version: 6.00 Build 0)  -->
<!DOCTYPE svg PUBLIC "-//W3C//DTD SVG 1.1//EN" "http://www.w3.org/Graphics/SVG/1.1/DTD/svg11.dtd">
<svg version="1.1" id="Layer_1" xmlns="http://www.w3.org/2000/svg" xmlns:xlink="http://www.w3.org/1999/xlink" x="0px" y="0px"
	 width="16px" height="16px" viewBox="0 0 16 16" style="enable-background:new 0 0 16 16;" xml:space="preserve">
<g>
	<path style="fill:#FFFFFF;" d="M11.875,5.283c0-2.137-1.738-3.875-3.875-3.875c-2.136,0-3.874,1.738-3.874,3.875
		c0,1.98,1.499,3.6,3.418,3.829v4.98c0,0.277,0.224,0.5,0.5,0.5s0.5-0.223,0.5-0.5V9.104C10.422,8.835,11.875,7.233,11.875,5.283z
		 M8,8.158c-1.585,0-2.874-1.29-2.874-2.875S6.415,2.408,8,2.408c1.584,0,2.875,1.29,2.875,2.875S9.584,8.158,8,8.158z"/>
	<path style="fill:#FFFFFF;" d="M7.123,3.161c-0.734,0-1.332,0.598-1.332,1.333s0.598,1.333,1.332,1.333
		c0.735,0,1.333-0.598,1.333-1.333S7.858,3.161,7.123,3.161z M7.123,4.827c-0.183,0-0.332-0.149-0.332-0.333S6.94,4.161,7.123,4.161
		c0.184,0,0.333,0.149,0.333,0.333S7.306,4.827,7.123,4.827z"/>
</g>
</svg>
