<?xml version="1.0" encoding="iso-8859-1"?>
<!-- Generator: Adobe Illustrator 15.1.0, SVG Export Plug-In . SVG Version: 6.00 Build 0)  -->
<!DOCTYPE svg PUBLIC "-//W3C//DTD SVG 1.1//EN" "http://www.w3.org/Graphics/SVG/1.1/DTD/svg11.dtd">
<svg version="1.1" id="Layer_1" xmlns="http://www.w3.org/2000/svg" xmlns:xlink="http://www.w3.org/1999/xlink" x="0px" y="0px"
	 width="16px" height="16px" viewBox="0 0 16 16" style="enable-background:new 0 0 16 16;" xml:space="preserve">
<path style="fill:#FFFFFF;" d="M14.629,3.593h-3.088V2.172c0-0.276-0.223-0.5-0.5-0.5H1.372c-0.276,0-0.5,0.224-0.5,0.5v11.656
	c0,0.275,0.224,0.5,0.5,0.5h9.669c0.277,0,0.5-0.225,0.5-0.5v-1.219c2.023-0.396,3.455-2.775,3.518-2.883
	c0.045-0.076,0.07-0.164,0.07-0.254V4.093C15.129,3.817,14.904,3.593,14.629,3.593z M10.541,13.328H1.872V2.672h8.669V13.328z
	 M14.129,9.33c-0.404,0.635-1.428,1.908-2.588,2.248V4.593h2.588V9.33z"/>
</svg>
