<?xml version="1.0" encoding="iso-8859-1"?>
<!-- Generator: Adobe Illustrator 15.1.0, SVG Export Plug-In . SVG Version: 6.00 Build 0)  -->
<!DOCTYPE svg PUBLIC "-//W3C//DTD SVG 1.1//EN" "http://www.w3.org/Graphics/SVG/1.1/DTD/svg11.dtd">
<svg version="1.1" id="Layer_1" xmlns="http://www.w3.org/2000/svg" xmlns:xlink="http://www.w3.org/1999/xlink" x="0px" y="0px"
	 width="16px" height="16px" viewBox="0 0 16 16" style="enable-background:new 0 0 16 16;" xml:space="preserve">
<path style="fill:#FFFFFF;" d="M13.659,1.446c-0.118-0.095-0.271-0.134-0.419-0.1L5.54,2.99C5.31,3.039,5.145,3.243,5.145,3.479
	v7.436c-0.294-0.173-0.631-0.279-0.994-0.279c-1.101,0-1.995,0.904-1.995,2.016s0.895,2.016,1.995,2.016
	c1.1,0,1.994-0.904,1.994-2.016c0-0.045-0.011-0.089-0.014-0.134c0.003-0.022,0.014-0.043,0.014-0.067v-6.1l6.7-1.431v3.94
	c-0.294-0.172-0.631-0.279-0.994-0.279c-1.101,0-1.995,0.904-1.995,2.016c0,1.111,0.895,2.016,1.995,2.016
	c0.961,0,1.766-0.691,1.953-1.607c0.026-0.061,0.041-0.128,0.041-0.198V1.834C13.845,1.684,13.776,1.541,13.659,1.446z M4.15,13.666
	c-0.549,0-0.995-0.455-0.995-1.016c0-0.56,0.446-1.016,0.995-1.016c0.548,0,0.994,0.456,0.994,1.016
	C5.145,13.211,4.698,13.666,4.15,13.666z M6.145,5.327V3.883l6.7-1.43v1.444L6.145,5.327z M11.851,11.611
	c-0.549,0-0.995-0.456-0.995-1.016c0-0.561,0.446-1.017,0.995-1.017c0.548,0,0.994,0.456,0.994,1.017
	C12.845,11.155,12.398,11.611,11.851,11.611z"/>
</svg>
