<?xml version="1.0" encoding="utf-8"?>
<!-- Generator: Adobe Illustrator 19.1.1, SVG Export Plug-In . SVG Version: 6.00 Build 0)  -->
<svg version="1.1" id="Layer_1" xmlns="http://www.w3.org/2000/svg" xmlns:xlink="http://www.w3.org/1999/xlink" x="0px" y="0px"
	 viewBox="0 0 16 16" style="enable-background:new 0 0 16 16;" xml:space="preserve">
<g>
	<path d="M12.1,2.6h-1.3C10.7,1.1,9.5,0,8,0C6.5,0,5.3,1.1,5.2,2.6H3.9H2.6V16h10.8V2.6H12.1z M5.4,3.1h0.3V2.8c0-1.3,1-2.3,2.3-2.3
		c1.3,0,2.3,1,2.3,2.3v0.3h0.3h1v2.1H4.4V3.1H5.4z M12.9,15.5H3.1V3.1h0.8v2.6h8.3V3.1h0.8V15.5z"/>
	<rect x="5.4" y="7.7" width="5.2" height="0.5"/>
	<rect x="5.4" y="10.3" width="5.2" height="0.5"/>
	<rect x="5.4" y="12.9" width="5.2" height="0.5"/>
	<path d="M9.5,2.8C9.5,2,8.9,1.3,8,1.3C7.1,1.3,6.5,2,6.5,2.8v0.3h3.1V2.8z M7,2.6c0.1-0.4,0.5-0.8,1-0.8c0.5,0,0.9,0.3,1,0.8H7z"/>
</g>
</svg>
