<?xml version="1.0" encoding="iso-8859-1"?>
<!-- Generator: Adobe Illustrator 15.1.0, SVG Export Plug-In . SVG Version: 6.00 Build 0)  -->
<!DOCTYPE svg PUBLIC "-//W3C//DTD SVG 1.1//EN" "http://www.w3.org/Graphics/SVG/1.1/DTD/svg11.dtd">
<svg version="1.1" id="Layer_1" xmlns="http://www.w3.org/2000/svg" xmlns:xlink="http://www.w3.org/1999/xlink" x="0px" y="0px"
	 width="16px" height="16px" viewBox="0 0 16 16" style="enable-background:new 0 0 16 16;" xml:space="preserve">
<path style="fill:#FFFFFF;" d="M14.168,5.111l-3.354-3.287c-0.094-0.091-0.219-0.143-0.35-0.143H5.666
	c-0.134,0-0.263,0.054-0.356,0.149L1.826,5.382c-0.092,0.094-0.144,0.22-0.144,0.351v4.799c0,0.136,0.056,0.267,0.153,0.36
	l3.418,3.287c0.093,0.09,0.218,0.14,0.347,0.14h4.931c0.135,0,0.266-0.056,0.359-0.153l3.287-3.418
	c0.09-0.093,0.141-0.218,0.141-0.347V5.469C14.318,5.334,14.264,5.206,14.168,5.111z M13.318,10.199l-3,3.119H5.801l-3.119-3V5.937
	l3.193-3.255h4.384l3.059,2.997V10.199z"/>
</svg>
