<?xml version="1.0" encoding="iso-8859-1"?>
<!-- Generator: Adobe Illustrator 15.1.0, SVG Export Plug-In . SVG Version: 6.00 Build 0)  -->
<!DOCTYPE svg PUBLIC "-//W3C//DTD SVG 1.1//EN" "http://www.w3.org/Graphics/SVG/1.1/DTD/svg11.dtd">
<svg version="1.1" id="Layer_1" xmlns="http://www.w3.org/2000/svg" xmlns:xlink="http://www.w3.org/1999/xlink" x="0px" y="0px"
	 width="16px" height="16px" viewBox="0 0 16 16" style="enable-background:new 0 0 16 16;" xml:space="preserve">
<path style="fill:#FFFFFF;" d="M13.275,3.223c-0.988-0.953-2.711-1.16-4.336,0.525L4.562,8.288c-0.84,0.872-0.605,1.977,0.06,2.619
	c0.666,0.643,1.778,0.836,2.62-0.036l3.271-3.391L9.793,6.786l-3.272,3.391c-0.43,0.447-0.919,0.287-1.205,0.01
	C5.029,9.911,4.85,9.43,5.281,8.982l4.379-4.54c1.222-1.265,2.337-1.062,2.921-0.499c0.591,0.569,0.782,1.626-0.024,2.463
	L7.55,11.606c-1.866,1.38-3.305,0.987-4.028,0.162c-0.768-0.876-0.961-2.453,0.195-3.651c0.94-0.976,4.522-4.487,4.559-4.522
	c0.197-0.193,0.201-0.51,0.008-0.707s-0.51-0.2-0.707-0.008c-0.148,0.146-3.629,3.558-4.58,4.544
	c-1.569,1.627-1.288,3.792-0.227,5.003c0.532,0.606,1.37,1.079,2.428,1.079c0.871,0,1.891-0.32,3.01-1.151L13.276,7.1
	C14.534,5.795,14.215,4.129,13.275,3.223z"/>
</svg>
