<?xml version="1.0" encoding="iso-8859-1"?>
<!-- Generator: Adobe Illustrator 15.1.0, SVG Export Plug-In . SVG Version: 6.00 Build 0)  -->
<!DOCTYPE svg PUBLIC "-//W3C//DTD SVG 1.1//EN" "http://www.w3.org/Graphics/SVG/1.1/DTD/svg11.dtd">
<svg version="1.1" id="Layer_1" xmlns="http://www.w3.org/2000/svg" xmlns:xlink="http://www.w3.org/1999/xlink" x="0px" y="0px"
	 width="16px" height="16px" viewBox="0 0 16 16" style="enable-background:new 0 0 16 16;" xml:space="preserve">
<path style="fill:#FFFFFF;" d="M13.063,3.369H10.02C9.85,2.412,9.016,1.682,8.011,1.682c-1.005,0-1.839,0.73-2.009,1.688H2.938
	c-0.276,0-0.5,0.224-0.5,0.5v9.949c0,0.276,0.224,0.5,0.5,0.5h10.125c0.275,0,0.5-0.224,0.5-0.5V3.869
	C13.563,3.593,13.338,3.369,13.063,3.369z M8.011,2.682c0.576,0,1.045,0.469,1.045,1.045S8.587,4.771,8.011,4.771
	c-0.55,0-1.008-0.43-1.045-1.045C6.966,3.15,7.435,2.682,8.011,2.682z M12.563,13.318H3.438V4.369h2.64
	c0.272,0.815,1.037,1.402,1.933,1.402c0.902,0,1.661-0.591,1.932-1.402h2.619V13.318z"/>
</svg>
