<?xml version="1.0" encoding="utf-8"?>
<!-- Generator: Adobe Illustrator 19.1.1, SVG Export Plug-In . SVG Version: 6.00 Build 0)  -->
<svg version="1.1" id="Layer_1" xmlns="http://www.w3.org/2000/svg" xmlns:xlink="http://www.w3.org/1999/xlink" x="0px" y="0px"
	 viewBox="0 0 16 16" style="enable-background:new 0 0 16 16;" xml:space="preserve">
<style type="text/css">
	.st0{fill:#FFFFFF;}
</style>
<g>
	<path class="st0" d="M6.1,3.2c1,0,1.7,0.7,1.7,1.6C7.8,5,7.8,5,8,5h0.4c0.1,0,0.3,0,0.3-0.1c0-1.5-1.2-2.6-2.7-2.6
		c-0.1,0,0,0.1,0,0.1S6,2.5,6,2.5V3C6,3.1,6,3.2,6.1,3.2z"/>
	<path class="st0" d="M6.2,1.6c0.8,0,1.5,0.3,2.1,0.9c0.6,0.6,0.9,1.4,0.9,2.2C9.2,4.8,9.3,5,9.5,5h0.4c0.1,0,0.3-0.2,0.3-0.3
		c0-1.1-0.4-2.1-1.2-2.8C8.2,1.1,7.3,0.7,6.2,0.7C6.1,0.7,6,0.8,6,0.9v0.4C6,1.5,6.1,1.6,6.2,1.6z"/>
	<path class="st0" d="M14.6,12.5l-3-3c0,0-0.1-0.1-0.2-0.1s-0.1,0-0.2,0.1l-1.4,1.4L6.5,7.5l1.4-1.4c0,0,0.1-0.1,0.1-0.2
		s0-0.1-0.1-0.2l-3-3c-0.1-0.1-0.3-0.1-0.4,0L2.8,4.5c-1,1-1,2.7,0,3.8l6.3,6.3c0.5,0.5,1.2,0.8,1.9,0.8c0.7,0,1.4-0.3,1.9-0.8
		l1.7-1.7c0,0,0.1-0.1,0.1-0.2S14.6,12.5,14.6,12.5z M9.7,13.9L3.5,7.6C3.1,7.3,3,6.9,3,6.4c0-0.5,0.2-0.9,0.5-1.2l1.2-1.2l2,2
		L5.3,7.3c-0.1,0.1-0.1,0.3,0,0.4L9.7,12c0.1,0.1,0.3,0.1,0.4,0l1.4-1.4l2,2l-1.2,1.2C11.5,14.5,10.4,14.5,9.7,13.9z"/>
</g>
</svg>
