<?xml version="1.0" encoding="iso-8859-1"?>
<!-- Generator: Adobe Illustrator 15.1.0, SVG Export Plug-In . SVG Version: 6.00 Build 0)  -->
<!DOCTYPE svg PUBLIC "-//W3C//DTD SVG 1.1//EN" "http://www.w3.org/Graphics/SVG/1.1/DTD/svg11.dtd">
<svg version="1.1" id="Layer_1" xmlns="http://www.w3.org/2000/svg" xmlns:xlink="http://www.w3.org/1999/xlink" x="0px" y="0px"
	 width="16px" height="16px" viewBox="0 0 16 16" style="enable-background:new 0 0 16 16;" xml:space="preserve">
<path style="fill:#FFFFFF;" d="M12.978,7.577L3.552,1.686C3.398,1.588,3.203,1.584,3.045,1.672C2.886,1.76,2.787,1.928,2.787,2.109
	v11.781c0,0.182,0.099,0.35,0.258,0.438c0.075,0.042,0.159,0.063,0.242,0.063c0.092,0,0.184-0.025,0.265-0.076l9.426-5.89
	c0.146-0.091,0.235-0.251,0.235-0.424C13.213,7.829,13.124,7.668,12.978,7.577z M3.787,12.988V3.012l7.982,4.989L3.787,12.988z"/>
</svg>
