<?xml version="1.0" encoding="iso-8859-1"?>
<!-- Generator: Adobe Illustrator 15.1.0, SVG Export Plug-In . SVG Version: 6.00 Build 0)  -->
<!DOCTYPE svg PUBLIC "-//W3C//DTD SVG 1.1//EN" "http://www.w3.org/Graphics/SVG/1.1/DTD/svg11.dtd">
<svg version="1.1" id="Layer_1" xmlns="http://www.w3.org/2000/svg" xmlns:xlink="http://www.w3.org/1999/xlink" x="0px" y="0px"
	 width="16px" height="16px" viewBox="0 0 16 16" style="enable-background:new 0 0 16 16;" xml:space="preserve">
<g>
	<path style="fill:#FFFFFF;" d="M15,0.5H1C0.724,0.5,0.5,0.724,0.5,1v14c0,0.276,0.224,0.5,0.5,0.5h14c0.276,0,0.5-0.224,0.5-0.5V1
		C15.5,0.724,15.276,0.5,15,0.5z M14.5,14.5h-13v-13h13V14.5z"/>
	<path style="fill:#FFFFFF;" d="M3.864,8.5H7.5v3.636c0,0.276,0.224,0.5,0.5,0.5s0.5-0.224,0.5-0.5V8.5h3.636
		c0.276,0,0.5-0.224,0.5-0.5s-0.224-0.5-0.5-0.5H8.5V3.865c0-0.276-0.224-0.5-0.5-0.5s-0.5,0.224-0.5,0.5V7.5H3.864
		c-0.276,0-0.5,0.224-0.5,0.5S3.588,8.5,3.864,8.5z"/>
</g>
</svg>
