<?xml version="1.0" encoding="iso-8859-1"?>
<!-- Generator: Adobe Illustrator 15.1.0, SVG Export Plug-In . SVG Version: 6.00 Build 0)  -->
<!DOCTYPE svg PUBLIC "-//W3C//DTD SVG 1.1//EN" "http://www.w3.org/Graphics/SVG/1.1/DTD/svg11.dtd">
<svg version="1.1" id="Layer_1" xmlns="http://www.w3.org/2000/svg" xmlns:xlink="http://www.w3.org/1999/xlink" x="0px" y="0px"
	 width="16px" height="16px" viewBox="0 0 16 16" style="enable-background:new 0 0 16 16;" xml:space="preserve">
<g>
	<path style="fill:#FFFFFF;" d="M7.872,9.834c0.276,0,0.5-0.43,0.5-0.959V1.208c0-0.53-0.224-0.958-0.5-0.958s-0.5,0.429-0.5,0.958
		v7.667C7.372,9.404,7.596,9.834,7.872,9.834z"/>
	<path style="fill:#FFFFFF;" d="M9.31,2.389v1.035C11.848,4.021,13.75,6.283,13.75,9c0,3.17-2.579,5.75-5.75,5.75S2.25,12.17,2.25,9
		c0-2.58,1.714-4.755,4.06-5.479V2.477C3.405,3.229,1.25,5.863,1.25,9c0,3.723,3.028,6.75,6.75,6.75s6.75-3.027,6.75-6.75
		C14.75,5.727,12.405,3.001,9.31,2.389z"/>
</g>
</svg>
