<?xml version="1.0" encoding="iso-8859-1"?>
<!-- Generator: Adobe Illustrator 15.1.0, SVG Export Plug-In . SVG Version: 6.00 Build 0)  -->
<!DOCTYPE svg PUBLIC "-//W3C//DTD SVG 1.1//EN" "http://www.w3.org/Graphics/SVG/1.1/DTD/svg11.dtd">
<svg version="1.1" id="Layer_1" xmlns="http://www.w3.org/2000/svg" xmlns:xlink="http://www.w3.org/1999/xlink" x="0px" y="0px"
	 width="16px" height="16px" viewBox="0 0 16 16" style="enable-background:new 0 0 16 16;" xml:space="preserve">
<path style="fill:#FFFFFF;" d="M7.496,0.896L7.496,0.896H0.9V8.5h3.735c-0.241,1.568-1.601,2.773-3.235,2.773H0.9v3.83h0.5
	c2.591,0,4.854-1.398,6.096-3.475v3.475h0.5c3.917,0,7.104-3.187,7.104-7.104V0.896H7.496z M1.9,14.083v-1.839
	C4.022,11.996,5.674,10.188,5.674,8V7.5H1.9V1.896h5.596v6.266C7.413,11.285,4.979,13.832,1.9,14.083z M7.698,11.273
	c0.438-0.84,0.711-1.779,0.78-2.773h2.753c-0.241,1.568-1.601,2.773-3.235,2.773H7.698z M14.1,8c0,3.197-2.471,5.828-5.604,6.084
	v-1.84C10.618,11.996,12.27,10.188,12.27,8V7.5H8.504V1.896H14.1V8z"/>
</svg>
