<?xml version="1.0" encoding="iso-8859-1"?>
<!-- Generator: Adobe Illustrator 15.1.0, SVG Export Plug-In . SVG Version: 6.00 Build 0)  -->
<!DOCTYPE svg PUBLIC "-//W3C//DTD SVG 1.1//EN" "http://www.w3.org/Graphics/SVG/1.1/DTD/svg11.dtd">
<svg version="1.1" id="Layer_1" xmlns="http://www.w3.org/2000/svg" xmlns:xlink="http://www.w3.org/1999/xlink" x="0px" y="0px"
	 width="16px" height="16px" viewBox="0 0 16 16" style="enable-background:new 0 0 16 16;" xml:space="preserve">
<g>
	<path style="fill:#FFFFFF;" d="M13.551,8.878c-0.195-0.195-0.512-0.195-0.707,0s-0.195,0.513,0,0.707l0.197,0.197h-2.639
		L9.646,9.026c-0.195-0.195-0.512-0.195-0.707,0s-0.195,0.512,0,0.707l0.903,0.902c0.094,0.094,0.221,0.146,0.354,0.146h2.846
		l-0.197,0.197c-0.195,0.194-0.195,0.512,0,0.707c0.098,0.098,0.226,0.146,0.354,0.146s0.256-0.049,0.354-0.146l1.053-1.051
		c0.094-0.094,0.146-0.221,0.146-0.354s-0.053-0.26-0.146-0.354L13.551,8.878z"/>
	<path style="fill:#FFFFFF;" d="M1.75,6.218h3.67l0.774,0.773C6.292,7.089,6.42,7.138,6.548,7.138s0.256-0.049,0.354-0.146
		c0.195-0.195,0.195-0.512,0-0.707L5.98,5.364C5.887,5.271,5.76,5.218,5.627,5.218H1.75c-0.276,0-0.5,0.224-0.5,0.5
		S1.474,6.218,1.75,6.218z"/>
	<path style="fill:#FFFFFF;" d="M13.041,6.218l-0.197,0.197c-0.195,0.194-0.195,0.512,0,0.707c0.098,0.098,0.226,0.146,0.354,0.146
		s0.256-0.049,0.354-0.146l1.053-1.051c0.094-0.094,0.146-0.221,0.146-0.354s-0.053-0.26-0.146-0.354l-1.053-1.051
		c-0.195-0.195-0.512-0.195-0.707,0s-0.195,0.513,0,0.707l0.197,0.197h-2.804c-0.133,0-0.26,0.053-0.354,0.146L5.461,9.782H1.75
		c-0.276,0-0.5,0.224-0.5,0.5s0.224,0.5,0.5,0.5h3.918c0.133,0,0.26-0.053,0.354-0.146l4.423-4.418H13.041z"/>
</g>
</svg>
