<?xml version="1.0" encoding="utf-8"?>
<!-- Generator: Adobe Illustrator 19.0.0, SVG Export Plug-In . SVG Version: 6.00 Build 0)  -->
<svg version="1.1" id="Layer_1" xmlns="http://www.w3.org/2000/svg" xmlns:xlink="http://www.w3.org/1999/xlink" x="0px" y="0px"
	 viewBox="0 0 16 16" style="enable-background:new 0 0 16 16;" xml:space="preserve">
<g>
	<path d="M8,0C3.6,0,0,3.6,0,8c0,4.4,3.6,8,8,8c4.4,0,8-3.6,8-8C16,3.6,12.4,0,8,0z M8,15.5c-4.1,0-7.5-3.4-7.5-7.5
		c0-4.1,3.4-7.5,7.5-7.5c4.1,0,7.5,3.4,7.5,7.5C15.5,12.1,12.1,15.5,8,15.5z"/>
	<path d="M8,5.2C6.4,5.2,5.2,6.4,5.2,8c0,1.6,1.3,2.8,2.8,2.8s2.8-1.3,2.8-2.8C10.8,6.4,9.6,5.2,8,5.2z M8,10.3
		c-1.3,0-2.3-1-2.3-2.3c0-1.3,1-2.3,2.3-2.3c1.3,0,2.3,1,2.3,2.3C10.3,9.3,9.3,10.3,8,10.3z"/>
	<circle id="XMLID_4_" cx="0.8" cy="0.8" r="0.5"/>
	<circle id="XMLID_3_" cx="15.2" cy="0.8" r="0.5"/>
	<circle id="XMLID_2_" cx="0.8" cy="15.2" r="0.5"/>
	<circle id="XMLID_1_" cx="15.2" cy="15.2" r="0.5"/>
</g>
</svg>
