<?xml version="1.0" encoding="iso-8859-1"?>
<!-- Generator: Adobe Illustrator 15.1.0, SVG Export Plug-In . SVG Version: 6.00 Build 0)  -->
<!DOCTYPE svg PUBLIC "-//W3C//DTD SVG 1.1//EN" "http://www.w3.org/Graphics/SVG/1.1/DTD/svg11.dtd">
<svg version="1.1" id="Layer_1" xmlns="http://www.w3.org/2000/svg" xmlns:xlink="http://www.w3.org/1999/xlink" x="0px" y="0px"
	 width="16px" height="16px" viewBox="0 0 16 16" style="enable-background:new 0 0 16 16;" xml:space="preserve">
<g>
	<path style="fill:#FFFFFF;" d="M3.832,9.561c-1.313,0-2.098-0.924-2.098-1.817c0-0.276,0.077-0.674,0.445-0.998
		C2.54,6.428,3.102,6.26,3.802,6.26h5.527L8.398,7.272C8.212,7.477,8.225,7.793,8.428,7.979c0.097,0.088,0.218,0.132,0.339,0.132
		c0.135,0,0.27-0.055,0.368-0.161l1.702-1.852c0.028-0.031,0.043-0.068,0.063-0.104c0.006-0.011,0.019-0.017,0.024-0.028
		c0.002-0.005,0-0.011,0.002-0.017c0.033-0.078,0.044-0.161,0.035-0.244c-0.002-0.019-0.009-0.033-0.013-0.051
		c-0.015-0.069-0.044-0.133-0.088-0.191c-0.008-0.01-0.007-0.023-0.016-0.033L9.172,3.52C8.989,3.311,8.674,3.291,8.467,3.472
		C8.259,3.654,8.237,3.97,8.42,4.178L9.366,5.26H3.802c-2.119,0-3.067,1.247-3.067,2.483c0,1.385,1.158,2.817,3.098,2.817
		c0.276,0,0.5-0.224,0.5-0.5S4.108,9.561,3.832,9.561z"/>
	<path style="fill:#FFFFFF;" d="M12.168,5.439c-0.276,0-0.5,0.224-0.5,0.5s0.224,0.5,0.5,0.5c1.313,0,2.098,0.924,2.098,1.817
		c0,0.276-0.077,0.674-0.445,0.998c-0.361,0.317-0.923,0.485-1.623,0.485H6.592l0.931-1.013c0.187-0.204,0.174-0.521-0.029-0.707
		C7.289,7.835,6.974,7.847,6.786,8.05L5.084,9.901c-0.028,0.03-0.043,0.067-0.062,0.103c-0.007,0.012-0.021,0.018-0.026,0.03
		c-0.002,0.006,0,0.012-0.002,0.017c-0.032,0.078-0.043,0.159-0.034,0.241c0.002,0.021,0.009,0.038,0.014,0.059
		c0.015,0.065,0.043,0.126,0.084,0.182c0.009,0.012,0.008,0.026,0.018,0.037l1.674,1.911c0.099,0.113,0.237,0.171,0.376,0.171
		c0.117,0,0.234-0.041,0.329-0.124c0.208-0.182,0.229-0.498,0.047-0.705L6.554,10.74h5.644c2.119,0,3.068-1.247,3.068-2.483
		C15.266,6.872,14.106,5.439,12.168,5.439z"/>
</g>
</svg>
