<?xml version="1.0" encoding="iso-8859-1"?>
<!-- Generator: Adobe Illustrator 15.1.0, SVG Export Plug-In . SVG Version: 6.00 Build 0)  -->
<!DOCTYPE svg PUBLIC "-//W3C//DTD SVG 1.1//EN" "http://www.w3.org/Graphics/SVG/1.1/DTD/svg11.dtd">
<svg version="1.1" id="Layer_1" xmlns="http://www.w3.org/2000/svg" xmlns:xlink="http://www.w3.org/1999/xlink" x="0px" y="0px"
	 width="16px" height="16px" viewBox="0 0 16 16" style="enable-background:new 0 0 16 16;" xml:space="preserve">
<g>
	<path style="fill:#FFFFFF;" d="M11.752,4.407c-0.332-0.333-0.913-0.331-1.242,0c-0.166,0.167-0.258,0.388-0.258,0.623
		c0,0.234,0.092,0.455,0.258,0.62c0.165,0.167,0.386,0.258,0.621,0.258c0.234,0,0.455-0.091,0.621-0.258
		C12.094,5.308,12.094,4.75,11.752,4.407z M11.398,5.296c-0.146,0.144-0.394,0.143-0.535,0c-0.072-0.071-0.111-0.166-0.111-0.267
		c0-0.101,0.039-0.197,0.111-0.269c0.071-0.071,0.166-0.111,0.268-0.111c0.101,0,0.195,0.04,0.268,0.111
		C11.546,4.908,11.546,5.148,11.398,5.296z"/>
	<path style="fill:#FFFFFF;" d="M14.241,2.052c0.016-0.156-0.042-0.31-0.156-0.416c-0.115-0.106-0.274-0.154-0.426-0.126
		c-3.163,0.549-4.943,1.743-6.477,4.338L4.626,5.79C4.468,5.783,4.345,5.845,4.247,5.95L1.889,8.503
		c-0.134,0.145-0.17,0.354-0.093,0.534c0.076,0.182,0.252,0.301,0.449,0.305l2.15,0.049c-0.097,0.715,0.091,1.429,0.543,1.9
		c0.239,0.25,0.701,0.584,1.459,0.584c0.21,0,0.453-0.039,0.711-0.1l0.233,2.273c0.02,0.196,0.152,0.361,0.339,0.424
		c0.052,0.018,0.105,0.025,0.158,0.025c0.137,0,0.271-0.057,0.367-0.16l2.357-2.554c0.098-0.105,0.145-0.247,0.13-0.39L10.445,8.96
		C13.491,7.219,13.948,4.99,14.241,2.052z M9.786,8.187C9.554,8.249,9.39,8.464,9.415,8.711l0.261,2.56l-1.452,1.574L8.05,11.156
		c-0.028-0.275-0.277-0.471-0.548-0.446c-0.031,0.003-0.058,0.019-0.088,0.027c-0.089-0.022-0.183-0.029-0.276,0.001
		C6.676,10.893,6.04,10.996,5.661,10.6c-0.3-0.313-0.378-0.898-0.2-1.41c0.057-0.078,0.098-0.169,0.1-0.273
		c0.006-0.276-0.213-0.505-0.489-0.511L3.375,8.367l1.453-1.573L7.4,6.853c0.076,0,0.147-0.021,0.215-0.052
		c0.12-0.035,0.229-0.114,0.297-0.232c1.304-2.303,2.724-3.389,5.261-3.945C12.834,5.415,12.181,6.878,9.786,8.187z"/>
</g>
</svg>
