<?xml version="1.0" encoding="iso-8859-1"?>
<!-- Generator: Adobe Illustrator 15.1.0, SVG Export Plug-In . SVG Version: 6.00 Build 0)  -->
<!DOCTYPE svg PUBLIC "-//W3C//DTD SVG 1.1//EN" "http://www.w3.org/Graphics/SVG/1.1/DTD/svg11.dtd">
<svg version="1.1" id="Layer_1" xmlns="http://www.w3.org/2000/svg" xmlns:xlink="http://www.w3.org/1999/xlink" x="0px" y="0px"
	 width="16px" height="16px" viewBox="0 0 16 16" style="enable-background:new 0 0 16 16;" xml:space="preserve">
<path style="fill:#FFFFFF;" d="M9.848,1.538H6.153c-0.276,0-0.5,0.224-0.5,0.5v1.927c0,0.002-0.001,0.003-0.001,0.005
	s0.001,0.003,0.001,0.005v1.66c0,0.002-0.001,0.003-0.001,0.005s0.001,0.003,0.001,0.005v1.66c0,0.002-0.001,0.003-0.001,0.005
	s0.001,0.003,0.001,0.005v1.66c0,0.002-0.001,0.003-0.001,0.005s0.001,0.003,0.001,0.005v1.661c0,0.002-0.001,0.002-0.001,0.004
	s0.001,0.004,0.001,0.006v1.66c0,0.002-0.001,0.002-0.001,0.004s0.001,0.004,0.001,0.006v1.639c0,0.275,0.224,0.5,0.5,0.5h3.694
	c0.276,0,0.5-0.225,0.5-0.5V2.038C10.348,1.761,10.124,1.538,9.848,1.538z M9.348,13.463H6.653v-0.645h0.611
	c0.276,0,0.5-0.223,0.5-0.5c0-0.275-0.224-0.5-0.5-0.5H6.653v-0.67h0.611c0.276,0,0.5-0.223,0.5-0.5c0-0.275-0.224-0.5-0.5-0.5
	H6.653v-0.67h0.611c0.276,0,0.5-0.223,0.5-0.5c0-0.276-0.224-0.5-0.5-0.5H6.653v-0.67h0.611c0.276,0,0.5-0.224,0.5-0.5
	s-0.224-0.5-0.5-0.5H6.653v-0.67h0.611c0.276,0,0.5-0.224,0.5-0.5s-0.224-0.5-0.5-0.5H6.653v-0.67h0.611c0.276,0,0.5-0.224,0.5-0.5
	s-0.224-0.5-0.5-0.5H6.653V2.538h2.694V13.463z"/>
</svg>
