<?xml version="1.0" encoding="iso-8859-1"?>
<!-- Generator: Adobe Illustrator 15.1.0, SVG Export Plug-In . SVG Version: 6.00 Build 0)  -->
<!DOCTYPE svg PUBLIC "-//W3C//DTD SVG 1.1//EN" "http://www.w3.org/Graphics/SVG/1.1/DTD/svg11.dtd">
<svg version="1.1" id="Layer_1" xmlns="http://www.w3.org/2000/svg" xmlns:xlink="http://www.w3.org/1999/xlink" x="0px" y="0px"
	 width="16px" height="16px" viewBox="0 0 16 16" style="enable-background:new 0 0 16 16;" xml:space="preserve">
<path style="fill:#FFFFFF;" d="M14.057,13.637l-5.76-5.76l5.514-5.514c0.195-0.195,0.195-0.512,0-0.707s-0.512-0.195-0.707,0
	L7.59,7.17L6.525,6.104c0.376-0.461,0.611-1.04,0.611-1.68c0-1.472-1.197-2.669-2.669-2.669c-1.473,0-2.67,1.197-2.67,2.669
	s1.197,2.669,2.67,2.669c0.469,0,0.904-0.132,1.287-0.346l1.129,1.129L5.691,9.068c-0.368-0.191-0.78-0.311-1.224-0.311
	c-1.473,0-2.67,1.197-2.67,2.669s1.197,2.669,2.67,2.669c1.472,0,2.669-1.197,2.669-2.669c0-0.665-0.253-1.266-0.656-1.733
	l1.109-1.109l5.76,5.76c0.098,0.098,0.225,0.146,0.354,0.146c0.127,0,0.256-0.049,0.354-0.146
	C14.252,14.148,14.252,13.832,14.057,13.637z M2.797,4.425c0-0.92,0.749-1.669,1.67-1.669c0.92,0,1.669,0.749,1.669,1.669
	S5.387,6.094,4.467,6.094C3.546,6.094,2.797,5.345,2.797,4.425z M4.467,13.096c-0.921,0-1.67-0.749-1.67-1.669
	s0.749-1.669,1.67-1.669c0.92,0,1.669,0.749,1.669,1.669S5.387,13.096,4.467,13.096z"/>
</svg>
