<?xml version="1.0" encoding="utf-8"?>
<!-- Generator: Adobe Illustrator 19.1.1, SVG Export Plug-In . SVG Version: 6.00 Build 0)  -->
<svg version="1.1" id="Layer_1" xmlns="http://www.w3.org/2000/svg" xmlns:xlink="http://www.w3.org/1999/xlink" x="0px" y="0px"
	 viewBox="0 0 16 16" style="enable-background:new 0 0 16 16;" xml:space="preserve">
<style type="text/css">
	.st0{fill:#FFFEFD;}
</style>
<path class="st0" d="M14.6,13.9l-4.4-4.4c1.6-2,1.5-4.9-0.3-6.8c-1-1-2.2-1.5-3.6-1.5S3.7,1.8,2.7,2.7c-2,2-2,5.2,0,7.2
	c1,1,2.2,1.5,3.6,1.5c1.2,0,2.3-0.4,3.2-1.2l4.3,4.4c0.1,0.1,0.2,0.1,0.4,0.1s0.3,0,0.4-0.1C14.8,14.4,14.8,14.1,14.6,13.9z
	 M9.2,9.2c-0.8,0.8-1.8,1.2-2.9,1.2S4.2,10,3.4,9.2C1.9,7.6,1.9,5,3.4,3.4c0.8-0.8,1.8-1.2,2.9-1.2s2.1,0.4,2.9,1.2
	C10.8,5,10.8,7.6,9.2,9.2z"/>
</svg>
