<?xml version="1.0" encoding="utf-8"?>
<!-- Generator: Adobe Illustrator 19.1.1, SVG Export Plug-In . SVG Version: 6.00 Build 0)  -->
<svg version="1.1" id="Layer_1" xmlns="http://www.w3.org/2000/svg" xmlns:xlink="http://www.w3.org/1999/xlink" x="0px" y="0px"
	 viewBox="0 0 16 16" style="enable-background:new 0 0 16 16;" xml:space="preserve">
<style type="text/css">
	.st0{fill:#FFFEFD;}
</style>
<g>
	<path class="st0" d="M14.9,13.9l-4.4-4.4c1.6-2,1.5-4.9-0.3-6.8c-1-1-2.2-1.5-3.6-1.5S4,1.8,3,2.8c-2,2-2,5.2,0,7.2
		c1,1,2.2,1.5,3.6,1.5c1.2,0,2.3-0.4,3.2-1.2l4.3,4.4c0.1,0.1,0.2,0.1,0.4,0.1s0.3,0,0.4-0.1C15.1,14.4,15.1,14.1,14.9,13.9z
		 M3.7,9.3c-1.6-1.6-1.6-4.2,0-5.8c0.8-0.8,1.8-1.2,2.9-1.2s2.1,0.4,2.9,1.2c1.6,1.6,1.6,4.2,0,5.8c-0.8,0.8-1.8,1.2-2.9,1.2
		S4.5,10,3.7,9.3z"/>
	<path class="st0" d="M8.7,6H7V4.4c0-0.3-0.2-0.5-0.5-0.5S6,4.1,6,4.4V6H4.8C4.5,6,4.3,6.2,4.3,6.5S4.5,7,4.8,7H6v1.3
		c0,0.3,0.2,0.5,0.5,0.5S7,8.6,7,8.3V7h1.7C9,7,9.2,6.8,9.2,6.5S9,6,8.7,6z"/>
</g>
</svg>
