<?xml version="1.0" encoding="iso-8859-1"?>
<!-- Generator: Adobe Illustrator 15.1.0, SVG Export Plug-In . SVG Version: 6.00 Build 0)  -->
<!DOCTYPE svg PUBLIC "-//W3C//DTD SVG 1.1//EN" "http://www.w3.org/Graphics/SVG/1.1/DTD/svg11.dtd">
<svg version="1.1" id="Layer_1" xmlns="http://www.w3.org/2000/svg" xmlns:xlink="http://www.w3.org/1999/xlink" x="0px" y="0px"
	 width="16px" height="16px" viewBox="0 0 16 16" style="enable-background:new 0 0 16 16;" xml:space="preserve">
<path style="fill:#FFFFFF;" d="M14.262,4.444c0.277,0,0.5-0.224,0.5-0.5V1.738c0-0.276-0.223-0.5-0.5-0.5h-2.205
	c-0.277,0-0.5,0.224-0.5,0.5v0.603H4.444V1.738c0-0.276-0.224-0.5-0.5-0.5H1.738c-0.276,0-0.5,0.224-0.5,0.5v2.206
	c0,0.276,0.224,0.5,0.5,0.5H2.34v7.111H1.738c-0.276,0-0.5,0.224-0.5,0.5v2.206c0,0.276,0.224,0.5,0.5,0.5h2.206
	c0.276,0,0.5-0.224,0.5-0.5v-0.603h7.113v0.603c0,0.276,0.223,0.5,0.5,0.5h2.205c0.277,0,0.5-0.224,0.5-0.5v-2.206
	c0-0.276-0.223-0.5-0.5-0.5h-0.604V4.444H14.262z M12.557,2.238h1.205v1.206h-0.598c-0.002,0-0.004-0.001-0.006-0.001
	s-0.002,0.001-0.004,0.001h-0.598V2.238z M2.238,2.238h1.206v1.206H2.238V2.238z M3.444,13.762H2.238v-1.206h1.206V13.762z
	 M13.762,13.762h-1.205v-1.206h1.205V13.762z M12.658,11.556h-0.602c-0.277,0-0.5,0.224-0.5,0.5v0.604H4.444v-0.604
	c0-0.276-0.224-0.5-0.5-0.5H3.34V4.444h0.604c0.276,0,0.5-0.224,0.5-0.5V3.341h7.113v0.604c0,0.276,0.223,0.5,0.5,0.5h0.602V11.556z
	"/>
</svg>
