<?xml version="1.0" encoding="utf-8"?>
<!-- Generator: Adobe Illustrator 19.1.1, SVG Export Plug-In . SVG Version: 6.00 Build 0)  -->
<svg version="1.1" id="Layer_1" xmlns="http://www.w3.org/2000/svg" xmlns:xlink="http://www.w3.org/1999/xlink" x="0px" y="0px"
	 viewBox="0 0 16 16" style="enable-background:new 0 0 16 16;" xml:space="preserve">
<style type="text/css">
	.st0{fill:#030202;}
</style>
<path class="st0" d="M15.2,11.2c-0.5-0.5-1.2-0.8-2-0.8c-0.7,0-1.3,0.2-1.8,0.7l-3-3l5-5l0.2,0.2l1.8-1.8l-0.7-0.7l-1.8,1.8L13,2.7
	l-5,5l-3-3c0.4-0.5,0.7-1.1,0.7-1.8c0-0.8-0.3-1.5-0.8-2c-0.7-0.7-1.8-1-2.7-0.7L1.7,0.2l1.7,1.7L1.9,3.4L0.2,1.7L0.1,2.1
	c-0.3,1,0,2,0.7,2.7c0.5,0.5,1.2,0.8,2,0.8l0,0c0.7,0,1.3-0.2,1.8-0.7l3,3l-3.3,3.3l-0.9-0.9l-2.9,2.9C0.2,13.6,0,14,0,14.4
	c0,0.4,0.2,0.8,0.5,1.1C0.8,15.8,1.1,16,1.6,16c0.4,0,0.8-0.2,1.1-0.5l2.9-2.9l-0.9-0.9L8,8.4l3,3c-0.4,0.5-0.7,1.1-0.7,1.8
	c0,0.8,0.3,1.5,0.8,2c0.5,0.5,1.2,0.8,2,0.8c0.2,0,0.5,0,0.7-0.1l0.4-0.1l-1.7-1.7l1.5-1.5l1.7,1.7l0.1-0.4
	C16.2,12.9,15.9,11.9,15.2,11.2z M2.8,5.2L2.8,5.2c-0.6,0-1.2-0.2-1.6-0.7C0.7,4,0.5,3.4,0.5,2.7l1.4,1.4l2.2-2.2L2.7,0.5
	c0.7,0,1.3,0.2,1.8,0.7c0.4,0.4,0.7,1,0.7,1.6c0,0.6-0.2,1.2-0.7,1.6C4,4.9,3.5,5.2,2.8,5.2z M2.3,15.2c-0.4,0.4-1.1,0.4-1.5,0
	c-0.2-0.2-0.3-0.5-0.3-0.7c0-0.3,0.1-0.5,0.3-0.7l2.6-2.6l1.5,1.5L2.3,15.2z M14.1,11.9l-2.2,2.2l1.4,1.4c0,0-0.1,0-0.1,0
	c-0.6,0-1.2-0.2-1.6-0.7c-0.4-0.4-0.7-1-0.7-1.6c0-0.6,0.2-1.2,0.7-1.6c0.4-0.4,1-0.7,1.6-0.7c0.6,0,1.2,0.2,1.6,0.7
	c0.5,0.5,0.7,1.1,0.7,1.8L14.1,11.9z"/>
</svg>
