<?xml version="1.0" encoding="iso-8859-1"?>
<!-- Generator: Adobe Illustrator 15.1.0, SVG Export Plug-In . SVG Version: 6.00 Build 0)  -->
<!DOCTYPE svg PUBLIC "-//W3C//DTD SVG 1.1//EN" "http://www.w3.org/Graphics/SVG/1.1/DTD/svg11.dtd">
<svg version="1.1" id="Layer_1" xmlns="http://www.w3.org/2000/svg" xmlns:xlink="http://www.w3.org/1999/xlink" x="0px" y="0px"
	 width="16px" height="16px" viewBox="0 0 16 16" style="enable-background:new 0 0 16 16;" xml:space="preserve">
<path style="fill:#FFFFFF;" d="M13.469,0.67H2.531c-0.134,0-0.262,0.054-0.355,0.148C2.082,0.914,2.029,1.042,2.031,1.176
	l0.101,8.505c0.266,2.819,5.163,5.321,5.721,5.599c0.069,0.033,0.146,0.051,0.222,0.051c0.062,0,0.124-0.011,0.183-0.034
	c3.803-1.491,5.589-5.144,5.663-5.298c0.032-0.068,0.049-0.142,0.049-0.217V1.17C13.969,0.894,13.745,0.67,13.469,0.67z
	 M12.969,1.67v1.32l-9.404,7.725c-0.241-0.365-0.4-0.731-0.435-1.087L3.037,1.67H12.969z M8.097,14.281
	c-0.988-0.514-2.76-1.598-3.901-2.791l8.773-7.207v5.378C12.677,10.215,11.08,13.016,8.097,14.281z"/>
</svg>
