<?xml version="1.0" encoding="iso-8859-1"?>
<!-- Generator: Adobe Illustrator 15.1.0, SVG Export Plug-In . SVG Version: 6.00 Build 0)  -->
<!DOCTYPE svg PUBLIC "-//W3C//DTD SVG 1.1//EN" "http://www.w3.org/Graphics/SVG/1.1/DTD/svg11.dtd">
<svg version="1.1" id="Layer_1" xmlns="http://www.w3.org/2000/svg" xmlns:xlink="http://www.w3.org/1999/xlink" x="0px" y="0px"
	 width="16px" height="16px" viewBox="0 0 16 16" style="enable-background:new 0 0 16 16;" xml:space="preserve">
<path style="fill:#FFFFFF;" d="M12.149,9.708c0.165,0,0.319-0.082,0.412-0.217l2.424-3.531c0.105-0.153,0.117-0.352,0.03-0.516
	c-0.086-0.164-0.257-0.267-0.442-0.267H4.555V3.47c0-0.24-0.17-0.445-0.405-0.491L1.521,2.471C1.245,2.414,0.987,2.595,0.936,2.866
	C0.883,3.138,1.06,3.4,1.331,3.452l2.224,0.431v1.726c0,0.012,0.006,0.022,0.007,0.035C3.561,5.655,3.555,5.665,3.555,5.677v3.531
	c0,0.275,0.224,0.5,0.5,0.5h0.021l-0.002,1.158c-0.349,0.273-0.578,0.699-0.578,1.182c0,0.823,0.653,1.492,1.456,1.492
	s1.456-0.669,1.456-1.492c0-0.173-0.035-0.337-0.088-0.492h3.437c-0.053,0.155-0.088,0.319-0.088,0.492
	c0,0.823,0.653,1.492,1.456,1.492s1.456-0.669,1.456-1.492c0-0.822-0.653-1.491-1.456-1.491c-0.013,0-0.024,0.003-0.037,0.004
	c-0.008-0.001-0.014-0.005-0.021-0.005H5.074l0.002-0.848H12.149z M4.952,12.54c-0.251,0-0.456-0.221-0.456-0.492
	c0-0.271,0.205-0.491,0.456-0.491s0.456,0.221,0.456,0.491C5.408,12.319,5.203,12.54,4.952,12.54z M11.125,12.54
	c-0.252,0-0.456-0.221-0.456-0.492c0-0.271,0.204-0.491,0.456-0.491s0.456,0.221,0.456,0.491
	C11.581,12.319,11.377,12.54,11.125,12.54z M11.886,8.707H4.555v-2.53h9.068L11.886,8.707z"/>
</svg>
