<?xml version="1.0" encoding="iso-8859-1"?>
<!-- Generator: Adobe Illustrator 15.1.0, SVG Export Plug-In . SVG Version: 6.00 Build 0)  -->
<!DOCTYPE svg PUBLIC "-//W3C//DTD SVG 1.1//EN" "http://www.w3.org/Graphics/SVG/1.1/DTD/svg11.dtd">
<svg version="1.1" id="Layer_1" xmlns="http://www.w3.org/2000/svg" xmlns:xlink="http://www.w3.org/1999/xlink" x="0px" y="0px"
	 width="16px" height="16px" viewBox="0 0 16 16" style="enable-background:new 0 0 16 16;" xml:space="preserve">
<g>
	<path style="fill:#FFFFFF;" d="M9.906,9.625c-0.277,0-0.5,0.223-0.5,0.5v3.541H1.573V2.334h7.833v3.229c0,0.276,0.223,0.5,0.5,0.5
		c0.275,0,0.499-0.224,0.499-0.5V1.834c0-0.276-0.224-0.5-0.499-0.5H1.073c-0.276,0-0.5,0.224-0.5,0.5v12.332
		c0,0.277,0.224,0.5,0.5,0.5h8.833c0.275,0,0.499-0.223,0.499-0.5v-4.041C10.405,9.848,10.182,9.625,9.906,9.625z"/>
	<path style="fill:#FFFFFF;" d="M15.28,7.647l-3.456-3.458c-0.195-0.195-0.512-0.195-0.707,0c-0.195,0.194-0.195,0.512,0,0.707
		L13.72,7.5H7.156c-0.276,0-0.5,0.224-0.5,0.5s0.224,0.5,0.5,0.5h6.564l-2.604,2.604c-0.195,0.195-0.195,0.512,0,0.707
		c0.098,0.098,0.226,0.146,0.354,0.146s0.256-0.049,0.354-0.146l3.456-3.456C15.476,8.159,15.476,7.843,15.28,7.647z"/>
</g>
</svg>
