<?xml version="1.0" encoding="iso-8859-1"?>
<!-- Generator: Adobe Illustrator 15.1.0, SVG Export Plug-In . SVG Version: 6.00 Build 0)  -->
<!DOCTYPE svg PUBLIC "-//W3C//DTD SVG 1.1//EN" "http://www.w3.org/Graphics/SVG/1.1/DTD/svg11.dtd">
<svg version="1.1" id="Layer_1" xmlns="http://www.w3.org/2000/svg" xmlns:xlink="http://www.w3.org/1999/xlink" x="0px" y="0px"
	 width="16px" height="16px" viewBox="0 0 16 16" style="enable-background:new 0 0 16 16;" xml:space="preserve">
<g>
	<path style="fill:#FFFFFF;" d="M8,1.208C4.255,1.208,1.208,4.255,1.208,8S4.255,14.792,8,14.792S14.791,11.745,14.791,8
		S11.744,1.208,8,1.208z M8,13.792c-3.193,0-5.791-2.599-5.791-5.792c0-3.194,2.598-5.792,5.791-5.792
		c3.194,0,5.792,2.598,5.792,5.792C13.791,11.193,11.193,13.792,8,13.792z"/>
	<circle style="fill:#FFFFFF;" cx="6.259" cy="5.864" r="0.627"/>
	<circle style="fill:#FFFFFF;" cx="9.881" cy="5.864" r="0.627"/>
	<path style="fill:#FFFFFF;" d="M11,10H5c-0.276,0-0.5,0.224-0.5,0.5S4.724,11,5,11h6c0.276,0,0.5-0.224,0.5-0.5S11.276,10,11,10z"
		/>
</g>
</svg>
