<?xml version="1.0" encoding="iso-8859-1"?>
<!-- Generator: Adobe Illustrator 15.1.0, SVG Export Plug-In . SVG Version: 6.00 Build 0)  -->
<!DOCTYPE svg PUBLIC "-//W3C//DTD SVG 1.1//EN" "http://www.w3.org/Graphics/SVG/1.1/DTD/svg11.dtd">
<svg version="1.1" id="Layer_1" xmlns="http://www.w3.org/2000/svg" xmlns:xlink="http://www.w3.org/1999/xlink" x="0px" y="0px"
	 width="16px" height="16px" viewBox="0 0 16 16" style="enable-background:new 0 0 16 16;" xml:space="preserve">
<g>
	<path style="fill:#FFFFFF;" d="M8,8.109c-2.042,0-3.704,1.531-3.704,3.413c0,0.276,0.224,0.5,0.5,0.5s0.5-0.224,0.5-0.5
		c0-1.331,1.213-2.413,2.704-2.413c1.491,0,2.704,1.082,2.704,2.413c0,0.276,0.225,0.5,0.5,0.5c0.277,0,0.5-0.224,0.5-0.5
		C11.703,9.641,10.041,8.109,8,8.109z"/>
	<path style="fill:#FFFFFF;" d="M8,1.208C4.255,1.208,1.208,4.255,1.208,8S4.255,14.792,8,14.792c3.745,0,6.792-3.047,6.792-6.792
		S11.744,1.208,8,1.208z M8,13.792c-3.193,0-5.791-2.599-5.791-5.792c0-3.194,2.598-5.792,5.791-5.792
		c3.194,0,5.792,2.598,5.792,5.792C13.791,11.193,11.193,13.792,8,13.792z"/>
	<circle style="fill:#FFFFFF;" cx="6.258" cy="5.864" r="0.627"/>
	<circle style="fill:#FFFFFF;" cx="9.879" cy="5.864" r="0.627"/>
</g>
</svg>
