<?xml version="1.0" encoding="iso-8859-1"?>
<!-- Generator: Adobe Illustrator 15.1.0, SVG Export Plug-In . SVG Version: 6.00 Build 0)  -->
<!DOCTYPE svg PUBLIC "-//W3C//DTD SVG 1.1//EN" "http://www.w3.org/Graphics/SVG/1.1/DTD/svg11.dtd">
<svg version="1.1" id="Layer_1" xmlns="http://www.w3.org/2000/svg" xmlns:xlink="http://www.w3.org/1999/xlink" x="0px" y="0px"
	 width="16px" height="16px" viewBox="0 0 16 16" style="enable-background:new 0 0 16 16;" xml:space="preserve">
<g>
	<path style="fill:#FFFFFF;" d="M2.992,7.607C3.087,7.73,3.233,7.802,3.389,7.802h9.671c0.215,0,0.406-0.138,0.475-0.342
		l0.548-1.645c0.068-0.207-0.004-0.435-0.181-0.563L8.419,1.265C8.241,1.135,7.999,1.138,7.823,1.27L2.09,5.607
		c-0.106,0.081-0.176,0.2-0.193,0.332C1.878,6.071,1.914,6.205,1.995,6.311L2.992,7.607z M8.131,2.292l4.887,3.555l-0.318,0.956
		H3.635L3.096,6.101L8.131,2.292z"/>
	<path style="fill:#FFFFFF;" d="M14.005,9.689l-0.997-1.296c-0.095-0.123-0.241-0.195-0.396-0.195H2.94
		c-0.215,0-0.406,0.138-0.475,0.342l-0.548,1.645c-0.068,0.207,0.004,0.435,0.181,0.563l5.483,3.988
		c0.088,0.063,0.19,0.096,0.294,0.096c0.106,0,0.213-0.034,0.302-0.101l5.732-4.338c0.106-0.08,0.176-0.199,0.193-0.332
		C14.122,9.929,14.086,9.795,14.005,9.689z M7.87,13.709l-4.888-3.555l0.318-0.957h9.064l0.54,0.702L7.87,13.709z"/>
</g>
</svg>
