<?xml version="1.0" encoding="iso-8859-1"?>
<!-- Generator: Adobe Illustrator 15.1.0, SVG Export Plug-In . SVG Version: 6.00 Build 0)  -->
<!DOCTYPE svg PUBLIC "-//W3C//DTD SVG 1.1//EN" "http://www.w3.org/Graphics/SVG/1.1/DTD/svg11.dtd">
<svg version="1.1" id="Layer_1" xmlns="http://www.w3.org/2000/svg" xmlns:xlink="http://www.w3.org/1999/xlink" x="0px" y="0px"
	 width="16px" height="16px" viewBox="0 0 16 16" style="enable-background:new 0 0 16 16;" xml:space="preserve">
<path style="fill:#FFFFFF;" d="M13.201,3.33l-0.242-0.724l-1.986,2.968c-0.138,0.207-0.575,0.242-0.831,0.071L9.841,5.443
	C9.59,5.275,9.418,4.87,9.573,4.636l2.054-3.069l-0.412-0.179c-1.437-0.625-3.19-0.072-4.094,1.276
	C6.333,3.843,6.553,5.341,7.114,6.337l-4.297,6.418c-0.385,0.577-0.237,1.283,0.352,1.677l0.302,0.203
	c0.228,0.152,0.481,0.232,0.732,0.232c0.391,0,0.745-0.195,0.973-0.535L9.475,7.91c1.308,0.16,2.685-0.416,3.358-1.421
	C13.534,5.442,13.483,4.17,13.201,3.33z M12.21,6.071c-0.551,0.822-1.545,1.115-2.291,1.115c-0.188,0-0.374-0.017-0.552-0.052
	L9.123,7.087l-4.571,6.829c-0.154,0.229-0.421,0.259-0.665,0.097L3.586,13.81c-0.251-0.168-0.304-0.4-0.146-0.637L8.01,6.348
	L7.872,6.139c-0.538-0.81-0.755-2.12-0.128-3.057c0.508-0.758,1.327-1.21,2.191-1.21c0.185,0,0.367,0.021,0.546,0.062L8.95,4.22
	C8.535,4.842,8.867,5.693,9.424,6.067l0.302,0.202c0.583,0.388,1.507,0.264,1.87-0.278l1.049-1.567
	C12.667,4.959,12.557,5.553,12.21,6.071z"/>
</svg>
