<?xml version="1.0" encoding="iso-8859-1"?>
<!-- Generator: Adobe Illustrator 15.1.0, SVG Export Plug-In . SVG Version: 6.00 Build 0)  -->
<!DOCTYPE svg PUBLIC "-//W3C//DTD SVG 1.1//EN" "http://www.w3.org/Graphics/SVG/1.1/DTD/svg11.dtd">
<svg version="1.1" id="Layer_1" xmlns="http://www.w3.org/2000/svg" xmlns:xlink="http://www.w3.org/1999/xlink" x="0px" y="0px"
	 width="16px" height="16px" viewBox="0 0 16 16" style="enable-background:new 0 0 16 16;" xml:space="preserve">
<g>
	<path style="fill:#FFFFFF;" d="M12.175,1.238h-8.35c-0.276,0-0.5,0.224-0.5,0.5v12.524c0,0.277,0.224,0.5,0.5,0.5h8.35
		c0.276,0,0.5-0.223,0.5-0.5V1.738C12.675,1.461,12.451,1.238,12.175,1.238z M11.675,13.762h-7.35V2.238h7.35V13.762z"/>
	<path style="fill:#FFFFFF;" d="M8,12.902c1.584,0,2.872-1.305,2.872-2.91c0-1.604-1.288-2.909-2.872-2.909S5.127,8.388,5.127,9.992
		C5.127,11.598,6.416,12.902,8,12.902z M8,8.083c1.032,0,1.872,0.856,1.872,1.909c0,1.055-0.84,1.91-1.872,1.91
		c-1.033,0-1.873-0.855-1.873-1.91C6.127,8.94,6.967,8.083,8,8.083z"/>
	<ellipse style="fill:#FFFFFF;" cx="8" cy="9.993" rx="1.041" ry="1.05"/>
	<path style="fill:#FFFFFF;" d="M7.99,5.897c0.726,0,1.316-0.597,1.316-1.33s-0.591-1.33-1.316-1.33s-1.316,0.597-1.316,1.33
		S7.265,5.897,7.99,5.897z M7.99,4.237c0.175,0,0.316,0.148,0.316,0.33s-0.142,0.33-0.316,0.33s-0.316-0.148-0.316-0.33
		S7.815,4.237,7.99,4.237z"/>
</g>
</svg>
