<?xml version="1.0" encoding="iso-8859-1"?>
<!-- Generator: Adobe Illustrator 15.1.0, SVG Export Plug-In . SVG Version: 6.00 Build 0)  -->
<!DOCTYPE svg PUBLIC "-//W3C//DTD SVG 1.1//EN" "http://www.w3.org/Graphics/SVG/1.1/DTD/svg11.dtd">
<svg version="1.1" id="Layer_1" xmlns="http://www.w3.org/2000/svg" xmlns:xlink="http://www.w3.org/1999/xlink" x="0px" y="0px"
	 width="16px" height="16px" viewBox="0 0 16 16" style="enable-background:new 0 0 16 16;" xml:space="preserve">
<g>
	<path style="fill:#FFFFFF;" d="M12.874,3.29c-1.205,0-2.186,0.98-2.186,2.186c0,1.206,0.98,2.187,2.186,2.187
		s2.186-0.98,2.186-2.187C15.06,4.271,14.079,3.29,12.874,3.29z M12.874,6.662c-0.653,0-1.186-0.532-1.186-1.187
		c0-0.653,0.532-1.186,1.186-1.186s1.186,0.532,1.186,1.186C14.06,6.13,13.527,6.662,12.874,6.662z"/>
	<path style="fill:#FFFFFF;" d="M11.495,2.734c0-1.114-0.905-2.021-2.019-2.021c-1.114,0-2.021,0.906-2.021,2.021
		c0,1.113,0.906,2.019,2.021,2.019C10.59,4.753,11.495,3.848,11.495,2.734z M9.477,3.753c-0.563,0-1.021-0.457-1.021-1.019
		c0-0.563,0.458-1.021,1.021-1.021c0.562,0,1.019,0.458,1.019,1.021C10.495,3.296,10.038,3.753,9.477,3.753z"/>
	<path style="fill:#FFFFFF;" d="M6.496,3.076c0-0.948-0.771-1.72-1.719-1.72c-0.948,0-1.72,0.771-1.72,1.72
		c0,0.947,0.771,1.719,1.72,1.719C5.725,4.795,6.496,4.023,6.496,3.076z M4.777,3.795c-0.396,0-0.72-0.322-0.72-0.719
		s0.323-0.72,0.72-0.72s0.719,0.323,0.719,0.72S5.174,3.795,4.777,3.795z"/>
	<path style="fill:#FFFFFF;" d="M3.811,6.93c0-0.791-0.644-1.435-1.436-1.435c-0.791,0-1.435,0.644-1.435,1.435
		c0,0.792,0.644,1.436,1.435,1.436C3.167,8.365,3.811,7.722,3.811,6.93z M1.94,6.93c0-0.239,0.195-0.435,0.435-0.435
		c0.24,0,0.436,0.195,0.436,0.435c0,0.24-0.195,0.436-0.436,0.436C2.136,7.365,1.94,7.17,1.94,6.93z"/>
	<path style="fill:#FFFFFF;" d="M2.836,10.101c-0.699,0-1.268,0.569-1.268,1.269c0,0.698,0.568,1.267,1.268,1.267
		s1.269-0.568,1.269-1.267C4.104,10.67,3.535,10.101,2.836,10.101z M2.568,11.369c0-0.148,0.12-0.269,0.268-0.269
		c0.148,0,0.269,0.12,0.269,0.269C3.104,11.662,2.568,11.664,2.568,11.369z"/>
	<circle style="fill:#FFFFFF;" cx="6.535" cy="14.168" r="1.118"/>
	<circle style="fill:#FFFFFF;" cx="11.136" cy="14.038" r="0.993"/>
	<path style="fill:#FFFFFF;" d="M13.493,9.288c-0.473,0-0.856,0.384-0.856,0.856s0.384,0.856,0.856,0.856
		c0.472,0,0.855-0.384,0.855-0.856S13.965,9.288,13.493,9.288z M13.349,10.145c0-0.08,0.064-0.144,0.145-0.144
		c0.079,0,0.144,0.063,0.144,0.144C13.637,10.305,13.349,10.303,13.349,10.145z"/>
</g>
</svg>
