<?xml version="1.0" encoding="iso-8859-1"?>
<!-- Generator: Adobe Illustrator 15.1.0, SVG Export Plug-In . SVG Version: 6.00 Build 0)  -->
<!DOCTYPE svg PUBLIC "-//W3C//DTD SVG 1.1//EN" "http://www.w3.org/Graphics/SVG/1.1/DTD/svg11.dtd">
<svg version="1.1" id="Layer_1" xmlns="http://www.w3.org/2000/svg" xmlns:xlink="http://www.w3.org/1999/xlink" x="0px" y="0px"
	 width="16px" height="16px" viewBox="0 0 16 16" style="enable-background:new 0 0 16 16;" xml:space="preserve">
<path style="fill:#FFFFFF;" d="M14.669,11.281c-0.002-0.021-0.01-0.041-0.015-0.063c-0.015-0.064-0.042-0.123-0.082-0.178
	c-0.009-0.013-0.009-0.029-0.019-0.041l-1.849-2.106c-0.183-0.207-0.499-0.227-0.706-0.046c-0.207,0.184-0.228,0.499-0.046,0.707
	l1.12,1.275H9.201L6.158,8.006L9.196,5.28h3.821L11.93,6.432c-0.189,0.201-0.181,0.517,0.02,0.707
	c0.097,0.091,0.221,0.136,0.344,0.136c0.133,0,0.266-0.053,0.363-0.157l1.884-1.995c0.03-0.032,0.047-0.071,0.067-0.108
	c0.007-0.012,0.02-0.017,0.025-0.029c0.002-0.004,0-0.01,0.002-0.014c0.032-0.078,0.042-0.159,0.034-0.241
	c-0.002-0.022-0.01-0.041-0.015-0.063c-0.015-0.064-0.042-0.123-0.082-0.178c-0.009-0.013-0.009-0.029-0.019-0.041l-1.849-2.106
	c-0.183-0.207-0.499-0.228-0.706-0.046c-0.207,0.183-0.228,0.499-0.046,0.706l1.12,1.276H9.005c-0.124,0-0.243,0.045-0.334,0.128
	L5.225,7.5H1.829c-0.276,0-0.5,0.224-0.5,0.5s0.224,0.5,0.5,0.5H5.22l3.444,3.198c0.092,0.085,0.214,0.133,0.34,0.133h4.013
	l-1.088,1.152c-0.189,0.201-0.181,0.518,0.02,0.707c0.097,0.091,0.221,0.137,0.344,0.137c0.133,0,0.266-0.053,0.363-0.157
	l1.884-1.995c0.03-0.032,0.047-0.071,0.067-0.108c0.007-0.012,0.02-0.017,0.025-0.029c0.002-0.005,0-0.01,0.002-0.015
	C14.667,11.444,14.677,11.363,14.669,11.281z"/>
</svg>
