<?xml version="1.0" encoding="iso-8859-1"?>
<!-- Generator: Adobe Illustrator 15.1.0, SVG Export Plug-In . SVG Version: 6.00 Build 0)  -->
<!DOCTYPE svg PUBLIC "-//W3C//DTD SVG 1.1//EN" "http://www.w3.org/Graphics/SVG/1.1/DTD/svg11.dtd">
<svg version="1.1" id="Layer_1" xmlns="http://www.w3.org/2000/svg" xmlns:xlink="http://www.w3.org/1999/xlink" x="0px" y="0px"
	 width="16px" height="16px" viewBox="0 0 16 16" style="enable-background:new 0 0 16 16;" xml:space="preserve">
<path style="fill:#FFFFFF;" d="M8,1.188C4.243,1.188,1.188,4.244,1.188,8S4.243,14.812,8,14.812S14.813,11.756,14.813,8
	S11.757,1.188,8,1.188z M10.403,7h3.302V6.901C13.773,7.258,13.813,7.624,13.813,8s-0.039,0.742-0.107,1.099V9h-3.302
	c0.129-0.309,0.201-0.646,0.201-1S10.532,7.309,10.403,7z M13.45,6H9.705v0.048C9.687,6.031,9.666,6.016,9.647,6h0.058V2.444
	C11.44,2.979,12.826,4.307,13.45,6z M8,9.604c-0.884,0-1.604-0.72-1.604-1.604S7.116,6.396,8,6.396c0.885,0,1.604,0.72,1.604,1.604
	S8.885,9.604,8,9.604z M2.188,8c0-0.342,0.035-0.675,0.092-1h3.318C5.469,7.309,5.396,7.646,5.396,8s0.072,0.691,0.201,1H2.279
	C2.223,8.675,2.188,8.342,2.188,8z M8.705,2.235v3.271C8.479,5.441,8.246,5.396,8,5.396c-0.102,0-0.197,0.019-0.295,0.029V2.203
	C7.804,2.198,7.9,2.188,8,2.188C8.239,2.188,8.474,2.207,8.705,2.235z M6.705,2.339v3.416C6.58,5.827,6.464,5.909,6.354,6H2.55
	C3.222,4.175,4.781,2.779,6.705,2.339z M2.55,10h3.804c0.11,0.091,0.227,0.173,0.352,0.245v3.416C4.781,13.221,3.222,11.825,2.55,10
	z M7.705,13.797v-3.223C7.803,10.585,7.898,10.604,8,10.604c0.246,0,0.479-0.045,0.705-0.109v3.271
	C8.474,13.793,8.239,13.812,8,13.812C7.9,13.812,7.804,13.802,7.705,13.797z M9.705,13.556V10H9.647
	c0.019-0.016,0.039-0.031,0.058-0.048V10h3.745C12.826,11.693,11.44,13.021,9.705,13.556z"/>
</svg>
