<?xml version="1.0" encoding="iso-8859-1"?>
<!-- Generator: Adobe Illustrator 15.1.0, SVG Export Plug-In . SVG Version: 6.00 Build 0)  -->
<!DOCTYPE svg PUBLIC "-//W3C//DTD SVG 1.1//EN" "http://www.w3.org/Graphics/SVG/1.1/DTD/svg11.dtd">
<svg version="1.1" id="Layer_1" xmlns="http://www.w3.org/2000/svg" xmlns:xlink="http://www.w3.org/1999/xlink" x="0px" y="0px"
	 width="16px" height="16px" viewBox="0 0 16 16" style="enable-background:new 0 0 16 16;" xml:space="preserve">
<path style="fill:#FFFFFF;" d="M12.955,1.766c-0.16-0.089-0.355-0.083-0.508,0.014l-8.66,5.432V2.109c0-0.276-0.224-0.5-0.5-0.5
	s-0.5,0.224-0.5,0.5v11.781c0,0.276,0.224,0.5,0.5,0.5s0.5-0.224,0.5-0.5V8.788l8.66,5.433c0.08,0.051,0.172,0.076,0.266,0.076
	c0.082,0,0.166-0.021,0.242-0.063c0.158-0.088,0.258-0.256,0.258-0.438V2.203C13.213,2.021,13.113,1.854,12.955,1.766z
	 M12.213,12.893L4.413,8l7.8-4.893V12.893z"/>
</svg>
