<?xml version="1.0" encoding="iso-8859-1"?>
<!-- Generator: Adobe Illustrator 15.1.0, SVG Export Plug-In . SVG Version: 6.00 Build 0)  -->
<!DOCTYPE svg PUBLIC "-//W3C//DTD SVG 1.1//EN" "http://www.w3.org/Graphics/SVG/1.1/DTD/svg11.dtd">
<svg version="1.1" id="Layer_1" xmlns="http://www.w3.org/2000/svg" xmlns:xlink="http://www.w3.org/1999/xlink" x="0px" y="0px"
	 width="16px" height="16px" viewBox="0 0 16 16" style="enable-background:new 0 0 16 16;" xml:space="preserve">
<path style="fill:#FFFFFF;" d="M12.713,1.609c-0.277,0-0.5,0.224-0.5,0.5v5.103L3.553,1.78C3.4,1.683,3.205,1.678,3.045,1.766
	S2.788,2.021,2.788,2.203v11.594c0,0.182,0.099,0.35,0.258,0.438c0.075,0.042,0.159,0.063,0.242,0.063
	c0.093,0,0.185-0.025,0.266-0.076l8.66-5.433v5.103c0,0.276,0.223,0.5,0.5,0.5c0.275,0,0.5-0.224,0.5-0.5V2.109
	C13.213,1.833,12.988,1.609,12.713,1.609z M3.788,12.893V3.107L11.588,8L3.788,12.893z"/>
</svg>
