<?xml version="1.0" encoding="iso-8859-1"?>
<!-- Generator: Adobe Illustrator 15.1.0, SVG Export Plug-In . SVG Version: 6.00 Build 0)  -->
<!DOCTYPE svg PUBLIC "-//W3C//DTD SVG 1.1//EN" "http://www.w3.org/Graphics/SVG/1.1/DTD/svg11.dtd">
<svg version="1.1" id="Layer_1" xmlns="http://www.w3.org/2000/svg" xmlns:xlink="http://www.w3.org/1999/xlink" x="0px" y="0px"
	 width="16px" height="16px" viewBox="0 0 16 16" style="enable-background:new 0 0 16 16;" xml:space="preserve">
<g>
	<path style="fill:#FFFFFF;" d="M6.178,5.889L8.61,2.6c0.164-0.222,0.117-0.535-0.105-0.699C8.286,1.74,7.972,1.784,7.805,2.006
		L5.556,5.049L3.349,2.071C3.186,1.85,2.873,1.804,2.65,1.967C2.428,2.131,2.381,2.445,2.546,2.667l2.389,3.223L2.217,9.565
		C2.053,9.787,2.1,10.101,2.323,10.265c0.089,0.065,0.193,0.098,0.297,0.098c0.152,0,0.304-0.07,0.402-0.203L5.557,6.73l2.445,3.299
		c0.098,0.132,0.249,0.202,0.401,0.202c0.104,0,0.208-0.032,0.298-0.099C8.923,9.969,8.97,9.655,8.805,9.434L6.178,5.889z"/>
	<path style="fill:#FFFFFF;" d="M10.734,13.47c0.187-0.522,0.851-0.937,1.347-1.246c0.101-0.063,0.195-0.122,0.277-0.176
		c0.741-0.476,1.498-1.103,1.498-2.143c0-1.055-0.746-1.737-1.9-1.737c-0.582,0-1.07,0.184-1.409,0.53
		c-0.374,0.381-0.563,0.944-0.549,1.626l0.003,0.122h0.766l-0.004-0.129c-0.015-0.492,0.113-0.904,0.361-1.16
		c0.198-0.204,0.47-0.307,0.807-0.307c0.577,0,1.16,0.323,1.16,1.044c0,0.4-0.123,0.679-0.439,0.992
		c-0.286,0.287-0.642,0.522-1.018,0.771c-0.861,0.571-1.752,1.162-1.776,2.408l-0.003,0.128h4.026V13.47H10.734z"/>
</g>
</svg>
