<?xml version="1.0" encoding="utf-8"?>
<!-- Generator: Adobe Illustrator 19.1.1, SVG Export Plug-In . SVG Version: 6.00 Build 0)  -->
<svg version="1.1" id="Layer_1" xmlns="http://www.w3.org/2000/svg" xmlns:xlink="http://www.w3.org/1999/xlink" x="0px" y="0px"
	 viewBox="0 0 16 16" style="enable-background:new 0 0 16 16;" xml:space="preserve">
<style type="text/css">
	.st0{fill:#0A0505;}
</style>
<g>
	<path class="st0" d="M14.5,3.9h-3.6C10.7,2.4,9.5,1.3,8,1.3c-1.5,0-2.7,1.1-2.8,2.6H1.5C0.7,3.9,0,4.6,0,5.4v7.7
		c0,0.9,0.7,1.5,1.5,1.5h12.9c0.9,0,1.5-0.7,1.5-1.5V5.4C16,4.6,15.3,3.9,14.5,3.9z M8,1.8c1.2,0,2.2,0.9,2.3,2.1H5.7
		C5.8,2.7,6.8,1.8,8,1.8z M15.5,13.2c0,0.6-0.5,1-1,1H1.5c-0.6,0-1-0.5-1-1V5.4c0-0.6,0.5-1,1-1h12.9c0.6,0,1,0.5,1,1V13.2z"/>
	<rect x="2.8" y="6.5" class="st0" width="10.3" height="0.5"/>
	<rect x="2.8" y="9" class="st0" width="10.3" height="0.5"/>
	<rect x="2.8" y="11.6" class="st0" width="10.3" height="0.5"/>
</g>
</svg>
