<?xml version="1.0" encoding="iso-8859-1"?>
<!-- Generator: Adobe Illustrator 15.1.0, SVG Export Plug-In . SVG Version: 6.00 Build 0)  -->
<!DOCTYPE svg PUBLIC "-//W3C//DTD SVG 1.1//EN" "http://www.w3.org/Graphics/SVG/1.1/DTD/svg11.dtd">
<svg version="1.1" id="Layer_1" xmlns="http://www.w3.org/2000/svg" xmlns:xlink="http://www.w3.org/1999/xlink" x="0px" y="0px"
	 width="16px" height="16px" viewBox="0 0 16 16" style="enable-background:new 0 0 16 16;" xml:space="preserve">
<g>
	<path style="fill:#FFFFFF;" d="M8,4.995C6.343,4.995,4.995,6.343,4.995,8S6.343,11.005,8,11.005S11.005,9.657,11.005,8
		S9.657,4.995,8,4.995z M8,10.005c-1.105,0-2.005-0.899-2.005-2.005S6.895,5.995,8,5.995S10.005,6.895,10.005,8
		S9.105,10.005,8,10.005z"/>
	<path style="fill:#FFFFFF;" d="M8,11.201c-0.276,0-0.5,0.224-0.5,0.5v2.562c0,0.276,0.224,0.5,0.5,0.5s0.5-0.224,0.5-0.5v-2.562
		C8.5,11.425,8.276,11.201,8,11.201z"/>
	<path style="fill:#FFFFFF;" d="M8,4.799c0.276,0,0.5-0.224,0.5-0.5V1.737c0-0.276-0.224-0.5-0.5-0.5s-0.5,0.224-0.5,0.5v2.562
		C7.5,4.575,7.724,4.799,8,4.799z"/>
	<path style="fill:#FFFFFF;" d="M10.971,10.264c-0.195-0.195-0.512-0.195-0.707,0s-0.195,0.512,0,0.707l1.811,1.811
		c0.098,0.098,0.226,0.146,0.354,0.146s0.256-0.049,0.354-0.146c0.195-0.195,0.195-0.512,0-0.707L10.971,10.264z"/>
	<path style="fill:#FFFFFF;" d="M5.029,5.736c0.098,0.098,0.226,0.146,0.354,0.146s0.256-0.049,0.354-0.146
		c0.195-0.195,0.195-0.512,0-0.707L3.926,3.218c-0.195-0.195-0.512-0.195-0.707,0s-0.195,0.512,0,0.707L5.029,5.736z"/>
	<path style="fill:#FFFFFF;" d="M14.263,7.5h-2.562c-0.276,0-0.5,0.224-0.5,0.5s0.224,0.5,0.5,0.5h2.562c0.276,0,0.5-0.224,0.5-0.5
		S14.539,7.5,14.263,7.5z"/>
	<path style="fill:#FFFFFF;" d="M4.799,8c0-0.276-0.224-0.5-0.5-0.5H1.737c-0.276,0-0.5,0.224-0.5,0.5s0.224,0.5,0.5,0.5h2.562
		C4.575,8.5,4.799,8.276,4.799,8z"/>
	<path style="fill:#FFFFFF;" d="M10.617,5.883c0.128,0,0.256-0.049,0.354-0.146l1.811-1.812c0.195-0.195,0.195-0.512,0-0.707
		s-0.512-0.195-0.707,0l-1.811,1.812c-0.195,0.195-0.195,0.512,0,0.707C10.361,5.834,10.489,5.883,10.617,5.883z"/>
	<path style="fill:#FFFFFF;" d="M5.029,10.264l-1.811,1.811c-0.195,0.195-0.195,0.512,0,0.707c0.098,0.098,0.226,0.146,0.354,0.146
		s0.256-0.049,0.354-0.146l1.811-1.811c0.195-0.195,0.195-0.512,0-0.707S5.225,10.068,5.029,10.264z"/>
</g>
</svg>
