<?xml version="1.0" encoding="iso-8859-1"?>
<!-- Generator: Adobe Illustrator 15.1.0, SVG Export Plug-In . SVG Version: 6.00 Build 0)  -->
<!DOCTYPE svg PUBLIC "-//W3C//DTD SVG 1.1//EN" "http://www.w3.org/Graphics/SVG/1.1/DTD/svg11.dtd">
<svg version="1.1" id="Layer_1" xmlns="http://www.w3.org/2000/svg" xmlns:xlink="http://www.w3.org/1999/xlink" x="0px" y="0px"
	 width="16px" height="16px" viewBox="0 0 16 16" style="enable-background:new 0 0 16 16;" xml:space="preserve">
<g>
	<path style="fill:#FFFFFF;" d="M8,4.194c-3.822,0-6.932,3.109-6.932,6.931v0.467h5.242v-0.467c0-0.932,0.758-1.689,1.689-1.689
		c0.286,0,0.563,0.074,0.814,0.217l-0.791,0.793C8.016,10.443,8.008,10.443,8,10.443c-0.376,0-0.682,0.307-0.682,0.682
		S7.625,11.807,8,11.807c0.375,0,0.681-0.307,0.681-0.682c0-0.008,0-0.014-0.001-0.02l0.792-0.793
		c0.143,0.252,0.217,0.527,0.217,0.813v0.467h5.242v-0.467C14.932,7.303,11.822,4.194,8,4.194z M10.58,10.66
		c-0.068-0.365-0.215-0.713-0.434-1.023l2.17-2.168l-0.66-0.658L9.488,8.978C9.047,8.668,8.538,8.505,8,8.505
		c-1.266,0-2.356,0.93-2.579,2.155H2.018C2.256,7.536,4.835,5.125,8,5.125c3.166,0,5.744,2.411,5.982,5.536H10.58z"/>
	<rect x="7.536" y="5.488" style="fill:#FFFFFF;" width="0.931" height="2.654"/>
	
		<rect x="3.625" y="7.612" transform="matrix(-0.707 -0.7072 0.7072 -0.707 2.7417 17.2911)" style="fill:#FFFFFF;" width="2.655" height="0.931"/>
</g>
</svg>
