<?xml version="1.0" encoding="iso-8859-1"?>
<!-- Generator: Adobe Illustrator 15.1.0, SVG Export Plug-In . SVG Version: 6.00 Build 0)  -->
<!DOCTYPE svg PUBLIC "-//W3C//DTD SVG 1.1//EN" "http://www.w3.org/Graphics/SVG/1.1/DTD/svg11.dtd">
<svg version="1.1" id="Layer_1" xmlns="http://www.w3.org/2000/svg" xmlns:xlink="http://www.w3.org/1999/xlink" x="0px" y="0px"
	 width="16px" height="16px" viewBox="0 0 16 16" style="enable-background:new 0 0 16 16;" xml:space="preserve">
<g>
	<path style="fill:#FFFFFF;" d="M14.125,8.415L7.586,1.876C7.492,1.782,7.365,1.729,7.232,1.729L2.246,1.729
		c-0.275,0-0.499,0.223-0.5,0.498L1.729,7.23c0,0.134,0.053,0.262,0.146,0.355l6.54,6.539c0.098,0.098,0.226,0.146,0.354,0.146
		s0.256-0.049,0.354-0.146l5.003-5.004C14.32,8.927,14.32,8.61,14.125,8.415z M8.769,13.064L2.729,7.026l0.015-4.298l4.281,0.001
		l6.039,6.039L8.769,13.064z"/>
	<path style="fill:#FFFFFF;" d="M4.696,4.695c-0.284,0.284-0.44,0.662-0.44,1.064s0.156,0.78,0.44,1.063
		C4.979,7.107,5.357,7.265,5.76,7.265c0.401,0,0.779-0.157,1.063-0.441c0.586-0.586,0.586-1.541,0-2.128
		C6.254,4.127,5.264,4.129,4.696,4.695z M6.116,6.116c-0.191,0.191-0.521,0.191-0.713,0C5.308,6.021,5.256,5.895,5.256,5.76
		s0.052-0.262,0.147-0.356C5.498,5.309,5.625,5.256,5.76,5.256s0.262,0.053,0.356,0.147C6.313,5.6,6.313,5.92,6.116,6.116z"/>
</g>
</svg>
