<?xml version="1.0" encoding="utf-8"?>
<!-- Generator: Adobe Illustrator 19.0.0, SVG Export Plug-In . SVG Version: 6.00 Build 0)  -->
<svg version="1.1" id="Layer_1" xmlns="http://www.w3.org/2000/svg" xmlns:xlink="http://www.w3.org/1999/xlink" x="0px" y="0px"
	 viewBox="0 0 16 16" style="enable-background:new 0 0 16 16;" xml:space="preserve">
<path d="M14.7,2.5H8.6l2.1-2.1L10.4,0L8,2.4L5.6,0L5.2,0.4l2.1,2.1H1.3C0.6,2.5,0,3.1,0,3.8v8.3c0,0.7,0.6,1.3,1.3,1.3h3.9v2.1H2.8
	V16h10.3v-0.5h-2.3v-2.1h3.9c0.7,0,1.3-0.6,1.3-1.3V3.8C16,3.1,15.4,2.5,14.7,2.5z M10.3,15.4H5.7v-2.1h4.6V15.4z M15.5,12.1
	c0,0.4-0.3,0.8-0.8,0.8H1.3c-0.4,0-0.8-0.3-0.8-0.8V3.8c0-0.4,0.3-0.8,0.8-0.8h13.4c0.4,0,0.8,0.3,0.8,0.8V12.1z"/>
</svg>
