<?xml version="1.0" encoding="utf-8"?>
<!-- Generator: Adobe Illustrator 19.1.1, SVG Export Plug-In . SVG Version: 6.00 Build 0)  -->
<svg version="1.1" id="Layer_1" xmlns="http://www.w3.org/2000/svg" xmlns:xlink="http://www.w3.org/1999/xlink" x="0px" y="0px"
	 viewBox="0 0 16 16" style="enable-background:new 0 0 16 16;" xml:space="preserve">
<g>
	<path d="M16,4.1c0-1.6-1.3-2.8-2.8-2.8H2.9C1.3,1.3,0,2.6,0,4.1V7h2.6v7.7h10.8V7H16V4.1z M12.9,14.2H3.1V7H5V4.4H11V7h1.8V14.2z
		 M15.5,6.5h-3.9V3.9H4.4v2.6H0.5V4.1c0-1.3,1-2.3,2.3-2.3h10.3c1.3,0,2.3,1,2.3,2.3V6.5z"/>
	<path d="M8,6.5c-1.6,0-2.8,1.3-2.8,2.8c0,1.6,1.3,2.8,2.8,2.8s2.8-1.3,2.8-2.8C10.8,7.7,9.6,6.5,8,6.5z M8,11.6
		c-1.3,0-2.3-1-2.3-2.3C5.7,8,6.7,7,8,7c1.3,0,2.3,1,2.3,2.3C10.3,10.6,9.3,11.6,8,11.6z"/>
</g>
</svg>
