<?xml version="1.0" encoding="iso-8859-1"?>
<!-- Generator: Adobe Illustrator 15.1.0, SVG Export Plug-In . SVG Version: 6.00 Build 0)  -->
<!DOCTYPE svg PUBLIC "-//W3C//DTD SVG 1.1//EN" "http://www.w3.org/Graphics/SVG/1.1/DTD/svg11.dtd">
<svg version="1.1" id="Layer_1" xmlns="http://www.w3.org/2000/svg" xmlns:xlink="http://www.w3.org/1999/xlink" x="0px" y="0px"
	 width="16px" height="16px" viewBox="0 0 16 16" style="enable-background:new 0 0 16 16;" xml:space="preserve">
<g>
	<path style="fill:#FFFFFF;" d="M2.434,2.605h5.021v3.752c0,0.276,0.224,0.5,0.5,0.5s0.5-0.224,0.5-0.5V2.605h4.935
		c0.277,0,0.5-0.224,0.5-0.5s-0.223-0.5-0.5-0.5H2.434c-0.276,0-0.5,0.224-0.5,0.5S2.158,2.605,2.434,2.605z"/>
	<path style="fill:#FFFFFF;" d="M14.574,7.171H1.426c-0.276,0-0.5,0.224-0.5,0.5s0.224,0.5,0.5,0.5h6.029v5.723
		c0,0.277,0.224,0.5,0.5,0.5s0.5-0.223,0.5-0.5V8.171h6.119c0.275,0,0.5-0.224,0.5-0.5S14.85,7.171,14.574,7.171z"/>
</g>
</svg>
