<?xml version="1.0" encoding="iso-8859-1"?>
<!-- Generator: Adobe Illustrator 15.1.0, SVG Export Plug-In . SVG Version: 6.00 Build 0)  -->
<!DOCTYPE svg PUBLIC "-//W3C//DTD SVG 1.1//EN" "http://www.w3.org/Graphics/SVG/1.1/DTD/svg11.dtd">
<svg version="1.1" id="Layer_1" xmlns="http://www.w3.org/2000/svg" xmlns:xlink="http://www.w3.org/1999/xlink" x="0px" y="0px"
	 width="16px" height="16px" viewBox="0 0 16 16" style="enable-background:new 0 0 16 16;" xml:space="preserve">
<path style="fill:#FFFFFF;" d="M14.494,5.723l-4.182-4.32c-0.094-0.096-0.222-0.151-0.355-0.152C9.823,1.243,9.694,1.302,9.6,1.397
	l-1.93,1.93c-0.096,0.095-0.148,0.226-0.146,0.36S7.582,3.951,7.68,4.043l0.489,0.464l-2.04,1.931L4.358,6.397
	c-0.098,0.009-0.211,0.03-0.299,0.09L2.681,7.453C2.56,7.538,2.482,7.673,2.47,7.82s0.041,0.293,0.146,0.397l2.36,2.339
	l-3.458,3.334c-0.199,0.191-0.205,0.508-0.014,0.707c0.099,0.102,0.229,0.152,0.36,0.152c0.125,0,0.25-0.047,0.347-0.141
	l3.475-3.349l2.215,2.195c0.094,0.093,0.22,0.146,0.352,0.146c0.004,0,0.007,0,0.011,0c0.135-0.004,0.264-0.061,0.355-0.16
	l1.195-1.287c0.1-0.107,0.147-0.254,0.13-0.398L9.697,9.652l1.809-1.808l0.474,0.5c0.095,0.1,0.226,0.156,0.363,0.156
	c0.088-0.004,0.271-0.058,0.366-0.16l1.792-1.93C14.682,6.216,14.679,5.914,14.494,5.723z M12.339,7.27l-0.46-0.486
	c-0.093-0.098-0.222-0.154-0.356-0.156c-0.157-0.006-0.266,0.051-0.36,0.146L8.818,9.117C8.71,9.225,8.657,9.377,8.676,9.529
	l0.249,2.113l-0.687,0.74L3.745,7.929l0.754-0.528l1.813,0.042c0.138,0.003,0.26-0.046,0.355-0.137L9.24,4.871
	c0.1-0.095,0.156-0.226,0.156-0.363S9.34,4.239,9.24,4.145l-0.5-0.474l1.207-1.208l3.499,3.615L12.339,7.27z"/>
</svg>
