<?xml version="1.0" encoding="iso-8859-1"?>
<!-- Generator: Adobe Illustrator 15.1.0, SVG Export Plug-In . SVG Version: 6.00 Build 0)  -->
<!DOCTYPE svg PUBLIC "-//W3C//DTD SVG 1.1//EN" "http://www.w3.org/Graphics/SVG/1.1/DTD/svg11.dtd">
<svg version="1.1" id="Layer_1" xmlns="http://www.w3.org/2000/svg" xmlns:xlink="http://www.w3.org/1999/xlink" x="0px" y="0px"
	 width="16px" height="16px" viewBox="0 0 16 16" style="enable-background:new 0 0 16 16;" xml:space="preserve">
<path style="fill:#FFFFFF;" d="M12.348,7.295L8.41,1.458c-0.093-0.138-0.248-0.22-0.414-0.22c-0.167,0-0.322,0.083-0.415,0.221
	L3.64,7.313C3.16,8.078,2.907,8.956,2.907,9.852c0,2.707,2.284,4.91,5.093,4.91s5.093-2.203,5.093-4.91
	C13.093,8.954,12.838,8.075,12.348,7.295z M8,13.762c-2.257,0-4.093-1.754-4.093-3.91c0-0.707,0.2-1.401,0.571-1.993l3.518-5.226
	l3.515,5.208c0.381,0.606,0.582,1.302,0.582,2.011C12.093,12.008,10.257,13.762,8,13.762z"/>
</svg>
