<?xml version="1.0" encoding="utf-8"?>
<!-- Generator: Adobe Illustrator 19.0.0, SVG Export Plug-In . SVG Version: 6.00 Build 0)  -->
<svg version="1.1" id="Layer_1" xmlns="http://www.w3.org/2000/svg" xmlns:xlink="http://www.w3.org/1999/xlink" x="0px" y="0px"
	 viewBox="0 0 16 16" style="enable-background:new 0 0 16 16;" xml:space="preserve">
<g id="XMLID_2_">
	<path id="XMLID_11_" d="M8,5.2c-0.1,0-0.3,0.1-0.3,0.3v6.4c0,1.1,0.6,2,1.6,2.5c0,0,0.1,0,0.1,0c0.1,0,0.2-0.1,0.2-0.1
		c0.1-0.1,0-0.3-0.1-0.3c-0.8-0.4-1.3-1.2-1.3-2.1V5.4C8.3,5.3,8.1,5.2,8,5.2z"/>
	<path id="XMLID_10_" d="M6.5,15.2c-2-0.6-3.4-2.5-3.4-4.7V5.4c0-1,0.3-2,0.9-2.8c0.1-0.1,0.1-0.3-0.1-0.4C3.8,2.2,3.7,2.2,3.6,2.3
		c-0.6,0.9-1,2-1,3.1v5.1c0,2.4,1.5,4.4,3.8,5.1c0,0,0.1,0,0.1,0c0.1,0,0.2-0.1,0.2-0.2C6.7,15.4,6.7,15.3,6.5,15.2z"/>
	<path id="XMLID_9_" d="M8,0C6.7,0,5.4,0.5,4.4,1.4c-0.1,0.1-0.1,0.3,0,0.4c0.1,0.1,0.3,0.1,0.4,0C5.7,1,6.8,0.5,8,0.5
		c2.7,0,4.9,2.2,4.9,4.9v5.1c0,2.7-2.2,4.9-4.9,4.9c-0.1,0-0.3,0.1-0.3,0.3C7.7,15.9,7.9,16,8,16c3,0,5.4-2.4,5.4-5.4V5.4
		C13.4,2.5,11,0,8,0z"/>
	<path id="XMLID_8_" d="M11.6,5.4v5.1c0,0.5-0.1,0.9-0.3,1.3c-0.1,0.1,0,0.3,0.1,0.3c0,0,0.1,0,0.1,0c0.1,0,0.2-0.1,0.2-0.2
		c0.2-0.5,0.3-1,0.3-1.5V5.4c0-0.1-0.1-0.3-0.3-0.3C11.7,5.2,11.6,5.3,11.6,5.4z"/>
	<path id="XMLID_7_" d="M11.7,3.7c-0.1-0.1-0.2-0.2-0.3-0.1c-0.1,0.1-0.2,0.2-0.1,0.3c0.1,0.2,0.2,0.4,0.2,0.6
		c0,0.1,0.1,0.2,0.2,0.2c0,0,0,0,0.1,0c0.1,0,0.2-0.2,0.2-0.3C11.9,4.1,11.8,3.9,11.7,3.7z"/>
	<path id="XMLID_6_" d="M8,1.3c-2.3,0-4.1,1.8-4.1,4.1v5.1c0,1.3,0.7,2.6,1.7,3.4c0,0,0,0,0,0c0,0,0,0,0.1,0c0,0,0.1,0,0.1,0
		c0,0,0,0,0,0c0,0,0.1,0,0.1,0c0,0,0,0,0,0c0,0,0,0,0,0c0,0,0,0,0.1,0c0,0,0,0,0,0c0,0,0,0,0,0c0,0,0,0,0,0c0,0,0,0,0,0
		c0,0,0,0,0-0.1c0,0,0,0,0,0c0,0,0,0,0,0c-0.2-0.6-0.3-1.2-0.3-1.8v-1.3c0-0.1-0.1-0.3-0.3-0.3c-0.1,0-0.3,0.1-0.3,0.3v1.3
		c0,0.4,0,0.7,0.1,1.1c-0.6-0.6-0.9-1.5-0.9-2.4V5.4c0-2,1.6-3.6,3.6-3.6c1,0,2,0.4,2.7,1.2c0.1,0.1,0.3,0.1,0.4,0
		c0.1-0.1,0.1-0.3,0-0.4C10.3,1.8,9.2,1.3,8,1.3z"/>
	<path id="XMLID_5_" d="M10.1,11.4c-0.1,0.1,0,0.3,0.1,0.3c0,0,0.1,0,0.1,0c0.1,0,0.2-0.1,0.2-0.2c0.1-0.3,0.2-0.7,0.2-1.1V5.4
		c0-1.6-1.3-2.8-2.8-2.8S5.2,3.9,5.2,5.4v4c0,0.1,0.1,0.3,0.3,0.3c0.1,0,0.3-0.1,0.3-0.3v-4c0-1.3,1-2.3,2.3-2.3s2.3,1,2.3,2.3v5.1
		C10.3,10.9,10.3,11.2,10.1,11.4z"/>
	<path id="XMLID_4_" d="M7.9,14.2C7.3,13.6,7,12.7,7,11.9v-4c0-0.1-0.1-0.3-0.3-0.3c-0.1,0-0.3,0.1-0.3,0.3v4c0,1,0.4,2,1,2.7
		c0.1,0.1,0.1,0.1,0.2,0.1c0.1,0,0.1,0,0.2-0.1C8,14.5,8,14.3,7.9,14.2z"/>
	<path id="XMLID_3_" d="M11,13.3c0.1,0,0.2-0.2,0.2-0.3c0-0.1-0.2-0.2-0.3-0.2c-0.1,0-0.2,0-0.3,0c-0.6,0-1-0.5-1-1v-1.3V9.9V5.4
		c0-0.8-0.7-1.5-1.5-1.5c-0.9,0-1.5,0.7-1.5,1.5v1.3C6.5,6.9,6.6,7,6.7,7C6.9,7,7,6.9,7,6.7V5.4c0-0.6,0.5-1,1-1c0.6,0,1,0.5,1,1
		v4.4v0.7v1.3c0,0.9,0.7,1.5,1.5,1.5C10.7,13.4,10.8,13.4,11,13.3z"/>
</g>
</svg>
