<?xml version="1.0" encoding="iso-8859-1"?>
<!-- Generator: Adobe Illustrator 15.1.0, SVG Export Plug-In . SVG Version: 6.00 Build 0)  -->
<!DOCTYPE svg PUBLIC "-//W3C//DTD SVG 1.1//EN" "http://www.w3.org/Graphics/SVG/1.1/DTD/svg11.dtd">
<svg version="1.1" id="Layer_1" xmlns="http://www.w3.org/2000/svg" xmlns:xlink="http://www.w3.org/1999/xlink" x="0px" y="0px"
	 width="16px" height="16px" viewBox="0 0 16 16" style="enable-background:new 0 0 16 16;" xml:space="preserve">
<g>
	<path style="fill:#FFFFFF;" d="M14.5,2.567h-1.621c-0.023,0-0.044,0.011-0.065,0.014c-0.023-0.003-0.044-0.014-0.067-0.014h-2.207
		V1.5c0-0.276-0.224-0.5-0.5-0.5H5.962c-0.276,0-0.5,0.224-0.5,0.5v1.067H3.254c-0.021,0-0.038,0.01-0.058,0.012
		C3.176,2.577,3.159,2.567,3.139,2.567H1.5c-0.276,0-0.5,0.224-0.5,0.5s0.224,0.5,0.5,0.5h1.282l0.622,10.961
		C3.419,14.793,3.639,15,3.903,15h8.203c0.266,0,0.484-0.207,0.499-0.473l0.613-10.96H14.5c0.276,0,0.5-0.224,0.5-0.5
		S14.776,2.567,14.5,2.567z M6.462,2h3.077v0.567H6.462V2z M11.634,14H4.376L3.783,3.567h8.435L11.634,14z"/>
	<path style="fill:#FFFFFF;" d="M5.855,13.32c0.009,0,0.019,0,0.028,0c0.275-0.016,0.486-0.252,0.471-0.527L5.898,4.761
		C5.884,4.486,5.681,4.28,5.371,4.29C5.096,4.306,4.885,4.542,4.9,4.817l0.456,8.032C5.371,13.115,5.592,13.32,5.855,13.32z"/>
	<path style="fill:#FFFFFF;" d="M10.102,13.32c0.01,0,0.02,0,0.028,0c0.264,0,0.484-0.205,0.499-0.471l0.456-8.032
		c0.016-0.275-0.195-0.512-0.471-0.527c-0.302-0.01-0.513,0.196-0.527,0.471l-0.456,8.032C9.615,13.068,9.826,13.305,10.102,13.32z"
		/>
	<path style="fill:#FFFFFF;" d="M8,13.32c0.276,0,0.5-0.223,0.5-0.5V4.789c0-0.276-0.224-0.5-0.5-0.5s-0.5,0.224-0.5,0.5v8.031
		C7.5,13.098,7.724,13.32,8,13.32z"/>
</g>
</svg>
