<?xml version="1.0" encoding="utf-8"?>
<!-- Generator: Adobe Illustrator 19.1.1, SVG Export Plug-In . SVG Version: 6.00 Build 0)  -->
<svg version="1.1" id="Layer_1" xmlns="http://www.w3.org/2000/svg" xmlns:xlink="http://www.w3.org/1999/xlink" x="0px" y="0px"
	 viewBox="0 0 16 16" style="enable-background:new 0 0 16 16;" xml:space="preserve">
<style type="text/css">
	.st0{fill:#FFFFFF;}
</style>
<path class="st0" d="M15.6,2h-14C1.3,2,1,2.3,1,2.6v8.2C1,11,1.3,11,1.5,11h2.9l-0.6,2.2c0,0,0,0.2,0,0.2c0,0,0,0.1,0,0.1
	c0,0,0,0.1,0,0.1c0,0.1,0,0.2,0.1,0.3c0.1,0.1,0.2,0.2,0.4,0.2c0.1,0,0.2,0,0.3-0.1l3-2.4c0,0,0-0.1,0.1-0.1l7.8,0c0,0,0,0,0,0
	c0.1,0,0.2-0.1,0.3-0.1C16,11.2,16,11.1,16,11V2.6C16,2.3,15.9,2,15.6,2z M15,10l-7.5,0c0,0,0,0,0,0c-0.2,0-0.4,0.4-0.4,0.5
	c0,0,0,0.1,0,0.1l-1.8,1.5l0.3-1c0.1-0.2,0-0.7-0.2-0.8C5.3,10.3,5.2,10,5.1,10H2V3h13V10z"/>
</svg>
