<?xml version="1.0" encoding="iso-8859-1"?>
<!-- Generator: Adobe Illustrator 15.1.0, SVG Export Plug-In . SVG Version: 6.00 Build 0)  -->
<!DOCTYPE svg PUBLIC "-//W3C//DTD SVG 1.1//EN" "http://www.w3.org/Graphics/SVG/1.1/DTD/svg11.dtd">
<svg version="1.1" id="Layer_1" xmlns="http://www.w3.org/2000/svg" xmlns:xlink="http://www.w3.org/1999/xlink" x="0px" y="0px"
	 width="16px" height="16px" viewBox="0 0 16 16" style="enable-background:new 0 0 16 16;" xml:space="preserve">
<path style="fill:#FFFFFF;" d="M8,1.237c-3.268,0-5.927,2.83-5.927,6.309c0,0.276,0.224,0.5,0.5,0.5s0.5-0.224,0.5-0.5
	c0-0.524,0.384-0.951,0.855-0.951c0.473,0,0.856,0.427,0.856,0.951c0,0.276,0.224,0.5,0.5,0.5s0.5-0.224,0.5-0.5
	c0-0.524,0.384-0.951,0.856-0.951c0.472,0,0.855,0.427,0.855,0.951c0,0.005,0.003,0.01,0.003,0.015v4.842
	c0,0.021,0.009,0.037,0.012,0.058c-0.006,0.028-0.018,0.056-0.018,0.086c0,0.671-0.543,1.217-1.211,1.217s-1.211-0.546-1.211-1.217
	c0-0.276-0.224-0.5-0.5-0.5s-0.5,0.224-0.5,0.5c0,1.223,0.992,2.217,2.211,2.217s2.211-0.994,2.211-2.217
	c0-0.021-0.009-0.038-0.012-0.058C8.488,12.46,8.5,12.433,8.5,12.402V7.53c0.008-0.517,0.386-0.936,0.854-0.936
	c0.471,0,0.855,0.427,0.855,0.951c0,0.276,0.223,0.5,0.5,0.5l0,0l0,0c0.277,0,0.5-0.224,0.5-0.5c0-0.524,0.385-0.951,0.855-0.951
	c0.473,0,0.857,0.427,0.857,0.951c0,0.276,0.223,0.5,0.5,0.5l0.002-0.001c0.002,0,0.002,0.001,0.004,0.001
	c0.275,0,0.5-0.224,0.5-0.5C13.928,4.067,11.268,1.237,8,1.237z M10.709,6.224c-0.34-0.385-0.818-0.629-1.355-0.629
	c-0.537,0-1.017,0.244-1.357,0.628C7.658,5.839,7.178,5.595,6.641,5.595S5.624,5.839,5.285,6.224
	C4.946,5.839,4.465,5.595,3.928,5.595c-0.184,0-0.358,0.037-0.526,0.09C4.105,3.677,5.893,2.237,8,2.237
	c2.108,0,3.897,1.44,4.598,3.449c-0.17-0.054-0.346-0.092-0.533-0.092C11.527,5.595,11.049,5.839,10.709,6.224z"/>
</svg>
