<?xml version="1.0" encoding="iso-8859-1"?>
<!-- Generator: Adobe Illustrator 15.1.0, SVG Export Plug-In . SVG Version: 6.00 Build 0)  -->
<!DOCTYPE svg PUBLIC "-//W3C//DTD SVG 1.1//EN" "http://www.w3.org/Graphics/SVG/1.1/DTD/svg11.dtd">
<svg version="1.1" id="Layer_1" xmlns="http://www.w3.org/2000/svg" xmlns:xlink="http://www.w3.org/1999/xlink" x="0px" y="0px"
	 width="16px" height="16px" viewBox="0 0 16 16" style="enable-background:new 0 0 16 16;" xml:space="preserve">
<g>
	<path style="fill:#FFFFFF;" d="M8.001,12.873c2.622,0,4.582-2.631,4.582-4.983c0-0.005-0.003-0.01-0.003-0.015
		s0.003-0.01,0.003-0.015V1.843c0-0.276-0.224-0.5-0.5-0.5s-0.5,0.224-0.5,0.5v6.018c0,0.005,0.003,0.01,0.003,0.015
		s-0.003,0.01-0.003,0.015c0,1.879-1.532,3.983-3.582,3.983c-1.875,0-3.582-1.842-3.582-3.865c0-0.002-0.001-0.003-0.001-0.005
		V1.903c0-0.276-0.224-0.5-0.5-0.5s-0.5,0.224-0.5,0.5v6.135c0,0.014,0.007,0.025,0.008,0.039
		C3.464,10.639,5.583,12.873,8.001,12.873z"/>
	<path style="fill:#FFFFFF;" d="M12.251,13.656H3.749c-0.276,0-0.5,0.225-0.5,0.5c0,0.277,0.224,0.5,0.5,0.5h8.502
		c0.276,0,0.5-0.223,0.5-0.5C12.751,13.881,12.527,13.656,12.251,13.656z"/>
</g>
</svg>
