<?xml version="1.0" encoding="iso-8859-1"?>
<!-- Generator: Adobe Illustrator 15.1.0, SVG Export Plug-In . SVG Version: 6.00 Build 0)  -->
<!DOCTYPE svg PUBLIC "-//W3C//DTD SVG 1.1//EN" "http://www.w3.org/Graphics/SVG/1.1/DTD/svg11.dtd">
<svg version="1.1" id="Layer_1" xmlns="http://www.w3.org/2000/svg" xmlns:xlink="http://www.w3.org/1999/xlink" x="0px" y="0px"
	 width="16px" height="16px" viewBox="0 0 16 16" style="enable-background:new 0 0 16 16;" xml:space="preserve">
<path style="fill:#FFFFFF;" d="M14.701,6.852c-0.41-2.157-1.881-3.902-3.935-4.667c-0.695-0.259-1.422-0.391-2.158-0.391
	c-2.174,0-4.153,1.112-5.28,2.936L2.162,2.178L1.191,2.622L3.042,6.67L7.09,4.818l-0.444-0.97L4.598,4.784
	c0.967-1.203,2.438-1.923,4.012-1.923c0.609,0,1.209,0.108,1.785,0.323c1.701,0.633,2.919,2.078,3.257,3.866
	c0.075,0.396,0.103,0.804,0.082,1.212c-0.026,0.524-0.134,1.04-0.318,1.533c-0.746,1.999-2.683,3.343-4.82,3.343
	c-0.61,0-1.213-0.109-1.79-0.324c-1.745-0.65-3.004-2.198-3.285-4.04L3.481,8.527L2.426,8.689l0.038,0.247
	c0.342,2.224,1.862,4.094,3.968,4.879c0.696,0.259,1.423,0.391,2.161,0.391c0.883,0,1.777-0.195,2.586-0.564
	c1.509-0.69,2.658-1.924,3.236-3.474c0.222-0.595,0.352-1.218,0.386-1.851C14.825,7.827,14.791,7.335,14.701,6.852z"/>
</svg>
