<?xml version="1.0" encoding="iso-8859-1"?>
<!-- Generator: Adobe Illustrator 15.1.0, SVG Export Plug-In . SVG Version: 6.00 Build 0)  -->
<!DOCTYPE svg PUBLIC "-//W3C//DTD SVG 1.1//EN" "http://www.w3.org/Graphics/SVG/1.1/DTD/svg11.dtd">
<svg version="1.1" id="Layer_1" xmlns="http://www.w3.org/2000/svg" xmlns:xlink="http://www.w3.org/1999/xlink" x="0px" y="0px"
	 width="16px" height="16px" viewBox="0 0 16 16" style="enable-background:new 0 0 16 16;" xml:space="preserve">
<path style="fill:#FFFFFF;" d="M12.729,6.66H4.22C3.814,5.406,4.139,4.029,5.093,3.087c1.387-1.37,3.659-1.381,5.062-0.026
	c0.046,0.045,1.062,1.048,1.062,1.048l0.703-0.711l-1.07-1.057C9.06,0.612,6.163,0.628,4.39,2.375
	C3.238,3.513,2.794,5.147,3.178,6.679C2.947,6.724,2.771,6.917,2.771,7.16v7.285c0,0.276,0.224,0.5,0.5,0.5h9.459
	c0.276,0,0.5-0.224,0.5-0.5V7.16C13.229,6.884,13.006,6.66,12.729,6.66z M12.229,13.945H3.771V7.66h8.459V13.945z"/>
</svg>
