<?xml version="1.0" encoding="iso-8859-1"?>
<!-- Generator: Adobe Illustrator 15.1.0, SVG Export Plug-In . SVG Version: 6.00 Build 0)  -->
<!DOCTYPE svg PUBLIC "-//W3C//DTD SVG 1.1//EN" "http://www.w3.org/Graphics/SVG/1.1/DTD/svg11.dtd">
<svg version="1.1" id="Layer_1" xmlns="http://www.w3.org/2000/svg" xmlns:xlink="http://www.w3.org/1999/xlink" x="0px" y="0px"
	 width="16px" height="16px" viewBox="0 0 16 16" style="enable-background:new 0 0 16 16;" xml:space="preserve">
<g>
	<path style="fill:#FFFFFF;" d="M8,1.25C4.278,1.25,1.25,4.278,1.25,8c0,3.723,3.028,6.75,6.75,6.75s6.75-3.027,6.75-6.75
		C14.75,4.278,11.722,1.25,8,1.25z M8,13.75c-3.171,0-5.75-2.58-5.75-5.75c0-3.17,2.579-5.75,5.75-5.75S13.75,4.83,13.75,8
		C13.75,11.17,11.171,13.75,8,13.75z"/>
	<path style="fill:#FFFFFF;" d="M9.938,8.058c-0.213-0.13-0.451-0.23-0.72-0.301C8.954,7.686,8.684,7.626,8.41,7.576V5.641
		C8.779,5.659,9.116,5.7,9.422,5.764s0.602,0.14,0.889,0.226V5.04c-0.26-0.087-0.549-0.157-0.864-0.212
		C9.129,4.773,8.784,4.737,8.41,4.719V4.028H7.508v0.711C7.193,4.771,6.904,4.837,6.639,4.937c-0.264,0.1-0.49,0.23-0.679,0.39
		c-0.189,0.16-0.338,0.349-0.446,0.567C5.408,6.113,5.354,6.357,5.354,6.626c0,0.324,0.062,0.59,0.185,0.8
		c0.123,0.209,0.286,0.38,0.489,0.512c0.202,0.133,0.433,0.233,0.69,0.301C6.976,8.307,7.239,8.365,7.508,8.41v1.955H7.46
		c-0.282,0-0.565-0.02-0.848-0.059s-0.524-0.086-0.726-0.14c-0.199-0.055-0.373-0.11-0.519-0.163v0.942
		c0.091,0.046,0.213,0.089,0.365,0.13c0.153,0.041,0.325,0.078,0.517,0.109s0.396,0.057,0.612,0.076
		c0.216,0.018,0.432,0.026,0.646,0.026v0.683H8.41v-0.737c0.342-0.046,0.649-0.119,0.923-0.222s0.508-0.232,0.704-0.391
		c0.196-0.156,0.347-0.341,0.451-0.553c0.105-0.212,0.157-0.448,0.157-0.708c0-0.324-0.064-0.589-0.195-0.796
		C10.321,8.356,10.149,8.188,9.938,8.058z M7.508,7.439C7.139,7.371,6.866,7.272,6.69,7.142c-0.175-0.13-0.263-0.316-0.263-0.557
		c0-0.52,0.36-0.825,1.08-0.916V7.439z M9.479,9.743C9.419,9.848,9.335,9.938,9.23,10.014c-0.104,0.074-0.228,0.136-0.369,0.181
		c-0.143,0.046-0.292,0.082-0.451,0.11V8.533c0.178,0.032,0.337,0.069,0.479,0.113c0.142,0.043,0.263,0.096,0.366,0.16
		C9.356,8.87,9.436,8.947,9.49,9.035c0.055,0.089,0.082,0.2,0.082,0.332C9.572,9.514,9.542,9.639,9.479,9.743z"/>
</g>
</svg>
