<?xml version="1.0" encoding="iso-8859-1"?>
<!-- Generator: Adobe Illustrator 15.1.0, SVG Export Plug-In . SVG Version: 6.00 Build 0)  -->
<!DOCTYPE svg PUBLIC "-//W3C//DTD SVG 1.1//EN" "http://www.w3.org/Graphics/SVG/1.1/DTD/svg11.dtd">
<svg version="1.1" id="Layer_1" xmlns="http://www.w3.org/2000/svg" xmlns:xlink="http://www.w3.org/1999/xlink" x="0px" y="0px"
	 width="16px" height="16px" viewBox="0 0 16 16" style="enable-background:new 0 0 16 16;" xml:space="preserve">
<g>
	<path style="fill:#FFFFFF;" d="M12.015,5.408c-0.213-0.175-0.528-0.145-0.703,0.07c-0.175,0.214-0.144,0.528,0.07,0.703
		C11.869,6.58,12.16,7.26,12.16,8c0,0.73-0.284,1.404-0.762,1.803c-0.211,0.178-0.239,0.493-0.063,0.705
		c0.1,0.118,0.241,0.179,0.384,0.179c0.113,0,0.228-0.038,0.321-0.116c0.7-0.587,1.119-1.548,1.119-2.57
		C13.16,6.963,12.732,5.994,12.015,5.408z"/>
	<path style="fill:#FFFFFF;" d="M9.278,2.308C9.11,2.224,8.907,2.242,8.755,2.355L5.188,5.023H3.34c-0.276,0-0.5,0.224-0.5,0.5
		v4.953c0,0.276,0.224,0.5,0.5,0.5h1.848l3.567,2.668c0.089,0.066,0.193,0.1,0.3,0.1c0.076,0,0.153-0.018,0.224-0.053
		c0.17-0.085,0.276-0.258,0.276-0.447V2.755C9.555,2.566,9.448,2.393,9.278,2.308z M8.555,12.246l-2.901-2.17
		c-0.087-0.064-0.191-0.1-0.3-0.1H3.84V6.023h1.514c0.108,0,0.213-0.035,0.3-0.1l2.901-2.17V12.246z"/>
</g>
</svg>
