<?xml version="1.0" encoding="iso-8859-1"?>
<!-- Generator: Adobe Illustrator 15.1.0, SVG Export Plug-In . SVG Version: 6.00 Build 0)  -->
<!DOCTYPE svg PUBLIC "-//W3C//DTD SVG 1.1//EN" "http://www.w3.org/Graphics/SVG/1.1/DTD/svg11.dtd">
<svg version="1.1" id="Layer_1" xmlns="http://www.w3.org/2000/svg" xmlns:xlink="http://www.w3.org/1999/xlink" x="0px" y="0px"
	 width="16px" height="16px" viewBox="0 0 16 16" style="enable-background:new 0 0 16 16;" xml:space="preserve">
<g>
	<path style="fill:#FFFFFF;" d="M12.97,7.712l1.939-1.943c0.195-0.195,0.195-0.513,0-0.707c-0.195-0.195-0.512-0.195-0.707,0
		l-1.941,1.944l-1.942-1.944c-0.195-0.195-0.512-0.195-0.707,0s-0.195,0.512,0,0.707l1.939,1.942L9.611,9.654
		c-0.195,0.195-0.195,0.513,0,0.707c0.098,0.098,0.226,0.146,0.354,0.146s0.256-0.049,0.354-0.146l1.941-1.944l1.942,1.944
		c0.098,0.098,0.226,0.146,0.354,0.146s0.256-0.049,0.354-0.146c0.195-0.195,0.195-0.512,0-0.707L12.97,7.712z"/>
	<path style="fill:#FFFFFF;" d="M7.381,2.308C7.212,2.224,7.01,2.242,6.857,2.355L3.292,5.023H1.444c-0.276,0-0.5,0.224-0.5,0.5
		v4.953c0,0.276,0.224,0.5,0.5,0.5h1.848l3.565,2.668c0.089,0.065,0.193,0.1,0.3,0.1c0.076,0,0.153-0.018,0.224-0.053
		c0.17-0.085,0.276-0.258,0.276-0.447V2.755C7.657,2.566,7.551,2.393,7.381,2.308z M6.657,12.246l-2.899-2.17
		c-0.087-0.064-0.191-0.1-0.3-0.1H1.944V6.023h1.514c0.108,0,0.213-0.035,0.3-0.1l2.899-2.17V12.246z"/>
</g>
</svg>
