<?xml version="1.0" encoding="iso-8859-1"?>
<!-- Generator: Adobe Illustrator 15.1.0, SVG Export Plug-In . SVG Version: 6.00 Build 0)  -->
<!DOCTYPE svg PUBLIC "-//W3C//DTD SVG 1.1//EN" "http://www.w3.org/Graphics/SVG/1.1/DTD/svg11.dtd">
<svg version="1.1" id="Layer_1" xmlns="http://www.w3.org/2000/svg" xmlns:xlink="http://www.w3.org/1999/xlink" x="0px" y="0px"
	 width="16px" height="16px" viewBox="0 0 16 16" style="enable-background:new 0 0 16 16;" xml:space="preserve">
<path style="fill:#FFFFFF;" d="M11.08,2.308c-0.168-0.084-0.371-0.066-0.523,0.047L6.991,5.023H5.143c-0.276,0-0.5,0.224-0.5,0.5
	v4.953c0,0.276,0.224,0.5,0.5,0.5h1.848l3.566,2.668c0.09,0.066,0.193,0.1,0.301,0.1c0.076,0,0.152-0.018,0.223-0.053
	c0.17-0.085,0.277-0.258,0.277-0.447V2.755C11.357,2.566,11.25,2.393,11.08,2.308z M10.357,12.246l-2.901-2.17
	c-0.087-0.064-0.191-0.1-0.3-0.1H5.643V6.023h1.514c0.108,0,0.213-0.035,0.3-0.1l2.901-2.17V12.246z"/>
</svg>
