<?xml version="1.0" encoding="utf-8"?>
<!-- Generator: Adobe Illustrator 19.1.1, SVG Export Plug-In . SVG Version: 6.00 Build 0)  -->
<svg version="1.1" id="Layer_1" xmlns="http://www.w3.org/2000/svg" xmlns:xlink="http://www.w3.org/1999/xlink" x="0px" y="0px"
	 viewBox="0 0 16 16" style="enable-background:new 0 0 16 16;" xml:space="preserve">
<path d="M15.7,2.6L6.8,0.2C6.4,0.1,6,0.2,5.7,0.4C5.4,0.7,5.2,1,5.2,1.4v1.2h-1c-0.8,0-1.5,0.7-1.5,1.5v3.6h-1
	c-0.8,0-1.5,0.7-1.5,1.5c0,0.8,0.7,1.5,1.5,1.5h1v3.6c0,0.8,0.7,1.5,1.5,1.5h11.7V2.6H15.7z M5.7,1.4C5.7,1.2,5.8,1,6,0.8
	c0.2-0.1,0.4-0.2,0.7-0.1l7,1.9h-8V1.4z M15.4,15.3H4.2c-0.6,0-1-0.5-1-1v-4.1H1.6c-0.6,0-1-0.5-1-1c0-0.6,0.5-1,1-1h1.5V4.1
	c0-0.6,0.5-1,1-1h11.2V15.3z"/>
</svg>
