<?xml version="1.0" encoding="iso-8859-1"?>
<!-- Generator: Adobe Illustrator 15.1.0, SVG Export Plug-In . SVG Version: 6.00 Build 0)  -->
<!DOCTYPE svg PUBLIC "-//W3C//DTD SVG 1.1//EN" "http://www.w3.org/Graphics/SVG/1.1/DTD/svg11.dtd">
<svg version="1.1" id="Layer_1" xmlns="http://www.w3.org/2000/svg" xmlns:xlink="http://www.w3.org/1999/xlink" x="0px" y="0px"
	 width="16px" height="16px" viewBox="0 0 16 16" style="enable-background:new 0 0 16 16;" xml:space="preserve">
<g>
	<path style="fill:#FFFFFF;" d="M14.262,2.491H1.738c-0.276,0-0.5,0.224-0.5,0.5V13.01c0,0.275,0.224,0.5,0.5,0.5h12.524
		c0.277,0,0.5-0.225,0.5-0.5V2.991C14.762,2.714,14.539,2.491,14.262,2.491z M13.762,3.491v1.991H2.238V3.491H13.762z M2.238,12.51
		V6.482h11.524v6.028H2.238z"/>
	<path style="fill:#FFFFFF;" d="M3.504,5.37c0.32,0,0.589-0.181,0.743-0.437C4.402,5.189,4.67,5.37,4.991,5.37
		S5.58,5.189,5.734,4.933C5.889,5.189,6.158,5.37,6.478,5.37c0.486,0,0.882-0.396,0.882-0.882S6.964,3.606,6.478,3.606
		c-0.32,0-0.589,0.181-0.744,0.437C5.58,3.787,5.311,3.606,4.991,3.606S4.402,3.787,4.248,4.042
		C4.093,3.787,3.825,3.606,3.504,3.606c-0.486,0-0.883,0.396-0.883,0.882S3.018,5.37,3.504,5.37z"/>
</g>
</svg>
