<?xml version="1.0" encoding="iso-8859-1"?>
<!-- Generator: Adobe Illustrator 15.1.0, SVG Export Plug-In . SVG Version: 6.00 Build 0)  -->
<!DOCTYPE svg PUBLIC "-//W3C//DTD SVG 1.1//EN" "http://www.w3.org/Graphics/SVG/1.1/DTD/svg11.dtd">
<svg version="1.1" id="Layer_1" xmlns="http://www.w3.org/2000/svg" xmlns:xlink="http://www.w3.org/1999/xlink" x="0px" y="0px"
	 width="16px" height="16px" viewBox="0 0 16 16" style="enable-background:new 0 0 16 16;" xml:space="preserve">
<g>
	<path style="fill:#FFFFFF;" d="M2.106,9.19c0.129,0,0.257-0.05,0.354-0.147l5.518-5.562l5.563,5.563
		c0.195,0.195,0.512,0.195,0.707,0s0.195-0.512,0-0.707L8.331,2.42C8.237,2.326,8.11,2.273,7.977,2.273H7.976
		c-0.133,0-0.261,0.054-0.354,0.147L1.751,8.338C1.556,8.534,1.558,8.851,1.753,9.045C1.851,9.143,1.979,9.19,2.106,9.19z"/>
	<path style="fill:#FFFFFF;" d="M8.331,6.956C8.237,6.862,8.11,6.81,7.977,6.81H7.976c-0.133,0-0.261,0.054-0.354,0.147
		l-5.871,5.917c-0.195,0.196-0.193,0.513,0.002,0.707c0.197,0.197,0.513,0.191,0.707-0.002l5.518-5.562l5.563,5.563
		c0.098,0.098,0.226,0.146,0.354,0.146s0.256-0.049,0.354-0.146c0.195-0.195,0.195-0.512,0-0.707L8.331,6.956z"/>
</g>
</svg>
