<?xml version="1.0" encoding="iso-8859-1"?>
<!-- Generator: Adobe Illustrator 15.1.0, SVG Export Plug-In . SVG Version: 6.00 Build 0)  -->
<!DOCTYPE svg PUBLIC "-//W3C//DTD SVG 1.1//EN" "http://www.w3.org/Graphics/SVG/1.1/DTD/svg11.dtd">
<svg version="1.1" id="Layer_1" xmlns="http://www.w3.org/2000/svg" xmlns:xlink="http://www.w3.org/1999/xlink" x="0px" y="0px"
	 width="16px" height="16px" viewBox="0 0 16 16" style="enable-background:new 0 0 16 16;" xml:space="preserve">
<g>
	<path style="fill:#FFFFFF;" d="M3.481,8.021l5.563-5.563c0.195-0.195,0.195-0.512,0-0.707s-0.512-0.195-0.707,0L2.42,7.669
		C2.326,7.763,2.273,7.891,2.273,8.023s0.054,0.261,0.147,0.354l5.917,5.872c0.098,0.098,0.226,0.146,0.353,0.146
		c0.129,0,0.257-0.049,0.354-0.147c0.195-0.196,0.193-0.513-0.002-0.707L3.481,8.021z"/>
	<path style="fill:#FFFFFF;" d="M8.018,8.021l5.563-5.563c0.195-0.195,0.195-0.512,0-0.707s-0.512-0.195-0.707,0L6.956,7.669
		C6.862,7.763,6.81,7.891,6.81,8.023s0.054,0.261,0.147,0.354l5.917,5.872c0.098,0.098,0.226,0.146,0.353,0.146
		c0.129,0,0.257-0.049,0.354-0.147c0.195-0.196,0.193-0.513-0.002-0.707L8.018,8.021z"/>
</g>
</svg>
