<?xml version="1.0" encoding="iso-8859-1"?>
<!-- Generator: Adobe Illustrator 15.1.0, SVG Export Plug-In . SVG Version: 6.00 Build 0)  -->
<!DOCTYPE svg PUBLIC "-//W3C//DTD SVG 1.1//EN" "http://www.w3.org/Graphics/SVG/1.1/DTD/svg11.dtd">
<svg version="1.1" id="Layer_1" xmlns="http://www.w3.org/2000/svg" xmlns:xlink="http://www.w3.org/1999/xlink" x="0px" y="0px"
	 width="16px" height="16px" viewBox="0 0 16 16" style="enable-background:new 0 0 16 16;" xml:space="preserve">
<path style="fill:#FFFFFF;" d="M14.248,7.953L8.33,2.036C8.236,1.942,8.109,1.89,7.977,1.89H7.976c-0.133,0-0.261,0.054-0.354,0.147
	L1.751,7.954C1.556,8.15,1.558,8.467,1.753,8.661C1.949,8.858,2.266,8.853,2.46,8.659L7.499,3.58v10.03c0,0.276,0.224,0.5,0.5,0.5
	s0.5-0.224,0.5-0.5V3.619l5.042,5.041c0.098,0.098,0.226,0.146,0.354,0.146s0.256-0.049,0.354-0.146
	C14.443,8.465,14.443,8.148,14.248,7.953z"/>
</svg>
