<?xml version="1.0" encoding="iso-8859-1"?>
<!-- Generator: Adobe Illustrator 15.1.0, SVG Export Plug-In . SVG Version: 6.00 Build 0)  -->
<!DOCTYPE svg PUBLIC "-//W3C//DTD SVG 1.1//EN" "http://www.w3.org/Graphics/SVG/1.1/DTD/svg11.dtd">
<svg version="1.1" id="Layer_1" xmlns="http://www.w3.org/2000/svg" xmlns:xlink="http://www.w3.org/1999/xlink" x="0px" y="0px"
	 width="16px" height="16px" viewBox="0 0 16 16" style="enable-background:new 0 0 16 16;" xml:space="preserve">
<path style="fill:#FFFFFF;" d="M14.247,7.339c-0.197-0.197-0.514-0.193-0.707,0.002L8.5,12.42V2.39c0-0.276-0.224-0.5-0.5-0.5
	s-0.5,0.224-0.5,0.5v9.991L2.459,7.34c-0.195-0.195-0.512-0.195-0.707,0s-0.195,0.512,0,0.707l5.917,5.917
	c0.094,0.094,0.221,0.146,0.354,0.146h0.001c0.133,0,0.261-0.054,0.354-0.147l5.872-5.917C14.444,7.85,14.442,7.533,14.247,7.339z"
	/>
</svg>
