<?xml version="1.0" encoding="iso-8859-1"?>
<!-- Generator: Adobe Illustrator 15.1.0, SVG Export Plug-In . SVG Version: 6.00 Build 0)  -->
<!DOCTYPE svg PUBLIC "-//W3C//DTD SVG 1.1//EN" "http://www.w3.org/Graphics/SVG/1.1/DTD/svg11.dtd">
<svg version="1.1" id="Layer_1" xmlns="http://www.w3.org/2000/svg" xmlns:xlink="http://www.w3.org/1999/xlink" x="0px" y="0px"
	 width="16px" height="16px" viewBox="0 0 16 16" style="enable-background:new 0 0 16 16;" xml:space="preserve">
<g>
	<path style="fill:#FFFFFF;" d="M11.854,7.829L8.341,4.315C8.247,4.222,8.12,4.169,7.987,4.169H7.986
		c-0.133,0-0.261,0.054-0.354,0.147L4.146,7.83C3.95,8.026,3.952,8.343,4.147,8.537C4.345,8.734,4.661,8.73,4.854,8.535L7.5,5.869
		v5.462c0,0.276,0.224,0.5,0.5,0.5s0.5-0.224,0.5-0.5V5.889l2.646,2.647c0.098,0.098,0.226,0.146,0.354,0.146
		s0.256-0.049,0.354-0.146C12.049,8.341,12.049,8.024,11.854,7.829z"/>
	<path style="fill:#FFFFFF;" d="M7.999,1.803c-3.417,0-6.196,2.78-6.196,6.197s2.779,6.197,6.196,6.197
		c3.418,0,6.198-2.78,6.198-6.197S11.417,1.803,7.999,1.803z M7.999,13.197c-2.865,0-5.196-2.331-5.196-5.197
		s2.331-5.197,5.196-5.197c2.866,0,5.198,2.331,5.198,5.197S10.865,13.197,7.999,13.197z"/>
</g>
</svg>
