<?xml version="1.0" encoding="utf-8"?>
<!-- Generator: Adobe Illustrator 19.1.1, SVG Export Plug-In . SVG Version: 6.00 Build 0)  -->
<svg version="1.1" id="Layer_1" xmlns="http://www.w3.org/2000/svg" xmlns:xlink="http://www.w3.org/1999/xlink" x="0px" y="0px"
	 viewBox="0 0 16 16" style="enable-background:new 0 0 16 16;" xml:space="preserve">
<path d="M13.3,9.2H9.4L8.4,5.9c2.9-0.2,5.2-2.6,5.2-5.5c0-0.1-0.1-0.3-0.3-0.3H2.7c-0.1,0-0.3,0.1-0.3,0.3c0,2.9,2.3,5.3,5.2,5.5
	L6.6,9.2H2.7c-0.1,0-0.2,0.1-0.3,0.2c0,0.1,0,0.2,0.1,0.3l3.1,2.3l-1.2,3.7c0,0.1,0,0.2,0.1,0.3c0.1,0.1,0.2,0.1,0.3,0L8,13.6
	l3.1,2.3c0,0,0.1,0.1,0.2,0.1c0.1,0,0.1,0,0.2-0.1c0.1-0.1,0.1-0.2,0.1-0.3l-1.2-3.7l3.1-2.3c0.1-0.1,0.1-0.2,0.1-0.3
	C13.5,9.3,13.4,9.2,13.3,9.2z M3,0.6h10c-0.1,2.6-2.3,4.7-5,4.7C5.3,5.4,3.1,3.2,3,0.6z M9.9,11.6c-0.1,0.1-0.1,0.2-0.1,0.3l1,3.1
	l-2.6-1.9c-0.1-0.1-0.2-0.1-0.3,0L5.2,15l1-3.1c0-0.1,0-0.2-0.1-0.3L3.5,9.7h3.2C6.9,9.7,7,9.6,7,9.5l1-3.1l1,3.1
	c0,0.1,0.1,0.2,0.3,0.2h3.2L9.9,11.6z"/>
</svg>
