<?xml version="1.0" encoding="iso-8859-1"?>
<!-- Generator: Adobe Illustrator 15.1.0, SVG Export Plug-In . SVG Version: 6.00 Build 0)  -->
<!DOCTYPE svg PUBLIC "-//W3C//DTD SVG 1.1//EN" "http://www.w3.org/Graphics/SVG/1.1/DTD/svg11.dtd">
<svg version="1.1" id="Layer_1" xmlns="http://www.w3.org/2000/svg" xmlns:xlink="http://www.w3.org/1999/xlink" x="0px" y="0px"
	 width="16px" height="16px" viewBox="0 0 16 16" style="enable-background:new 0 0 16 16;" xml:space="preserve">
<path style="fill:#FFFFFF;" d="M14.637,3.854c-0.158-0.09-0.352-0.086-0.504,0.005L8.437,7.255V4.167
	c0-0.18-0.097-0.346-0.253-0.435c-0.157-0.09-0.35-0.088-0.503,0.005L1.355,7.51C1.204,7.601,1.111,7.764,1.111,7.94
	s0.093,0.339,0.244,0.43l6.326,3.772c0.078,0.047,0.167,0.07,0.256,0.07c0.085,0,0.17-0.021,0.247-0.065
	c0.156-0.089,0.253-0.255,0.253-0.435V8.867l5.696,3.396c0.078,0.047,0.168,0.07,0.256,0.07c0.086,0,0.17-0.021,0.248-0.065
	c0.156-0.089,0.252-0.255,0.252-0.435V4.289C14.889,4.109,14.793,3.943,14.637,3.854z M7.437,10.832L2.587,7.94l4.85-2.893V10.832z
	 M13.889,10.953l-4.85-2.892l4.85-2.893V10.953z"/>
</svg>
