<?xml version="1.0" encoding="iso-8859-1"?>
<!-- Generator: Adobe Illustrator 15.1.0, SVG Export Plug-In . SVG Version: 6.00 Build 0)  -->
<!DOCTYPE svg PUBLIC "-//W3C//DTD SVG 1.1//EN" "http://www.w3.org/Graphics/SVG/1.1/DTD/svg11.dtd">
<svg version="1.1" id="Layer_1" xmlns="http://www.w3.org/2000/svg" xmlns:xlink="http://www.w3.org/1999/xlink" x="0px" y="0px"
	 width="16px" height="16px" viewBox="0 0 16 16" style="enable-background:new 0 0 16 16;" xml:space="preserve">
<path style="fill:#FFFFFF;" d="M12.911,8.84c-0.857-1.08-2.162-1.654-3.877-1.707C6.291,7.05,4.656,7.039,3.695,7.049l4.391-4.535
	C8.278,2.316,8.272,2,8.074,1.807C7.875,1.615,7.559,1.62,7.367,1.819L2.114,7.244C2.063,7.296,2.028,7.357,2.004,7.421
	c0,0.001-0.002,0.002-0.002,0.003C2,7.429,2.003,7.435,2.001,7.44C1.978,7.513,1.975,7.588,1.987,7.664
	C1.99,7.684,1.994,7.702,2,7.722C2.018,7.792,2.05,7.856,2.1,7.914c0.005,0.006,0.005,0.014,0.011,0.02l0.012,0.013
	C2.124,7.948,2.125,7.95,2.125,7.951s0.002,0.001,0.003,0.001l5.148,5.45c0.19,0.199,0.506,0.209,0.707,0.02
	c0.2-0.189,0.209-0.506,0.02-0.707L3.594,8.048c0.904-0.01,2.541-0.002,5.409,0.086c1.405,0.043,2.456,0.489,3.122,1.325
	c1.298,1.628,0.799,4.252,0.794,4.277c-0.054,0.271,0.122,0.534,0.393,0.588c0.033,0.006,0.066,0.01,0.099,0.01
	c0.233,0,0.441-0.164,0.489-0.402C13.925,13.807,14.496,10.836,12.911,8.84z"/>
</svg>
