<?xml version="1.0" encoding="iso-8859-1"?>
<!-- Generator: Adobe Illustrator 15.1.0, SVG Export Plug-In . SVG Version: 6.00 Build 0)  -->
<!DOCTYPE svg PUBLIC "-//W3C//DTD SVG 1.1//EN" "http://www.w3.org/Graphics/SVG/1.1/DTD/svg11.dtd">
<svg version="1.1" id="Layer_1" xmlns="http://www.w3.org/2000/svg" xmlns:xlink="http://www.w3.org/1999/xlink" x="0px" y="0px"
	 width="16px" height="16px" viewBox="0 0 16 16" style="enable-background:new 0 0 16 16;" xml:space="preserve">
<g>
	<path style="fill:#FFFFFF;" d="M13.193,1.562c-0.276,0-0.5,0.224-0.5,0.5v11.877c0,0.276,0.224,0.5,0.5,0.5s0.5-0.224,0.5-0.5
		V2.062C13.693,1.785,13.47,1.562,13.193,1.562z"/>
	<path style="fill:#FFFFFF;" d="M10.695,8.925c-0.276,0-0.5,0.224-0.5,0.5v4.514c0,0.276,0.224,0.5,0.5,0.5s0.5-0.224,0.5-0.5V9.425
		C11.195,9.148,10.972,8.925,10.695,8.925z"/>
	<path style="fill:#FFFFFF;" d="M8.021,7.347c-0.276,0-0.5,0.224-0.5,0.5v6.092c0,0.276,0.224,0.5,0.5,0.5s0.5-0.224,0.5-0.5V7.847
		C8.521,7.57,8.298,7.347,8.021,7.347z"/>
	<path style="fill:#FFFFFF;" d="M5.48,4.191c-0.276,0-0.5,0.224-0.5,0.5v9.247c0,0.276,0.224,0.5,0.5,0.5s0.5-0.224,0.5-0.5V4.691
		C5.98,4.415,5.757,4.191,5.48,4.191z"/>
	<path style="fill:#FFFFFF;" d="M2.807,10.459c-0.276,0-0.5,0.224-0.5,0.5v2.979c0,0.276,0.224,0.5,0.5,0.5s0.5-0.224,0.5-0.5
		v-2.979C3.307,10.683,3.083,10.459,2.807,10.459z"/>
</g>
</svg>
