<?xml version="1.0" encoding="iso-8859-1"?>
<!-- Generator: Adobe Illustrator 15.1.0, SVG Export Plug-In . SVG Version: 6.00 Build 0)  -->
<!DOCTYPE svg PUBLIC "-//W3C//DTD SVG 1.1//EN" "http://www.w3.org/Graphics/SVG/1.1/DTD/svg11.dtd">
<svg version="1.1" id="Layer_1" xmlns="http://www.w3.org/2000/svg" xmlns:xlink="http://www.w3.org/1999/xlink" x="0px" y="0px"
	 width="16px" height="16px" viewBox="0 0 16 16" style="enable-background:new 0 0 16 16;" xml:space="preserve">
<g>
	<path style="fill:#FFFFFF;" d="M0.5,3h15C15.777,3,16,2.776,16,2.5S15.777,2,15.5,2h-15C0.224,2,0,2.224,0,2.5S0.224,3,0.5,3z"/>
	<path style="fill:#FFFFFF;" d="M15.5,7.5h-15C0.224,7.5,0,7.724,0,8s0.224,0.5,0.5,0.5h15C15.777,8.5,16,8.276,16,8
		S15.777,7.5,15.5,7.5z"/>
	<path style="fill:#FFFFFF;" d="M15.5,13h-15C0.224,13,0,13.224,0,13.5S0.224,14,0.5,14h15c0.277,0,0.5-0.224,0.5-0.5
		S15.777,13,15.5,13z"/>
</g>
</svg>
