<?xml version="1.0" encoding="utf-8"?>
<!-- Generator: Adobe Illustrator 19.1.1, SVG Export Plug-In . SVG Version: 6.00 Build 0)  -->
<svg version="1.1" id="Layer_1" xmlns="http://www.w3.org/2000/svg" xmlns:xlink="http://www.w3.org/1999/xlink" x="0px" y="0px"
	 viewBox="0 0 16 16" style="enable-background:new 0 0 16 16;" xml:space="preserve">
<g>
	<path d="M2.5,9.8c0.1,0,0.3-0.1,0.3-0.3v-3c0-0.1-0.1-0.3-0.3-0.3S2.3,6.4,2.3,6.5v3C2.3,9.6,2.4,9.8,2.5,9.8z"/>
	<path d="M4.6,9.8c0.1,0,0.3-0.1,0.3-0.3v-3c0-0.1-0.1-0.3-0.3-0.3S4.4,6.4,4.4,6.5v3C4.4,9.6,4.5,9.8,4.6,9.8z"/>
	<path d="M6.6,9.8c0.1,0,0.3-0.1,0.3-0.3v-3c0-0.1-0.1-0.3-0.3-0.3S6.4,6.4,6.4,6.5v3C6.4,9.6,6.5,9.8,6.6,9.8z"/>
	<path d="M8.6,9.8c0.1,0,0.3-0.1,0.3-0.3v-3c0-0.1-0.1-0.3-0.3-0.3S8.3,6.4,8.3,6.5v3C8.3,9.6,8.5,9.8,8.6,9.8z"/>
	<path d="M15.5,6.5h-0.6c0,0,0,0-0.1,0V5c0-0.1-0.1-0.3-0.3-0.3H0.5C0.4,4.8,0.3,4.9,0.3,5v6c0,0.1,0.1,0.3,0.3,0.3h14.1
		c0.1,0,0.3-0.1,0.3-0.3V9.6c0,0,0,0,0.1,0h0.6c0.1,0,0.3-0.1,0.3-0.3V6.7C15.8,6.6,15.6,6.5,15.5,6.5z M14.3,10.8H0.8V5.3h13.6
		V10.8z M15.3,9.2L15.3,9.2L15.2,7h0.1V9.2z"/>
</g>
</svg>
