<?xml version="1.0" encoding="iso-8859-1"?>
<!-- Generator: Adobe Illustrator 15.1.0, SVG Export Plug-In . SVG Version: 6.00 Build 0)  -->
<!DOCTYPE svg PUBLIC "-//W3C//DTD SVG 1.1//EN" "http://www.w3.org/Graphics/SVG/1.1/DTD/svg11.dtd">
<svg version="1.1" id="Layer_1" xmlns="http://www.w3.org/2000/svg" xmlns:xlink="http://www.w3.org/1999/xlink" x="0px" y="0px"
	 width="16px" height="16px" viewBox="0 0 16 16" style="enable-background:new 0 0 16 16;" xml:space="preserve">
<path style="fill:#FFFFFF;" d="M12.479,9.456l-0.647-0.009V6.123c-0.025-2.391-1.743-4.335-3.83-4.335
	c-2.078,0-3.797,1.937-3.831,4.324v3.344H3.528c-0.276,0-0.5,0.224-0.5,0.5c0,2.054,1.089,2.485,2.002,2.485h1.188
	c-0.004,0.025-0.015,0.047-0.015,0.072c0,0.937,0.807,1.698,1.798,1.698c0.99,0,1.796-0.762,1.796-1.698
	c0-0.025-0.011-0.047-0.015-0.072h1.188c2.002,0,2.002-1.679,2.002-2.485C12.972,9.683,12.752,9.46,12.479,9.456z M8.797,12.514
	c0,0.385-0.357,0.698-0.796,0.698c-0.439,0-0.798-0.313-0.798-0.698c0-0.025-0.011-0.047-0.015-0.072h1.623
	C8.808,12.467,8.797,12.488,8.797,12.514z M10.97,11.441H5.03c-0.51,0-0.875-0.182-0.975-0.985H4.56c0.02,0,0.035-0.009,0.054-0.011
	c0.02,0.002,0.036,0.012,0.057,0.012c0.276,0,0.5-0.225,0.5-0.5V6.12c0.026-1.838,1.296-3.332,2.831-3.332
	c1.541,0,2.811,1.501,2.83,3.341v3.828c0,0.275,0.224,0.5,0.5,0.5c0.026,0,0.049-0.012,0.074-0.016l0.554,0.008
	C11.913,11.135,11.717,11.441,10.97,11.441z"/>
</svg>
