<?xml version="1.0" encoding="iso-8859-1"?>
<!-- Generator: Adobe Illustrator 15.1.0, SVG Export Plug-In . SVG Version: 6.00 Build 0)  -->
<!DOCTYPE svg PUBLIC "-//W3C//DTD SVG 1.1//EN" "http://www.w3.org/Graphics/SVG/1.1/DTD/svg11.dtd">
<svg version="1.1" id="Layer_1" xmlns="http://www.w3.org/2000/svg" xmlns:xlink="http://www.w3.org/1999/xlink" x="0px" y="0px"
	 width="16px" height="16px" viewBox="0 0 16 16" style="enable-background:new 0 0 16 16;" xml:space="preserve">
<path style="fill:#FFFFFF;" d="M12.577,9.456L11.93,9.447V6.123c-0.004-0.396-0.07-0.773-0.161-1.138l1.032-1.152
	c0.185-0.205,0.167-0.521-0.038-0.706c-0.206-0.184-0.522-0.167-0.706,0.039l-0.688,0.767C10.697,2.655,9.486,1.788,8.1,1.788
	c-2.078,0-3.797,1.937-3.831,4.324v3.344H3.627c-0.276,0-0.5,0.224-0.5,0.5c0,1.218,0.387,1.857,0.889,2.183l-0.959,1.069
	c-0.185,0.206-0.167,0.521,0.038,0.706C3.191,14,3.31,14.041,3.429,14.041c0.137,0,0.273-0.056,0.372-0.166l1.287-1.436
	c0.014,0,0.027,0.002,0.041,0.002h1.188c-0.004,0.025-0.015,0.047-0.015,0.072c0,0.937,0.807,1.698,1.798,1.698
	c0.99,0,1.795-0.762,1.795-1.698c0-0.025-0.011-0.047-0.015-0.072h1.188c2.002,0,2.002-1.679,2.002-2.485
	C13.07,9.683,12.851,9.46,12.577,9.456z M4.155,10.456h0.504c0.02,0,0.035-0.009,0.054-0.011c0.02,0.002,0.036,0.012,0.057,0.012
	c0.276,0,0.5-0.225,0.5-0.5V6.12C5.295,4.282,6.565,2.788,8.1,2.788c1.123,0,2.095,0.802,2.551,1.946l-5.949,6.638
	C4.42,11.266,4.223,11.011,4.155,10.456z M8.896,12.514c0,0.385-0.357,0.698-0.796,0.698c-0.439,0-0.798-0.313-0.798-0.698
	c0-0.025-0.011-0.047-0.015-0.072h1.623C8.907,12.467,8.896,12.488,8.896,12.514z M11.068,11.441H5.983l4.929-5.501
	c0.004,0.063,0.017,0.124,0.018,0.188v3.828c0,0.275,0.224,0.5,0.5,0.5c0.026,0,0.049-0.012,0.074-0.016l0.554,0.008
	C12.012,11.135,11.815,11.441,11.068,11.441z"/>
</svg>
