<?xml version="1.0" encoding="iso-8859-1"?>
<!-- Generator: Adobe Illustrator 15.1.0, SVG Export Plug-In . SVG Version: 6.00 Build 0)  -->
<!DOCTYPE svg PUBLIC "-//W3C//DTD SVG 1.1//EN" "http://www.w3.org/Graphics/SVG/1.1/DTD/svg11.dtd">
<svg version="1.1" id="Layer_1" xmlns="http://www.w3.org/2000/svg" xmlns:xlink="http://www.w3.org/1999/xlink" x="0px" y="0px"
	 width="16px" height="16px" viewBox="0 0 16 16" style="enable-background:new 0 0 16 16;" xml:space="preserve">
<path style="fill:#FFFFFF;" d="M8.5,8.403V7.707l3.961-2.756c0.136-0.094,0.216-0.249,0.215-0.414s-0.084-0.319-0.222-0.411
	L8.278,1.322C8.124,1.218,7.927,1.21,7.764,1.296C7.601,1.383,7.5,1.553,7.5,1.737v5.447L7.134,7.439L4.113,5.306
	c-0.222-0.159-0.535-0.107-0.696,0.12c-0.159,0.226-0.105,0.537,0.12,0.696L6.26,8.047L3.54,9.94
	c-0.228,0.157-0.283,0.469-0.125,0.695c0.157,0.228,0.47,0.282,0.695,0.125l3.02-2.101L7.5,8.922v5.341
	c0,0.183,0.1,0.351,0.259,0.438C7.833,14.742,7.917,14.763,8,14.763c0.093,0,0.187-0.026,0.268-0.078l4.176-2.65
	c0.142-0.089,0.229-0.243,0.232-0.409c0.004-0.167-0.075-0.325-0.212-0.421L8.5,8.403z M8.5,2.675l2.791,1.874L8.5,6.489V2.675z
	 M8.5,13.354V9.628l2.778,1.962L8.5,13.354z"/>
</svg>
