<?xml version="1.0" encoding="iso-8859-1"?>
<!-- Generator: Adobe Illustrator 15.1.0, SVG Export Plug-In . SVG Version: 6.00 Build 0)  -->
<!DOCTYPE svg PUBLIC "-//W3C//DTD SVG 1.1//EN" "http://www.w3.org/Graphics/SVG/1.1/DTD/svg11.dtd">
<svg version="1.1" id="Layer_1" xmlns="http://www.w3.org/2000/svg" xmlns:xlink="http://www.w3.org/1999/xlink" x="0px" y="0px"
	 width="16px" height="16px" viewBox="0 0 16 16" style="enable-background:new 0 0 16 16;" xml:space="preserve">
<path style="fill:#FFFFFF;" d="M13.564,5.19c-0.087-0.163-0.257-0.265-0.441-0.265H8.134l0.918-3.379
	c0.041-0.149,0.009-0.311-0.086-0.435C8.872,0.989,8.725,0.916,8.569,0.916H4.114c-0.245,0-0.453,0.177-0.493,0.418L2.384,8.76
	C2.359,8.904,2.4,9.053,2.496,9.165C2.59,9.277,2.73,9.342,2.877,9.342h3.627l-1.581,5.094c-0.047,0.151-0.019,0.316,0.075,0.444
	s0.244,0.204,0.402,0.204h1.584c0.167,0,0.322-0.084,0.416-0.223l6.138-9.157C13.642,5.551,13.651,5.353,13.564,5.19z M6.718,14.084
	H6.08L7.66,8.989c0.047-0.151,0.019-0.316-0.075-0.444S7.341,8.342,7.183,8.342H3.467l1.07-6.426h3.377L6.998,5.295
	C6.957,5.444,6.988,5.605,7.083,5.729C7.177,5.853,7.324,5.926,7.48,5.926h4.706L6.718,14.084z"/>
</svg>
