<?xml version="1.0" encoding="iso-8859-1"?>
<!-- Generator: Adobe Illustrator 15.1.0, SVG Export Plug-In . SVG Version: 6.00 Build 0)  -->
<!DOCTYPE svg PUBLIC "-//W3C//DTD SVG 1.1//EN" "http://www.w3.org/Graphics/SVG/1.1/DTD/svg11.dtd">
<svg version="1.1" id="Layer_1" xmlns="http://www.w3.org/2000/svg" xmlns:xlink="http://www.w3.org/1999/xlink" x="0px" y="0px"
	 width="16px" height="16px" viewBox="0 0 16 16" style="enable-background:new 0 0 16 16;" xml:space="preserve">
<path style="fill:#FFFFFF;" d="M12,1.5H4C3.724,1.5,3.5,1.723,3.5,2v12c0,0.221,0.145,0.414,0.355,0.479
	c0.213,0.065,0.438-0.018,0.561-0.201L8,8.901l3.584,5.376C11.679,14.419,11.836,14.5,12,14.5c0.048,0,0.097-0.007,0.145-0.021
	C12.355,14.414,12.5,14.221,12.5,14V2C12.5,1.723,12.276,1.5,12,1.5z M11.5,12.349L8.416,7.722C8.323,7.583,8.167,7.5,8,7.5
	S7.677,7.583,7.584,7.722L4.5,12.349V2.5h7V12.349z"/>
</svg>
