<?xml version="1.0" encoding="iso-8859-1"?>
<!-- Generator: Adobe Illustrator 15.1.0, SVG Export Plug-In . SVG Version: 6.00 Build 0)  -->
<!DOCTYPE svg PUBLIC "-//W3C//DTD SVG 1.1//EN" "http://www.w3.org/Graphics/SVG/1.1/DTD/svg11.dtd">
<svg version="1.1" id="Layer_1" xmlns="http://www.w3.org/2000/svg" xmlns:xlink="http://www.w3.org/1999/xlink" x="0px" y="0px"
	 width="16px" height="16px" viewBox="0 0 16 16" style="enable-background:new 0 0 16 16;" xml:space="preserve">
<g>
	<path style="fill:#FFFFFF;" d="M11.854,4.95H6.261c-0.282,0-0.513,0.23-0.513,0.514c0,0.282,0.23,0.513,0.513,0.513h5.593
		c0.284,0,0.515-0.23,0.515-0.513C12.368,5.181,12.138,4.95,11.854,4.95z"/>
	<path style="fill:#FFFFFF;" d="M13.655,0.902H3.408c-0.87,0-1.577,0.707-1.577,1.576v11.042c0,0.87,0.707,1.577,1.577,1.577h10.247
		c0.283,0,0.514-0.23,0.514-0.514V1.415C14.169,1.133,13.938,0.902,13.655,0.902z M2.858,13.138c0-0.304,0.247-0.55,0.55-0.55h9.733
		v1.482H3.408c-0.303,0-0.55-0.246-0.55-0.55V13.138z M2.858,2.479c0-0.304,0.247-0.55,0.55-0.55H3.7v9.632H3.408
		c-0.189,0-0.375,0.035-0.55,0.102V2.479z M4.727,1.929h8.415v9.632H4.727V1.929z"/>
	<path style="fill:#FFFFFF;" d="M11.854,2.783H6.261c-0.282,0-0.513,0.23-0.513,0.514s0.23,0.514,0.513,0.514h5.593
		c0.284,0,0.515-0.23,0.515-0.514S12.138,2.783,11.854,2.783z"/>
</g>
</svg>
