<?xml version="1.0" encoding="iso-8859-1"?>
<!-- Generator: Adobe Illustrator 15.1.0, SVG Export Plug-In . SVG Version: 6.00 Build 0)  -->
<!DOCTYPE svg PUBLIC "-//W3C//DTD SVG 1.1//EN" "http://www.w3.org/Graphics/SVG/1.1/DTD/svg11.dtd">
<svg version="1.1" id="Layer_1" xmlns="http://www.w3.org/2000/svg" xmlns:xlink="http://www.w3.org/1999/xlink" x="0px" y="0px"
	 width="16px" height="16px" viewBox="0 0 16 16" style="enable-background:new 0 0 16 16;" xml:space="preserve">
<path style="fill:#FFFFFF;" d="M13.922,3.961h-3.109C10.578,2.615,9.385,1.592,8,1.592c-1.385,0-2.579,1.023-2.813,2.369H2.079
	c-0.921,0-1.671,0.75-1.671,1.671v7.104c0,0.922,0.75,1.672,1.671,1.672h11.843c0.92,0,1.67-0.75,1.67-1.672V5.632
	C15.592,4.71,14.842,3.961,13.922,3.961z M8,2.566c0.858,0,1.59,0.583,1.807,1.395H6.193C6.409,3.149,7.141,2.566,8,2.566z
	 M14.619,7.151H1.38V5.632c0-0.385,0.313-0.698,0.698-0.698h11.843c0.385,0,0.697,0.313,0.697,0.698V7.151z M13.922,13.434H2.079
	c-0.385,0-0.698-0.313-0.698-0.697V8.125h4.146v1.023c0,0.427,0.347,0.773,0.773,0.773h3.397c0.428,0,0.775-0.347,0.775-0.773V8.125
	h4.146v4.611C14.619,13.121,14.307,13.434,13.922,13.434z M9.473,8.242v0.681H6.527V8.242H9.473z"/>
</svg>
