<?xml version="1.0" encoding="iso-8859-1"?>
<!-- Generator: Adobe Illustrator 15.1.0, SVG Export Plug-In . SVG Version: 6.00 Build 0)  -->
<!DOCTYPE svg PUBLIC "-//W3C//DTD SVG 1.1//EN" "http://www.w3.org/Graphics/SVG/1.1/DTD/svg11.dtd">
<svg version="1.1" id="Layer_1" xmlns="http://www.w3.org/2000/svg" xmlns:xlink="http://www.w3.org/1999/xlink" x="0px" y="0px"
	 width="16px" height="16px" viewBox="0 0 16 16" style="enable-background:new 0 0 16 16;" xml:space="preserve">
<g>
	<path style="fill:#FFFFFF;" d="M12.975,1.606H3.025c-0.276,0-0.5,0.224-0.5,0.5v11.789c0,0.275,0.224,0.5,0.5,0.5h9.949
		c0.275,0,0.5-0.225,0.5-0.5V2.106C13.475,1.83,13.25,1.606,12.975,1.606z M7.449,13.176v-1.41h1.104v1.41H7.449z M12.475,13.395
		H9.553v-2.129c0-0.277-0.225-0.5-0.5-0.5H6.949c-0.276,0-0.5,0.223-0.5,0.5v2.129H3.525V2.606h8.949V13.395z"/>
	<path style="fill:#FFFFFF;" d="M4.735,6.25h2.104c0.276,0,0.5-0.224,0.5-0.5V3.726c0-0.276-0.224-0.5-0.5-0.5H4.735
		c-0.276,0-0.5,0.224-0.5,0.5V5.75C4.235,6.026,4.459,6.25,4.735,6.25z M5.235,4.226h1.104V5.25H5.235V4.226z"/>
	<path style="fill:#FFFFFF;" d="M9.025,6.25h2.105c0.275,0,0.5-0.224,0.5-0.5V3.726c0-0.276-0.225-0.5-0.5-0.5H9.025
		c-0.275,0-0.499,0.224-0.499,0.5V5.75C8.526,6.026,8.75,6.25,9.025,6.25z M9.525,4.226h1.105V5.25H9.525V4.226z"/>
	<path style="fill:#FFFFFF;" d="M4.735,9.834h2.104c0.276,0,0.5-0.225,0.5-0.5V7.31c0-0.276-0.224-0.5-0.5-0.5H4.735
		c-0.276,0-0.5,0.224-0.5,0.5v2.024C4.235,9.609,4.459,9.834,4.735,9.834z M5.235,7.81h1.104v1.023H5.235V7.81z"/>
	<path style="fill:#FFFFFF;" d="M9.025,9.834h2.105c0.275,0,0.5-0.225,0.5-0.5V7.31c0-0.276-0.225-0.5-0.5-0.5H9.025
		c-0.275,0-0.499,0.224-0.499,0.5v2.024C8.526,9.609,8.75,9.834,9.025,9.834z M9.525,7.81h1.105v1.023H9.525V7.81z"/>
</g>
</svg>
