<?xml version="1.0" encoding="iso-8859-1"?>
<!-- Generator: Adobe Illustrator 15.1.0, SVG Export Plug-In . SVG Version: 6.00 Build 0)  -->
<!DOCTYPE svg PUBLIC "-//W3C//DTD SVG 1.1//EN" "http://www.w3.org/Graphics/SVG/1.1/DTD/svg11.dtd">
<svg version="1.1" id="Layer_1" xmlns="http://www.w3.org/2000/svg" xmlns:xlink="http://www.w3.org/1999/xlink" x="0px" y="0px"
	 width="16px" height="16px" viewBox="0 0 16 16" style="enable-background:new 0 0 16 16;" xml:space="preserve">
<path style="fill:#FFFFFF;" d="M12.652,4.228V1.46h-0.918v0.25c0,0.671-0.547,1.218-1.219,1.218H5.064
	c-2.103,0-3.814,1.711-3.814,3.814c0,2.104,1.711,3.815,3.814,3.815h0.379v3.983h0.92v-3.983h4.153c0.672,0,1.219,0.547,1.219,1.217
	v0.25h0.918V9.256c1.193-0.221,2.098-1.283,2.098-2.514C14.75,5.511,13.846,4.448,12.652,4.228z M12.652,8.304V5.18
	c0.688,0.2,1.178,0.829,1.178,1.562C13.83,7.475,13.34,8.104,12.652,8.304z M5.064,3.847h5.452c0.441,0,0.865-0.135,1.219-0.381
	v6.553c-0.355-0.247-0.777-0.382-1.219-0.382H5.064c-1.596,0-2.895-1.299-2.895-2.895S3.468,3.847,5.064,3.847z"/>
</svg>
