<?xml version="1.0" encoding="utf-8"?>
<!-- Generator: Adobe Illustrator 19.1.1, SVG Export Plug-In . SVG Version: 6.00 Build 0)  -->
<svg version="1.1" id="Layer_1" xmlns="http://www.w3.org/2000/svg" xmlns:xlink="http://www.w3.org/1999/xlink" x="0px" y="0px"
	 viewBox="0 0 16 16" style="enable-background:new 0 0 16 16;" xml:space="preserve">
<g>
	<rect x="3.6" y="12.6" width="1" height="1"/>
	<rect x="3.6" y="10.1" width="1" height="1"/>
	<rect x="3.6" y="7.5" width="1" height="1"/>
	<rect x="6.2" y="12.6" width="1" height="1"/>
	<rect x="6.2" y="10.1" width="1" height="1"/>
	<rect x="6.2" y="7.5" width="1" height="1"/>
	<rect x="8.8" y="12.6" width="1" height="1"/>
	<rect x="8.8" y="10.1" width="1" height="1"/>
	<rect x="8.8" y="7.5" width="1" height="1"/>
	<rect x="11.3" y="12.6" width="1" height="1"/>
	<rect x="11.3" y="10.1" width="1" height="1"/>
	<rect x="11.3" y="7.5" width="1" height="1"/>
	<path d="M1.3,0.1v15.9h13.3V0.1H1.3z M14.2,15.4H1.8V0.6h12.3V15.4z"/>
	<path d="M12.1,2.6H3.9v3.1h8.2V2.6z M11.6,5.2H4.4V3.1h7.2V5.2z"/>
</g>
</svg>
