<?xml version="1.0" encoding="utf-8"?>
<!-- Generator: Adobe Illustrator 19.1.1, SVG Export Plug-In . SVG Version: 6.00 Build 0)  -->
<svg version="1.1" id="Layer_1" xmlns="http://www.w3.org/2000/svg" xmlns:xlink="http://www.w3.org/1999/xlink" x="0px" y="0px"
	 viewBox="0 0 16 16" style="enable-background:new 0 0 16 16;" xml:space="preserve">
<g>
	<g>
		<path d="M10.9,8.7L9,10.6L4.7,6.2l1.8-1.8L3.1,0.9l-2,2c-1.1,1.1-1.1,2.9,0,4l7.3,7.3c0.5,0.5,1.2,0.8,2,0.8c0.8,0,1.5-0.3,2-0.8
			l2-2L10.9,8.7z M12,13.9c-0.4,0.4-1,0.7-1.6,0.7c-0.6,0-1.2-0.2-1.6-0.7L1.4,6.6c-0.9-0.9-0.9-2.4,0-3.3l1.6-1.6l2.8,2.8L4,6.2
			l5,5l1.8-1.8l2.8,2.8L12,13.9z"/>
	</g>
	<g>
		<path d="M15.8,9.2V8.7c-1.3,0-2.3-1-2.3-2.3h-0.5C12.9,7.9,14.2,9.2,15.8,9.2z"/>
		<path d="M12,6.4h-0.5c0,1.2,0.4,2.2,1.3,3.1c0.8,0.8,1.9,1.3,3.1,1.3v-0.5c-1,0-2-0.4-2.7-1.1C12.4,8.3,12,7.4,12,6.4z"/>
	</g>
</g>
</svg>
