<?xml version="1.0" encoding="utf-8"?>
<!-- Generator: Adobe Illustrator 19.1.1, SVG Export Plug-In . SVG Version: 6.00 Build 0)  -->
<svg version="1.1" id="Layer_1" xmlns="http://www.w3.org/2000/svg" xmlns:xlink="http://www.w3.org/1999/xlink" x="0px" y="0px"
	 viewBox="0 0 16 16" style="enable-background:new 0 0 16 16;" xml:space="preserve">
<g>
	<path d="M4.8,1.5V2c1.3,0,2.3,1,2.3,2.3h0.5C7.7,2.8,6.4,1.5,4.8,1.5z"/>
	<path d="M8.6,4.4h0.5c0-1.2-0.4-2.2-1.3-3.1C7.1,0.5,6,0,4.8,0v0.5c1,0,2,0.4,2.7,1.1C8.2,2.4,8.6,3.3,8.6,4.4z"/>
	<path d="M11.6,9.6l-1.8,1.8L5.4,7.1l1.8-1.8L3.8,1.8l-2,2c-1.1,1.1-1.1,2.9,0,4l7.3,7.3c0.5,0.5,1.2,0.8,2,0.8c0.8,0,1.5-0.3,2-0.8
		l2-2L11.6,9.6z M12.7,14.8c-0.4,0.4-1,0.7-1.6,0.7c-0.6,0-1.2-0.2-1.6-0.7L2.1,7.5c-0.9-0.9-0.9-2.4,0-3.3l1.6-1.6l2.8,2.8L4.7,7.1
		l5,5l1.8-1.8l2.8,2.8L12.7,14.8z"/>
</g>
</svg>
