<?xml version="1.0" encoding="iso-8859-1"?>
<!-- Generator: Adobe Illustrator 15.1.0, SVG Export Plug-In . SVG Version: 6.00 Build 0)  -->
<!DOCTYPE svg PUBLIC "-//W3C//DTD SVG 1.1//EN" "http://www.w3.org/Graphics/SVG/1.1/DTD/svg11.dtd">
<svg version="1.1" id="Layer_1" xmlns="http://www.w3.org/2000/svg" xmlns:xlink="http://www.w3.org/1999/xlink" x="0px" y="0px"
	 width="16px" height="16px" viewBox="0 0 16 16" style="enable-background:new 0 0 16 16;" xml:space="preserve">
<g>
	<path style="fill:#FFFFFF;" d="M14.25,5.031h-2.765l-0.286-1.698c-0.04-0.24-0.248-0.417-0.492-0.417H5.291
		c-0.244,0-0.453,0.177-0.493,0.418L4.514,5.031H1.75c-0.276,0-0.5,0.224-0.5,0.5v7.053c0,0.275,0.224,0.5,0.5,0.5h12.5
		c0.276,0,0.5-0.225,0.5-0.5V5.531C14.75,5.255,14.526,5.031,14.25,5.031z M13.75,12.084H2.25V6.031h2.687
		c0.244,0,0.453-0.177,0.493-0.417l0.284-1.698h4.569l0.286,1.698c0.04,0.241,0.249,0.417,0.493,0.417h2.688V12.084z"/>
	<path style="fill:#FFFFFF;" d="M8.001,5.997c-1.426,0-2.585,1.15-2.585,2.563c0,1.414,1.159,2.564,2.585,2.564
		c1.424,0,2.583-1.15,2.583-2.564C10.584,7.147,9.425,5.997,8.001,5.997z M8.001,10.125c-0.874,0-1.585-0.701-1.585-1.564
		c0-0.862,0.711-1.563,1.585-1.563c0.873,0,1.583,0.701,1.583,1.563C9.584,9.424,8.874,10.125,8.001,10.125z"/>
</g>
</svg>
