<?xml version="1.0" encoding="iso-8859-1"?>
<!-- Generator: Adobe Illustrator 15.1.0, SVG Export Plug-In . SVG Version: 6.00 Build 0)  -->
<!DOCTYPE svg PUBLIC "-//W3C//DTD SVG 1.1//EN" "http://www.w3.org/Graphics/SVG/1.1/DTD/svg11.dtd">
<svg version="1.1" id="Layer_1" xmlns="http://www.w3.org/2000/svg" xmlns:xlink="http://www.w3.org/1999/xlink" x="0px" y="0px"
	 width="16px" height="16px" viewBox="0 0 16 16" style="enable-background:new 0 0 16 16;" xml:space="preserve">
<path style="fill:#FFFFFF;" d="M11.337,7.562L6.603,2.74C6.438,2.571,6.175,2.543,5.976,2.67L4.749,3.459
	C4.604,3.553,4.518,3.713,4.52,3.885L4.607,12.3c0.002,0.183,0.103,0.349,0.263,0.436l1.139,0.614c0.075,0.04,0.156,0.06,0.237,0.06
	c0.134,0,0.266-0.054,0.363-0.156l4.734-4.997C11.528,8.061,11.525,7.754,11.337,7.562z M6.146,12.287l-0.542-0.292L5.522,4.151
	l0.652-0.42l4.111,4.187L6.146,12.287z"/>
</svg>
