<?xml version="1.0" encoding="iso-8859-1"?>
<!-- Generator: Adobe Illustrator 15.1.0, SVG Export Plug-In . SVG Version: 6.00 Build 0)  -->
<!DOCTYPE svg PUBLIC "-//W3C//DTD SVG 1.1//EN" "http://www.w3.org/Graphics/SVG/1.1/DTD/svg11.dtd">
<svg version="1.1" id="Layer_1" xmlns="http://www.w3.org/2000/svg" xmlns:xlink="http://www.w3.org/1999/xlink" x="0px" y="0px"
	 width="16px" height="16px" viewBox="0 0 16 16" style="enable-background:new 0 0 16 16;" xml:space="preserve">
<path style="fill:#FFFFFF;" d="M15.141,11.93L9.553,2.002C9.465,1.845,9.299,1.748,9.117,1.748H6.883
	c-0.182,0-0.35,0.099-0.438,0.259L0.857,12.131c-0.101,0.182-0.078,0.408,0.058,0.566l1.183,1.381
	c0.095,0.111,0.234,0.174,0.38,0.174h10.979c0.152,0,0.297-0.07,0.392-0.189l1.249-1.578C15.224,12.326,15.24,12.105,15.141,11.93z
	 M13.215,13.252H2.708L1.9,12.311l5.278-9.563h1.647l5.28,9.379L13.215,13.252z"/>
</svg>
