<?xml version="1.0" encoding="iso-8859-1"?>
<!-- Generator: Adobe Illustrator 15.1.0, SVG Export Plug-In . SVG Version: 6.00 Build 0)  -->
<!DOCTYPE svg PUBLIC "-//W3C//DTD SVG 1.1//EN" "http://www.w3.org/Graphics/SVG/1.1/DTD/svg11.dtd">
<svg version="1.1" id="Layer_1" xmlns="http://www.w3.org/2000/svg" xmlns:xlink="http://www.w3.org/1999/xlink" x="0px" y="0px"
	 width="16px" height="16px" viewBox="0 0 16 16" style="enable-background:new 0 0 16 16;" xml:space="preserve">
<g>
	<path style="fill:#FFFFFF;" d="M14.834,2.417H1.167c-0.276,0-0.5,0.224-0.5,0.5v10.167c0,0.275,0.224,0.5,0.5,0.5h13.667
		c0.275,0,0.5-0.225,0.5-0.5V2.917C15.334,2.64,15.109,2.417,14.834,2.417z M14.334,12.584H1.667V3.417h12.667V12.584z"/>
	<path style="fill:#FFFFFF;" d="M3.19,10.18c0.232,0.273,0.518,0.49,0.854,0.652c0.338,0.16,0.72,0.24,1.149,0.24
		c0.353,0,0.678-0.061,0.976-0.176c0.297-0.119,0.554-0.283,0.771-0.494c0.217-0.213,0.391-0.463,0.521-0.756
		c0.131-0.291,0.213-0.611,0.245-0.959H6.953C6.92,8.939,6.859,9.17,6.768,9.381C6.676,9.594,6.557,9.777,6.411,9.936
		c-0.148,0.158-0.324,0.281-0.53,0.369c-0.206,0.09-0.442,0.133-0.711,0.133c-0.327,0-0.61-0.068-0.852-0.203
		c-0.241-0.139-0.441-0.316-0.603-0.539S3.436,9.219,3.359,8.936c-0.078-0.283-0.117-0.57-0.117-0.859
		c0-0.305,0.04-0.604,0.12-0.892c0.081-0.289,0.204-0.548,0.37-0.775s0.375-0.411,0.627-0.55C4.61,5.72,4.905,5.651,5.242,5.651
		c0.198,0,0.395,0.031,0.591,0.097c0.195,0.064,0.373,0.156,0.534,0.277c0.16,0.12,0.293,0.265,0.396,0.433
		C6.869,6.626,6.93,6.819,6.953,7.033h0.755C7.68,6.71,7.594,6.425,7.451,6.176c-0.146-0.249-0.329-0.459-0.554-0.63
		C6.671,5.375,6.417,5.244,6.133,5.153C5.85,5.062,5.557,5.016,5.257,5.016c-0.444,0-0.839,0.08-1.185,0.241
		c-0.346,0.16-0.636,0.38-0.871,0.658C2.965,6.195,2.787,6.518,2.664,6.887S2.479,7.654,2.479,8.077c0,0.407,0.06,0.791,0.181,1.154
		C2.78,9.59,2.957,9.908,3.19,10.18z"/>
	<path style="fill:#FFFFFF;" d="M9.004,10.18c0.234,0.273,0.52,0.49,0.855,0.652c0.338,0.16,0.721,0.24,1.148,0.24
		c0.354,0,0.678-0.061,0.977-0.176c0.297-0.119,0.555-0.283,0.771-0.494c0.217-0.213,0.391-0.463,0.521-0.756
		c0.131-0.291,0.213-0.611,0.246-0.959h-0.756c-0.031,0.252-0.094,0.483-0.186,0.694c-0.09,0.213-0.209,0.396-0.357,0.555
		c-0.146,0.158-0.322,0.281-0.529,0.369c-0.205,0.09-0.443,0.133-0.711,0.133c-0.326,0-0.611-0.068-0.852-0.203
		c-0.242-0.139-0.441-0.316-0.602-0.539C9.369,9.473,9.25,9.219,9.174,8.936c-0.078-0.283-0.117-0.57-0.117-0.859
		c0-0.305,0.039-0.604,0.119-0.892C9.258,6.896,9.381,6.637,9.547,6.41s0.375-0.411,0.627-0.55c0.25-0.14,0.545-0.209,0.883-0.209
		c0.197,0,0.395,0.031,0.592,0.097c0.193,0.064,0.371,0.156,0.533,0.277c0.16,0.12,0.293,0.265,0.396,0.433
		c0.105,0.169,0.168,0.361,0.189,0.575h0.756c-0.027-0.322-0.113-0.607-0.258-0.856s-0.33-0.459-0.555-0.63
		s-0.479-0.303-0.762-0.394c-0.285-0.091-0.576-0.137-0.877-0.137c-0.443,0-0.838,0.08-1.186,0.241
		c-0.344,0.16-0.635,0.38-0.871,0.658C8.781,6.195,8.602,6.518,8.479,6.887S8.293,7.654,8.293,8.077
		c0,0.407,0.061,0.791,0.181,1.154C8.594,9.59,8.772,9.908,9.004,10.18z"/>
</g>
</svg>
