<?xml version="1.0" encoding="utf-8"?>
<!-- Generator: Adobe Illustrator 19.1.1, SVG Export Plug-In . SVG Version: 6.00 Build 0)  -->
<svg version="1.1" id="Layer_1" xmlns="http://www.w3.org/2000/svg" xmlns:xlink="http://www.w3.org/1999/xlink" x="0px" y="0px"
	 viewBox="0 0 16 16" style="enable-background:new 0 0 16 16;" xml:space="preserve">
<path d="M16,4.3V3.7h-2.4V2.4h-1.3V0h-0.5v2.4H9.6V0H9.1v2.4H6.9V0H6.4v2.4H4.3V0H3.7v2.4H2.4v1.3H0v0.5h2.4v2.1H0v0.5h2.4v2.1H0
	v0.5h2.4v2.1H0v0.5h2.4v1.3h1.3V16h0.5v-2.4h2.1V16h0.5v-2.4h2.1V16h0.5v-2.4h2.1V16h0.5v-2.4h1.3v-1.3H16v-0.5h-2.4V9.6H16V9.1
	h-2.4V6.9H16V6.4h-2.4V4.3H16z M13.1,13.1H2.9V2.9h10.1V13.1z"/>
</svg>
