<?xml version="1.0" encoding="iso-8859-1"?>
<!-- Generator: Adobe Illustrator 15.1.0, SVG Export Plug-In . SVG Version: 6.00 Build 0)  -->
<!DOCTYPE svg PUBLIC "-//W3C//DTD SVG 1.1//EN" "http://www.w3.org/Graphics/SVG/1.1/DTD/svg11.dtd">
<svg version="1.1" id="Layer_1" xmlns="http://www.w3.org/2000/svg" xmlns:xlink="http://www.w3.org/1999/xlink" x="0px" y="0px"
	 width="16px" height="16px" viewBox="0 0 16 16" style="enable-background:new 0 0 16 16;" xml:space="preserve">
<g>
	<path style="fill:#FFFFFF;" d="M4.604,2.539h3.061L5.302,9.622c-0.087,0.262,0.055,0.545,0.316,0.633
		c0.053,0.018,0.105,0.025,0.158,0.025c0.209,0,0.404-0.133,0.475-0.342l2.468-7.399h3.423c0.276,0,0.5-0.224,0.5-0.5
		s-0.224-0.5-0.5-0.5H4.604c-0.276,0-0.5,0.224-0.5,0.5S4.327,2.539,4.604,2.539z"/>
	<path style="fill:#FFFFFF;" d="M9.223,11.681c0-0.276-0.224-0.5-0.5-0.5H1.974c-0.276,0-0.5,0.224-0.5,0.5s0.224,0.5,0.5,0.5h6.749
		C8.999,12.181,9.223,11.957,9.223,11.681z"/>
	<path style="fill:#FFFFFF;" d="M12.184,11.396l2.201-2.259c0.192-0.197,0.188-0.514-0.01-0.707
		c-0.196-0.191-0.513-0.188-0.707,0.01l-2.183,2.239L9.433,8.571C9.238,8.374,8.922,8.37,8.726,8.562
		c-0.198,0.192-0.202,0.51-0.01,0.707l2.072,2.128l-2.16,2.216c-0.192,0.197-0.188,0.514,0.01,0.707
		c0.097,0.095,0.223,0.142,0.349,0.142c0.13,0,0.26-0.051,0.358-0.151l2.141-2.197l2.096,2.152c0.099,0.101,0.229,0.151,0.358,0.151
		c0.126,0,0.252-0.047,0.349-0.142c0.198-0.192,0.202-0.51,0.01-0.707L12.184,11.396z"/>
</g>
</svg>
