<?xml version="1.0" encoding="utf-8"?>
<!-- Generator: Adobe Illustrator 19.0.0, SVG Export Plug-In . SVG Version: 6.00 Build 0)  -->
<svg version="1.1" id="Layer_1" xmlns="http://www.w3.org/2000/svg" xmlns:xlink="http://www.w3.org/1999/xlink" x="0px" y="0px"
	 viewBox="0 0 16 16" style="enable-background:new 0 0 16 16;" xml:space="preserve">
<g>
	<path d="M14.7,0H1.3C0.6,0,0,0.6,0,1.3v13.4C0,15.4,0.6,16,1.3,16h13.4c0.7,0,1.3-0.6,1.3-1.3V1.3C16,0.6,15.4,0,14.7,0z
		 M15.5,14.7c0,0.4-0.3,0.8-0.8,0.8H1.3c-0.4,0-0.8-0.3-0.8-0.8V1.3c0-0.4,0.3-0.8,0.8-0.8h13.4c0.4,0,0.8,0.3,0.8,0.8V14.7z"/>
	<rect id="XMLID_5_" x="7.5" y="13.4" width="1" height="1"/>
	<rect id="XMLID_4_" x="7.5" y="1.6" width="1" height="1"/>
	<rect id="XMLID_3_" x="13.4" y="7.5" width="1" height="1"/>
	<rect id="XMLID_2_" x="1.6" y="7.5" width="1" height="1"/>
	<polygon id="XMLID_1_" points="12.8,4.3 8.3,7.5 7.7,7.5 4.3,5 4,5.4 7.5,7.9 7.5,8.5 8.5,8.5 8.5,8 13.1,4.7 	"/>
</g>
</svg>
