<?xml version="1.0" encoding="iso-8859-1"?>
<!-- Generator: Adobe Illustrator 15.1.0, SVG Export Plug-In . SVG Version: 6.00 Build 0)  -->
<!DOCTYPE svg PUBLIC "-//W3C//DTD SVG 1.1//EN" "http://www.w3.org/Graphics/SVG/1.1/DTD/svg11.dtd">
<svg version="1.1" id="Layer_1" xmlns="http://www.w3.org/2000/svg" xmlns:xlink="http://www.w3.org/1999/xlink" x="0px" y="0px"
	 width="16px" height="16px" viewBox="0 0 16 16" style="enable-background:new 0 0 16 16;" xml:space="preserve">
<path style="fill:#FFFFFF;" d="M13.928,1.66H4.725c-0.276,0-0.5,0.224-0.5,0.5v1.955H2.072c-0.276,0-0.5,0.224-0.5,0.5v9.225
	c0,0.277,0.224,0.5,0.5,0.5h9.116c0.276,0,0.5-0.223,0.5-0.5v-2.041h2.239c0.276,0,0.5-0.225,0.5-0.5V2.16
	C14.428,1.883,14.204,1.66,13.928,1.66z M10.688,13.34H2.572V5.115h1.652v6.184c0,0.275,0.224,0.5,0.5,0.5h5.964V13.34z
	 M13.428,10.799H11.3c-0.037-0.01-0.071-0.023-0.111-0.023s-0.074,0.014-0.111,0.023H5.225V2.66h8.203V10.799z"/>
</svg>
