<?xml version="1.0" encoding="utf-8"?>
<!-- Generator: Adobe Illustrator 19.1.1, SVG Export Plug-In . SVG Version: 6.00 Build 0)  -->
<svg version="1.1" id="Layer_1" xmlns="http://www.w3.org/2000/svg" xmlns:xlink="http://www.w3.org/1999/xlink" x="0px" y="0px"
	 viewBox="0 0 16 16" style="enable-background:new 0 0 16 16;" xml:space="preserve">
<style type="text/css">
	.st0{fill:#030202;}
</style>
<path class="st0" d="M8.4,8l7.4-7.4c0.1-0.1,0.1-0.3,0-0.4s-0.3-0.1-0.4,0L8,7.6L0.6,0.2c-0.1-0.1-0.3-0.1-0.4,0s-0.1,0.3,0,0.4
	L7.6,8l-7.4,7.4c-0.1,0.1-0.1,0.3,0,0.4c0,0,0.1,0.1,0.2,0.1s0.1,0,0.2-0.1L8,8.4l7.4,7.4c0,0,0.1,0.1,0.2,0.1s0.1,0,0.2-0.1
	c0.1-0.1,0.1-0.3,0-0.4L8.4,8z"/>
</svg>
