<?xml version="1.0" encoding="iso-8859-1"?>
<!-- Generator: Adobe Illustrator 15.1.0, SVG Export Plug-In . SVG Version: 6.00 Build 0)  -->
<!DOCTYPE svg PUBLIC "-//W3C//DTD SVG 1.1//EN" "http://www.w3.org/Graphics/SVG/1.1/DTD/svg11.dtd">
<svg version="1.1" id="Layer_1" xmlns="http://www.w3.org/2000/svg" xmlns:xlink="http://www.w3.org/1999/xlink" x="0px" y="0px"
	 width="16px" height="16px" viewBox="0 0 16 16" style="enable-background:new 0 0 16 16;" xml:space="preserve">
<g>
	<path style="fill:#FFFFFF;" d="M13.076,7.917c0-0.02,0-0.039,0-0.06c0-2.65-2.156-4.807-4.837-4.807
		c-2.211,0-4.097,1.466-4.646,3.586C2.064,6.845,0.891,8.17,0.891,9.73v0.095c0,1.723,1.401,3.124,3.123,3.124h3.203v-1.008H4.014
		c-1.166,0-2.115-0.949-2.115-2.116V9.73c0-1.161,0.945-2.109,2.107-2.115l0.421-0.002L4.5,7.198c0.319-1.819,1.892-3.14,3.769-3.14
		c2.096,0,3.799,1.704,3.799,3.83c0,0.136-0.01,0.278-0.027,0.435l-0.066,0.562h0.66c0.809,0,1.465,0.657,1.465,1.465v0.127
		c0,0.808-0.656,1.465-1.465,1.465H9.291v1.008h3.344c1.365,0,2.475-1.109,2.475-2.473V10.35
		C15.109,9.152,14.234,8.127,13.076,7.917z"/>
	<path style="fill:#FFFFFF;" d="M10.143,8.516c0.098-0.095,0.15-0.221,0.152-0.355s-0.051-0.263-0.145-0.358L8.658,6.279
		L8.635,6.241L8.583,6.229c-0.192-0.162-0.502-0.153-0.68,0.023L6.382,7.743C6.184,7.938,6.18,8.257,6.376,8.457
		c0.192,0.191,0.524,0.191,0.711,0.005L7.75,7.814v4.171c0,0.278,0.226,0.504,0.504,0.504s0.504-0.226,0.504-0.504V7.82L9.43,8.505
		C9.611,8.696,9.943,8.706,10.143,8.516z"/>
</g>
</svg>
