<?xml version="1.0" encoding="iso-8859-1"?>
<!-- Generator: Adobe Illustrator 15.1.0, SVG Export Plug-In . SVG Version: 6.00 Build 0)  -->
<!DOCTYPE svg PUBLIC "-//W3C//DTD SVG 1.1//EN" "http://www.w3.org/Graphics/SVG/1.1/DTD/svg11.dtd">
<svg version="1.1" id="Layer_1" xmlns="http://www.w3.org/2000/svg" xmlns:xlink="http://www.w3.org/1999/xlink" x="0px" y="0px"
	 width="16px" height="16px" viewBox="0 0 16 16" style="enable-background:new 0 0 16 16;" xml:space="preserve">
<g>
	<path style="fill:#FFFFFF;" d="M10.143,10.586c-0.193-0.189-0.527-0.182-0.711,0.008l-0.674,0.688V7.116
		c0-0.278-0.226-0.505-0.504-0.505S7.75,6.838,7.75,7.116v4.171l-0.66-0.646c-0.189-0.189-0.521-0.189-0.715,0.005
		c-0.193,0.198-0.19,0.518,0.008,0.713l1.52,1.489c0.095,0.094,0.22,0.145,0.354,0.145c0.117,0,0.228-0.039,0.317-0.111l1.576-1.581
		c0.096-0.097,0.148-0.224,0.146-0.358S10.24,10.681,10.143,10.586z"/>
	<path style="fill:#FFFFFF;" d="M13.076,7.873c0-0.019,0-0.038,0-0.06c0-2.649-2.156-4.806-4.838-4.806
		c-2.21,0-4.095,1.465-4.646,3.585C2.064,6.802,0.891,8.126,0.891,9.687v0.097c0,1.723,1.401,3.123,3.123,3.123h2.203v-1.009H4.014
		c-1.166,0-2.115-0.948-2.115-2.114V9.687c0-1.161,0.945-2.109,2.107-2.114L4.427,7.57L4.5,7.154
		c0.318-1.818,1.89-3.139,3.769-3.139c2.096,0,3.799,1.704,3.799,3.83c0,0.136-0.01,0.278-0.027,0.434l-0.066,0.563h0.66
		c0.809,0,1.465,0.656,1.465,1.465v0.127c0,0.807-0.656,1.464-1.465,1.464h-2.346v1.009h2.346c1.365,0,2.475-1.109,2.475-2.473
		v-0.127C15.109,9.109,14.234,8.084,13.076,7.873z"/>
</g>
</svg>
