<?xml version="1.0" encoding="iso-8859-1"?>
<!-- Generator: Adobe Illustrator 15.1.0, SVG Export Plug-In . SVG Version: 6.00 Build 0)  -->
<!DOCTYPE svg PUBLIC "-//W3C//DTD SVG 1.1//EN" "http://www.w3.org/Graphics/SVG/1.1/DTD/svg11.dtd">
<svg version="1.1" id="Layer_1" xmlns="http://www.w3.org/2000/svg" xmlns:xlink="http://www.w3.org/1999/xlink" x="0px" y="0px"
	 width="16px" height="16px" viewBox="0 0 16 16" style="enable-background:new 0 0 16 16;" xml:space="preserve">
<path style="fill:#FFFFFF;" d="M14.762,9.479c0-0.677-0.241-1.304-0.635-1.848C14.068,4.788,11.203,2.49,7.685,2.49
	c-3.555,0-6.446,2.345-6.446,5.228c0,1.617,0.911,3.15,2.438,4.091c0.041,0.113-0.128,0.537-0.383,0.871
	c-0.104,0.137-0.131,0.318-0.07,0.48c0.061,0.16,0.199,0.279,0.368,0.314c0.123,0.023,0.241,0.035,0.353,0.035
	c0.678,0,1.147-0.414,1.445-0.676c0.05-0.045,0.111-0.1,0.158-0.137c0.619,0.139,1.546,0.246,2.137,0.246
	c0.333,0,0.665-0.027,0.991-0.068c0.504,0.16,1.047,0.258,1.618,0.258c0.409,0,1.021-0.072,1.375-0.156
	c0.015,0.012,0.029,0.025,0.046,0.041c0.209,0.184,0.56,0.492,1.077,0.492c0.085,0,0.174-0.008,0.267-0.027
	c0.169-0.035,0.309-0.154,0.369-0.314c0.06-0.162,0.032-0.344-0.072-0.48c-0.082-0.107-0.179-0.281-0.212-0.389
	C14.159,11.631,14.762,10.584,14.762,9.479z M5.667,11.699c-0.391-0.098-0.683,0.158-0.938,0.385
	c-0.028,0.025-0.057,0.049-0.084,0.072c0.037-0.172,0.049-0.35,0.018-0.52c-0.052-0.285-0.211-0.518-0.459-0.672
	c-1.23-0.764-1.965-1.978-1.965-3.248c0-2.331,2.443-4.228,5.446-4.228c2.472,0,4.561,1.285,5.225,3.039
	c-0.737-0.438-1.636-0.705-2.615-0.705c-2.464,0-4.469,1.64-4.469,3.655c0,0.932,0.442,1.775,1.149,2.422
	C6.512,11.857,6.013,11.783,5.667,11.699z M12.528,11.504c-0.203,0.127-0.339,0.326-0.382,0.561
	c-0.001,0.006-0.002,0.012-0.003,0.016c-0.141-0.09-0.354-0.154-0.545-0.107c-0.347,0.086-0.944,0.16-1.305,0.16
	c-1.913,0-3.469-1.191-3.469-2.654c0-1.464,1.556-2.655,3.469-2.655c1.912,0,3.468,1.19,3.468,2.655
	C13.762,10.279,13.313,11.018,12.528,11.504z"/>
</svg>
