<?xml version="1.0" encoding="utf-8"?>
<!-- Generator: Adobe Illustrator 19.1.1, SVG Export Plug-In . SVG Version: 6.00 Build 0)  -->
<svg version="1.1" id="Layer_1" xmlns="http://www.w3.org/2000/svg" xmlns:xlink="http://www.w3.org/1999/xlink" x="0px" y="0px"
	 viewBox="0 0 16 16" style="enable-background:new 0 0 16 16;" xml:space="preserve">
<style type="text/css">
	.st0{fill:#030202;}
</style>
<g>
	<path class="st0" d="M14.7,1.1H1.3C0.6,1.1,0,1.7,0,2.4v8.3c0,0.7,0.6,1.3,1.3,1.3h9.2l2.9,2.9v-2.9h1.3c0.7,0,1.3-0.6,1.3-1.3V2.4
		C16,1.7,15.4,1.1,14.7,1.1z M15.5,10.7c0,0.4-0.3,0.8-0.8,0.8h-1.8v2.2l-2.2-2.2H1.3c-0.4,0-0.8-0.3-0.8-0.8V2.4
		c0-0.4,0.3-0.8,0.8-0.8h13.4c0.4,0,0.8,0.3,0.8,0.8V10.7z"/>
	<rect x="4.1" y="6.3" class="st0" width="7.7" height="0.5"/>
	<rect x="4.1" y="3.7" class="st0" width="7.7" height="0.5"/>
	<rect x="4.1" y="8.8" class="st0" width="5.2" height="0.5"/>
</g>
</svg>
