<?xml version="1.0" encoding="utf-8"?>
<!-- Generator: Adobe Illustrator 19.1.1, SVG Export Plug-In . SVG Version: 6.00 Build 0)  -->
<svg version="1.1" id="Layer_1" xmlns="http://www.w3.org/2000/svg" xmlns:xlink="http://www.w3.org/1999/xlink" x="0px" y="0px"
	 viewBox="0 0 16 16" style="enable-background:new 0 0 16 16;" xml:space="preserve">
<g>
	<path d="M14.6,0H3.7C3,0,2.5,0.6,2.5,1.3v1.3H0.1v0.5h2.3v2.1H0.1v0.5h2.3v2.1H0.1v0.5h2.3v2.1H0.1v0.5h2.3v2.1H0.1v0.5h2.3v1.3
		C2.5,15.4,3,16,3.7,16h10.8c0.7,0,1.3-0.6,1.3-1.3V1.3C15.9,0.6,15.3,0,14.6,0z M15.4,14.7c0,0.4-0.3,0.8-0.8,0.8H3.7
		c-0.4,0-0.8-0.3-0.8-0.8v-1.3h2.3v-0.5H3v-2.1h2.3v-0.5H3V8.3h2.3V7.7H3V5.7h2.3V5.2H3V3.1h2.3V2.6H3V1.3c0-0.4,0.3-0.8,0.8-0.8
		h10.8c0.4,0,0.8,0.3,0.8,0.8V14.7z"/>
	<path d="M11.5,7.4c0.5-0.3,0.8-0.9,0.8-1.5c0-1-0.8-1.8-1.8-1.8c-1,0-1.8,0.8-1.8,1.8c0,0.6,0.3,1.2,0.8,1.5
		c-1.1,0.4-1.8,1.4-1.8,2.6v0.8h5.7v-0.8C13.3,8.9,12.5,7.8,11.5,7.4z M11.6,5.3c-0.6,0.2-1.2-0.1-1.5-0.6c0.1,0,0.2-0.1,0.4-0.1
		C10.9,4.6,11.3,4.9,11.6,5.3z M9.2,6c0.3-0.2,0.5-0.4,0.6-0.7c0.3,0.4,0.8,0.7,1.4,0.7c0.2,0,0.4,0,0.5-0.1c0,0,0,0.1,0,0.1
		c0,0.7-0.6,1.3-1.3,1.3C9.7,7.2,9.2,6.7,9.2,6z M12.8,10.3H8.1v-0.3c0-1.3,1-2.3,2.3-2.3c1.3,0,2.3,1,2.3,2.3V10.3z"/>
</g>
</svg>
