<?xml version="1.0" encoding="iso-8859-1"?>
<!-- Generator: Adobe Illustrator 15.1.0, SVG Export Plug-In . SVG Version: 6.00 Build 0)  -->
<!DOCTYPE svg PUBLIC "-//W3C//DTD SVG 1.1//EN" "http://www.w3.org/Graphics/SVG/1.1/DTD/svg11.dtd">
<svg version="1.1" id="Layer_1" xmlns="http://www.w3.org/2000/svg" xmlns:xlink="http://www.w3.org/1999/xlink" x="0px" y="0px"
	 width="16px" height="16px" viewBox="0 0 16 16" style="enable-background:new 0 0 16 16;" xml:space="preserve">
<g>
	<path style="fill:#FFFFFF;" d="M14.618,2.526H1.382c-0.276,0-0.5,0.224-0.5,0.5v9.949c0,0.275,0.224,0.5,0.5,0.5h13.236
		c0.276,0,0.5-0.225,0.5-0.5V3.026C15.118,2.75,14.895,2.526,14.618,2.526z M1.882,6.068h12.236V6.47H1.882V6.068z M14.118,3.526
		v1.542H1.882V3.526H14.118z M1.882,12.475V7.47h12.236v5.004H1.882z"/>
	<path style="fill:#FFFFFF;" d="M8.965,10.766h-3.55c-0.164,0-0.304,0.084-0.395,0.207c-0.091-0.123-0.23-0.207-0.395-0.207H2.872
		c-0.276,0-0.5,0.223-0.5,0.5c0,0.275,0.224,0.5,0.5,0.5h1.754c0.164,0,0.304-0.086,0.395-0.207c0.091,0.121,0.23,0.207,0.395,0.207
		h3.55c0.276,0,0.5-0.225,0.5-0.5C9.465,10.988,9.241,10.766,8.965,10.766z"/>
</g>
</svg>
