<?xml version="1.0" encoding="utf-8"?>
<!-- Generator: Adobe Illustrator 19.1.1, SVG Export Plug-In . SVG Version: 6.00 Build 0)  -->
<svg version="1.1" id="Layer_1" xmlns="http://www.w3.org/2000/svg" xmlns:xlink="http://www.w3.org/1999/xlink" x="0px" y="0px"
	 viewBox="0 0 16 16" style="enable-background:new 0 0 16 16;" xml:space="preserve">
<style type="text/css">
	.st0{fill:#070404;}
</style>
<path class="st0" d="M13.2,2.6H2.8L0,5.4l8,8l8-8L13.2,2.6z M6.1,5.1L8,3.2l1.9,1.9H6.1z M10.2,5.7L8,12.2L5.8,5.7H10.2z M8.6,3.1
	h3.9L10.5,5L8.6,3.1z M5.5,5L3.5,3.1h3.9L5.5,5z M4.8,5.1H1l1.9-1.9L4.8,5.1z M5.3,5.7l2.1,6.4L1,5.7H5.3z M10.7,5.7H15l-6.4,6.4
	L10.7,5.7z M11.2,5.1l1.9-1.9L15,5.1H11.2z"/>
</svg>
