<?xml version="1.0" encoding="utf-8"?>
<!-- Generator: Adobe Illustrator 19.1.1, SVG Export Plug-In . SVG Version: 6.00 Build 0)  -->
<svg version="1.1" id="Layer_1" xmlns="http://www.w3.org/2000/svg" xmlns:xlink="http://www.w3.org/1999/xlink" x="0px" y="0px"
	 viewBox="0 0 16 16" style="enable-background:new 0 0 16 16;" xml:space="preserve">
<path d="M14.5,0.1H3.8c-0.7,0-1.3,0.6-1.3,1.3v1.3H0.2v0.5h2.3v2H0.2v0.5h2.3v2H0.2v0.5h2.3v2H0.2v0.5h2.3v2H0.2v0.5h2.3v1.3
	c0,0.7,0.6,1.3,1.3,1.3h10.7c0.7,0,1.3-0.6,1.3-1.3V1.4C15.8,0.7,15.2,0.1,14.5,0.1z M15.2,14.6c0,0.4-0.3,0.8-0.8,0.8H3.8
	C3.4,15.4,3,15,3,14.6v-1.3h2.3v-0.5H3v-2h2.3v-0.5H3v-2h2.3V7.7H3v-2h2.3V5.2H3v-2h2.3V2.7H3V1.4C3,1,3.4,0.6,3.8,0.6h10.7
	c0.4,0,0.8,0.3,0.8,0.8V14.6z"/>
</svg>
