<?xml version="1.0" encoding="iso-8859-1"?>
<!-- Generator: Adobe Illustrator 15.1.0, SVG Export Plug-In . SVG Version: 6.00 Build 0)  -->
<!DOCTYPE svg PUBLIC "-//W3C//DTD SVG 1.1//EN" "http://www.w3.org/Graphics/SVG/1.1/DTD/svg11.dtd">
<svg version="1.1" id="Layer_1" xmlns="http://www.w3.org/2000/svg" xmlns:xlink="http://www.w3.org/1999/xlink" x="0px" y="0px"
	 width="16px" height="16px" viewBox="0 0 16 16" style="enable-background:new 0 0 16 16;" xml:space="preserve">
<path style="fill:#FFFFFF;" d="M12.586,3.004c-0.002,0-0.002,0-0.002-0.001s0,0,0,0C11.373,1.893,9.768,1.208,8,1.208
	C4.255,1.208,1.208,4.255,1.208,8S4.255,14.792,8,14.792c3.745,0,6.792-3.047,6.792-6.792C14.791,6.023,13.938,4.247,12.586,3.004z
	 M2.208,8c0-3.194,2.598-5.792,5.791-5.792c1.331,0,2.555,0.456,3.536,1.214l-7.721,8.57C2.822,10.952,2.208,9.548,2.208,8z
	 M8,13.792c-1.287,0-2.473-0.427-3.436-1.14L12.27,4.1c0.941,1.031,1.521,2.397,1.521,3.9C13.791,11.193,11.193,13.792,8,13.792z"/>
</svg>
