<?xml version="1.0" encoding="iso-8859-1"?>
<!-- Generator: Adobe Illustrator 15.1.0, SVG Export Plug-In . SVG Version: 6.00 Build 0)  -->
<!DOCTYPE svg PUBLIC "-//W3C//DTD SVG 1.1//EN" "http://www.w3.org/Graphics/SVG/1.1/DTD/svg11.dtd">
<svg version="1.1" id="Layer_1" xmlns="http://www.w3.org/2000/svg" xmlns:xlink="http://www.w3.org/1999/xlink" x="0px" y="0px"
	 width="16px" height="16px" viewBox="0 0 16 16" style="enable-background:new 0 0 16 16;" xml:space="preserve">
<g>
	<path style="fill:#FFFFFF;" d="M8,1.561C4.45,1.561,1.562,4.45,1.562,8c0,3.551,2.889,6.44,6.438,6.44s6.438-2.889,6.438-6.44
		C14.438,4.45,11.55,1.561,8,1.561z M8,13.439c-2.999,0-5.438-2.441-5.438-5.44C2.562,5,5.001,2.561,8,2.561S13.438,5,13.438,8
		C13.438,10.998,10.999,13.439,8,13.439z"/>
	<path style="fill:#FFFFFF;" d="M8,5.417C6.576,5.417,5.418,6.576,5.418,8c0,1.424,1.158,2.583,2.582,2.583S10.582,9.424,10.582,8
		C10.582,6.576,9.424,5.417,8,5.417z M8,9.582c-0.872,0-1.582-0.71-1.582-1.583S7.128,6.417,8,6.417S9.582,7.127,9.582,8
		S8.872,9.582,8,9.582z"/>
</g>
</svg>
