<?xml version="1.0" encoding="iso-8859-1"?>
<!-- Generator: Adobe Illustrator 15.1.0, SVG Export Plug-In . SVG Version: 6.00 Build 0)  -->
<!DOCTYPE svg PUBLIC "-//W3C//DTD SVG 1.1//EN" "http://www.w3.org/Graphics/SVG/1.1/DTD/svg11.dtd">
<svg version="1.1" id="Layer_1" xmlns="http://www.w3.org/2000/svg" xmlns:xlink="http://www.w3.org/1999/xlink" x="0px" y="0px"
	 width="16px" height="16px" viewBox="0 0 16 16" style="enable-background:new 0 0 16 16;" xml:space="preserve">
<g>
	<path style="fill:#FFFFFF;" d="M14.048,12.063H1.952c-0.276,0-0.5,0.224-0.5,0.5s0.224,0.5,0.5,0.5h12.096
		c0.276,0,0.5-0.224,0.5-0.5S14.324,12.063,14.048,12.063z"/>
	<path style="fill:#FFFFFF;" d="M1.952,10.477h11.833c0.006,0,0.014,0,0.02,0c0.276,0,0.5-0.224,0.5-0.5
		c0-0.172-0.086-0.323-0.219-0.414L8.329,3.114C8.235,3.008,8.101,2.948,7.96,2.947C7.841,2.906,7.684,3.004,7.588,3.108
		l-6.004,6.53c-0.134,0.146-0.169,0.358-0.09,0.54C1.574,10.359,1.754,10.477,1.952,10.477z M7.95,4.192l4.719,5.285H3.091
		L7.95,4.192z"/>
</g>
</svg>
