<?xml version="1.0" encoding="iso-8859-1"?>
<!-- Generator: Adobe Illustrator 15.1.0, SVG Export Plug-In . SVG Version: 6.00 Build 0)  -->
<!DOCTYPE svg PUBLIC "-//W3C//DTD SVG 1.1//EN" "http://www.w3.org/Graphics/SVG/1.1/DTD/svg11.dtd">
<svg version="1.1" id="Layer_1" xmlns="http://www.w3.org/2000/svg" xmlns:xlink="http://www.w3.org/1999/xlink" x="0px" y="0px"
	 width="16px" height="16px" viewBox="0 0 16 16" style="enable-background:new 0 0 16 16;" xml:space="preserve">
<g>
	<path style="fill:#FFFFFF;" d="M3.18,5.594C1.853,5.594,0.772,6.673,0.772,8c0,1.327,1.08,2.407,2.407,2.407S5.586,9.326,5.586,8
		C5.586,6.673,4.507,5.594,3.18,5.594z M3.18,9.406C2.403,9.406,1.772,8.775,1.772,8c0-0.774,0.631-1.405,1.407-1.405
		c0.775,0,1.406,0.631,1.406,1.405C4.586,8.775,3.955,9.406,3.18,9.406z"/>
	<path style="fill:#FFFFFF;" d="M8,5.594C6.673,5.594,5.594,6.673,5.594,8c0,1.327,1.079,2.407,2.406,2.407S10.406,9.326,10.406,8
		C10.406,6.673,9.327,5.594,8,5.594z M8,9.406C7.225,9.406,6.594,8.775,6.594,8c0-0.774,0.631-1.405,1.406-1.405
		S9.406,7.225,9.406,8C9.406,8.775,8.775,9.406,8,9.406z"/>
	<path style="fill:#FFFFFF;" d="M12.821,5.594c-1.327,0-2.407,1.079-2.407,2.405c0,1.327,1.08,2.407,2.407,2.407
		S15.228,9.326,15.228,8C15.228,6.673,14.148,5.594,12.821,5.594z M12.821,9.406c-0.776,0-1.407-0.631-1.407-1.407
		c0-0.774,0.631-1.405,1.407-1.405c0.775,0,1.406,0.631,1.406,1.405C14.228,8.775,13.597,9.406,12.821,9.406z"/>
</g>
</svg>
