<?xml version="1.0" encoding="iso-8859-1"?>
<!-- Generator: Adobe Illustrator 15.1.0, SVG Export Plug-In . SVG Version: 6.00 Build 0)  -->
<!DOCTYPE svg PUBLIC "-//W3C//DTD SVG 1.1//EN" "http://www.w3.org/Graphics/SVG/1.1/DTD/svg11.dtd">
<svg version="1.1" id="Layer_1" xmlns="http://www.w3.org/2000/svg" xmlns:xlink="http://www.w3.org/1999/xlink" x="0px" y="0px"
	 width="16px" height="16px" viewBox="0 0 16 16" style="enable-background:new 0 0 16 16;" xml:space="preserve">
<path style="fill:#FFFFFF;" d="M10.266,8c0-0.922-0.557-1.714-1.349-2.067c0.792-0.353,1.349-1.146,1.349-2.068
	c0-1.249-1.017-2.265-2.266-2.265S5.734,2.615,5.734,3.864c0,0.923,0.557,1.716,1.349,2.068C6.291,6.286,5.734,7.078,5.734,8
	s0.557,1.715,1.349,2.067c-0.792,0.354-1.349,1.146-1.349,2.068c0,1.25,1.017,2.266,2.266,2.266s2.266-1.016,2.266-2.266
	c0-0.922-0.557-1.715-1.349-2.068C9.709,9.715,10.266,8.921,10.266,8z M8,2.599c0.698,0,1.266,0.567,1.266,1.265
	C9.266,4.562,8.698,5.13,8,5.13S6.734,4.562,6.734,3.864C6.734,3.167,7.302,2.599,8,2.599z M8,13.4
	c-0.698,0-1.266-0.566-1.266-1.266c0-0.697,0.567-1.266,1.266-1.266s1.266,0.568,1.266,1.266C9.266,12.834,8.698,13.4,8,13.4z
	 M8,9.266C7.302,9.266,6.734,8.698,6.734,8c0-0.697,0.567-1.265,1.266-1.265S9.266,7.302,9.266,8C9.266,8.698,8.698,9.266,8,9.266z"
	/>
</svg>
