<?xml version="1.0" encoding="iso-8859-1"?>
<!-- Generator: Adobe Illustrator 15.1.0, SVG Export Plug-In . SVG Version: 6.00 Build 0)  -->
<!DOCTYPE svg PUBLIC "-//W3C//DTD SVG 1.1//EN" "http://www.w3.org/Graphics/SVG/1.1/DTD/svg11.dtd">
<svg version="1.1" id="Layer_1" xmlns="http://www.w3.org/2000/svg" xmlns:xlink="http://www.w3.org/1999/xlink" x="0px" y="0px"
	 width="16px" height="16px" viewBox="0 0 16 16" style="enable-background:new 0 0 16 16;" xml:space="preserve">
<g>
	<path style="fill:#FFFFFF;" d="M7.747,9.605c0.276,0,0.5-0.224,0.5-0.5v-3c0-0.276-0.224-0.5-0.5-0.5s-0.5,0.224-0.5,0.5v3
		C7.247,9.382,7.47,9.605,7.747,9.605z"/>
	<path style="fill:#FFFFFF;" d="M7.735,10.348c-0.371,0-0.636,0.287-0.636,0.647c0,0.372,0.276,0.66,0.66,0.66
		c0.396,0,0.647-0.288,0.647-0.66C8.418,10.635,8.155,10.348,7.735,10.348z"/>
	<path style="fill:#FFFFFF;" d="M14.939,12.162l-5.66-9.804C9.012,1.896,8.534,1.62,8,1.62c-0.535,0-1.014,0.276-1.279,0.739
		l-5.66,9.803c-0.268,0.463-0.268,1.016-0.001,1.479c0.268,0.463,0.746,0.739,1.281,0.739h11.32c0.535,0,1.014-0.276,1.281-0.739
		C15.207,13.178,15.207,12.625,14.939,12.162z M14.074,13.141c-0.041,0.072-0.164,0.239-0.414,0.239H2.34
		c-0.25,0-0.373-0.167-0.415-0.239c-0.041-0.072-0.124-0.262,0-0.479l5.661-9.804C7.709,2.643,7.917,2.62,8,2.62
		s0.29,0.023,0.415,0.239l5.66,9.803C14.199,12.879,14.115,13.068,14.074,13.141z"/>
</g>
</svg>
