<?xml version="1.0" encoding="utf-8"?>
<!-- Generator: Adobe Illustrator 19.0.0, SVG Export Plug-In . SVG Version: 6.00 Build 0)  -->
<svg version="1.1" id="Layer_1" xmlns="http://www.w3.org/2000/svg" xmlns:xlink="http://www.w3.org/1999/xlink" x="0px" y="0px"
	 viewBox="0 0 16 16" style="enable-background:new 0 0 16 16;" xml:space="preserve">
<style type="text/css">
	.st0{fill:none;stroke:#000000;stroke-width:0.5;stroke-miterlimit:10;}
</style>
<g>
	<rect id="XMLID_4_" x="7.5" y="12.1" class="st0" width="0.9" height="0.9"/>
	<path class="st0" d="M15.7,13.3L9,1.6C8.7,1.2,8.4,1,8,1S7.3,1.2,7,1.6L0.3,13.3C0,13.8,0,14.2,0.2,14.5C0.4,14.9,0.8,15,1.3,15
		h13.5c0.5,0,0.9-0.2,1.1-0.5C16,14.2,16,13.8,15.7,13.3z M15.4,14.3c-0.1,0.2-0.4,0.3-0.7,0.3H1.3c-0.3,0-0.6-0.1-0.7-0.3
		c-0.1-0.2-0.1-0.5,0.1-0.8L7.4,1.9C7.6,1.6,7.8,1.4,8,1.4c0.2,0,0.4,0.2,0.6,0.5l6.7,11.7C15.5,13.8,15.5,14.1,15.4,14.3z"/>
	<rect id="XMLID_1_" x="7.8" y="4.4" class="st0" width="0.5" height="5.8"/>
</g>
</svg>
