<?xml version="1.0" encoding="iso-8859-1"?>
<!-- Generator: Adobe Illustrator 15.1.0, SVG Export Plug-In . SVG Version: 6.00 Build 0)  -->
<!DOCTYPE svg PUBLIC "-//W3C//DTD SVG 1.1//EN" "http://www.w3.org/Graphics/SVG/1.1/DTD/svg11.dtd">
<svg version="1.1" id="Layer_1" xmlns="http://www.w3.org/2000/svg" xmlns:xlink="http://www.w3.org/1999/xlink" x="0px" y="0px"
	 width="16px" height="16px" viewBox="0 0 16 16" style="enable-background:new 0 0 16 16;" xml:space="preserve">
<g>
	<path style="fill:#FFFFFF;" d="M15.046,7.739C13.584,5.234,10.87,3.668,8,3.668c-2.871,0-5.584,1.566-7.046,4.071L0.798,8
		l0.156,0.261C2.416,10.766,5.129,12.332,8,12.332c2.923,0,5.584-1.566,7.046-4.071L15.202,8L15.046,7.739z M8,11.288
		c-2.401,0-4.697-1.253-6.002-3.288C3.303,5.965,5.547,4.712,8,4.712c2.401,0,4.697,1.253,6.002,3.288
		C12.697,10.035,10.453,11.288,8,11.288z"/>
	<path style="fill:#FFFFFF;" d="M8,5.442C6.591,5.442,5.443,6.59,5.443,8c0,1.41,1.147,2.557,2.557,2.557S10.557,9.41,10.557,8
		C10.557,6.59,9.409,5.442,8,5.442z M8,9.514C7.165,9.514,6.487,8.835,6.487,8c0-0.836,0.678-1.514,1.513-1.514S9.514,7.165,9.514,8
		C9.514,8.835,8.835,9.514,8,9.514z"/>
</g>
</svg>
