<?xml version="1.0" encoding="iso-8859-1"?>
<!-- Generator: Adobe Illustrator 15.1.0, SVG Export Plug-In . SVG Version: 6.00 Build 0)  -->
<!DOCTYPE svg PUBLIC "-//W3C//DTD SVG 1.1//EN" "http://www.w3.org/Graphics/SVG/1.1/DTD/svg11.dtd">
<svg version="1.1" id="Layer_1" xmlns="http://www.w3.org/2000/svg" xmlns:xlink="http://www.w3.org/1999/xlink" x="0px" y="0px"
	 width="16px" height="16px" viewBox="0 0 16 16" style="enable-background:new 0 0 16 16;" xml:space="preserve">
<g>
	<path style="fill:#FFFFFF;" d="M13.079,3.926c-0.003-0.022-0.007-0.042-0.013-0.064c-0.023-0.085-0.062-0.164-0.122-0.225
		c-0.001,0-0.001-0.001-0.001-0.001l-2.291-2.249c-0.063-0.063-0.145-0.102-0.232-0.125c-0.021-0.005-0.039-0.009-0.06-0.012
		c-0.022-0.003-0.041-0.013-0.063-0.013h-6.89c-0.276,0-0.5,0.224-0.5,0.5v12.525c0,0.276,0.224,0.5,0.5,0.5h9.186
		c0.276,0,0.5-0.224,0.5-0.5V3.992C13.093,3.969,13.082,3.948,13.079,3.926z M10.797,2.93l0.573,0.563h-0.573V2.93z M3.907,13.763
		V2.237h5.89v1.755c0,0.276,0.224,0.5,0.5,0.5h1.796v9.271H3.907z"/>
	<path style="fill:#FFFFFF;" d="M10.998,7.988H5.212c-0.276,0-0.5,0.224-0.5,0.5s0.224,0.5,0.5,0.5h5.786c0.276,0,0.5-0.224,0.5-0.5
		S11.274,7.988,10.998,7.988z"/>
	<path style="fill:#FFFFFF;" d="M10.998,6.235H5.212c-0.276,0-0.5,0.224-0.5,0.5s0.224,0.5,0.5,0.5h5.786c0.276,0,0.5-0.224,0.5-0.5
		S11.274,6.235,10.998,6.235z"/>
	<path style="fill:#FFFFFF;" d="M10.998,9.742H5.212c-0.276,0-0.5,0.224-0.5,0.5s0.224,0.5,0.5,0.5h5.786c0.276,0,0.5-0.224,0.5-0.5
		S11.274,9.742,10.998,9.742z"/>
	<path style="fill:#FFFFFF;" d="M10.998,11.495H5.212c-0.276,0-0.5,0.224-0.5,0.5s0.224,0.5,0.5,0.5h5.786
		c0.276,0,0.5-0.224,0.5-0.5S11.274,11.495,10.998,11.495z"/>
</g>
</svg>
