<?xml version="1.0" encoding="iso-8859-1"?>
<!-- Generator: Adobe Illustrator 15.1.0, SVG Export Plug-In . SVG Version: 6.00 Build 0)  -->
<!DOCTYPE svg PUBLIC "-//W3C//DTD SVG 1.1//EN" "http://www.w3.org/Graphics/SVG/1.1/DTD/svg11.dtd">
<svg version="1.1" id="Layer_1" xmlns="http://www.w3.org/2000/svg" xmlns:xlink="http://www.w3.org/1999/xlink" x="0px" y="0px"
	 width="16px" height="16px" viewBox="0 0 16 16" style="enable-background:new 0 0 16 16;" xml:space="preserve">
<g>
	<path style="fill:#FFFFFF;" d="M7.933,12.82c0.066,0.029,0.136,0.044,0.206,0.044c0.11,0,0.22-0.037,0.31-0.107
		c0.146-0.116,0.217-0.304,0.182-0.487c-0.121-0.629-0.196-1.813,0.113-2.31c0.07-0.094,0.423-0.312,0.681-0.47
		c0.867-0.536,2.18-1.346,2.488-2.685c0.183-0.791-0.015-1.648-0.585-2.548C9.683,1.663,8.156,1.383,7.576,1.383
		c-0.153,0-0.252,0.019-0.286,0.026C7.128,1.446,6.995,1.562,6.935,1.717S6.896,2.047,6.99,2.184C7,2.197,7.893,3.501,7.094,4.084
		C4.886,5.699,3.849,7.307,4.011,8.862C4.169,10.385,5.488,11.716,7.933,12.82z M7.695,4.883c0.846-0.617,0.84-1.55,0.589-2.317
		c0.544,0.253,1.323,0.848,2.199,2.228c0.427,0.675,0.576,1.26,0.454,1.788c-0.215,0.932-1.27,1.583-2.039,2.058
		c-0.48,0.297-0.827,0.511-1,0.787c-0.359,0.574-0.4,1.428-0.364,2.086c-1.576-0.843-2.427-1.767-2.529-2.753
		C4.921,7.95,5.317,6.623,7.695,4.883z"/>
	<path style="fill:#FFFFFF;" d="M13.487,13.617H2.513c-0.276,0-0.5,0.224-0.5,0.5s0.224,0.5,0.5,0.5h10.975
		c0.276,0,0.5-0.224,0.5-0.5S13.764,13.617,13.487,13.617z"/>
</g>
</svg>
