<?xml version="1.0" encoding="iso-8859-1"?>
<!-- Generator: Adobe Illustrator 15.1.0, SVG Export Plug-In . SVG Version: 6.00 Build 0)  -->
<!DOCTYPE svg PUBLIC "-//W3C//DTD SVG 1.1//EN" "http://www.w3.org/Graphics/SVG/1.1/DTD/svg11.dtd">
<svg version="1.1" id="Layer_1" xmlns="http://www.w3.org/2000/svg" xmlns:xlink="http://www.w3.org/1999/xlink" x="0px" y="0px"
	 width="16px" height="16px" viewBox="0 0 16 16" style="enable-background:new 0 0 16 16;" xml:space="preserve">
<g>
	<path style="fill:#FFFFFF;" d="M1.125,7.577c0.276,0,0.5-0.224,0.5-0.5V3.448h3.937c0.276,0,0.5-0.224,0.5-0.5s-0.224-0.5-0.5-0.5
		H1.125c-0.276,0-0.5,0.224-0.5,0.5v4.129C0.625,7.354,0.849,7.577,1.125,7.577z"/>
	<path style="fill:#FFFFFF;" d="M5.649,12.552H1.625v-3.63c0-0.276-0.224-0.5-0.5-0.5s-0.5,0.224-0.5,0.5v4.13
		c0,0.276,0.224,0.5,0.5,0.5h4.524c0.276,0,0.5-0.224,0.5-0.5S5.926,12.552,5.649,12.552z"/>
	<path style="fill:#FFFFFF;" d="M14.875,8.599c-0.276,0-0.5,0.224-0.5,0.5v3.453h-3.761c-0.276,0-0.5,0.224-0.5,0.5
		s0.224,0.5,0.5,0.5h4.261c0.276,0,0.5-0.224,0.5-0.5V9.099C15.375,8.822,15.151,8.599,14.875,8.599z"/>
	<path style="fill:#FFFFFF;" d="M14.875,2.448h-4.13c-0.276,0-0.5,0.224-0.5,0.5s0.224,0.5,0.5,0.5h3.63v3.761
		c0,0.276,0.224,0.5,0.5,0.5s0.5-0.224,0.5-0.5V2.948C15.375,2.672,15.151,2.448,14.875,2.448z"/>
</g>
</svg>
