<?xml version="1.0" encoding="iso-8859-1"?>
<!-- Generator: Adobe Illustrator 15.1.0, SVG Export Plug-In . SVG Version: 6.00 Build 0)  -->
<!DOCTYPE svg PUBLIC "-//W3C//DTD SVG 1.1//EN" "http://www.w3.org/Graphics/SVG/1.1/DTD/svg11.dtd">
<svg version="1.1" id="Layer_1" xmlns="http://www.w3.org/2000/svg" xmlns:xlink="http://www.w3.org/1999/xlink" x="0px" y="0px"
	 width="16px" height="16px" viewBox="0 0 16 16" style="enable-background:new 0 0 16 16;" xml:space="preserve">
<path style="fill:#FFFFFF;" d="M14.125,5.021h-3.307c0.37-0.445,0.589-0.958,0.589-1.449c0-0.4-0.138-0.747-0.4-1.003
	C10.373,1.95,9.132,2.129,8.29,2.951C8.182,3.057,8.088,3.171,8,3.287c-0.088-0.116-0.182-0.23-0.29-0.336
	C6.865,2.128,5.628,1.95,4.993,2.569C4.731,2.825,4.594,3.172,4.594,3.572c0,0.492,0.218,1.004,0.589,1.449H1.875
	c-0.276,0-0.5,0.224-0.5,0.5v2.845c0,0.276,0.224,0.5,0.5,0.5h0.559v4.435c0,0.275,0.224,0.5,0.5,0.5H5.88c0.001,0,0.002,0,0.003,0
	s0.002,0,0.003,0h4.229c0.001,0,0.002,0,0.003,0s0.002,0,0.003,0h2.947c0.276,0,0.5-0.225,0.5-0.5V8.866h0.558
	c0.276,0,0.5-0.224,0.5-0.5V5.521C14.625,5.245,14.401,5.021,14.125,5.021z M6.383,7.866V6.021h0.699
	c0.003,0,0.006,0.001,0.009,0.001c0.002,0,0.004-0.001,0.006-0.001h1.81c0.001,0,0.002,0,0.003,0s0.003,0,0.004,0h0.704v1.845H6.383
	z M9.617,8.866v3.935H6.383V8.866H9.617z M9.997,3.184c0.096,0,0.227,0.018,0.312,0.101c0.065,0.064,0.099,0.161,0.099,0.287
	c0,0.302-0.188,0.673-0.49,0.968C9.613,4.836,9.229,5.02,8.913,5.021H8.905c-0.095,0-0.223-0.018-0.307-0.1
	C8.533,4.857,8.5,4.76,8.5,4.633c0-0.302,0.188-0.672,0.489-0.967C9.294,3.369,9.68,3.184,9.997,3.184z M6.083,4.539
	C5.781,4.245,5.594,3.874,5.594,3.572c0-0.127,0.033-0.224,0.098-0.288c0.086-0.083,0.217-0.101,0.312-0.101
	c0.316,0,0.703,0.185,1.008,0.482C7.313,3.96,7.5,4.331,7.5,4.633c0,0.127-0.033,0.224-0.099,0.288
	c-0.083,0.081-0.208,0.099-0.303,0.1H7.084C6.768,5.019,6.386,4.835,6.083,4.539z M2.375,6.021h3.008v1.845H2.934H2.375V6.021z
	 M3.434,8.866h1.949v3.935H3.434V8.866z M12.567,12.801h-1.95V8.866h1.95V12.801z M13.625,7.866h-0.558h-2.45V6.021h3.008V7.866z"/>
</svg>
