<?xml version="1.0" encoding="iso-8859-1"?>
<!-- Generator: Adobe Illustrator 15.1.0, SVG Export Plug-In . SVG Version: 6.00 Build 0)  -->
<!DOCTYPE svg PUBLIC "-//W3C//DTD SVG 1.1//EN" "http://www.w3.org/Graphics/SVG/1.1/DTD/svg11.dtd">
<svg version="1.1" id="Layer_1" xmlns="http://www.w3.org/2000/svg" xmlns:xlink="http://www.w3.org/1999/xlink" x="0px" y="0px"
	 width="16px" height="16px" viewBox="0 0 16 16" style="enable-background:new 0 0 16 16;" xml:space="preserve">
<path style="fill:#FFFFFF;" d="M8,1.43C4.377,1.43,1.43,4.377,1.43,8c0,3.623,2.947,6.57,6.569,6.57c3.624,0,6.571-2.947,6.571-6.57
	C14.57,4.377,11.623,1.43,8,1.43z M9.219,2.569c0.52,1.171,0.473,1.653,0.33,1.845C9.41,4.598,8.923,4.872,7.214,4.619
	C6.835,4.564,6.417,4.803,6.121,5.228C5.754,5.75,5.705,6.375,5.987,6.899c0.389,0.719,1.229,1.195,2.248,1.272
	C8.862,8.221,9.242,8.35,9.91,8.643c0.137,0.059,0.172,0.106,0.178,0.115c0.021,0.039,0.023,0.138,0.01,0.298
	C10,10.188,9.666,11.313,9.131,12.314c-0.023-0.158,0.035-0.379,0.129-0.684c0.092-0.303,0.195-0.648,0.184-1.012
	C9.439,10.475,9.371,10.34,9.26,10.25c-0.111-0.092-0.258-0.133-0.399-0.107c-0.171,0.029-0.347,0.063-0.522,0.043
	c0.003-0.021,0.029-0.084,0.047-0.123C8.423,9.975,8.47,9.867,8.496,9.74c0.062-0.295-0.007-0.6-0.19-0.858
	C8.068,8.549,7.649,8.307,7.211,8.25C6.946,8.214,6.698,8.23,6.458,8.245C6.236,8.256,6.026,8.269,5.842,8.239
	C5.427,8.167,5.02,7.85,4.597,7.273C4.397,7,4.189,6.676,4.169,6.35C4.156,6.106,4.281,5.191,4.333,5.028
	c0.134-0.393,0.164-0.683,0.187-0.895C4.55,3.829,4.561,3.727,4.867,3.426c0.016-0.016,0.022-0.035,0.035-0.052
	C5.789,2.779,6.854,2.43,8,2.43C8.418,2.43,8.826,2.481,9.219,2.569z M2.43,8c0-1.107,0.328-2.138,0.888-3.006
	C3.237,5.422,3.155,6.121,3.171,6.41c0.035,0.589,0.35,1.087,0.619,1.455c0.583,0.796,1.198,1.241,1.88,1.358
	c0.298,0.053,0.588,0.035,0.847,0.02c0.19-0.01,0.38-0.023,0.564,0c0.16,0.02,0.332,0.113,0.435,0.297
	C7.511,9.564,7.489,9.617,7.468,9.664c-0.056,0.127-0.132,0.303-0.13,0.521c0.004,0.434,0.331,0.824,0.798,0.951
	c0.072,0.02,0.145,0.031,0.216,0.039c-0.017,0.055-0.033,0.109-0.05,0.166c-0.144,0.475-0.322,1.064,0.02,1.619
	c0.187,0.307,0.496,0.486,0.809,0.486c0.014,0,0.029-0.004,0.043-0.004C8.795,13.525,8.403,13.57,8,13.57
	C4.928,13.57,2.43,11.072,2.43,8z M9.443,13.373c0.309-0.131,0.473-0.408,0.543-0.539c0.615-1.133,0.998-2.41,1.107-3.688
	c0.025-0.27,0.029-0.584-0.135-0.879c-0.133-0.229-0.352-0.412-0.65-0.541C9.664,7.444,9.145,7.24,8.312,7.174
	c-0.524-0.04-1.179-0.258-1.444-0.75c-0.076-0.14-0.082-0.293-0.019-0.456c0.084-0.214,0.246-0.344,0.219-0.36
	c1.742,0.261,2.786,0.068,3.284-0.596c0.406-0.546,0.336-1.28,0.109-2.001C12.299,3.922,13.57,5.814,13.57,8
	C13.57,10.572,11.816,12.736,9.443,13.373z"/>
</svg>
