<?xml version="1.0" encoding="iso-8859-1"?>
<!-- Generator: Adobe Illustrator 15.1.0, SVG Export Plug-In . SVG Version: 6.00 Build 0)  -->
<!DOCTYPE svg PUBLIC "-//W3C//DTD SVG 1.1//EN" "http://www.w3.org/Graphics/SVG/1.1/DTD/svg11.dtd">
<svg version="1.1" id="Layer_1" xmlns="http://www.w3.org/2000/svg" xmlns:xlink="http://www.w3.org/1999/xlink" x="0px" y="0px"
	 width="16px" height="16px" viewBox="0 0 16 16" style="enable-background:new 0 0 16 16;" xml:space="preserve">
<g>
	<circle style="fill:#FFFFFF;" cx="12.3" cy="10.739" r="0.627"/>
	<path style="fill:#FFFFFF;" d="M15.201,8.088c-0.001-0.002,0-0.004-0.001-0.005L12.761,2.67c-0.081-0.18-0.26-0.295-0.456-0.295
		H3.829c-0.193,0-0.369,0.111-0.451,0.285L0.805,8.073c-0.001,0.003,0,0.006-0.002,0.009C0.774,8.146,0.756,8.214,0.756,8.288v4.837
		c0,0.277,0.224,0.5,0.5,0.5h13.488c0.276,0,0.5-0.223,0.5-0.5V8.288C15.244,8.217,15.229,8.149,15.201,8.088z M4.146,3.375h7.836
		l1.989,4.413H2.047L4.146,3.375z M1.756,12.625V8.788h12.488v3.837H1.756z"/>
</g>
</svg>
