<?xml version="1.0" encoding="iso-8859-1"?>
<!-- Generator: Adobe Illustrator 15.1.0, SVG Export Plug-In . SVG Version: 6.00 Build 0)  -->
<!DOCTYPE svg PUBLIC "-//W3C//DTD SVG 1.1//EN" "http://www.w3.org/Graphics/SVG/1.1/DTD/svg11.dtd">
<svg version="1.1" id="Layer_1" xmlns="http://www.w3.org/2000/svg" xmlns:xlink="http://www.w3.org/1999/xlink" x="0px" y="0px"
	 width="16px" height="16px" viewBox="0 0 16 16" style="enable-background:new 0 0 16 16;" xml:space="preserve">
<path style="fill:#FFFFFF;" d="M13.168,7.551h-0.66C12.191,5.174,10.291,3.325,8,3.325c-2.292,0-4.195,1.854-4.509,4.226H2.832
	c-0.879,0-1.594,0.756-1.594,1.686v1.754c0,0.929,0.715,1.685,1.594,1.685h1.093c0.276,0,0.5-0.224,0.5-0.5v-1.902
	c0-0.006,0-0.135,0-0.326c0-0.574,0-1.709,0.001-1.772C4.458,6.052,6.06,4.325,8,4.325c1.948,0,3.551,1.733,3.575,3.859v2.088v1.902
	c0,0.276,0.225,0.5,0.5,0.5h1.094c0.879,0,1.594-0.756,1.594-1.685V9.236C14.762,8.307,14.047,7.551,13.168,7.551z M3.424,11.675
	H2.832c-0.327,0-0.594-0.307-0.594-0.685V9.236c0-0.378,0.267-0.686,0.594-0.686h0.593v1.383c0,0.198,0,0.333,0,0.339V11.675z
	 M13.762,10.99c0,0.378-0.266,0.685-0.594,0.685h-0.594v-1.402V8.551h0.594c0.328,0,0.594,0.308,0.594,0.686V10.99z"/>
</svg>
