<?xml version="1.0" encoding="iso-8859-1"?>
<!-- Generator: Adobe Illustrator 15.1.0, SVG Export Plug-In . SVG Version: 6.00 Build 0)  -->
<!DOCTYPE svg PUBLIC "-//W3C//DTD SVG 1.1//EN" "http://www.w3.org/Graphics/SVG/1.1/DTD/svg11.dtd">
<svg version="1.1" id="Layer_1" xmlns="http://www.w3.org/2000/svg" xmlns:xlink="http://www.w3.org/1999/xlink" x="0px" y="0px"
	 width="16px" height="16px" viewBox="0 0 16 16" style="enable-background:new 0 0 16 16;" xml:space="preserve">
<path style="fill:#FFFFFF;" d="M14.21,2.893c-0.74-0.741-1.724-1.148-2.771-1.148s-2.03,0.408-2.771,1.148
	C8.401,3.159,8.178,3.457,8.001,3.781c-0.179-0.324-0.402-0.622-0.67-0.889C6.592,2.152,5.608,1.744,4.561,1.744
	c-1.047,0-2.03,0.408-2.771,1.148c-0.74,0.74-1.148,1.724-1.148,2.771c0,1.047,0.409,2.032,1.156,2.779l6.03,5.744
	c0.049,0.046,0.11,0.069,0.173,0.069s0.124-0.023,0.173-0.069l6.036-5.752c0.74-0.74,1.148-1.724,1.148-2.771
	C15.358,4.617,14.95,3.633,14.21,2.893z M8.001,13.027L2.468,7.756c-0.56-0.559-0.867-1.302-0.867-2.093
	c0-0.79,0.308-1.533,0.867-2.093c0.56-0.559,1.303-0.867,2.093-0.867c0.791,0,1.534,0.308,2.095,0.867
	c0.558,0.559,0.865,1.301,0.865,2.092c0,0.138,0.112,0.25,0.25,0.25h0.459c0.138,0,0.25-0.112,0.25-0.25
	C8.48,4.871,8.788,4.128,9.347,3.57c0.56-0.559,1.303-0.867,2.093-0.867c0.791,0,1.534,0.308,2.094,0.867
	c0.559,0.559,0.866,1.302,0.866,2.093c0,0.792-0.307,1.534-0.858,2.086L8.001,13.027z"/>
</svg>
