<?xml version="1.0" encoding="iso-8859-1"?>
<!-- Generator: Adobe Illustrator 15.1.0, SVG Export Plug-In . SVG Version: 6.00 Build 0)  -->
<!DOCTYPE svg PUBLIC "-//W3C//DTD SVG 1.1//EN" "http://www.w3.org/Graphics/SVG/1.1/DTD/svg11.dtd">
<svg version="1.1" id="Layer_1" xmlns="http://www.w3.org/2000/svg" xmlns:xlink="http://www.w3.org/1999/xlink" x="0px" y="0px"
	 width="16px" height="16px" viewBox="0 0 16 16" style="enable-background:new 0 0 16 16;" xml:space="preserve">
<g>
	<path style="fill:#FFFFFF;" d="M8,1.25C4.278,1.25,1.25,4.278,1.25,8c0,3.723,3.028,6.75,6.75,6.75s6.75-3.027,6.75-6.75
		C14.75,4.278,11.722,1.25,8,1.25z M8,13.75c-3.171,0-5.75-2.58-5.75-5.75c0-3.17,2.579-5.75,5.75-5.75S13.75,4.83,13.75,8
		C13.75,11.17,11.171,13.75,8,13.75z"/>
	<path style="fill:#FFFFFF;" d="M7.948,10.297c-0.286,0-0.511,0.225-0.511,0.512s0.225,0.512,0.511,0.512
		c0.287,0,0.513-0.225,0.513-0.512S8.235,10.297,7.948,10.297z"/>
	<path style="fill:#FFFFFF;" d="M8.112,4.394c-1.227,0-2.066,0.737-2.066,1.863v0.225h0.758V6.236c0-0.645,0.45-1.136,1.298-1.136
		c0.768,0,1.208,0.399,1.208,1.003c0,0.563-0.389,0.9-0.726,1.228C8.041,7.873,7.51,8.354,7.611,9.162l0.04,0.336h0.595l0.029-0.336
		c0.072-0.687,0.43-0.953,0.85-1.361c0.512-0.491,0.982-0.982,0.982-1.708C10.107,5.049,9.3,4.394,8.112,4.394z"/>
</g>
</svg>
