<?xml version="1.0" encoding="iso-8859-1"?>
<!-- Generator: Adobe Illustrator 15.1.0, SVG Export Plug-In . SVG Version: 6.00 Build 0)  -->
<!DOCTYPE svg PUBLIC "-//W3C//DTD SVG 1.1//EN" "http://www.w3.org/Graphics/SVG/1.1/DTD/svg11.dtd">
<svg version="1.1" id="Layer_1" xmlns="http://www.w3.org/2000/svg" xmlns:xlink="http://www.w3.org/1999/xlink" x="0px" y="0px"
	 width="16px" height="16px" viewBox="0 0 16 16" style="enable-background:new 0 0 16 16;" xml:space="preserve">
<path style="fill:#FFFFFF;" d="M15.146,7.601l-3.024-5.654c-0.087-0.163-0.256-0.265-0.44-0.265H4.778
	c-0.176,0-0.338,0.092-0.429,0.242L0.866,7.709C0.772,7.865,0.77,8.062,0.863,8.219l3.418,5.852c0.09,0.153,0.254,0.248,0.432,0.248
	h6.707c0.183,0,0.351-0.1,0.438-0.259l3.287-5.982C15.226,7.929,15.227,7.749,15.146,7.601z M11.123,13.318H5L1.875,7.971
	L5.06,2.682h6.322l2.756,5.151L11.123,13.318z"/>
</svg>
