<?xml version="1.0" encoding="iso-8859-1"?>
<!-- Generator: Adobe Illustrator 15.1.0, SVG Export Plug-In . SVG Version: 6.00 Build 0)  -->
<!DOCTYPE svg PUBLIC "-//W3C//DTD SVG 1.1//EN" "http://www.w3.org/Graphics/SVG/1.1/DTD/svg11.dtd">
<svg version="1.1" id="Layer_1" xmlns="http://www.w3.org/2000/svg" xmlns:xlink="http://www.w3.org/1999/xlink" x="0px" y="0px"
	 width="16px" height="16px" viewBox="0 0 16 16" style="enable-background:new 0 0 16 16;" xml:space="preserve">
<path style="fill:#FFFFFF;" d="M14.717,7.085l-1.27-1.05V3.687c0-0.276-0.224-0.5-0.5-0.5s-0.5,0.224-0.5,0.5v1.521L8.318,1.794
	c-0.184-0.152-0.453-0.152-0.637,0L1.283,7.085C1.07,7.262,1.04,7.577,1.216,7.79C1.394,8.003,1.709,8.033,1.92,7.857l0.701-0.58
	v6.543c0,0.275,0.224,0.5,0.5,0.5h3.445c0.276,0,0.5-0.225,0.5-0.5v-3.488h1.867v3.488c0,0.275,0.224,0.5,0.5,0.5h3.445
	c0.276,0,0.5-0.225,0.5-0.5V7.277l0.701,0.58c0.093,0.077,0.206,0.114,0.318,0.114c0.144,0,0.286-0.062,0.386-0.182
	C14.96,7.577,14.93,7.262,14.717,7.085z M9.934,13.32V9.832c0-0.277-0.224-0.5-0.5-0.5H6.566c-0.276,0-0.5,0.223-0.5,0.5v3.488
	H3.621V6.45L8,2.829l4.379,3.621v6.871H9.934z"/>
</svg>
