<?xml version="1.0" encoding="iso-8859-1"?>
<!-- Generator: Adobe Illustrator 15.1.0, SVG Export Plug-In . SVG Version: 6.00 Build 0)  -->
<!DOCTYPE svg PUBLIC "-//W3C//DTD SVG 1.1//EN" "http://www.w3.org/Graphics/SVG/1.1/DTD/svg11.dtd">
<svg version="1.1" id="Layer_1" xmlns="http://www.w3.org/2000/svg" xmlns:xlink="http://www.w3.org/1999/xlink" x="0px" y="0px"
	 width="16px" height="16px" viewBox="0 0 16 16" style="enable-background:new 0 0 16 16;" xml:space="preserve">
<g>
	<path style="fill:#FFFFFF;" d="M1.996,3.285h12.008c0.276,0,0.5-0.224,0.5-0.5s-0.224-0.5-0.5-0.5H1.996
		c-0.276,0-0.5,0.224-0.5,0.5S1.72,3.285,1.996,3.285z"/>
	<path style="fill:#FFFFFF;" d="M14.004,4.915h-6.53c-0.276,0-0.5,0.224-0.5,0.5s0.224,0.5,0.5,0.5h6.53c0.276,0,0.5-0.224,0.5-0.5
		S14.28,4.915,14.004,4.915z"/>
	<path style="fill:#FFFFFF;" d="M14.004,7.457h-6.53c-0.276,0-0.5,0.224-0.5,0.5s0.224,0.5,0.5,0.5h6.53c0.276,0,0.5-0.224,0.5-0.5
		S14.28,7.457,14.004,7.457z"/>
	<path style="fill:#FFFFFF;" d="M14.004,10.174h-6.53c-0.276,0-0.5,0.223-0.5,0.5c0,0.275,0.224,0.5,0.5,0.5h6.53
		c0.276,0,0.5-0.225,0.5-0.5C14.504,10.396,14.28,10.174,14.004,10.174z"/>
	<path style="fill:#FFFFFF;" d="M14.004,12.715H1.996c-0.276,0-0.5,0.225-0.5,0.5c0,0.277,0.224,0.5,0.5,0.5h12.008
		c0.276,0,0.5-0.223,0.5-0.5C14.504,12.939,14.28,12.715,14.004,12.715z"/>
	<path style="fill:#FFFFFF;" d="M1.671,5.283v5.436c0,0.201,0.122,0.385,0.309,0.461c0.062,0.025,0.127,0.039,0.191,0.039
		c0.13,0,0.258-0.051,0.354-0.146l2.849-2.85c0.195-0.195,0.195-0.512,0-0.707C2.637,4.779,2.415,4.779,2.18,4.779
		C1.904,4.779,1.671,5.006,1.671,5.283z M4.312,7.87L2.669,9.514L2.663,6.291C3.012,6.606,3.534,7.099,4.312,7.87z"/>
</g>
</svg>
