<?xml version="1.0" encoding="utf-8"?>
<!-- Generator: Adobe Illustrator 19.1.1, SVG Export Plug-In . SVG Version: 6.00 Build 0)  -->
<svg version="1.1" id="Layer_1" xmlns="http://www.w3.org/2000/svg" xmlns:xlink="http://www.w3.org/1999/xlink" x="0px" y="0px"
	 viewBox="0 0 16 16" style="enable-background:new 0 0 16 16;" xml:space="preserve">
<path d="M8,0C3.6,0,0,3.6,0,8s3.6,8,8,8c4.4,0,8-3.6,8-8S12.4,0,8,0z M15.5,7.7h-3.3c0-1.4-0.3-2.7-0.9-3.9c0.7-0.3,1.3-0.7,1.9-1.2
	C14.5,3.9,15.4,5.7,15.5,7.7z M8.3,0.8c0.9,0.7,1.7,1.7,2.3,2.8C9.8,3.8,9,4,8.3,4V0.8z M8.8,0.6c1.5,0.2,2.9,0.8,4,1.7
	c-0.5,0.4-1.1,0.8-1.8,1.1C10.5,2.3,9.7,1.3,8.8,0.6z M7.7,0.8V4C7,4,6.2,3.8,5.5,3.5C6,2.5,6.8,1.5,7.7,0.8z M5,3.3
	C4.4,3.1,3.8,2.7,3.2,2.2c1.1-0.9,2.5-1.5,4-1.7C6.3,1.3,5.5,2.3,5,3.3z M7.7,4.5v3.2H4.4c0-1.3,0.3-2.6,0.8-3.7
	C6,4.3,6.9,4.5,7.7,4.5z M7.7,8.3v3.4c-0.8,0-1.7,0.2-2.4,0.5C4.7,11,4.4,9.7,4.4,8.3H7.7z M7.7,12.2v3c-0.9-0.7-1.6-1.6-2.2-2.6
	C6.3,12.4,7,12.2,7.7,12.2z M7.2,15.4c-1.4-0.2-2.8-0.7-3.8-1.6c0.5-0.4,1.1-0.8,1.7-1C5.6,13.8,6.3,14.7,7.2,15.4z M8.3,15.2v-3
	c0.7,0,1.5,0.2,2.2,0.4C9.9,13.6,9.2,14.5,8.3,15.2z M10.9,12.8c0.6,0.3,1.2,0.6,1.7,1c-1.1,0.9-2.4,1.4-3.8,1.6
	C9.7,14.7,10.4,13.8,10.9,12.8z M8.3,11.7V8.3h3.3c0,1.4-0.4,2.7-0.9,3.9C9.9,11.9,9.1,11.7,8.3,11.7z M8.3,7.7V4.5
	c0.9,0,1.7-0.2,2.5-0.5c0.5,1.1,0.8,2.4,0.8,3.7H8.3z M2.8,2.6c0.6,0.5,1.2,0.9,1.9,1.2C4.2,5,3.9,6.3,3.9,7.7H0.5
	C0.6,5.7,1.5,3.9,2.8,2.6z M0.5,8.3h3.3c0,1.5,0.4,2.9,1,4.1c-0.7,0.3-1.3,0.7-1.9,1.1C1.5,12.2,0.6,10.3,0.5,8.3z M13.1,13.5
	c-0.6-0.5-1.2-0.9-1.9-1.1c0.6-1.2,0.9-2.6,1-4.1h3.3C15.4,10.3,14.5,12.2,13.1,13.5z"/>
</svg>
