<?xml version="1.0" encoding="iso-8859-1"?>
<!-- Generator: Adobe Illustrator 15.1.0, SVG Export Plug-In . SVG Version: 6.00 Build 0)  -->
<!DOCTYPE svg PUBLIC "-//W3C//DTD SVG 1.1//EN" "http://www.w3.org/Graphics/SVG/1.1/DTD/svg11.dtd">
<svg version="1.1" id="Layer_1" xmlns="http://www.w3.org/2000/svg" xmlns:xlink="http://www.w3.org/1999/xlink" x="0px" y="0px"
	 width="16px" height="16px" viewBox="0 0 16 16" style="enable-background:new 0 0 16 16;" xml:space="preserve">
<path style="fill:#FFFFFF;" d="M14.646,2.491H1.354c-0.276,0-0.5,0.224-0.5,0.5V13.01c0,0.275,0.224,0.5,0.5,0.5h13.293
	c0.276,0,0.5-0.225,0.5-0.5V2.991C15.146,2.714,14.923,2.491,14.646,2.491z M1.854,4.816h5.749v3.197H1.854V4.816z M8.603,4.816
	h5.544v3.197H8.603V4.816z M14.146,3.491v0.325H1.854V3.491H14.146z M1.854,9.014h5.749v3.496H1.854V9.014z M8.603,12.51V9.014
	h5.544v3.496H8.603z"/>
</svg>
