<?xml version="1.0" encoding="iso-8859-1"?>
<!-- Generator: Adobe Illustrator 15.1.0, SVG Export Plug-In . SVG Version: 6.00 Build 0)  -->
<!DOCTYPE svg PUBLIC "-//W3C//DTD SVG 1.1//EN" "http://www.w3.org/Graphics/SVG/1.1/DTD/svg11.dtd">
<svg version="1.1" id="Layer_1" xmlns="http://www.w3.org/2000/svg" xmlns:xlink="http://www.w3.org/1999/xlink" x="0px" y="0px"
	 width="16px" height="16px" viewBox="0 0 16 16" style="enable-background:new 0 0 16 16;" xml:space="preserve">
<g>
	<path style="fill:#FFFFFF;" d="M7.978,1.452c-2.481,0-4.214,1.743-4.214,4.237c0,1.32,0.671,1.999,1.263,2.598
		c0.543,0.549,0.972,0.982,0.972,1.887v0.5h3.96v-0.5c0-0.908,0.441-1.351,1-1.911c0.6-0.6,1.278-1.28,1.278-2.573
		C12.236,3.234,10.445,1.452,7.978,1.452z M10.251,7.557C9.727,8.082,9.142,8.668,8.993,9.674h-2.03
		c-0.145-0.997-0.714-1.573-1.226-2.09C5.193,7.033,4.764,6.599,4.764,5.689c0-1.937,1.292-3.237,3.214-3.237
		c1.919,0,3.259,1.331,3.259,3.237C11.236,6.569,10.802,7.005,10.251,7.557z"/>
	<path style="fill:#FFFFFF;" d="M6.021,12.574c0,1.088,0.898,1.974,2.002,1.974c1.088,0,1.973-0.886,1.973-1.974v-1.153H5.994
		L6.021,12.574z M8.995,12.421v0.153c0,0.547-0.427,0.974-0.973,0.974c-0.553,0-1.002-0.437-1.002-0.984l-0.003-0.143H8.995z"/>
</g>
</svg>
