<?xml version="1.0" encoding="iso-8859-1"?>
<!-- Generator: Adobe Illustrator 15.1.0, SVG Export Plug-In . SVG Version: 6.00 Build 0)  -->
<!DOCTYPE svg PUBLIC "-//W3C//DTD SVG 1.1//EN" "http://www.w3.org/Graphics/SVG/1.1/DTD/svg11.dtd">
<svg version="1.1" id="Layer_1" xmlns="http://www.w3.org/2000/svg" xmlns:xlink="http://www.w3.org/1999/xlink" x="0px" y="0px"
	 width="16px" height="16px" viewBox="0 0 16 16" style="enable-background:new 0 0 16 16;" xml:space="preserve">
<path style="fill:#FFFFFF;" d="M14.315,4.16c-0.71,0-1.288,0.578-1.288,1.288c0,0.151,0.038,0.291,0.086,0.426L9.606,9.138
	C9.414,9.024,9.203,8.941,8.965,8.941c-0.113,0-0.22,0.025-0.326,0.054L7.557,7.631C7.633,7.466,7.68,7.288,7.68,7.1
	c0-0.71-0.578-1.288-1.288-1.288S5.104,6.39,5.104,7.1c0,0.048,0.011,0.095,0.016,0.142L2.307,9.447
	C2.119,9.341,1.915,9.264,1.685,9.264c-0.71,0-1.288,0.578-1.288,1.288s0.578,1.288,1.288,1.288s1.288-0.578,1.288-1.288
	c0-0.108-0.037-0.206-0.063-0.308l2.707-2.122C5.84,8.29,6.111,8.388,6.392,8.388c0.147,0,0.288-0.036,0.423-0.084l1.031,1.3
	c-0.105,0.19-0.169,0.404-0.169,0.626c0,0.71,0.578,1.288,1.288,1.288s1.288-0.578,1.288-1.288c0-0.098-0.035-0.184-0.056-0.275
	l3.589-3.339c0.162,0.074,0.339,0.121,0.529,0.121c0.71,0,1.288-0.578,1.288-1.288S15.025,4.16,14.315,4.16z M1.685,10.84
	c-0.159,0-0.288-0.129-0.288-0.288s0.129-0.288,0.288-0.288s0.288,0.129,0.288,0.288S1.844,10.84,1.685,10.84z M6.214,7.325
	C6.213,7.324,6.212,7.324,6.211,7.323C6.143,7.268,6.104,7.187,6.104,7.1c0-0.159,0.129-0.288,0.288-0.288S6.68,6.94,6.68,7.1
	c0,0.077-0.029,0.149-0.084,0.203c0,0,0,0.001-0.001,0.001C6.521,7.375,6.288,7.387,6.214,7.325z M8.965,10.518
	c-0.159,0-0.288-0.129-0.288-0.288c0-0.089,0.042-0.174,0.113-0.229C8.79,10,8.791,10,8.791,10c0.035-0.026,0.093-0.059,0.174-0.059
	c0.159,0,0.288,0.129,0.288,0.288S9.124,10.518,8.965,10.518z M14.315,5.736c-0.159,0-0.288-0.129-0.288-0.288
	s0.129-0.288,0.288-0.288s0.288,0.129,0.288,0.288S14.475,5.736,14.315,5.736z"/>
</svg>
