<?xml version="1.0" encoding="iso-8859-1"?>
<!-- Generator: Adobe Illustrator 15.1.0, SVG Export Plug-In . SVG Version: 6.00 Build 0)  -->
<!DOCTYPE svg PUBLIC "-//W3C//DTD SVG 1.1//EN" "http://www.w3.org/Graphics/SVG/1.1/DTD/svg11.dtd">
<svg version="1.1" id="Layer_1" xmlns="http://www.w3.org/2000/svg" xmlns:xlink="http://www.w3.org/1999/xlink" x="0px" y="0px"
	 width="16px" height="16px" viewBox="0 0 16 16" style="enable-background:new 0 0 16 16;" xml:space="preserve">
<path style="fill:#FFFFFF;" d="M13.263,2.738c-0.946-0.946-2.491-0.955-3.449-0.007C9.771,2.774,8.847,3.699,8.481,4.066L8.48,4.065
	L7.796,4.749c-0.638,0.65-0.853,1.619-0.564,2.482C6.366,6.944,5.396,7.16,4.795,7.758C4.767,7.779,4.761,7.784,4.272,8.273
	c0,0-0.001,0-0.002,0.001L2.719,9.826c-0.933,0.953-0.925,2.495,0.02,3.438c0.475,0.475,1.1,0.713,1.727,0.712
	c0.62,0,1.241-0.233,1.717-0.701c0.003-0.003,0.964-0.964,1.337-1.34l0.002,0.002l0.684-0.685c0.637-0.648,0.853-1.617,0.565-2.479
	C9.03,8.859,9.296,8.905,9.559,8.905c0.622,0,1.219-0.235,1.647-0.662c0.032-0.024,0.032-0.024,0.729-0.722
	c0.001-0.001,0.001-0.002,0.002-0.003l1.344-1.344C14.214,5.223,14.205,3.681,13.263,2.738z M7.578,7.567
	C7.616,7.579,7.65,7.602,7.691,7.603L7.607,7.687C7.605,7.646,7.591,7.606,7.578,7.567z M7.493,10.549l-0.655,0.656
	c-0.202,0.201-0.591,0.59-1.36,1.359c-0.563,0.554-1.475,0.55-2.032-0.008s-0.563-1.468-0.016-2.027L4.78,9.18l0,0
	c0.07-0.07,0.624-0.625,0.665-0.665c0.398-0.392,0.972-0.519,1.496-0.331C6.99,8.201,7.04,8.202,7.09,8.204L5.758,9.536
	c-0.195,0.195-0.195,0.512,0,0.707c0.098,0.098,0.226,0.146,0.354,0.146s0.256-0.049,0.354-0.146l1.332-1.332
	c0.002,0.05,0.004,0.1,0.021,0.148C8.002,9.575,7.873,10.161,7.493,10.549z M8.316,8.392l0.077-0.076
	c0.001,0.035,0.015,0.067,0.023,0.102C8.384,8.407,8.352,8.394,8.316,8.392z M12.57,5.472L11.022,7.02
	c-0.001,0.001-0.001,0.002-0.002,0.003c-0.188,0.188-0.438,0.438-0.465,0.464c-0.396,0.392-0.968,0.519-1.498,0.332
	C9.01,7.801,8.96,7.799,8.911,7.797l1.331-1.331c0.195-0.195,0.195-0.512,0-0.707s-0.512-0.195-0.707,0L8.204,7.09
	C8.202,7.04,8.2,6.99,8.183,6.941C7.999,6.426,8.128,5.84,8.507,5.452l0.681-0.68L9.187,4.771c0.452-0.448,1.336-1.336,1.337-1.336
	c0,0,0,0-0.001,0.001c0.563-0.554,1.474-0.551,2.033,0.009C13.112,4.002,13.117,4.913,12.57,5.472z"/>
</svg>
