<?xml version="1.0" encoding="iso-8859-1"?>
<!-- Generator: Adobe Illustrator 15.1.0, SVG Export Plug-In . SVG Version: 6.00 Build 0)  -->
<!DOCTYPE svg PUBLIC "-//W3C//DTD SVG 1.1//EN" "http://www.w3.org/Graphics/SVG/1.1/DTD/svg11.dtd">
<svg version="1.1" id="Layer_1" xmlns="http://www.w3.org/2000/svg" xmlns:xlink="http://www.w3.org/1999/xlink" x="0px" y="0px"
	 width="16px" height="16px" viewBox="0 0 16 16" style="enable-background:new 0 0 16 16;" xml:space="preserve">
<g>
	<path style="fill:#FFFFFF;" d="M8,2.002c-2.499,0-4.532,1.961-4.532,4.372c0,0.801,0.227,1.584,0.664,2.278l3.457,5.125
		c0.093,0.138,0.248,0.221,0.414,0.221s0.322-0.083,0.415-0.221l3.462-5.142c0.427-0.682,0.652-1.464,0.652-2.262
		C12.532,3.963,10.499,2.002,8,2.002z M11.041,8.091l-3.038,4.513L4.969,8.106c-0.327-0.521-0.501-1.12-0.501-1.732
		c0-1.859,1.585-3.372,3.532-3.372s3.532,1.513,3.532,3.372C11.532,6.984,11.359,7.583,11.041,8.091z"/>
	<path style="fill:#FFFFFF;" d="M8,4.209c-1.223,0-2.218,0.964-2.218,2.149c0,1.185,0.995,2.148,2.218,2.148
		s2.218-0.964,2.218-2.148C10.218,5.173,9.223,4.209,8,4.209z M8,7.507c-0.672,0-1.218-0.516-1.218-1.148
		c0-0.634,0.546-1.149,1.218-1.149s1.218,0.516,1.218,1.149C9.218,6.991,8.672,7.507,8,7.507z"/>
</g>
</svg>
