<?xml version="1.0" encoding="iso-8859-1"?>
<!-- Generator: Adobe Illustrator 15.1.0, SVG Export Plug-In . SVG Version: 6.00 Build 0)  -->
<!DOCTYPE svg PUBLIC "-//W3C//DTD SVG 1.1//EN" "http://www.w3.org/Graphics/SVG/1.1/DTD/svg11.dtd">
<svg version="1.1" id="Layer_1" xmlns="http://www.w3.org/2000/svg" xmlns:xlink="http://www.w3.org/1999/xlink" x="0px" y="0px"
	 width="16px" height="16px" viewBox="0 0 16 16" style="enable-background:new 0 0 16 16;" xml:space="preserve">
<path style="fill:#FFFFFF;" d="M14.615,1.384c-0.146-0.146-0.367-0.188-0.557-0.104L1.535,6.842
	C1.331,6.933,1.211,7.147,1.243,7.368s0.204,0.395,0.426,0.426l5.732,0.805l0.805,5.733c0.031,0.221,0.205,0.395,0.426,0.426
	c0.023,0.003,0.047,0.005,0.069,0.005c0.195,0,0.375-0.114,0.457-0.297L14.719,1.94C14.803,1.751,14.762,1.53,14.615,1.384z
	 M8.953,12.463L8.338,8.087C8.307,7.866,8.133,7.692,7.913,7.661L3.538,7.047l9.74-4.325L8.953,12.463z"/>
</svg>
