<?xml version="1.0" encoding="iso-8859-1"?>
<!-- Generator: Adobe Illustrator 15.1.0, SVG Export Plug-In . SVG Version: 6.00 Build 0)  -->
<!DOCTYPE svg PUBLIC "-//W3C//DTD SVG 1.1//EN" "http://www.w3.org/Graphics/SVG/1.1/DTD/svg11.dtd">
<svg version="1.1" id="Layer_1" xmlns="http://www.w3.org/2000/svg" xmlns:xlink="http://www.w3.org/1999/xlink" x="0px" y="0px"
	 width="16px" height="16px" viewBox="0 0 16 16" style="enable-background:new 0 0 16 16;" xml:space="preserve">
<path style="fill:#FFFFFF;" d="M10.872,10.496c-0.206-0.184-0.522-0.162-0.705,0.045l-1.557,1.77V2.39c0-0.276-0.224-0.5-0.5-0.5
	s-0.5,0.224-0.5,0.5v10.055l-1.813-1.678c-0.204-0.188-0.52-0.176-0.707,0.027s-0.175,0.52,0.027,0.707l2.674,2.475
	c0.093,0.086,0.214,0.133,0.34,0.133c0.009,0,0.017,0,0.025,0c0.135-0.008,0.261-0.068,0.35-0.17l2.41-2.738
	C11.1,10.994,11.08,10.678,10.872,10.496z"/>
</svg>
