<?xml version="1.0" encoding="utf-8"?>
<!-- Generator: Adobe Illustrator 19.0.0, SVG Export Plug-In . SVG Version: 6.00 Build 0)  -->
<svg version="1.1" id="Layer_1" xmlns="http://www.w3.org/2000/svg" xmlns:xlink="http://www.w3.org/1999/xlink" x="0px" y="0px"
	 viewBox="0 0 16 16" style="enable-background:new 0 0 16 16;" xml:space="preserve">
<g>
	<polygon id="XMLID_4_" points="15.8,3 15.8,2.5 13.5,2.5 13.5,0.2 13,0.2 13,2.5 10.6,2.5 10.6,3 12.6,3 0,15.7 0.3,16 13,3.4 
		13,5.4 13.5,5.4 13.5,3 	"/>
	
		<rect id="XMLID_3_" x="14.3" y="4.5" transform="matrix(-0.7074 -0.7068 0.7068 -0.7074 22.5893 18.816)" width="1.8" height="0.5"/>
	<rect id="XMLID_2_" x="10.3" y="0.5" transform="matrix(0.7074 0.7068 -0.7068 0.7074 3.87 -7.7278)" width="1.8" height="0.5"/>
	<rect id="XMLID_1_" x="14.9" y="-0.1" transform="matrix(0.7063 0.708 -0.708 0.7063 5.0355 -10.5156)" width="0.5" height="1.8"/>
</g>
</svg>
