<?xml version="1.0" encoding="iso-8859-1"?>
<!-- Generator: Adobe Illustrator 15.1.0, SVG Export Plug-In . SVG Version: 6.00 Build 0)  -->
<!DOCTYPE svg PUBLIC "-//W3C//DTD SVG 1.1//EN" "http://www.w3.org/Graphics/SVG/1.1/DTD/svg11.dtd">
<svg version="1.1" id="Layer_1" xmlns="http://www.w3.org/2000/svg" xmlns:xlink="http://www.w3.org/1999/xlink" x="0px" y="0px"
	 width="16px" height="16px" viewBox="0 0 16 16" style="enable-background:new 0 0 16 16;" xml:space="preserve">
<g>
	<path style="fill:#FFFFFF;" d="M8,1.111c-2.859,0-5.185,2.243-5.185,5c0,0.916,0.259,1.812,0.758,2.603l4.017,5.954
		c0.093,0.139,0.249,0.221,0.415,0.221c0.167,0,0.322-0.083,0.415-0.221l4.02-5.973c0.488-0.777,0.747-1.671,0.747-2.584
		C13.186,3.354,10.859,1.111,8,1.111z M11.601,8.15l-3.597,5.344L4.41,8.167C4.021,7.55,3.815,6.839,3.815,6.111
		c0-2.206,1.877-4,4.185-4s4.186,1.794,4.186,4C12.186,6.836,11.98,7.546,11.601,8.15z"/>
	<path style="fill:#FFFFFF;" d="M8,3.676c-1.375,0-2.495,1.084-2.495,2.417S6.624,8.51,8,8.51c1.376,0,2.497-1.084,2.497-2.417
		S9.376,3.676,8,3.676z M8,7.51c-0.824,0-1.495-0.636-1.495-1.417S7.175,4.676,8,4.676c0.825,0,1.497,0.636,1.497,1.417
		S8.824,7.51,8,7.51z"/>
</g>
</svg>
