<?xml version="1.0" encoding="iso-8859-1"?>
<!-- Generator: Adobe Illustrator 15.1.0, SVG Export Plug-In . SVG Version: 6.00 Build 0)  -->
<!DOCTYPE svg PUBLIC "-//W3C//DTD SVG 1.1//EN" "http://www.w3.org/Graphics/SVG/1.1/DTD/svg11.dtd">
<svg version="1.1" id="Layer_1" xmlns="http://www.w3.org/2000/svg" xmlns:xlink="http://www.w3.org/1999/xlink" x="0px" y="0px"
	 width="16px" height="16px" viewBox="0 0 16 16" style="enable-background:new 0 0 16 16;" xml:space="preserve">
<path style="fill:#FFFFFF;" d="M14.673,2.092C14.553,1.998,14.395,1.961,14.246,2l-4.124,1.005L5.997,2C5.996,2,5.995,2,5.993,2
	C5.956,1.991,5.917,1.998,5.879,1.998C5.84,1.998,5.801,1.991,5.764,2C5.763,2,5.762,2,5.761,2L1.518,3.034
	C1.293,3.088,1.136,3.289,1.136,3.52v9.996c0,0.153,0.07,0.299,0.191,0.394c0.089,0.069,0.197,0.106,0.309,0.106
	c0.039,0,0.079-0.005,0.118-0.015l4.123-1.005l4.127,1.005c0.038,0.01,0.078,0.015,0.116,0.015c0.001,0,0.001,0,0.001,0s0,0,0.001,0
	l0,0l0,0c0.039,0,0.078-0.005,0.117-0.015l4.243-1.034c0.225-0.054,0.382-0.255,0.382-0.485V2.485
	C14.864,2.332,14.794,2.187,14.673,2.092z M2.136,3.912l3.243-0.79v8.967l-3.243,0.79V3.912z M6.379,3.122l3.242,0.79v8.967
	L6.379,12.09V3.122z M13.864,12.089l-3.242,0.79V3.912l3.242-0.79V12.089z"/>
</svg>
