<?xml version="1.0" encoding="iso-8859-1"?>
<!-- Generator: Adobe Illustrator 15.1.0, SVG Export Plug-In . SVG Version: 6.00 Build 0)  -->
<!DOCTYPE svg PUBLIC "-//W3C//DTD SVG 1.1//EN" "http://www.w3.org/Graphics/SVG/1.1/DTD/svg11.dtd">
<svg version="1.1" id="Layer_1" xmlns="http://www.w3.org/2000/svg" xmlns:xlink="http://www.w3.org/1999/xlink" x="0px" y="0px"
	 width="16px" height="16px" viewBox="0 0 16 16" style="enable-background:new 0 0 16 16;" xml:space="preserve">
<path style="fill:#FFFFFF;" d="M14.843,8.047c0.033-0.078,0.043-0.161,0.034-0.244c-0.002-0.02-0.008-0.036-0.013-0.055
	C14.85,7.68,14.821,7.617,14.778,7.56c-0.008-0.011-0.008-0.024-0.017-0.035l-2.086-2.378c-0.182-0.208-0.497-0.228-0.706-0.046
	c-0.207,0.182-0.228,0.498-0.046,0.705l1.358,1.549H8.762L5.156,3.508C5.062,3.406,4.93,3.35,4.791,3.35H1.787
	c-0.276,0-0.5,0.224-0.5,0.5s0.224,0.5,0.5,0.5h2.787L7.86,7.855L4.322,11.65H1.62c-0.276,0-0.5,0.225-0.5,0.5
	c0,0.277,0.224,0.5,0.5,0.5h2.92c0.139,0,0.271-0.057,0.366-0.158l3.856-4.138h4.463l-1.331,1.409
	c-0.189,0.201-0.181,0.518,0.02,0.707c0.097,0.091,0.221,0.137,0.344,0.137c0.133,0,0.266-0.053,0.363-0.157l2.128-2.253
	c0.031-0.032,0.048-0.071,0.068-0.109c0.006-0.011,0.019-0.016,0.023-0.027C14.843,8.057,14.841,8.052,14.843,8.047z"/>
</svg>
