<?xml version="1.0" encoding="iso-8859-1"?>
<!-- Generator: Adobe Illustrator 15.1.0, SVG Export Plug-In . SVG Version: 6.00 Build 0)  -->
<!DOCTYPE svg PUBLIC "-//W3C//DTD SVG 1.1//EN" "http://www.w3.org/Graphics/SVG/1.1/DTD/svg11.dtd">
<svg version="1.1" id="Layer_1" xmlns="http://www.w3.org/2000/svg" xmlns:xlink="http://www.w3.org/1999/xlink" x="0px" y="0px"
	 width="16px" height="16px" viewBox="0 0 16 16" style="enable-background:new 0 0 16 16;" xml:space="preserve">
<g>
	<path style="fill:#FFFFFF;" d="M12.721,5.099c-0.275,0-0.5,0.224-0.5,0.5c0,0.025,0,2.134,0,2.221
		C12.184,10.08,10.289,11.92,8,11.92c-2.3,0-4.193-1.848-4.221-4.12C3.779,7.713,3.779,5.617,3.779,5.599c0-0.276-0.224-0.5-0.5-0.5
		s-0.5,0.224-0.5,0.5c0,0.019,0.001,2.215,0.001,2.215c0.032,2.646,2.11,4.804,4.721,5.057v1.067h-1.88c-0.276,0-0.5,0.224-0.5,0.5
		s0.224,0.5,0.5,0.5h4.76c0.275,0,0.5-0.224,0.5-0.5s-0.225-0.5-0.5-0.5H8.5V12.87c2.599-0.253,4.677-2.399,4.72-5.023
		c0-0.026,0-2.223,0-2.248C13.221,5.322,12.998,5.099,12.721,5.099z"/>
	<path style="fill:#FFFFFF;" d="M8,10.783c1.671,0,3.033-1.349,3.033-3.006V4.068c0-1.657-1.361-3.006-3.033-3.006
		c-1.672,0-3.032,1.349-3.032,3.006v3.709C4.968,9.435,6.329,10.783,8,10.783z M5.968,4.068C5.968,2.962,6.88,2.063,8,2.063
		c1.121,0,2.033,0.899,2.033,2.006v3.709c0,1.106-0.912,2.006-2.033,2.006c-1.12,0-2.032-0.899-2.032-2.006V4.068z"/>
</g>
</svg>
