<?xml version="1.0" encoding="iso-8859-1"?>
<!-- Generator: Adobe Illustrator 15.1.0, SVG Export Plug-In . SVG Version: 6.00 Build 0)  -->
<!DOCTYPE svg PUBLIC "-//W3C//DTD SVG 1.1//EN" "http://www.w3.org/Graphics/SVG/1.1/DTD/svg11.dtd">
<svg version="1.1" id="Layer_1" xmlns="http://www.w3.org/2000/svg" xmlns:xlink="http://www.w3.org/1999/xlink" x="0px" y="0px"
	 width="16px" height="16px" viewBox="0 0 16 16" style="enable-background:new 0 0 16 16;" xml:space="preserve">
<g>
	<path style="fill:#FFFFFF;" d="M5.446,2.542c-0.276,0-0.5,0.224-0.5,0.5v3.5H1.147c-0.276,0-0.5,0.224-0.5,0.5s0.224,0.5,0.5,0.5
		h4.299c0.276,0,0.5-0.224,0.5-0.5v-4C5.946,2.766,5.723,2.542,5.446,2.542z"/>
	<path style="fill:#FFFFFF;" d="M5.446,8.458H1.147c-0.276,0-0.5,0.224-0.5,0.5s0.224,0.5,0.5,0.5h3.799v3.5
		c0,0.276,0.224,0.5,0.5,0.5s0.5-0.224,0.5-0.5v-4C5.946,8.682,5.723,8.458,5.446,8.458z"/>
	<path style="fill:#FFFFFF;" d="M10.554,7.542h4.299c0.276,0,0.5-0.224,0.5-0.5s-0.224-0.5-0.5-0.5h-3.799v-3.5
		c0-0.276-0.224-0.5-0.5-0.5s-0.5,0.224-0.5,0.5v4C10.054,7.318,10.277,7.542,10.554,7.542z"/>
	<path style="fill:#FFFFFF;" d="M14.853,8.458h-4.299c-0.276,0-0.5,0.224-0.5,0.5v4c0,0.276,0.224,0.5,0.5,0.5s0.5-0.224,0.5-0.5
		v-3.5h3.799c0.276,0,0.5-0.224,0.5-0.5S15.129,8.458,14.853,8.458z"/>
</g>
</svg>
