<?xml version="1.0" encoding="iso-8859-1"?>
<!-- Generator: Adobe Illustrator 15.1.0, SVG Export Plug-In . SVG Version: 6.00 Build 0)  -->
<!DOCTYPE svg PUBLIC "-//W3C//DTD SVG 1.1//EN" "http://www.w3.org/Graphics/SVG/1.1/DTD/svg11.dtd">
<svg version="1.1" id="Layer_1" xmlns="http://www.w3.org/2000/svg" xmlns:xlink="http://www.w3.org/1999/xlink" x="0px" y="0px"
	 width="16px" height="16px" viewBox="0 0 16 16" style="enable-background:new 0 0 16 16;" xml:space="preserve">
<g>
	<path style="fill:#FFFFFF;" d="M8.051,3.612c-0.621,0-1.127,0.506-1.127,1.127v1.252c0,0.621,0.506,1.126,1.127,1.126
		s1.127-0.505,1.127-1.126V4.739C9.178,4.118,8.672,3.612,8.051,3.612z M8.178,5.991c0,0.139-0.254,0.139-0.254,0V4.739
		c0-0.07,0.057-0.127,0.127-0.127s0.127,0.057,0.127,0.127V5.991z"/>
	<path style="fill:#FFFFFF;" d="M8,1.238c-2.348,0-4.258,1.91-4.258,4.258v5.01c0,2.348,1.91,4.256,4.258,4.256
		s4.258-1.908,4.258-4.256v-5.01C12.258,3.148,10.348,1.238,8,1.238z M11.258,10.506c0,1.795-1.462,3.256-3.258,3.256
		s-3.258-1.461-3.258-3.256v-5.01C4.742,3.7,6.204,2.238,8,2.238s3.258,1.462,3.258,3.258V10.506z"/>
</g>
</svg>
