<?xml version="1.0" encoding="utf-8"?>
<!-- Generator: Adobe Illustrator 19.1.1, SVG Export Plug-In . SVG Version: 6.00 Build 0)  -->
<svg version="1.1" id="Layer_1" xmlns="http://www.w3.org/2000/svg" xmlns:xlink="http://www.w3.org/1999/xlink" x="0px" y="0px"
	 viewBox="0 0 16 16" style="enable-background:new 0 0 16 16;" xml:space="preserve">
<path d="M15.1,7.6H3.5l10.6-4.7c0.1,0,0.1-0.1,0.1-0.1s0-0.1,0-0.2l-1.1-2.4C13.1,0,12.9,0,12.8,0l-12,5.3c-0.1,0-0.1,0.1-0.1,0.1
	c0,0.1,0,0.1,0,0.2l1,2.3v7.7C1.7,15.9,1.8,16,2,16h13.1c0.1,0,0.3-0.1,0.3-0.3V7.9C15.3,7.7,15.2,7.6,15.1,7.6z M4,8.1L2.2,9.9V8.2
	l0.1,0H4z M2.1,7.6L1.4,6.1l2.3,0.9L2.1,7.6L2.1,7.6z M10.9,3.7L9.2,4.5L6.4,3.4l1.7-0.8L10.9,3.7z M8.8,2.4l1.7-0.8l2.8,1.1
	l-1.7,0.8L8.8,2.4z M8.5,4.8L6.8,5.6L4,4.5l1.7-0.8L8.5,4.8z M6.1,5.9L4.4,6.6L1.6,5.6l1.7-0.8L6.1,5.9z M13.5,2.2l-2.3-0.9l1.6-0.7
	L13.5,2.2z M2.2,15.5v-4.9l2.5-2.5h1.9l-2.2,2.2l0.4,0.4l2.5-2.5h1.9L7,10.3l0.4,0.4l2.5-2.5h1.9l-2.2,2.2l0.4,0.4l2.5-2.5h1.9
	l-2.2,2.2l0.4,0.4l2.2-2.2v7H2.2z"/>
</svg>
