<?xml version="1.0" encoding="iso-8859-1"?>
<!-- Generator: Adobe Illustrator 15.1.0, SVG Export Plug-In . SVG Version: 6.00 Build 0)  -->
<!DOCTYPE svg PUBLIC "-//W3C//DTD SVG 1.1//EN" "http://www.w3.org/Graphics/SVG/1.1/DTD/svg11.dtd">
<svg version="1.1" id="Layer_1" xmlns="http://www.w3.org/2000/svg" xmlns:xlink="http://www.w3.org/1999/xlink" x="0px" y="0px"
	 width="16px" height="16px" viewBox="0 0 16 16" style="enable-background:new 0 0 16 16;" xml:space="preserve">
<g>
	<path style="fill:#FFFFFF;" d="M1.996,3.285h12.008c0.277,0,0.5-0.224,0.5-0.5s-0.223-0.5-0.5-0.5H1.996
		c-0.276,0-0.5,0.224-0.5,0.5S1.719,3.285,1.996,3.285z"/>
	<path style="fill:#FFFFFF;" d="M14.004,4.915h-6.53c-0.276,0-0.5,0.224-0.5,0.5s0.224,0.5,0.5,0.5h6.53c0.275,0,0.5-0.224,0.5-0.5
		S14.279,4.915,14.004,4.915z"/>
	<path style="fill:#FFFFFF;" d="M14.004,7.457h-6.53c-0.276,0-0.5,0.224-0.5,0.5s0.224,0.5,0.5,0.5h6.53c0.275,0,0.5-0.224,0.5-0.5
		S14.279,7.457,14.004,7.457z"/>
	<path style="fill:#FFFFFF;" d="M14.004,10.174h-6.53c-0.276,0-0.5,0.223-0.5,0.5c0,0.275,0.224,0.5,0.5,0.5h6.53
		c0.275,0,0.5-0.225,0.5-0.5C14.504,10.396,14.279,10.174,14.004,10.174z"/>
	<path style="fill:#FFFFFF;" d="M14.004,12.715H1.996c-0.276,0-0.5,0.225-0.5,0.5c0,0.277,0.224,0.5,0.5,0.5h12.008
		c0.277,0,0.5-0.223,0.5-0.5C14.504,12.939,14.281,12.715,14.004,12.715z"/>
	<path style="fill:#FFFFFF;" d="M5.011,4.779c-0.235,0-0.458,0-3.194,2.736c-0.195,0.195-0.195,0.512,0,0.707l2.85,2.85
		c0.096,0.096,0.224,0.146,0.354,0.146c0.064,0,0.13-0.014,0.191-0.039c0.187-0.076,0.309-0.26,0.309-0.461V5.283
		c0-0.034-0.003-0.067-0.01-0.101C5.462,4.95,5.249,4.779,5.011,4.779z M4.52,9.512L2.878,7.87C3.65,7.104,4.171,6.613,4.52,6.296
		V9.512z"/>
</g>
</svg>
