<?xml version="1.0" encoding="iso-8859-1"?>
<!-- Generator: Adobe Illustrator 15.1.0, SVG Export Plug-In . SVG Version: 6.00 Build 0)  -->
<!DOCTYPE svg PUBLIC "-//W3C//DTD SVG 1.1//EN" "http://www.w3.org/Graphics/SVG/1.1/DTD/svg11.dtd">
<svg version="1.1" id="Layer_1" xmlns="http://www.w3.org/2000/svg" xmlns:xlink="http://www.w3.org/1999/xlink" x="0px" y="0px"
	 width="16px" height="16px" viewBox="0 0 16 16" style="enable-background:new 0 0 16 16;" xml:space="preserve">
<path style="fill:#FFFFFF;" d="M14.579,1.785c-0.156-0.114-0.365-0.129-0.534-0.036L1.478,8.587C1.301,8.683,1.2,8.875,1.219,9.074
	s0.155,0.368,0.346,0.429l3.224,1.023l0.038,3.292c0.002,0.211,0.137,0.397,0.336,0.467c0.054,0.019,0.109,0.027,0.164,0.027
	c0.148,0,0.292-0.066,0.389-0.186l2.125-2.632l4.305,1.366c0.049,0.016,0.101,0.023,0.151,0.023c0.089,0,0.177-0.023,0.255-0.07
	c0.123-0.072,0.209-0.194,0.236-0.334l1.986-10.197C14.812,2.094,14.735,1.899,14.579,1.785z M5.788,10.424l3.545-2.37l-2.042,2.529
	c-0.005,0.006-0.01,0.013-0.015,0.019l-1.465,1.815L5.788,10.424z M11.913,11.738L8.514,10.66l3.659-4.533
	c0.156-0.192,0.146-0.47-0.02-0.651c-0.168-0.184-0.441-0.215-0.646-0.079L5.206,9.61l-2.22-0.705L13.59,3.135L11.913,11.738z"/>
</svg>
