<?xml version="1.0" encoding="iso-8859-1"?>
<!-- Generator: Adobe Illustrator 15.1.0, SVG Export Plug-In . SVG Version: 6.00 Build 0)  -->
<!DOCTYPE svg PUBLIC "-//W3C//DTD SVG 1.1//EN" "http://www.w3.org/Graphics/SVG/1.1/DTD/svg11.dtd">
<svg version="1.1" id="Layer_1" xmlns="http://www.w3.org/2000/svg" xmlns:xlink="http://www.w3.org/1999/xlink" x="0px" y="0px"
	 width="16px" height="16px" viewBox="0 0 16 16" style="enable-background:new 0 0 16 16;" xml:space="preserve">
<g>
	<path style="fill:#FFFFFF;" d="M3.651,5.194l-2.329,8.151l1.265,1.266l8.154-2.33l1.918-4.663l0.152-0.389L8.653,3.114L3.651,5.194
		z M10.002,11.459l-6.745,1.922l2.957-2.957c0.223,0.123,0.475,0.199,0.746,0.199c0.853,0,1.547-0.693,1.547-1.547
		c0-0.853-0.694-1.546-1.547-1.546S5.414,8.224,5.414,9.076c0,0.217,0.046,0.424,0.127,0.611l-2.989,2.988L4.472,5.93L8.474,4.29
		l3.168,3.169L10.002,11.459z M6.414,9.076c0-0.301,0.245-0.546,0.547-0.546s0.547,0.245,0.547,0.546
		c0,0.303-0.245,0.547-0.547,0.547S6.414,9.379,6.414,9.076z"/>
	
		<rect x="11.861" y="0.914" transform="matrix(0.6953 -0.7187 0.7187 0.6953 1.1396 9.9982)" style="fill:#FFFFFF;" width="1" height="5.481"/>
</g>
</svg>
