<?xml version="1.0" encoding="iso-8859-1"?>
<!-- Generator: Adobe Illustrator 15.1.0, SVG Export Plug-In . SVG Version: 6.00 Build 0)  -->
<!DOCTYPE svg PUBLIC "-//W3C//DTD SVG 1.1//EN" "http://www.w3.org/Graphics/SVG/1.1/DTD/svg11.dtd">
<svg version="1.1" id="Layer_1" xmlns="http://www.w3.org/2000/svg" xmlns:xlink="http://www.w3.org/1999/xlink" x="0px" y="0px"
	 width="16px" height="16px" viewBox="0 0 16 16" style="enable-background:new 0 0 16 16;" xml:space="preserve">
<path style="fill:#FFFFFF;" d="M10.157,4.835c-0.003-0.033,0.001-0.066-0.01-0.1c-0.006-0.018-0.019-0.03-0.026-0.048
	c-0.005-0.012-0.003-0.025-0.009-0.036l-1.67-3.158c-0.174-0.328-0.711-0.328-0.885,0l-1.67,3.158
	C5.882,4.664,5.884,4.677,5.879,4.689C5.871,4.706,5.858,4.718,5.853,4.736c-0.011,0.033-0.007,0.066-0.01,0.1
	C5.841,4.853,5.83,4.868,5.83,4.885v9.367c0,0.277,0.224,0.5,0.5,0.5h3.34c0.276,0,0.5-0.223,0.5-0.5V4.885
	C10.17,4.868,10.159,4.853,10.157,4.835z M6.83,5.564l1.021,0.318C7.899,5.897,7.95,5.905,8,5.905s0.101-0.008,0.148-0.022
	L9.17,5.564v6.315H6.83V5.564z M8,2.796l0.946,1.79L8,4.881L7.054,4.586L8,2.796z M6.83,13.752v-0.873h2.34v0.873H6.83z"/>
</svg>
