<?xml version="1.0" encoding="iso-8859-1"?>
<!-- Generator: Adobe Illustrator 15.1.0, SVG Export Plug-In . SVG Version: 6.00 Build 0)  -->
<!DOCTYPE svg PUBLIC "-//W3C//DTD SVG 1.1//EN" "http://www.w3.org/Graphics/SVG/1.1/DTD/svg11.dtd">
<svg version="1.1" id="Layer_1" xmlns="http://www.w3.org/2000/svg" xmlns:xlink="http://www.w3.org/1999/xlink" x="0px" y="0px"
	 width="16px" height="16px" viewBox="0 0 16 16" style="enable-background:new 0 0 16 16;" xml:space="preserve">
<path style="fill:#FFFFFF;" d="M13.772,5.32l-3.095-3.095c-0.2-0.197-0.522-0.194-0.717,0.001L2.782,9.408
	C2.703,9.487,2.653,9.586,2.638,9.691L2.083,13.34c-0.023,0.153,0.024,0.307,0.13,0.422l0.001-0.001
	c0.096,0.103,0.231,0.161,0.374,0.161c0.024,0,0.049-0.002,0.074-0.006l3.645-0.555c0.105-0.014,0.203-0.063,0.286-0.143
	l7.178-7.179c0.097-0.096,0.15-0.223,0.15-0.359C13.922,5.544,13.869,5.417,13.772,5.32z M3.19,12.811l0.323-2.119l1.796,1.797
	L3.19,12.811z M2.397,13.591L2.397,13.591L2.397,13.591C2.397,13.59,2.397,13.59,2.397,13.591z M10.877,7.5l-4.56,4.56L3.941,9.684
	l4.561-4.56L10.877,7.5z M12.697,5.68l-1.103,1.103L9.219,4.406l1.102-1.103L12.697,5.68z M2.396,13.588
	c0.001,0.001,0,0.002,0.001,0.003l-0.178,0.165L2.396,13.588z"/>
</svg>
