<?xml version="1.0" encoding="utf-8"?>
<!-- Generator: Adobe Illustrator 19.1.1, SVG Export Plug-In . SVG Version: 6.00 Build 0)  -->
<svg version="1.1" id="Layer_1" xmlns="http://www.w3.org/2000/svg" xmlns:xlink="http://www.w3.org/1999/xlink" x="0px" y="0px"
	 viewBox="0 0 16 16" style="enable-background:new 0 0 16 16;" xml:space="preserve">
<g>
	<path d="M14.6,0H3.7C3,0,2.5,0.6,2.5,1.3v1.3H0.1v0.5h2.3v2.1H0.1v0.5h2.3v2.1H0.1v0.5h2.3v2.1H0.1v0.5h2.3v2.1H0.1v0.5h2.3v1.3
		C2.5,15.4,3,16,3.7,16h10.8c0.7,0,1.3-0.6,1.3-1.3V1.3C15.9,0.6,15.3,0,14.6,0z M15.4,14.7c0,0.4-0.3,0.8-0.8,0.8H3.7
		c-0.4,0-0.8-0.3-0.8-0.8v-1.3h2.3v-0.5H3v-2.1h2.3v-0.5H3V8.3h2.3V7.7H3V5.7h2.3V5.2H3V3.1h2.3V2.6H3V1.3c0-0.4,0.3-0.8,0.8-0.8
		h10.8c0.4,0,0.8,0.3,0.8,0.8V14.7z"/>
	<path d="M11.1,8.5l-2-2L10,5.6L8.1,3.7L7,4.8C6.4,5.4,6.4,6.4,7,7l3.6,3.6c0.3,0.3,0.7,0.5,1.1,0.5c0.4,0,0.8-0.2,1.1-0.5l1.1-1.1
		L12,7.6L11.1,8.5z M12.5,10.2c-0.4,0.4-1.1,0.4-1.4,0L7.4,6.6C7,6.2,7,5.5,7.4,5.1l0.7-0.7l1.2,1.2L8.4,6.5l2.7,2.7L12,8.3l1.2,1.2
		L12.5,10.2z"/>
</g>
</svg>
