<?xml version="1.0" encoding="iso-8859-1"?>
<!-- Generator: Adobe Illustrator 15.1.0, SVG Export Plug-In . SVG Version: 6.00 Build 0)  -->
<!DOCTYPE svg PUBLIC "-//W3C//DTD SVG 1.1//EN" "http://www.w3.org/Graphics/SVG/1.1/DTD/svg11.dtd">
<svg version="1.1" id="Layer_1" xmlns="http://www.w3.org/2000/svg" xmlns:xlink="http://www.w3.org/1999/xlink" x="0px" y="0px"
	 width="16px" height="16px" viewBox="0 0 16 16" style="enable-background:new 0 0 16 16;" xml:space="preserve">
<g>
	<path style="fill:#FFFFFF;" d="M14.771,2.504H1.229c-0.276,0-0.5,0.224-0.5,0.5v9.992c0,0.276,0.224,0.5,0.5,0.5h13.542
		c0.275,0,0.5-0.224,0.5-0.5V3.004C15.271,2.728,15.047,2.504,14.771,2.504z M14.271,12.496H1.729V3.504h12.542V12.496z"/>
	<path style="fill:#FFFFFF;" d="M2.625,11.725c0.094,0.096,0.223,0.149,0.356,0.149h9.773c0.276,0,0.5-0.224,0.5-0.5v-1.096
		c0-0.127-0.048-0.248-0.134-0.341L11.324,8.01c-0.1-0.107-0.25-0.171-0.389-0.158c-0.146,0.007-0.283,0.077-0.373,0.193
		L9.729,9.127L6.054,5.413C5.96,5.318,5.832,5.265,5.699,5.265c-0.001,0-0.002,0-0.002,0C5.562,5.266,5.433,5.32,5.339,5.417
		L2.624,8.221C2.506,8.343,2.459,8.513,2.494,8.674c0.015,0.252,0.006,1.539-0.012,2.692C2.48,11.5,2.532,11.63,2.625,11.725z
		 M3.498,8.755l2.205-2.275l3.717,3.757c0.102,0.104,0.242,0.163,0.386,0.147c0.144-0.009,0.276-0.079,0.365-0.193l0.823-1.068
		l1.261,1.354v0.398H3.49C3.507,9.719,3.514,9.103,3.498,8.755z"/>
	<path style="fill:#FFFFFF;" d="M11.878,7.535c0.904,0,1.64-0.735,1.64-1.639c0-0.904-0.735-1.64-1.64-1.64
		c-0.903,0-1.639,0.735-1.639,1.64C10.239,6.8,10.975,7.535,11.878,7.535z M11.878,5.257c0.353,0,0.64,0.287,0.64,0.64
		s-0.287,0.639-0.64,0.639s-0.639-0.286-0.639-0.639S11.525,5.257,11.878,5.257z"/>
</g>
</svg>
