<?xml version="1.0" encoding="iso-8859-1"?>
<!-- Generator: Adobe Illustrator 15.1.0, SVG Export Plug-In . SVG Version: 6.00 Build 0)  -->
<!DOCTYPE svg PUBLIC "-//W3C//DTD SVG 1.1//EN" "http://www.w3.org/Graphics/SVG/1.1/DTD/svg11.dtd">
<svg version="1.1" id="Layer_1" xmlns="http://www.w3.org/2000/svg" xmlns:xlink="http://www.w3.org/1999/xlink" x="0px" y="0px"
	 width="16px" height="16px" viewBox="0 0 16 16" style="enable-background:new 0 0 16 16;" xml:space="preserve">
<g>
	<path style="fill:#FFFFFF;" d="M12.181,8.657c-0.02,0-0.036,0.009-0.055,0.011c-0.019-0.002-0.035-0.011-0.055-0.011H7.355V4.095
		c0-0.091-0.031-0.172-0.073-0.245C7.271,3.829,7.256,3.811,7.243,3.792C7.228,3.772,7.215,3.75,7.196,3.733
		C7.095,3.622,6.952,3.549,6.8,3.564C3.934,3.762,1.688,6.171,1.688,9.047c0,3.031,2.466,5.498,5.496,5.498
		c3.082,0,5.496-2.367,5.496-5.389C12.681,8.88,12.457,8.657,12.181,8.657z M7.185,13.545c-2.479,0-4.496-2.018-4.496-4.498
		c0-2.175,1.577-4.005,3.667-4.399v4.508c0,0.277,0.224,0.5,0.5,0.5c0.008,0,0.015-0.004,0.021-0.004
		c0.008,0,0.015,0.004,0.022,0.004h4.731C11.381,11.869,9.53,13.545,7.185,13.545z"/>
	<path style="fill:#FFFFFF;" d="M14.311,6.513c0-2.789-2.269-5.058-5.058-5.058c-0.38,0-0.473,0.018-0.805,0.094l0.019,0.116
		C8.222,1.697,8.029,1.899,8.029,2.153v5.26c0,0.276,0.224,0.5,0.5,0.5c0.016,0,0.028-0.008,0.044-0.009
		c0.016,0.001,0.028,0.009,0.044,0.009h5.04c0.103,0,0.192-0.038,0.272-0.092c0.126-0.06,0.234-0.152,0.274-0.297
		c0.106-0.383,0.109-0.53,0.107-0.855L14.311,6.513z M13.311,6.513l0.001,0.163c0.001,0.104,0,0.173-0.004,0.236H9.029V2.461
		c0.058-0.004,0.122-0.006,0.224-0.006C11.49,2.456,13.311,4.276,13.311,6.513z"/>
</g>
</svg>
