<?xml version="1.0" encoding="iso-8859-1"?>
<!-- Generator: Adobe Illustrator 15.1.0, SVG Export Plug-In . SVG Version: 6.00 Build 0)  -->
<!DOCTYPE svg PUBLIC "-//W3C//DTD SVG 1.1//EN" "http://www.w3.org/Graphics/SVG/1.1/DTD/svg11.dtd">
<svg version="1.1" id="Layer_1" xmlns="http://www.w3.org/2000/svg" xmlns:xlink="http://www.w3.org/1999/xlink" x="0px" y="0px"
	 width="16px" height="16px" viewBox="0 0 16 16" style="enable-background:new 0 0 16 16;" xml:space="preserve">
<g>
	<path style="fill:#FFFFFF;" d="M8,1.25C4.278,1.25,1.25,4.278,1.25,8S4.278,14.75,8,14.75s6.75-3.028,6.75-6.75S11.722,1.25,8,1.25
		z M8,13.75c-3.171,0-5.75-2.579-5.75-5.75S4.829,2.25,8,2.25S13.75,4.829,13.75,8S11.171,13.75,8,13.75z"/>
	<path style="fill:#FFFFFF;" d="M5.731,4.41C5.576,4.313,5.383,4.308,5.225,4.396C5.065,4.484,4.967,4.652,4.967,4.834v6.333
		c0,0.182,0.099,0.35,0.258,0.438c0.075,0.042,0.159,0.063,0.242,0.063c0.092,0,0.185-0.025,0.265-0.076l5.067-3.167
		C10.945,8.333,11.034,8.173,11.034,8s-0.089-0.333-0.235-0.424L5.731,4.41z M5.967,10.265V5.736L9.591,8L5.967,10.265z"/>
</g>
</svg>
