<?xml version="1.0" encoding="iso-8859-1"?>
<!-- Generator: Adobe Illustrator 15.1.0, SVG Export Plug-In . SVG Version: 6.00 Build 0)  -->
<!DOCTYPE svg PUBLIC "-//W3C//DTD SVG 1.1//EN" "http://www.w3.org/Graphics/SVG/1.1/DTD/svg11.dtd">
<svg version="1.1" id="Layer_1" xmlns="http://www.w3.org/2000/svg" xmlns:xlink="http://www.w3.org/1999/xlink" x="0px" y="0px"
	 width="16px" height="16px" viewBox="0 0 16 16" style="enable-background:new 0 0 16 16;" xml:space="preserve">
<path style="fill:#FFFFFF;" d="M14.262,6.19h-2.88V1.985c0-0.276-0.224-0.5-0.5-0.5H5.118c-0.276,0-0.5,0.224-0.5,0.5V6.19h-2.88
	c-0.276,0-0.5,0.224-0.5,0.5v5.419c0,0.276,0.224,0.5,0.5,0.5h2.795v1.405c0,0.276,0.224,0.5,0.5,0.5h5.764
	c0.276,0,0.5-0.224,0.5-0.5v-1.405h2.965c0.276,0,0.5-0.224,0.5-0.5V6.69C14.762,6.414,14.538,6.19,14.262,6.19z M5.618,2.485h4.764
	V6.19H5.618V2.485z M10.297,13.515H5.533v-2.477h4.764V13.515z M13.762,11.609h-2.465v-1.071c0-0.276-0.224-0.5-0.5-0.5H5.033
	c-0.276,0-0.5,0.224-0.5,0.5v1.071H2.238V7.19h2.793c0.029,0.005,0.056,0.018,0.087,0.018h5.764c0.031,0,0.058-0.013,0.087-0.018
	h2.793V11.609z"/>
</svg>
