<?xml version="1.0" encoding="iso-8859-1"?>
<!-- Generator: Adobe Illustrator 15.1.0, SVG Export Plug-In . SVG Version: 6.00 Build 0)  -->
<!DOCTYPE svg PUBLIC "-//W3C//DTD SVG 1.1//EN" "http://www.w3.org/Graphics/SVG/1.1/DTD/svg11.dtd">
<svg version="1.1" id="Layer_1" xmlns="http://www.w3.org/2000/svg" xmlns:xlink="http://www.w3.org/1999/xlink" x="0px" y="0px"
	 width="16px" height="16px" viewBox="0 0 16 16" style="enable-background:new 0 0 16 16;" xml:space="preserve">
<path style="fill:#FFFFFF;" d="M14.6,4.727h0.5v-3.83h-0.5c-2.591,0-4.854,1.398-6.096,3.475V0.896h-0.5
	C4.087,0.896,0.9,4.083,0.9,8v7.104h7.604l0,0H15.1V7.5h-3.735C11.605,5.932,12.965,4.727,14.6,4.727z M8.302,4.726
	C7.863,5.567,7.591,6.505,7.521,7.5H4.769C5.01,5.931,6.369,4.726,8.004,4.726H8.302z M1.9,8c0-3.198,2.471-5.829,5.604-6.083v1.839
	C5.382,4.003,3.73,5.813,3.73,8v0.5h3.766v5.604H1.9V8z M10.326,8v0.5H14.1v5.603H8.504V7.838c0.083-3.123,2.517-5.67,5.596-5.921
	v1.839C11.978,4.004,10.326,5.813,10.326,8z"/>
</svg>
