<?xml version="1.0" encoding="iso-8859-1"?>
<!-- Generator: Adobe Illustrator 15.1.0, SVG Export Plug-In . SVG Version: 6.00 Build 0)  -->
<!DOCTYPE svg PUBLIC "-//W3C//DTD SVG 1.1//EN" "http://www.w3.org/Graphics/SVG/1.1/DTD/svg11.dtd">
<svg version="1.1" id="Layer_1" xmlns="http://www.w3.org/2000/svg" xmlns:xlink="http://www.w3.org/1999/xlink" x="0px" y="0px"
	 width="16px" height="16px" viewBox="0 0 16 16" style="enable-background:new 0 0 16 16;" xml:space="preserve">
<path style="fill:#FFFFFF;" d="M12.48,8.774c-0.281,1.842-1.54,3.39-3.284,4.04c-0.578,0.215-1.18,0.324-1.791,0.324
	c-2.138,0-4.075-1.344-4.821-3.344C2.401,9.306,2.294,8.79,2.266,8.264C2.246,7.851,2.274,7.442,2.349,7.051
	c0.338-1.788,1.556-3.233,3.256-3.866C6.181,2.97,6.782,2.861,7.39,2.861c1.574,0,3.046,0.72,4.012,1.924L9.354,3.849l-0.443,0.97
	l4.048,1.852l1.85-4.048l-0.97-0.444l-1.167,2.552c-1.126-1.823-3.105-2.936-5.28-2.936c-0.737,0-1.464,0.132-2.159,0.391
	c-2.055,0.765-3.524,2.51-3.934,4.668c-0.09,0.48-0.124,0.974-0.101,1.466c0.034,0.632,0.164,1.255,0.386,1.849
	c0.578,1.551,1.728,2.784,3.237,3.475c0.808,0.369,1.702,0.563,2.585,0.564c0.001,0,0.001,0,0.001,0
	c0.737,0,1.464-0.132,2.161-0.391c2.106-0.785,3.627-2.655,3.969-4.879l0.038-0.247l-1.057-0.162L12.48,8.774z"/>
</svg>
