<?xml version="1.0" encoding="iso-8859-1"?>
<!-- Generator: Adobe Illustrator 15.1.0, SVG Export Plug-In . SVG Version: 6.00 Build 0)  -->
<!DOCTYPE svg PUBLIC "-//W3C//DTD SVG 1.1//EN" "http://www.w3.org/Graphics/SVG/1.1/DTD/svg11.dtd">
<svg version="1.1" id="Layer_1" xmlns="http://www.w3.org/2000/svg" xmlns:xlink="http://www.w3.org/1999/xlink" x="0px" y="0px"
	 width="16px" height="16px" viewBox="0 0 16 16" style="enable-background:new 0 0 16 16;" xml:space="preserve">
<g>
	<path style="fill:#FFFFFF;" d="M15.132,11.67l-1.278-2.485c-0.003-0.006-0.009-0.009-0.012-0.015
		c-0.013-0.022-0.031-0.042-0.048-0.063c-0.023-0.028-0.045-0.058-0.073-0.081c-0.019-0.014-0.039-0.023-0.06-0.036
		c-0.035-0.021-0.069-0.038-0.107-0.05c-0.01-0.003-0.017-0.01-0.026-0.013c-0.017-0.004-0.032,0-0.049-0.002
		c-0.035-0.005-0.069-0.007-0.105-0.005C13.34,8.924,13.31,8.93,13.277,8.938c-0.015,0.005-0.028,0.003-0.043,0.008l-2.519,0.94
		c-0.259,0.096-0.391,0.384-0.294,0.643s0.386,0.389,0.644,0.293l1.512-0.563c-0.841,1.825-2.639,3.038-4.673,3.038
		c-2.355,0-4.415-1.627-5.009-3.957c-0.068-0.268-0.338-0.433-0.607-0.36c-0.268,0.067-0.43,0.34-0.361,0.607
		c0.706,2.772,3.164,4.71,5.978,4.71c2.437,0,4.588-1.449,5.586-3.633l0.753,1.464c0.089,0.173,0.264,0.271,0.444,0.271
		c0.077,0,0.155-0.018,0.229-0.056C15.162,12.217,15.259,11.915,15.132,11.67z"/>
	<path style="fill:#FFFFFF;" d="M2.036,6.506C2.073,6.58,2.13,6.641,2.199,6.689C2.218,6.702,2.237,6.71,2.257,6.72
		c0.027,0.015,0.05,0.034,0.08,0.043c0.048,0.015,0.097,0.021,0.145,0.021c0.044,0,0.089-0.006,0.133-0.018l2.54-0.701
		c0.267-0.073,0.423-0.349,0.35-0.614s-0.35-0.423-0.615-0.35L3.33,5.532c0.881-1.722,2.614-2.828,4.573-2.828
		c2.278,0,4.264,1.494,4.941,3.717c0.081,0.264,0.362,0.415,0.624,0.333c0.265-0.08,0.413-0.359,0.333-0.624
		c-0.807-2.647-3.177-4.426-5.898-4.426c-2.334,0-4.399,1.313-5.452,3.354L1.764,3.615c-0.119-0.25-0.419-0.356-0.666-0.236
		C0.849,3.498,0.742,3.796,0.861,4.045L2.03,6.499C2.031,6.502,2.035,6.503,2.036,6.506z"/>
</g>
</svg>
