<?xml version="1.0" encoding="utf-8"?>
<!-- Generator: Adobe Illustrator 19.1.1, SVG Export Plug-In . SVG Version: 6.00 Build 0)  -->
<svg version="1.1" id="Layer_1" xmlns="http://www.w3.org/2000/svg" xmlns:xlink="http://www.w3.org/1999/xlink" x="0px" y="0px"
	 viewBox="0 0 16 16" style="enable-background:new 0 0 16 16;" xml:space="preserve">
<style type="text/css">
	.st0{fill:#030202;}
</style>
<path class="st0" d="M15.8,3.3c-0.1,0-0.2,0-0.3,0L8.1,7.8V3.4c0-0.1,0-0.2-0.1-0.2c-0.1,0-0.2,0-0.3,0L0.2,7.7
	C0.1,7.7,0.1,7.8,0,7.9c0,0.1,0,0.2,0.1,0.2l7.6,4.6c0,0,0.1,0,0.1,0c0,0,0.1,0,0.1,0c0.1,0,0.1-0.1,0.1-0.2V8.4l7.4,4.4
	c0,0,0.1,0,0.1,0c0,0,0.1,0,0.1,0c0.1,0,0.1-0.1,0.1-0.2V3.5C16,3.4,15.9,3.3,15.8,3.3z M7.6,12.1L0.8,7.9l6.9-4.1V12.1z M15.5,12.2
	L8.6,8.1l6.9-4.2V12.2z"/>
</svg>
