<?xml version="1.0" encoding="iso-8859-1"?>
<!-- Generator: Adobe Illustrator 15.1.0, SVG Export Plug-In . SVG Version: 6.00 Build 0)  -->
<!DOCTYPE svg PUBLIC "-//W3C//DTD SVG 1.1//EN" "http://www.w3.org/Graphics/SVG/1.1/DTD/svg11.dtd">
<svg version="1.1" id="Layer_1" xmlns="http://www.w3.org/2000/svg" xmlns:xlink="http://www.w3.org/1999/xlink" x="0px" y="0px"
	 width="16px" height="16px" viewBox="0 0 16 16" style="enable-background:new 0 0 16 16;" xml:space="preserve">
<path style="fill:#FFFFFF;" d="M11.719,10.479c-0.588,0-1.12,0.238-1.507,0.624l-3.918-2.47c0.074-0.216,0.123-0.444,0.123-0.685
	c0-0.248-0.051-0.483-0.129-0.705l3.974-2.305c0.382,0.359,0.893,0.583,1.457,0.583c1.178,0,2.137-0.958,2.137-2.136
	S12.896,1.25,11.719,1.25S9.583,2.208,9.583,3.386c0,0.251,0.052,0.489,0.132,0.714L5.746,6.401C5.363,6.039,4.85,5.813,4.281,5.813
	c-1.178,0-2.137,0.958-2.137,2.136s0.959,2.136,2.137,2.136c0.576,0,1.098-0.231,1.482-0.604l3.933,2.479
	c-0.067,0.208-0.113,0.426-0.113,0.655c0,1.178,0.958,2.136,2.136,2.136s2.137-0.958,2.137-2.136S12.896,10.479,11.719,10.479z
	 M11.719,2.25c0.627,0,1.137,0.509,1.137,1.136s-0.51,1.136-1.137,1.136c-0.626,0-1.136-0.51-1.136-1.136S11.093,2.25,11.719,2.25z
	 M4.281,9.084c-0.627,0-1.137-0.509-1.137-1.136s0.51-1.136,1.137-1.136c0.626,0,1.136,0.509,1.136,1.136S4.907,9.084,4.281,9.084z
	 M11.719,13.75c-0.626,0-1.136-0.51-1.136-1.136s0.51-1.136,1.136-1.136c0.627,0,1.137,0.51,1.137,1.136S12.346,13.75,11.719,13.75z
	"/>
</svg>
