<?xml version="1.0" encoding="iso-8859-1"?>
<!-- Generator: Adobe Illustrator 15.1.0, SVG Export Plug-In . SVG Version: 6.00 Build 0)  -->
<!DOCTYPE svg PUBLIC "-//W3C//DTD SVG 1.1//EN" "http://www.w3.org/Graphics/SVG/1.1/DTD/svg11.dtd">
<svg version="1.1" id="Layer_1" xmlns="http://www.w3.org/2000/svg" xmlns:xlink="http://www.w3.org/1999/xlink" x="0px" y="0px"
	 width="16px" height="16px" viewBox="0 0 16 16" style="enable-background:new 0 0 16 16;" xml:space="preserve">
<g>
	<path style="fill:#FFFFFF;" d="M2.829,12.235c-0.276,0-0.5,0.224-0.5,0.5v1.39c0,0.276,0.224,0.5,0.5,0.5s0.5-0.224,0.5-0.5v-1.39
		C3.329,12.459,3.105,12.235,2.829,12.235z"/>
	<path style="fill:#FFFFFF;" d="M5.381,11.201c-0.276,0-0.5,0.223-0.5,0.5v2.424c0,0.276,0.224,0.5,0.5,0.5s0.5-0.224,0.5-0.5
		v-2.424C5.881,11.424,5.658,11.201,5.381,11.201z"/>
	<path style="fill:#FFFFFF;" d="M8.064,9.649c-0.276,0-0.5,0.224-0.5,0.5v3.976c0,0.277,0.224,0.5,0.5,0.5s0.5-0.223,0.5-0.5v-3.976
		C8.564,9.873,8.34,9.649,8.064,9.649z"/>
	<path style="fill:#FFFFFF;" d="M10.553,6.546c-0.275,0-0.5,0.224-0.5,0.5v7.079c0,0.275,0.225,0.5,0.5,0.5
		c0.277,0,0.5-0.225,0.5-0.5V7.046C11.053,6.77,10.83,6.546,10.553,6.546z"/>
	<path style="fill:#FFFFFF;" d="M13.172,1.375c-0.277,0-0.5,0.224-0.5,0.5v12.25c0,0.276,0.223,0.5,0.5,0.5
		c0.275,0,0.5-0.224,0.5-0.5V1.875C13.672,1.599,13.447,1.375,13.172,1.375z"/>
</g>
</svg>
