<?xml version="1.0" encoding="iso-8859-1"?>
<!-- Generator: Adobe Illustrator 15.1.0, SVG Export Plug-In . SVG Version: 6.00 Build 0)  -->
<!DOCTYPE svg PUBLIC "-//W3C//DTD SVG 1.1//EN" "http://www.w3.org/Graphics/SVG/1.1/DTD/svg11.dtd">
<svg version="1.1" id="Layer_1" xmlns="http://www.w3.org/2000/svg" xmlns:xlink="http://www.w3.org/1999/xlink" x="0px" y="0px"
	 width="16px" height="16px" viewBox="0 0 16 16" style="enable-background:new 0 0 16 16;" xml:space="preserve">
<g>
	<path style="fill:#FFFFFF;" d="M13.469,1.333H4.635c-0.276,0-0.5,0.224-0.5,0.5v3.729c0,0.276,0.224,0.5,0.5,0.5s0.5-0.224,0.5-0.5
		V2.333h7.833v11.333H5.135v-3.541c0-0.277-0.224-0.5-0.5-0.5s-0.5,0.223-0.5,0.5v4.041c0,0.277,0.224,0.5,0.5,0.5h8.833
		c0.275,0,0.5-0.223,0.5-0.5V1.833C13.969,1.557,13.744,1.333,13.469,1.333z"/>
	<path style="fill:#FFFFFF;" d="M6.492,11.104c-0.195,0.195-0.195,0.512,0,0.707c0.098,0.098,0.226,0.146,0.354,0.146
		s0.256-0.049,0.354-0.146l3.457-3.457c0.195-0.195,0.195-0.512,0-0.707L7.199,4.189c-0.195-0.195-0.512-0.195-0.707,0
		s-0.195,0.512,0,0.707L9.096,7.5H2.532c-0.276,0-0.5,0.224-0.5,0.5s0.224,0.5,0.5,0.5h6.564L6.492,11.104z"/>
</g>
</svg>
