<?xml version="1.0" encoding="utf-8"?>
<!-- Generator: Adobe Illustrator 19.0.0, SVG Export Plug-In . SVG Version: 6.00 Build 0)  -->
<svg version="1.1" id="Layer_1" xmlns="http://www.w3.org/2000/svg" xmlns:xlink="http://www.w3.org/1999/xlink" x="0px" y="0px"
	 viewBox="0 0 16 16" style="enable-background:new 0 0 16 16;" xml:space="preserve">
<g>
	<polygon id="XMLID_5_" points="15.8,8.3 15.8,7.7 13.8,7.7 16,5.6 15.6,5.2 13.1,7.7 8.3,7.7 8.3,2.9 10.8,0.4 10.4,0 8.3,2.2 
		8.3,0.2 7.7,0.2 7.7,2.2 5.6,0 5.2,0.4 7.7,2.9 7.7,7.7 2.9,7.7 0.4,5.2 0,5.6 2.2,7.7 0.2,7.7 0.2,8.3 2.2,8.3 0,10.4 0.4,10.8 
		2.9,8.3 7.7,8.3 7.7,13.1 5.2,15.6 5.6,16 7.7,13.8 7.7,15.8 8.3,15.8 8.3,13.8 10.4,16 10.8,15.6 8.3,13.1 8.3,8.3 13.1,8.3 
		15.6,10.8 16,10.4 13.8,8.3 	"/>
	<rect id="XMLID_4_" x="2.2" y="3.8" transform="matrix(0.7071 0.7071 -0.7071 0.7071 4.092 -1.6947)" width="3.7" height="0.5"/>
	
		<rect id="XMLID_3_" x="10.1" y="11.6" transform="matrix(-0.7071 -0.7071 0.7071 -0.7071 11.9071 28.7478)" width="3.7" height="0.5"/>
	<rect id="XMLID_2_" x="2.2" y="11.6" transform="matrix(0.7071 -0.7071 0.7071 0.7071 -7.2218 6.3812)" width="3.7" height="0.5"/>
	
		<rect id="XMLID_1_" x="10.1" y="3.8" transform="matrix(-0.7071 0.7071 -0.7071 -0.7071 23.2209 -1.434)" width="3.7" height="0.5"/>
</g>
</svg>
