<?xml version="1.0" encoding="utf-8"?>
<!-- Generator: Adobe Illustrator 19.1.1, SVG Export Plug-In . SVG Version: 6.00 Build 0)  -->
<svg version="1.1" id="Layer_1" xmlns="http://www.w3.org/2000/svg" xmlns:xlink="http://www.w3.org/1999/xlink" x="0px" y="0px"
	 viewBox="0 0 16 16" style="enable-background:new 0 0 16 16;" xml:space="preserve">
<style type="text/css">
	.st0{fill:#030202;}
</style>
<g>
	<path class="st0" d="M12.8,15.6c-0.1,0-0.1,0-0.1,0L8,12.2l-4.6,3.4c-0.1,0.1-0.2,0.1-0.3,0C3,15.5,2.9,15.4,3,15.3l1.8-5.5
		L0.1,6.4C0,6.4,0,6.3,0,6.2C0,6.1,0.1,6,0.2,6H6l1.8-5.5c0.1-0.2,0.4-0.2,0.5,0L10,6h5.7C15.9,6,16,6.1,16,6.2c0,0.1,0,0.2-0.1,0.3
		l-4.6,3.4l1.8,5.5c0,0.1,0,0.2-0.1,0.3C12.9,15.6,12.8,15.6,12.8,15.6z M8,11.6c0.1,0,0.1,0,0.1,0l4.2,3l-1.6-4.9
		c0-0.1,0-0.2,0.1-0.3l4.2-3H9.8c-0.1,0-0.2-0.1-0.2-0.2L8,1.4L6.4,6.3c0,0.1-0.1,0.2-0.2,0.2H1l4.2,3c0.1,0.1,0.1,0.2,0.1,0.3
		l-1.6,4.9l4.2-3C7.9,11.7,7.9,11.6,8,11.6z"/>
</g>
</svg>
