<?xml version="1.0" encoding="utf-8"?>
<!-- Generator: Adobe Illustrator 19.1.1, SVG Export Plug-In . SVG Version: 6.00 Build 0)  -->
<svg version="1.1" id="Layer_1" xmlns="http://www.w3.org/2000/svg" xmlns:xlink="http://www.w3.org/1999/xlink" x="0px" y="0px"
	 viewBox="0 0 16 16" style="enable-background:new 0 0 16 16;" xml:space="preserve">
<style type="text/css">
	.st0{fill:#030202;}
</style>
<g>
	<path class="st0" d="M8,3.7C5.6,3.7,3.7,5.6,3.7,8c0,2.4,1.9,4.3,4.3,4.3c2.4,0,4.3-1.9,4.3-4.3C12.3,5.6,10.4,3.7,8,3.7z M8,11.8
		c-2.1,0-3.8-1.7-3.8-3.8c0-2.1,1.7-3.8,3.8-3.8c2.1,0,3.8,1.7,3.8,3.8C11.8,10.1,10.1,11.8,8,11.8z"/>
	<rect x="7.7" y="0" class="st0" width="0.5" height="2.7"/>
	<rect x="7.7" y="13.3" class="st0" width="0.5" height="2.7"/>
	<rect x="0" y="7.7" class="st0" width="2.7" height="0.5"/>
	<rect x="13.3" y="7.7" class="st0" width="2.7" height="0.5"/>
	<rect x="12.5" y="1.9" transform="matrix(0.7062 0.708 -0.708 0.7062 6.0473 -8.0673)" class="st0" width="0.5" height="2.7"/>
	<rect x="3" y="11.4" transform="matrix(-0.7079 -0.7063 0.7063 -0.7079 -3.454 24.0668)" class="st0" width="0.5" height="2.7"/>
	<rect x="1.9" y="3" transform="matrix(0.7071 0.7071 -0.7071 0.7071 3.2515 -1.3448)" class="st0" width="2.7" height="0.5"/>
	
		<rect x="11.4" y="12.5" transform="matrix(-0.7073 -0.7069 0.7069 -0.7073 12.7452 30.7725)" class="st0" width="2.7" height="0.5"/>
</g>
</svg>
