<?xml version="1.0" encoding="iso-8859-1"?>
<!-- Generator: Adobe Illustrator 15.1.0, SVG Export Plug-In . SVG Version: 6.00 Build 0)  -->
<!DOCTYPE svg PUBLIC "-//W3C//DTD SVG 1.1//EN" "http://www.w3.org/Graphics/SVG/1.1/DTD/svg11.dtd">
<svg version="1.1" id="Layer_1" xmlns="http://www.w3.org/2000/svg" xmlns:xlink="http://www.w3.org/1999/xlink" x="0px" y="0px"
	 width="16px" height="16px" viewBox="0 0 16 16" style="enable-background:new 0 0 16 16;" xml:space="preserve">
<g>
	<path style="fill:#FFFFFF;" d="M6.178,9.85L8.61,6.561c0.164-0.222,0.117-0.535-0.105-0.699c-0.219-0.16-0.533-0.117-0.699,0.105
		L5.556,9.01L3.349,6.032C3.185,5.811,2.873,5.765,2.65,5.928C2.428,6.092,2.381,6.406,2.546,6.627l2.389,3.224l-2.718,3.676
		c-0.164,0.221-0.117,0.535,0.105,0.699c0.089,0.064,0.193,0.098,0.297,0.098c0.152,0,0.304-0.07,0.402-0.203l2.535-3.43
		l2.445,3.299c0.098,0.133,0.249,0.203,0.401,0.203c0.104,0,0.208-0.033,0.298-0.1c0.222-0.164,0.269-0.477,0.104-0.699L6.178,9.85z
		"/>
	<path style="fill:#FFFFFF;" d="M10.734,6.979c0.187-0.521,0.849-0.936,1.344-1.245c0.102-0.063,0.197-0.123,0.28-0.178
		c0.741-0.476,1.498-1.103,1.498-2.143c0-1.056-0.746-1.737-1.9-1.737c-0.582,0-1.069,0.184-1.409,0.53
		c-0.374,0.382-0.563,0.944-0.549,1.627l0.003,0.122h0.766l-0.004-0.129c-0.015-0.491,0.113-0.903,0.361-1.159
		c0.198-0.204,0.47-0.308,0.807-0.308c0.577,0,1.16,0.323,1.16,1.045c0,0.399-0.123,0.678-0.439,0.992
		c-0.286,0.286-0.641,0.521-1.017,0.771C10.772,5.739,9.882,6.33,9.857,7.576L9.854,7.704h4.026V6.979H10.734z"/>
</g>
</svg>
