<?xml version="1.0" encoding="iso-8859-1"?>
<!-- Generator: Adobe Illustrator 15.1.0, SVG Export Plug-In . SVG Version: 6.00 Build 0)  -->
<!DOCTYPE svg PUBLIC "-//W3C//DTD SVG 1.1//EN" "http://www.w3.org/Graphics/SVG/1.1/DTD/svg11.dtd">
<svg version="1.1" id="Layer_1" xmlns="http://www.w3.org/2000/svg" xmlns:xlink="http://www.w3.org/1999/xlink" x="0px" y="0px"
	 width="16px" height="16px" viewBox="0 0 16 16" style="enable-background:new 0 0 16 16;" xml:space="preserve">
<g>
	<path style="fill:#FFFFFF;" d="M11.799,8.861c-0.098,0-0.193,0.012-0.285,0.032c-0.205-0.524-0.857-0.885-1.494-0.741
		C9.828,7.636,9.221,7.271,8.591,7.375V5.616c0-0.658-0.545-1.194-1.294-1.194c-0.67,0-1.215,0.536-1.215,1.194v4.955l-0.325-0.315
		C5.3,9.813,4.564,9.758,3.996,10.312c-0.232,0.227-0.36,0.527-0.36,0.849c0,0.322,0.128,0.623,0.339,0.828l2.191,2.406
		c0.203,0.234,0.498,0.368,0.81,0.368h5.046c0.547,0,0.998-0.409,1.057-0.944c0.01-0.038,0.014-0.077,0.014-0.118v-3.645
		C13.092,9.397,12.547,8.861,11.799,8.861z M12.092,13.625c-0.004,0.029-0.008,0.059-0.008,0.089c0,0.027-0.027,0.049-0.063,0.049
		l-5.109-0.033l-2.22-2.437c-0.048-0.047-0.058-0.098-0.058-0.133c0-0.034,0.01-0.085,0.113-0.187
		c0.055-0.054,0.121-0.062,0.156-0.062c0.034,0,0.102,0.009,0.156,0.062l1.173,1.139c0.145,0.141,0.359,0.181,0.543,0.103
		c0.186-0.079,0.306-0.26,0.306-0.461V5.616c0-0.107,0.097-0.194,0.295-0.194c0.118,0,0.214,0.087,0.214,0.194v2.83
		c0,0.261,0.2,0.478,0.46,0.498c0.271,0.015,0.492-0.162,0.533-0.418C8.6,8.431,8.692,8.358,8.877,8.358
		c0.118,0,0.214,0.087,0.214,0.194v0.656c0,0.261,0.199,0.478,0.459,0.498c0.268,0.02,0.492-0.162,0.533-0.418
		c0.016-0.096,0.107-0.168,0.293-0.168c0.119,0,0.215,0.087,0.215,0.194v0.634c0,0.261,0.201,0.478,0.461,0.498
		c0.264,0.022,0.492-0.163,0.533-0.42c0.016-0.095,0.105-0.166,0.293-0.166c0.117,0,0.213,0.087,0.213,0.194V13.625z"/>
	<path style="fill:#FFFFFF;" d="M5.305,5.183c0-0.276-0.224-0.5-0.5-0.5H3.408c-0.276,0-0.5,0.224-0.5,0.5s0.224,0.5,0.5,0.5h1.397
		C5.082,5.683,5.305,5.459,5.305,5.183z"/>
	<path style="fill:#FFFFFF;" d="M7.352,3.594c0.276,0,0.5-0.224,0.5-0.5V1.737c0-0.276-0.224-0.5-0.5-0.5s-0.5,0.224-0.5,0.5v1.356
		C6.852,3.37,7.076,3.594,7.352,3.594z"/>
	<path style="fill:#FFFFFF;" d="M5.408,4.126l0.008,0.007c0,0,0.032,0.031,0.033,0.032c0.074,0.072,0.163,0.114,0.256,0.128
		c0.036,0.009,0.073,0.013,0.111,0.013c0.276,0,0.5-0.224,0.5-0.5c0-0.184-0.099-0.344-0.245-0.431L5.155,2.486
		C4.955,2.294,4.639,2.3,4.449,2.499C4.257,2.697,4.262,3.014,4.459,3.205L5.408,4.126z"/>
	<path style="fill:#FFFFFF;" d="M9.363,5.183c0,0.276,0.225,0.5,0.5,0.5h1.398c0.275,0,0.5-0.224,0.5-0.5s-0.225-0.5-0.5-0.5H9.863
		C9.588,4.683,9.363,4.906,9.363,5.183z"/>
	<path style="fill:#FFFFFF;" d="M8.873,4.306c0.125,0,0.25-0.047,0.348-0.141l0.988-0.96c0.197-0.191,0.203-0.508,0.012-0.706
		C10.029,2.3,9.711,2.296,9.514,2.486l-0.99,0.961C8.327,3.639,8.322,3.955,8.513,4.153C8.612,4.255,8.742,4.306,8.873,4.306z"/>
</g>
</svg>
