<?xml version="1.0" encoding="iso-8859-1"?>
<!-- Generator: Adobe Illustrator 15.1.0, SVG Export Plug-In . SVG Version: 6.00 Build 0)  -->
<!DOCTYPE svg PUBLIC "-//W3C//DTD SVG 1.1//EN" "http://www.w3.org/Graphics/SVG/1.1/DTD/svg11.dtd">
<svg version="1.1" id="Layer_1" xmlns="http://www.w3.org/2000/svg" xmlns:xlink="http://www.w3.org/1999/xlink" x="0px" y="0px"
	 width="16px" height="16px" viewBox="0 0 16 16" style="enable-background:new 0 0 16 16;" xml:space="preserve">
<path style="fill:#FFFFFF;" d="M15.063,0.688H0.938c-0.138,0-0.25,0.112-0.25,0.25v14.125c0,0.139,0.112,0.25,0.25,0.25h14.125
	c0.138,0,0.25-0.111,0.25-0.25V0.938C15.313,0.8,15.2,0.688,15.063,0.688z M5.207,14.247H1.752v-3.454h3.455V14.247z M5.207,9.729
	H1.752V6.271h3.455V9.729z M5.207,5.207H1.752V1.752h3.455V5.207z M9.727,14.247H6.271v-3.454h3.455V14.247z M9.727,9.729H6.271
	V6.271h3.455V9.729z M9.727,5.207H6.271V1.752h3.455V5.207z M14.247,14.247h-3.455v-3.454h3.455V14.247z M14.247,9.729h-3.455V6.271
	h3.455V9.729z M14.247,5.207h-3.455V1.752h3.455V5.207z"/>
</svg>
