<?xml version="1.0" encoding="iso-8859-1"?>
<!-- Generator: Adobe Illustrator 15.1.0, SVG Export Plug-In . SVG Version: 6.00 Build 0)  -->
<!DOCTYPE svg PUBLIC "-//W3C//DTD SVG 1.1//EN" "http://www.w3.org/Graphics/SVG/1.1/DTD/svg11.dtd">
<svg version="1.1" id="Layer_1" xmlns="http://www.w3.org/2000/svg" xmlns:xlink="http://www.w3.org/1999/xlink" x="0px" y="0px"
	 width="16px" height="16px" viewBox="0 0 16 16" style="enable-background:new 0 0 16 16;" xml:space="preserve">
<path style="fill:#FFFFFF;" d="M14.705,6.717c0.017-0.402-0.104-0.79-0.359-1.153c0.12-0.399,0.252-1.274-0.535-2.056
	c0.025-0.296-0.005-0.692-0.227-1.093c-0.331-0.593-0.965-0.992-1.885-1.188c-0.599-0.125-1.41-0.153-2.271-0.081
	C7.62,1.102,5.856,1.328,5.661,1.354L5.127,1.435c-0.224-0.144-0.479-0.22-0.747-0.22H2.679c-0.764,0-1.386,0.622-1.386,1.386v4.532
	c0,0.764,0.622,1.385,1.386,1.385H4.38c0.152,0,0.303-0.025,0.445-0.074c0.134,0.251,0.298,0.48,0.488,0.681l0.071,0.064
	c0.731,0.563,1.696,2.637,2.183,3.932c-0.041,0.395-0.046,1.053,0.293,1.447c0.179,0.209,0.431,0.324,0.708,0.324
	c0.242,0,1.075-0.057,1.6-0.781c0.484-0.668,0.52-1.646,0.104-2.906c-0.211-0.64-0.293-1.035-0.323-1.271
	c0.054,0.011,0.105,0.021,0.155,0.029c0.142,0.031,0.894,0.191,1.726,0.191c0.944,0,1.646-0.203,2.087-0.605
	c0.719-0.658,0.575-1.472,0.453-1.849C14.528,7.465,14.688,7.129,14.705,6.717z M13.16,7.927c0.063,0.103,0.244,0.461-0.055,0.734
	c-0.202,0.185-0.648,0.286-1.258,0.286c-0.602,0-1.204-0.097-1.508-0.164c-0.151-0.027-0.312-0.06-0.447-0.089
	C9.617,8.594,9.277,8.649,9.057,8.847C8.602,9.25,8.624,10.043,9.131,11.58c0.279,0.85,0.303,1.498,0.064,1.826
	C9.076,13.57,8.9,13.641,8.761,13.67c-0.014-0.133-0.016-0.336,0.015-0.529c0.016-0.101,0.005-0.203-0.029-0.296
	C8.694,12.7,7.451,9.292,6.172,8.284c-0.268-0.289-0.396-0.625-0.45-0.805C5.751,7.367,5.766,7.25,5.766,7.133V2.6
	c0-0.015,0-0.03-0.001-0.045l0.069-0.011c0.015-0.002,1.558-0.2,3.188-0.2c0.132,0,0.265,0.001,0.384,0.004l0.055,0l0.02-0.002
	c0.821-0.064,1.489-0.045,1.969,0.058c0.562,0.12,0.925,0.319,1.08,0.591c0.149,0.263,0.063,0.543,0.063,0.543
	c-0.089,0.249-0.006,0.522,0.206,0.681c0.663,0.499,0.395,1.037,0.336,1.137c-0.14,0.231-0.105,0.529,0.082,0.724
	c0.196,0.206,0.293,0.403,0.287,0.586c-0.008,0.273-0.239,0.497-0.239,0.497C13.047,7.361,13.005,7.685,13.16,7.927z M2.496,2.6
	c0-0.101,0.082-0.183,0.184-0.183H4.38c0.102,0,0.185,0.082,0.185,0.183L4.559,7.133c-0.021,0.041-0.038,0.084-0.05,0.129
	C4.475,7.296,4.429,7.316,4.38,7.316H2.679c-0.102,0-0.184-0.082-0.184-0.183V2.6z"/>
</svg>
