<?xml version="1.0" encoding="iso-8859-1"?>
<!-- Generator: Adobe Illustrator 15.1.0, SVG Export Plug-In . SVG Version: 6.00 Build 0)  -->
<!DOCTYPE svg PUBLIC "-//W3C//DTD SVG 1.1//EN" "http://www.w3.org/Graphics/SVG/1.1/DTD/svg11.dtd">
<svg version="1.1" id="Layer_1" xmlns="http://www.w3.org/2000/svg" xmlns:xlink="http://www.w3.org/1999/xlink" x="0px" y="0px"
	 width="16px" height="16px" viewBox="0 0 16 16" style="enable-background:new 0 0 16 16;" xml:space="preserve">
<path style="fill:#FFFFFF;" d="M14.346,10.436c0.254-0.362,0.375-0.749,0.359-1.15c-0.016-0.412-0.176-0.749-0.335-0.984
	c0.123-0.378,0.268-1.191-0.454-1.849c-0.439-0.402-1.141-0.605-2.085-0.605c-0.83,0-1.584,0.16-1.719,0.189
	c-0.054,0.01-0.108,0.02-0.163,0.03c0.03-0.234,0.112-0.631,0.323-1.271c0.415-1.261,0.38-2.239-0.104-2.906
	c-0.525-0.726-1.357-0.782-1.6-0.782c-0.28,0-0.524,0.111-0.709,0.324C7.522,1.828,7.526,2.486,7.567,2.881
	C7.082,4.175,6.118,6.248,5.38,6.814L5.317,6.872C5.128,7.07,4.963,7.301,4.827,7.557C4.684,7.508,4.532,7.482,4.381,7.482H2.679
	c-0.764,0-1.385,0.622-1.385,1.386V13.4c0,0.764,0.621,1.385,1.385,1.385h1.702c0.268,0,0.523-0.076,0.747-0.22l0.545,0.082
	c0.016,0.003,1.583,0.211,3.332,0.211c0.141,0,0.281-0.001,0.398-0.005c0.34,0.026,0.658,0.039,0.953,0.039
	c0.517,0,0.969-0.04,1.344-0.12c0.92-0.196,1.554-0.596,1.883-1.188c0.223-0.4,0.253-0.797,0.228-1.092
	C14.598,11.711,14.466,10.835,14.346,10.436z M9.421,13.652c-1.595,0.033-3.162-0.144-3.582-0.194l-0.072-0.011
	c0.001-0.016,0.001-0.031,0.001-0.047V8.868c0-0.115-0.016-0.231-0.046-0.346c0.062-0.202,0.19-0.524,0.423-0.779
	c1.221-0.967,2.38-3.982,2.604-4.589C8.781,3.06,8.791,2.958,8.776,2.859C8.746,2.66,8.748,2.457,8.759,2.33
	c0.14,0.03,0.318,0.101,0.438,0.265C9.434,2.923,9.41,3.571,9.131,4.42C8.624,5.958,8.603,6.75,9.057,7.152
	c0.147,0.132,0.34,0.204,0.542,0.204c0.101,0,0.202-0.018,0.265-0.043c0.165-0.037,0.325-0.069,0.519-0.106
	c0.264-0.057,0.868-0.154,1.467-0.154c0.609,0,1.056,0.102,1.257,0.286c0.31,0.283,0.101,0.66,0.059,0.729
	c-0.159,0.246-0.117,0.57,0.101,0.771c0.003,0.002,0.23,0.223,0.239,0.497c0.007,0.182-0.09,0.379-0.287,0.584
	c-0.187,0.195-0.221,0.492-0.084,0.723c0.061,0.102,0.329,0.641-0.335,1.139c-0.211,0.159-0.294,0.433-0.208,0.674
	c0.004,0.012,0.09,0.286-0.061,0.551c-0.154,0.27-0.527,0.474-1.079,0.59c-0.482,0.104-1.156,0.123-1.967,0.059l-0.061-0.002H9.421z
	 M2.496,8.868c0-0.1,0.084-0.184,0.183-0.184h1.702c0.048,0,0.094,0.02,0.129,0.053c0.012,0.049,0.03,0.095,0.055,0.139V13.4
	c0,0.101-0.082,0.183-0.184,0.183H2.679c-0.101,0-0.183-0.082-0.183-0.183V8.868z"/>
</svg>
