<?xml version="1.0" encoding="utf-8"?>
<!-- Generator: Adobe Illustrator 19.0.0, SVG Export Plug-In . SVG Version: 6.00 Build 0)  -->
<svg version="1.1" id="Layer_1" xmlns="http://www.w3.org/2000/svg" xmlns:xlink="http://www.w3.org/1999/xlink" x="0px" y="0px"
	 viewBox="0 0 16 16" style="enable-background:new 0 0 16 16;" xml:space="preserve">
<path d="M13.1,2.6h-2.3C10.7,1.2,9.5,0,8,0S5.3,1.2,5.2,2.6H2.9c-0.1,0-0.3,0.1-0.3,0.3v12.8c0,0.1,0.1,0.3,0.3,0.3h10.3
	c0.1,0,0.3-0.1,0.3-0.3V2.9C13.4,2.7,13.3,2.6,13.1,2.6z M8,0.5c1.2,0,2.2,0.9,2.3,2.1H5.7C5.8,1.5,6.8,0.5,8,0.5z M12.9,3.1v2.1
	H3.1V3.1H12.9z M7.7,5.7v9.8H5.7V5.7H7.7z M8.3,5.7h2.1v9.8H8.3V5.7z M3.1,5.7h2.1v9.8H3.1V5.7z M10.8,15.5V5.7h2.1v9.8H10.8z"/>
</svg>
