<?xml version="1.0" encoding="iso-8859-1"?>
<!-- Generator: Adobe Illustrator 15.1.0, SVG Export Plug-In . SVG Version: 6.00 Build 0)  -->
<!DOCTYPE svg PUBLIC "-//W3C//DTD SVG 1.1//EN" "http://www.w3.org/Graphics/SVG/1.1/DTD/svg11.dtd">
<svg version="1.1" id="Layer_1" xmlns="http://www.w3.org/2000/svg" xmlns:xlink="http://www.w3.org/1999/xlink" x="0px" y="0px"
	 width="16px" height="16px" viewBox="0 0 16 16" style="enable-background:new 0 0 16 16;" xml:space="preserve">
<g>
	<path style="fill:#FFFFFF;" d="M13.334,10.878c-0.277,0-0.5,0.224-0.5,0.5v1.837H3.167v-1.837c0-0.276-0.224-0.5-0.5-0.5
		s-0.5,0.224-0.5,0.5v2.337c0,0.276,0.224,0.5,0.5,0.5h10.667c0.275,0,0.5-0.224,0.5-0.5v-2.337
		C13.834,11.102,13.609,10.878,13.334,10.878z"/>
	<path style="fill:#FFFFFF;" d="M4.956,5.743c0.125,0,0.25-0.047,0.348-0.141l2.214-2.14v7.915c0,0.276,0.224,0.5,0.5,0.5
		s0.5-0.224,0.5-0.5V3.465l2.213,2.139c0.199,0.191,0.516,0.185,0.707-0.013c0.193-0.198,0.188-0.516-0.012-0.707l-3.054-2.95
		C8.371,1.933,8.37,1.932,8.369,1.931L8.364,1.926C8.35,1.912,8.333,1.907,8.317,1.896C8.282,1.868,8.247,1.84,8.204,1.823
		c-0.048-0.02-0.098-0.026-0.148-0.03C8.042,1.792,8.031,1.785,8.017,1.785L8.016,1.786C7.952,1.785,7.887,1.799,7.827,1.824
		C7.8,1.834,7.781,1.854,7.758,1.868C7.728,1.887,7.695,1.9,7.668,1.926L4.608,4.884C4.41,5.076,4.404,5.393,4.596,5.591
		C4.694,5.692,4.825,5.743,4.956,5.743z"/>
</g>
</svg>
