<?xml version="1.0" encoding="iso-8859-1"?>
<!-- Generator: Adobe Illustrator 15.1.0, SVG Export Plug-In . SVG Version: 6.00 Build 0)  -->
<!DOCTYPE svg PUBLIC "-//W3C//DTD SVG 1.1//EN" "http://www.w3.org/Graphics/SVG/1.1/DTD/svg11.dtd">
<svg version="1.1" id="Layer_1" xmlns="http://www.w3.org/2000/svg" xmlns:xlink="http://www.w3.org/1999/xlink" x="0px" y="0px"
	 width="16px" height="16px" viewBox="0 0 16 16" style="enable-background:new 0 0 16 16;" xml:space="preserve">
<path style="fill:#FFFFFF;" d="M14.306,11.853c-0.064-0.118-0.174-0.205-0.303-0.241l-4.072-1.146v-0.154
	c1.523-0.726,2.498-2.294,2.498-4.102c0-2.506-2.038-4.544-4.543-4.544c-2.505,0-4.543,2.038-4.543,4.544
	c0,1.806,1.09,3.435,2.728,4.151v0.194l-4.063,1.054c-0.13,0.034-0.241,0.119-0.308,0.235c-0.067,0.117-0.084,0.256-0.048,0.385
	l0.492,1.742c0.062,0.216,0.258,0.364,0.481,0.364h10.716c0.221,0,0.415-0.145,0.479-0.355l0.525-1.742
	C14.385,12.108,14.37,11.97,14.306,11.853z M12.971,13.335H3.003l-0.25-0.887l3.942-1.022c0.22-0.058,0.374-0.257,0.374-0.484v-0.92
	c0-0.24-0.173-0.432-0.398-0.479C6.667,9.54,6.664,9.536,6.659,9.534C5.273,9.023,4.342,7.688,4.342,6.209
	c0-1.954,1.59-3.544,3.543-3.544c1.954,0,3.543,1.59,3.543,3.544c0,1.528-0.822,2.795-2.145,3.306
	c-0.16,0.062-0.261,0.199-0.298,0.354C8.953,9.936,8.93,10.008,8.93,10.088v0.756c0,0.224,0.149,0.421,0.365,0.481l3.946,1.111
	L12.971,13.335z"/>
</svg>
