<?xml version="1.0" encoding="iso-8859-1"?>
<!-- Generator: Adobe Illustrator 15.1.0, SVG Export Plug-In . SVG Version: 6.00 Build 0)  -->
<!DOCTYPE svg PUBLIC "-//W3C//DTD SVG 1.1//EN" "http://www.w3.org/Graphics/SVG/1.1/DTD/svg11.dtd">
<svg version="1.1" id="Layer_1" xmlns="http://www.w3.org/2000/svg" xmlns:xlink="http://www.w3.org/1999/xlink" x="0px" y="0px"
	 width="16px" height="16px" viewBox="0 0 16 16" style="enable-background:new 0 0 16 16;" xml:space="preserve">
<path style="fill:#FFFFFF;" d="M14.258,3.116h-0.914c-0.137,0-0.266,0.055-0.361,0.152l-2.457,2.55V3.25c0-0.276-0.225-0.5-0.5-0.5
	H1.743c-0.276,0-0.5,0.224-0.5,0.5v9.5c0,0.275,0.224,0.5,0.5,0.5h8.283c0.275,0,0.5-0.225,0.5-0.5v-2.219l2.461,2.508
	c0.094,0.096,0.223,0.15,0.357,0.15h0.914c0.275,0,0.5-0.225,0.5-0.5V3.616C14.758,3.34,14.533,3.116,14.258,3.116z M13.758,12.189
	h-0.205L10.412,8.99c-0.191-0.197-0.508-0.2-0.707-0.007C9.65,9.037,9.613,9.101,9.59,9.168C9.551,9.238,9.525,9.314,9.525,9.4v2.85
	H2.243v-8.5h7.283v3.246c0,0.147,0.066,0.277,0.168,0.368C9.699,7.371,9.701,7.38,9.709,7.386c0.197,0.191,0.514,0.186,0.707-0.013
	l3.141-3.257h0.201V12.189z"/>
</svg>
