<?xml version="1.0" encoding="iso-8859-1"?>
<!-- Generator: Adobe Illustrator 15.1.0, SVG Export Plug-In . SVG Version: 6.00 Build 0)  -->
<!DOCTYPE svg PUBLIC "-//W3C//DTD SVG 1.1//EN" "http://www.w3.org/Graphics/SVG/1.1/DTD/svg11.dtd">
<svg version="1.1" id="Layer_1" xmlns="http://www.w3.org/2000/svg" xmlns:xlink="http://www.w3.org/1999/xlink" x="0px" y="0px"
	 width="16px" height="16px" viewBox="0 0 16 16" style="enable-background:new 0 0 16 16;" xml:space="preserve">
<g>
	<path style="fill:#FFFFFF;" d="M9.293,7.719H1.738c-0.276,0-0.5,0.224-0.5,0.5v4.791c0,0.276,0.224,0.5,0.5,0.5h7.555
		c0.277,0,0.5-0.224,0.5-0.5V8.219C9.793,7.942,9.57,7.719,9.293,7.719z M8.793,12.51H2.238V8.719h6.556V12.51z"/>
	<path style="fill:#FFFFFF;" d="M14.57,8.593c-0.121-0.095-0.283-0.13-0.428-0.092l-3.365,0.835
		c-0.223,0.056-0.379,0.256-0.379,0.485v1.613c0,0.231,0.158,0.433,0.383,0.486l3.363,0.808c0.039,0.009,0.078,0.014,0.117,0.014
		c0.111,0,0.221-0.037,0.311-0.107c0.119-0.095,0.189-0.239,0.189-0.393V8.986C14.762,8.832,14.691,8.688,14.57,8.593z
		 M13.762,11.608l-2.363-0.568v-0.828l2.363-0.586V11.608z"/>
	<path style="fill:#FFFFFF;" d="M3.124,7.012c0.927,0,1.681-0.732,1.681-1.632c0-0.9-0.754-1.633-1.681-1.633
		c-0.926,0-1.679,0.732-1.679,1.633C1.445,6.279,2.198,7.012,3.124,7.012z M3.124,4.747c0.375,0,0.681,0.284,0.681,0.633
		S3.499,6.012,3.124,6.012c-0.374,0-0.679-0.283-0.679-0.632S2.75,4.747,3.124,4.747z"/>
	<path style="fill:#FFFFFF;" d="M7.506,2.49c-1.288,0-2.336,1.015-2.336,2.261s1.048,2.26,2.336,2.26
		c1.287,0,2.335-1.014,2.335-2.26S8.793,2.49,7.506,2.49z M7.506,6.011c-0.736,0-1.336-0.565-1.336-1.26
		c0-0.695,0.6-1.261,1.336-1.261s1.335,0.565,1.335,1.261C8.841,5.445,8.243,6.011,7.506,6.011z"/>
</g>
</svg>
