<?xml version="1.0" encoding="iso-8859-1"?>
<!-- Generator: Adobe Illustrator 15.1.0, SVG Export Plug-In . SVG Version: 6.00 Build 0)  -->
<!DOCTYPE svg PUBLIC "-//W3C//DTD SVG 1.1//EN" "http://www.w3.org/Graphics/SVG/1.1/DTD/svg11.dtd">
<svg version="1.1" id="Layer_1" xmlns="http://www.w3.org/2000/svg" xmlns:xlink="http://www.w3.org/1999/xlink" x="0px" y="0px"
	 width="16px" height="16px" viewBox="0 0 16 16" style="enable-background:new 0 0 16 16;" xml:space="preserve">
<g>
	<path style="fill:#FFFFFF;" d="M13.077,2.746c-0.19-0.201-0.508-0.207-0.706-0.017c-0.2,0.19-0.208,0.507-0.017,0.707
		c1.081,1.134,1.701,2.797,1.701,4.563c0,1.768-0.62,3.431-1.701,4.564c-0.191,0.199-0.184,0.516,0.016,0.706
		c0.098,0.093,0.222,0.139,0.346,0.139c0.132,0,0.264-0.052,0.361-0.154c1.258-1.317,1.979-3.232,1.979-5.255
		C15.056,5.979,14.335,4.063,13.077,2.746z"/>
	<path style="fill:#FFFFFF;" d="M11.612,4.082c-0.198-0.192-0.515-0.189-0.707,0.008c-0.193,0.197-0.189,0.515,0.008,0.707
		C11.706,5.571,12.16,6.738,12.16,8s-0.454,2.429-1.247,3.203c-0.197,0.192-0.201,0.51-0.008,0.707c0.098,0.1,0.228,0.15,0.357,0.15
		c0.126,0,0.252-0.047,0.35-0.143C12.596,10.957,13.16,9.529,13.16,8S12.596,5.043,11.612,4.082z"/>
	<path style="fill:#FFFFFF;" d="M10.119,5.407C9.906,5.234,9.592,5.264,9.415,5.479C9.241,5.692,9.272,6.008,9.486,6.183
		C9.974,6.58,10.265,7.26,10.265,8c0,0.73-0.284,1.404-0.762,1.803C9.292,9.98,9.264,10.296,9.44,10.508
		c0.1,0.118,0.241,0.179,0.384,0.179c0.113,0,0.228-0.038,0.321-0.116c0.7-0.587,1.119-1.548,1.119-2.57
		C11.265,6.962,10.836,5.993,10.119,5.407z"/>
	<path style="fill:#FFFFFF;" d="M7.383,2.308C7.214,2.224,7.012,2.242,6.859,2.355L3.292,5.023H1.444c-0.276,0-0.5,0.224-0.5,0.5
		v4.953c0,0.276,0.224,0.5,0.5,0.5h1.848l3.567,2.668c0.089,0.066,0.193,0.1,0.3,0.1c0.076,0,0.153-0.018,0.224-0.053
		c0.17-0.085,0.276-0.258,0.276-0.447V2.755C7.659,2.566,7.553,2.393,7.383,2.308z M6.659,12.246l-2.901-2.17
		c-0.087-0.064-0.191-0.1-0.3-0.1H1.944V6.023h1.514c0.108,0,0.213-0.035,0.3-0.1l2.901-2.17V12.246z"/>
</g>
</svg>
