<?xml version="1.0" encoding="iso-8859-1"?>
<!-- Generator: Adobe Illustrator 15.1.0, SVG Export Plug-In . SVG Version: 6.00 Build 0)  -->
<!DOCTYPE svg PUBLIC "-//W3C//DTD SVG 1.1//EN" "http://www.w3.org/Graphics/SVG/1.1/DTD/svg11.dtd">
<svg version="1.1" id="Layer_1" xmlns="http://www.w3.org/2000/svg" xmlns:xlink="http://www.w3.org/1999/xlink" x="0px" y="0px"
	 width="16px" height="16px" viewBox="0 0 16 16" style="enable-background:new 0 0 16 16;" xml:space="preserve">
<path style="fill:#FDFEFF;" d="M14.641,4.277c-0.063-0.192-0.234-0.329-0.436-0.346l-2.727-0.225l-1.059-2.47
	c-0.156-0.368-0.762-0.368-0.918,0l-1.059,2.47L5.717,3.931C5.516,3.948,5.344,4.084,5.282,4.277C5.22,4.47,5.281,4.68,5.435,4.811
	L7.499,6.56L6.924,8.967L1.49,14.18c-0.199,0.191-0.206,0.508-0.015,0.707c0.098,0.102,0.229,0.153,0.361,0.153
	c0.125,0,0.249-0.046,0.346-0.14l5.404-5.184c0.01-0.005,0.022-0.003,0.032-0.009l2.342-1.391l2.342,1.391
	c0.173,0.103,0.391,0.092,0.552-0.026c0.161-0.119,0.236-0.324,0.19-0.52L12.424,6.56l2.063-1.749
	C14.642,4.68,14.702,4.47,14.641,4.277z M11.543,5.996c-0.144,0.122-0.207,0.314-0.163,0.498l0.418,1.752l-1.581-0.939
	c-0.079-0.047-0.168-0.07-0.256-0.07s-0.177,0.023-0.256,0.07L8.124,8.245l0.418-1.752C8.586,6.31,8.523,6.117,8.379,5.996
	L7.002,4.829l1.823-0.15C9.01,4.663,9.171,4.547,9.244,4.376l0.717-1.674l0.718,1.674c0.073,0.17,0.233,0.286,0.419,0.302
	l1.822,0.15L11.543,5.996z"/>
</svg>
