<?xml version="1.0" encoding="utf-8"?>
<!-- Generator: Adobe Illustrator 19.1.1, SVG Export Plug-In . SVG Version: 6.00 Build 0)  -->
<svg version="1.1" id="Layer_1" xmlns="http://www.w3.org/2000/svg" xmlns:xlink="http://www.w3.org/1999/xlink" x="0px" y="0px"
	 viewBox="0 0 16 16" style="enable-background:new 0 0 16 16;" xml:space="preserve">
<g>
	<path d="M12.1,8c0-1.2-0.5-2.2-1.3-3V1.3c0-0.7-0.6-1.3-1.3-1.3H6.5C5.7,0,5.2,0.6,5.2,1.3V5C4.4,5.8,3.9,6.8,3.9,8
		c0,1.2,0.5,2.2,1.3,3v3.7c0,0.7,0.6,1.3,1.3,1.3h3.1c0.7,0,1.3-0.6,1.3-1.3V11C11.6,10.2,12.1,9.2,12.1,8z M5.7,1.3
		c0-0.4,0.3-0.8,0.8-0.8h3.1c0.4,0,0.8,0.3,0.8,0.8v3.3C10.2,4.5,10,4.4,9.8,4.3c0,0,0,0-0.1,0C9.4,4.1,9.1,4,8.7,3.9
		c0,0-0.1,0-0.1,0c-0.2,0-0.4,0-0.6,0c-0.2,0-0.4,0-0.6,0c0,0-0.1,0-0.1,0C6.9,4,6.6,4.1,6.2,4.3c0,0,0,0-0.1,0
		C6,4.4,5.8,4.5,5.7,4.6V1.3z M4.4,8c0-1.1,0.5-2,1.2-2.7c0.1-0.1,0.1-0.1,0.2-0.2c0,0,0,0,0.1,0C5.9,5,6,5,6.1,4.9c0,0,0,0,0.1,0
		c0.1,0,0.1-0.1,0.2-0.1c0,0,0.1,0,0.1,0c0.1,0,0.1-0.1,0.2-0.1c0,0,0.1,0,0.1,0c0.1,0,0.1,0,0.2-0.1c0,0,0.1,0,0.1,0
		c0.1,0,0.1,0,0.2,0c0.1,0,0.1,0,0.2,0c0.1,0,0.1,0,0.2,0c0.1,0,0.2,0,0.3,0c0.1,0,0.2,0,0.3,0c0.1,0,0.1,0,0.2,0c0.1,0,0.1,0,0.2,0
		c0.1,0,0.1,0,0.2,0c0,0,0.1,0,0.1,0c0.1,0,0.1,0,0.2,0.1c0,0,0.1,0,0.1,0c0.1,0,0.1,0.1,0.2,0.1c0,0,0.1,0,0.1,0
		c0.1,0,0.1,0.1,0.2,0.1c0,0,0,0,0.1,0C10,5,10.1,5,10.1,5.1c0,0,0,0,0.1,0c0.1,0.1,0.1,0.1,0.2,0.2C11.1,6,11.6,6.9,11.6,8
		c0,1.1-0.5,2-1.2,2.7c-0.1,0.1-0.1,0.1-0.2,0.2c0,0,0,0-0.1,0C10.1,11,10,11,9.9,11.1c0,0,0,0-0.1,0c-0.1,0-0.1,0.1-0.2,0.1
		c0,0-0.1,0-0.1,0c-0.1,0-0.1,0.1-0.2,0.1c0,0-0.1,0-0.1,0c-0.1,0-0.1,0-0.2,0.1c0,0-0.1,0-0.1,0c-0.1,0-0.1,0-0.2,0
		c-0.1,0-0.1,0-0.2,0c-0.1,0-0.1,0-0.2,0c-0.1,0-0.2,0-0.3,0c-0.1,0-0.2,0-0.3,0c-0.1,0-0.1,0-0.2,0c-0.1,0-0.1,0-0.2,0
		c-0.1,0-0.1,0-0.2,0c0,0-0.1,0-0.1,0c-0.1,0-0.1,0-0.2-0.1c0,0-0.1,0-0.1,0c-0.1,0-0.1-0.1-0.2-0.1c0,0-0.1,0-0.1,0
		c-0.1,0-0.1-0.1-0.2-0.1c0,0,0,0-0.1,0C6,11,5.9,11,5.9,10.9c0,0,0,0-0.1,0c-0.1-0.1-0.1-0.1-0.2-0.2C4.9,10,4.4,9.1,4.4,8z
		 M10.3,14.7c0,0.4-0.3,0.8-0.8,0.8H6.5c-0.4,0-0.8-0.3-0.8-0.8v-3.3c0.7,0.5,1.5,0.7,2.3,0.7c0.9,0,1.7-0.3,2.3-0.7V14.7z"/>
	<path d="M8,8.5c0.3,0,0.5-0.2,0.5-0.5l2.2-1.1l-0.2-0.5L8.3,7.6C8.2,7.5,8.1,7.5,8,7.5c-0.1,0-0.2,0-0.3,0.1L5.5,6.5L5.3,6.9L7.5,8
		C7.5,8.3,7.7,8.5,8,8.5z"/>
</g>
</svg>
