<?xml version="1.0" encoding="utf-8"?>
<!-- Generator: Adobe Illustrator 19.1.1, SVG Export Plug-In . SVG Version: 6.00 Build 0)  -->
<svg version="1.1" id="Layer_1" xmlns="http://www.w3.org/2000/svg" xmlns:xlink="http://www.w3.org/1999/xlink" x="0px" y="0px"
	 viewBox="0 0 16 16" style="enable-background:new 0 0 16 16;" xml:space="preserve">
<style type="text/css">
	.st0{fill:#030202;}
</style>
<g>
	<path class="st0" d="M12.5,3.8c-0.1,0-0.3,0-0.4,0c-0.4-1.8-2-3-3.8-3c-1.9,0-3.5,1.3-3.8,3.1c-0.3-0.1-0.6-0.1-1-0.1
		C1.6,3.8,0,5.4,0,7.3c0,1.9,1.6,3.5,3.5,3.5h9c1.9,0,3.5-1.6,3.5-3.5C16,5.4,14.4,3.8,12.5,3.8z M12.5,10.2h-9
		c-1.6,0-2.9-1.3-2.9-2.9c0-1.6,1.3-2.9,2.9-2.9c0.4,0,0.7,0.1,1.1,0.2L5,4.8l0-0.4c0.2-1.7,1.6-2.9,3.3-2.9c1.6,0,3,1.2,3.3,2.8
		l0,0.3l0.3-0.1c0.2,0,0.4-0.1,0.6-0.1c1.6,0,2.9,1.3,2.9,2.9C15.4,8.9,14.1,10.2,12.5,10.2z"/>
	<rect x="3.1" y="11.8" transform="matrix(-0.8944 -0.4472 0.4472 -0.8944 0.3349 27.1298)" class="st0" width="0.6" height="3.4"/>
	<rect x="5.5" y="11.8" transform="matrix(-0.8945 -0.4472 0.4472 -0.8945 5.0049 28.2321)" class="st0" width="0.6" height="3.4"/>
	<rect x="8" y="11.8" transform="matrix(-0.8945 -0.4471 0.4471 -0.8945 9.6742 29.3341)" class="st0" width="0.6" height="3.4"/>
	
		<rect x="10.5" y="11.8" transform="matrix(-0.8945 -0.4471 0.4471 -0.8945 14.3465 30.4369)" class="st0" width="0.6" height="3.4"/>
</g>
</svg>
