<?xml version="1.0" encoding="utf-8"?>
<!-- Generator: Adobe Illustrator 19.1.1, SVG Export Plug-In . SVG Version: 6.00 Build 0)  -->
<svg version="1.1" id="Layer_1" xmlns="http://www.w3.org/2000/svg" xmlns:xlink="http://www.w3.org/1999/xlink" x="0px" y="0px"
	 viewBox="0 0 16 16" style="enable-background:new 0 0 16 16;" xml:space="preserve">
<style type="text/css">
	.st0{fill:#070404;}
</style>
<g>
	<rect x="4.4" y="2.3" class="st0" width="0.5" height="1.5"/>
	<rect x="0" y="6.6" class="st0" width="1.5" height="0.5"/>
	<rect x="7.1" y="3.4" transform="matrix(0.7071 0.7071 -0.7071 0.7071 5.095 -3.9905)" class="st0" width="0.5" height="1.5"/>
	<rect x="1.1" y="3.9" transform="matrix(0.7071 0.7071 -0.7071 0.7071 3.4953 -0.129)" class="st0" width="1.5" height="0.5"/>
	<path class="st0" d="M13,7.7c-0.1,0-0.2,0-0.3,0c-0.4-1.5-1.7-2.6-3.3-2.6c-0.9,0-1.7,0.3-2.3,0.9C6.7,5,5.7,4.3,4.6,4.3
		c-1.4,0-2.6,1.2-2.6,2.6c0,0.7,0.3,1.4,0.8,1.9C2.8,8.9,2.7,9.1,2.6,9.2L2.3,8.9L1.2,10l0.4,0.4l1-1c-0.2,0.4-0.3,0.9-0.3,1.4
		c0,1.7,1.4,3,3,3H13c1.7,0,3-1.4,3-3S14.6,7.7,13,7.7z M2.6,6.9c0-1.1,0.9-2.1,2.1-2.1c1,0,1.8,0.7,2,1.7C6.4,6.9,6.1,7.3,6,7.8
		C5.8,7.8,5.5,7.7,5.2,7.7C4.5,7.7,3.8,8,3.3,8.4C2.8,8,2.6,7.5,2.6,6.9z M13,13.2H5.2c-1.4,0-2.5-1.1-2.5-2.5
		c0-1.4,1.1-2.5,2.5-2.5c0.3,0,0.6,0.1,0.9,0.2l0.3,0.1l0-0.3c0.2-1.5,1.4-2.5,2.8-2.5c1.4,0,2.6,1,2.8,2.4l0,0.3l0.3-0.1
		c0.2,0,0.3,0,0.5,0c1.4,0,2.5,1.1,2.5,2.5C15.5,12.1,14.4,13.2,13,13.2z"/>
</g>
</svg>
