<?xml version="1.0" encoding="utf-8"?>
<!-- Generator: Adobe Illustrator 19.0.0, SVG Export Plug-In . SVG Version: 6.00 Build 0)  -->
<svg version="1.1" id="Layer_1" xmlns="http://www.w3.org/2000/svg" xmlns:xlink="http://www.w3.org/1999/xlink" x="0px" y="0px"
	 viewBox="0 0 16 16" style="enable-background:new 0 0 16 16;" xml:space="preserve">
<path d="M12.5,3c-0.1,0-0.3,0-0.4,0c-0.4-1.8-2-3-3.8-3C6.4,0,4.8,1.3,4.4,3.1C4.1,3,3.8,3,3.5,3C1.5,3-0.1,4.6-0.1,6.5
	S1.5,10,3.5,10h4.1l-1.5,3.1h1.5l-1.3,2.6L6.8,16l1.8-3.5H7.1L8.3,10h4.2c1.9,0,3.5-1.6,3.5-3.5S14.5,3,12.5,3z M12.5,9.4H3.5
	c-1.6,0-2.9-1.3-2.9-2.9s1.3-2.9,2.9-2.9c0.4,0,0.8,0.1,1.1,0.2L4.9,4l0-0.4c0.2-1.7,1.6-3,3.3-3c1.6,0,3,1.2,3.3,2.8l0.1,0.3
	L12,3.7c0.2,0,0.4-0.1,0.6-0.1c1.6,0,2.9,1.3,2.9,2.9S14.1,9.4,12.5,9.4z"/>
</svg>
