<?xml version="1.0" encoding="utf-8"?>
<!-- Generator: Adobe Illustrator 19.0.0, SVG Export Plug-In . SVG Version: 6.00 Build 0)  -->
<svg version="1.1" id="Layer_1" xmlns="http://www.w3.org/2000/svg" xmlns:xlink="http://www.w3.org/1999/xlink" x="0px" y="0px"
	 viewBox="0 0 16 16" style="enable-background:new 0 0 16 16;" xml:space="preserve">
<g id="XMLID_2_">
	<path id="XMLID_5_" d="M12.4,3.3c-0.1,0-0.3,0-0.4,0c-0.4-1.7-1.9-2.9-3.7-2.9c-1.8,0-3.4,1.3-3.7,3C4.3,3.3,4,3.3,3.6,3.3
		c-1.9,0-3.4,1.5-3.4,3.4S1.8,10,3.6,10h8.7c1.9,0,3.4-1.5,3.4-3.4S14.2,3.3,12.4,3.3z M12.4,9.4H3.6c-1.5,0-2.8-1.3-2.8-2.8
		c0-1.5,1.3-2.8,2.8-2.8c0.4,0,0.7,0.1,1.1,0.2l0.4,0.1l0-0.4C5.3,2.2,6.7,1,8.3,1c1.6,0,2.9,1.1,3.2,2.7l0,0.3l0.3-0.1
		c0.2,0,0.4-0.1,0.6-0.1c1.5,0,2.8,1.3,2.8,2.8C15.2,8.2,13.9,9.4,12.4,9.4z"/>
	<polygon id="XMLID_4_" points="5.9,11.3 4.5,12.2 4.5,10.5 3.9,10.5 3.9,12.2 2.4,11.3 2.1,11.8 3.6,12.7 2.1,13.5 2.4,14 
		3.9,13.2 3.9,14.9 4.5,14.9 4.5,13.2 5.9,14 6.2,13.5 4.8,12.7 6.2,11.8 	"/>
	<polygon id="XMLID_3_" points="10.8,12.1 9.3,12.9 9.3,11.2 8.8,11.2 8.8,12.9 7.3,12.1 7,12.6 8.5,13.4 7,14.3 7.3,14.8 8.8,13.9 
		8.8,15.6 9.3,15.6 9.3,13.9 10.8,14.8 11.1,14.3 9.6,13.4 11.1,12.6 	"/>
</g>
</svg>
