<?xml version="1.0" encoding="iso-8859-1"?>
<!-- Generator: Adobe Illustrator 15.1.0, SVG Export Plug-In . SVG Version: 6.00 Build 0)  -->
<!DOCTYPE svg PUBLIC "-//W3C//DTD SVG 1.1//EN" "http://www.w3.org/Graphics/SVG/1.1/DTD/svg11.dtd">
<svg version="1.1" id="Layer_1" xmlns="http://www.w3.org/2000/svg" xmlns:xlink="http://www.w3.org/1999/xlink" x="0px" y="0px"
	 width="16px" height="16px" viewBox="0 0 16 16" style="enable-background:new 0 0 16 16;" xml:space="preserve">
<g>
	<path style="fill:#FFFFFF;" d="M14.564,6.328C12.926,4.451,10.533,3.375,8,3.375c-2.532,0-4.925,1.076-6.563,2.952
		C1.254,6.535,1.275,6.852,1.483,7.033c0.208,0.179,0.523,0.16,0.706-0.048C3.638,5.326,5.756,4.375,8,4.375
		c2.245,0,4.363,0.951,5.811,2.611c0.1,0.113,0.238,0.171,0.377,0.171c0.117,0,0.234-0.041,0.328-0.123
		C14.725,6.853,14.746,6.536,14.564,6.328z"/>
	<path style="fill:#FFFFFF;" d="M8,5.69c-1.911,0-3.688,0.837-4.876,2.297C2.95,8.201,2.982,8.517,3.196,8.69
		c0.215,0.174,0.53,0.144,0.703-0.072C4.897,7.394,6.392,6.69,8,6.69s3.103,0.703,4.1,1.928c0.1,0.122,0.243,0.185,0.389,0.185
		c0.111,0,0.223-0.037,0.314-0.112c0.215-0.174,0.247-0.489,0.072-0.703C11.688,6.527,9.91,5.69,8,5.69z"/>
	<path style="fill:#FFFFFF;" d="M8,8.004c-1.287,0-2.481,0.626-3.192,1.674c-0.155,0.229-0.096,0.54,0.133,0.695
		c0.086,0.058,0.184,0.086,0.28,0.086c0.16,0,0.317-0.077,0.414-0.219C6.16,9.466,7.044,9.004,8,9.004
		c0.941,0,1.819,0.451,2.346,1.208c0.156,0.227,0.468,0.281,0.696,0.124c0.227-0.158,0.282-0.47,0.124-0.696
		C10.451,8.615,9.268,8.004,8,8.004z"/>
	<ellipse style="fill:#FFFFFF;" cx="8" cy="11.725" rx="0.913" ry="0.9"/>
</g>
</svg>
