<?xml version="1.0" encoding="iso-8859-1"?>
<!-- Generator: Adobe Illustrator 15.1.0, SVG Export Plug-In . SVG Version: 6.00 Build 0)  -->
<!DOCTYPE svg PUBLIC "-//W3C//DTD SVG 1.1//EN" "http://www.w3.org/Graphics/SVG/1.1/DTD/svg11.dtd">
<svg version="1.1" id="Layer_1" xmlns="http://www.w3.org/2000/svg" xmlns:xlink="http://www.w3.org/1999/xlink" x="0px" y="0px"
	 width="16px" height="16px" viewBox="0 0 16 16" style="enable-background:new 0 0 16 16;" xml:space="preserve">
<g>
	<path style="fill:#FFFFFF;" d="M7.129,1.238H1.738c-0.276,0-0.5,0.224-0.5,0.5v5.391c0,0.276,0.224,0.5,0.5,0.5h5.391
		c0.276,0,0.5-0.224,0.5-0.5V1.738C7.629,1.461,7.405,1.238,7.129,1.238z M6.629,6.628H2.238V2.238h4.391V6.628z"/>
	<path style="fill:#FFFFFF;" d="M14.262,1.238H8.871c-0.276,0-0.5,0.224-0.5,0.5v5.391c0,0.276,0.224,0.5,0.5,0.5h5.391
		c0.276,0,0.5-0.224,0.5-0.5V1.738C14.762,1.461,14.538,1.238,14.262,1.238z M13.762,6.628H9.371V2.238h4.391V6.628z"/>
	<path style="fill:#FFFFFF;" d="M7.129,8.372H1.738c-0.276,0-0.5,0.224-0.5,0.5v5.39c0,0.277,0.224,0.5,0.5,0.5h5.391
		c0.276,0,0.5-0.223,0.5-0.5v-5.39C7.629,8.595,7.405,8.372,7.129,8.372z M6.629,13.762H2.238V9.371h4.391V13.762z"/>
	<path style="fill:#FFFFFF;" d="M14.262,8.372H8.871c-0.276,0-0.5,0.224-0.5,0.5v5.39c0,0.277,0.224,0.5,0.5,0.5h5.391
		c0.276,0,0.5-0.223,0.5-0.5v-5.39C14.762,8.595,14.538,8.372,14.262,8.372z M13.762,13.762H9.371V9.371h4.391V13.762z"/>
</g>
</svg>
