<?xml version="1.0" encoding="utf-8"?>
<!-- Generator: Adobe Illustrator 19.1.1, SVG Export Plug-In . SVG Version: 6.00 Build 0)  -->
<svg version="1.1" id="Layer_1" xmlns="http://www.w3.org/2000/svg" xmlns:xlink="http://www.w3.org/1999/xlink" x="0px" y="0px"
	 viewBox="0 0 16 16" style="enable-background:new 0 0 16 16;" xml:space="preserve">
<style type="text/css">
	.st0{fill:#0D0607;}
</style>
<path class="st0" d="M15.5,13.3L5.6,3.4c0.2-0.9-0.1-1.9-0.8-2.6c-0.7-0.7-1.7-1-2.7-0.7L1.7,0.3L3.4,2L2,3.4L0.3,1.7L0.2,2.2
	c-0.3,1,0,2,0.7,2.7c0.7,0.7,1.6,1,2.6,0.8l9.9,9.9c0.3,0.3,0.7,0.4,1.1,0.4c0.4,0,0.8-0.2,1.1-0.4c0.3-0.3,0.4-0.7,0.4-1.1
	C15.9,14,15.8,13.6,15.5,13.3z M15.1,15.1c-0.4,0.4-1.1,0.4-1.4,0L3.6,5.1l-0.1,0c-0.8,0.2-1.7,0-2.2-0.6C0.8,4,0.5,3.4,0.6,2.8
	L2,4.1L4.1,2L2.8,0.6c0.7,0,1.3,0.2,1.7,0.7c0.6,0.6,0.8,1.4,0.6,2.2l0,0.1l10.1,10.1c0.2,0.2,0.3,0.5,0.3,0.7S15.3,14.9,15.1,15.1z
	"/>
</svg>
